<svg width="22" height="18" viewBox="0 0 22 18" fill="none" xmlns="http://www.w3.org/2000/svg">
<path d="M6.91878 18C15.221 18 19.7613 11.0756 19.7613 5.07096C19.7613 4.87431 19.7573 4.67856 19.7485 4.48362C20.6319 3.84008 21.3943 3.04328 22 2.13057C21.1912 2.49255 20.3209 2.73618 19.4079 2.84602C20.3398 2.28348 21.0553 1.39351 21.3928 0.332685C20.5068 0.861838 19.5374 1.23486 18.5266 1.43568C17.703 0.55242 16.5304 0 15.2319 0C12.7393 0 10.718 2.03499 10.718 4.54343C10.718 4.90005 10.7576 5.24682 10.8351 5.57955C7.08369 5.38951 3.75722 3.58133 1.53097 0.83187C1.13 1.52534 0.919096 2.31348 0.919797 3.1158C0.919797 4.69233 1.71663 6.08404 2.92841 6.89828C2.21163 6.87624 1.51057 6.68132 0.884203 6.32993C0.883533 6.349 0.883533 6.36759 0.883533 6.38798C0.883533 8.58861 2.43936 10.426 4.50468 10.8423C4.11678 10.9487 3.71652 11.0025 3.31449 11.0022C3.02415 11.0022 2.74119 10.9735 2.46619 10.9203C3.04083 12.7258 4.70711 14.0397 6.68268 14.0764C5.1378 15.2954 3.19174 16.0215 1.07666 16.0215C0.716855 16.0218 0.357347 16.0008 0 15.9585C1.99762 17.2476 4.36959 17.9997 6.919 17.9997" fill="white"/>
</svg>
