<svg width="497" height="257" viewBox="0 0 497 257" fill="none" xmlns="http://www.w3.org/2000/svg">
<mask id="mask0" mask-type="alpha" maskUnits="userSpaceOnUse" x="0" y="67" width="497" height="190">
<rect x="0.0776367" y="67.7365" width="496.845" height="189.264" fill="#1C85C8"/>
</mask>
<g mask="url(#mask0)">
<ellipse cx="376.522" cy="541.907" rx="470.936" ry="469.11" fill="white"/>
</g>
<path d="M429.389 222.613H370.84V228.388H429.389V222.613Z" fill="#454545"/>
<path d="M226.323 66.2211V57.2795L220.681 56.5174C220.426 55.1203 220.043 53.774 219.583 52.4785L224.102 49.0238L219.609 41.2761L214.324 43.4353C213.405 42.3684 212.409 41.4031 211.362 40.4886L213.532 35.2303L205.745 30.7596L202.273 35.2558C200.971 34.7985 199.618 34.4429 198.214 34.1635L197.448 28.5496H188.461L187.695 34.1635C186.291 34.4175 184.938 34.7985 183.636 35.2558L180.163 30.7596L172.325 35.2049L174.496 40.4632C173.423 41.3777 172.453 42.3684 171.534 43.4099L166.249 41.2507L161.756 48.9984L166.275 52.4531C165.815 53.7486 165.458 55.0949 165.177 56.492L159.534 57.2541V66.1957L165.177 66.9577C165.432 68.3549 165.815 69.7012 166.275 70.9967L161.756 74.4514L166.249 82.1991L171.534 80.0399C172.453 81.1068 173.449 82.0721 174.496 82.9865L172.325 88.2448L180.112 92.7156L183.585 88.2194C184.887 88.6767 186.24 89.0323 187.644 89.3117L188.41 94.9256H197.397L198.163 89.3117C199.567 89.0577 200.92 88.6767 202.222 88.2194L205.694 92.7156L213.481 88.2448L211.311 82.9865C212.383 82.0721 213.354 81.0814 214.273 80.0399L219.558 82.1991L224.051 74.4514L219.532 70.9967C219.992 69.7012 220.349 68.3549 220.63 66.9577L226.323 66.2211ZM192.929 79.9129C182.844 79.9129 174.674 71.7842 174.674 61.7503C174.674 51.7164 182.844 43.5877 192.929 43.5877C203.014 43.5877 211.184 51.7164 211.184 61.7503C211.184 71.7588 203.014 79.9129 192.929 79.9129Z" fill="#E2EEF5"/>
<path d="M135.88 103.69V99.4119L133.187 99.0473C133.065 98.3789 132.882 97.7347 132.663 97.1149L134.82 95.4621L132.675 91.7554L130.152 92.7884C129.713 92.278 129.238 91.8161 128.739 91.3786L129.774 88.8629L126.058 86.724L124.4 88.8751C123.779 88.6563 123.133 88.4862 122.463 88.3525L122.097 85.6666H117.807L117.442 88.3525C116.771 88.474 116.126 88.6563 115.504 88.8751L113.847 86.724L110.105 88.8508L111.141 91.3665C110.629 91.804 110.166 92.278 109.728 92.7762L107.205 91.7432L105.06 95.4499L107.217 97.1028C106.998 97.7226 106.827 98.3667 106.693 99.0351L104 99.3997V103.678L106.693 104.042C106.815 104.711 106.998 105.355 107.217 105.975L105.06 107.627L107.205 111.334L109.728 110.301C110.166 110.812 110.642 111.273 111.141 111.711L110.105 114.227L113.822 116.366L115.48 114.214C116.101 114.433 116.747 114.603 117.417 114.737L117.783 117.423H122.073L122.438 114.737C123.108 114.616 123.754 114.433 124.376 114.214L126.033 116.366L129.75 114.227L128.714 111.711C129.226 111.273 129.689 110.799 130.128 110.301L132.65 111.334L134.795 107.627L132.638 105.975C132.858 105.355 133.028 104.711 133.162 104.042L135.88 103.69ZM119.94 110.24C115.126 110.24 111.227 106.351 111.227 101.551C111.227 96.7503 115.126 92.8613 119.94 92.8613C124.754 92.8613 128.653 96.7503 128.653 101.551C128.653 106.339 124.754 110.24 119.94 110.24Z" fill="#E2EEF5"/>
<path fill-rule="evenodd" clip-rule="evenodd" d="M370.84 85.2958H429.725C433.827 85.2958 437.193 88.6569 437.193 92.7514V216.991C437.193 221.086 433.827 224.447 429.725 224.447H370.84C366.739 224.447 363.372 221.086 363.372 216.991V92.7208C363.372 88.6264 366.739 85.2958 370.84 85.2958Z" fill="#125682"/>
<path d="M432.725 95.3474H368.82V200.276H432.725V95.3474Z" fill="#A4CEE9"/>
<path d="M367.933 106.134V95.3477V94.4922H368.79H432.694H433.551V95.3477V106.134V106.99V115.087V117.776V118.631V126.729V129.418V130.273V138.37V141.059V141.915V150.012V152.701V153.557V161.654V164.343V165.198V173.296V175.985V176.84V184.937V187.626V188.482V189.338V200.124V200.979H432.694H368.79H367.933V200.124V189.338V188.482V187.626V177.696V176.84V183.196V166.054V165.198V171.554V154.504V153.648V160.004V142.862V141.976V148.332V131.19V130.334V136.69V119.548V118.692V125.048V107.906V107.051V106.134ZM385.347 111.817H415.463C416.504 111.817 417.422 112.459 417.851 113.345H431.868V96.2033H369.708V113.345H382.991C383.389 112.459 384.307 111.817 385.347 111.817ZM385.347 134.826H415.463C416.626 134.826 417.636 135.59 417.973 136.659H431.868V133.084V126.729V124.987V120.037V115.087H418.004C417.698 116.217 416.688 117.042 415.463 117.042H385.347C384.123 117.042 383.113 116.217 382.807 115.087H369.677V120.037V124.987V126.729V133.084V136.659H382.838C383.174 135.59 384.184 134.826 385.347 134.826ZM385.347 158.537H415.463C416.473 158.537 417.392 159.148 417.82 160.004H431.868V156.49V150.104V148.362V143.443V138.431H417.881C417.483 139.379 416.565 140.081 415.463 140.081H385.347C384.245 140.081 383.297 139.409 382.929 138.431H369.677V143.443V148.362V150.104V156.49V160.004H382.991C383.419 159.118 384.337 158.537 385.347 158.537ZM385.347 181.882H415.463C416.473 181.882 417.361 182.462 417.789 183.318H431.837V180.874V173.418V171.676V167.826V161.746H418.004C417.728 162.907 416.688 163.762 415.463 163.762H385.347C384.123 163.762 383.082 162.907 382.807 161.746H369.677V167.826V171.676V173.418V180.874V183.318H383.021C383.45 182.462 384.337 181.882 385.347 181.882ZM369.677 199.39H431.837V195.663V189.46V187.718V189.826V185.029H418.004C417.759 186.19 416.688 187.076 415.463 187.076H385.347C384.092 187.076 383.052 186.19 382.807 185.029H369.677V189.826V187.718V189.46V195.663V199.39V199.39Z" fill="#1C85C8"/>
<path d="M378.308 205.615H370.167V213.743H378.308V205.615Z" fill="#4895D1"/>
<path d="M388.163 207.977H384.062V212.072H388.163V207.977Z" fill="#E2EEF5"/>
<path d="M395.202 207.977H391.101V212.072H395.202V207.977Z" fill="#E2EEF5"/>
<path d="M402.242 207.977H398.14V212.072H402.242V207.977Z" fill="#E2EEF5"/>
<path d="M409.281 207.977H405.18V212.072H409.281V207.977Z" fill="#E2EEF5"/>
<path d="M416.32 207.977H412.219V212.072H416.32V207.977Z" fill="#1C85C8"/>
<path d="M400.589 123.644H381.185V127.432H400.589V123.644Z" fill="#D4ECFD"/>
<path d="M400.589 101.644H381.185V105.433H400.589V101.644Z" fill="#D4ECFD"/>
<path d="M400.589 191.507H381.185V195.296H400.589V191.507Z" fill="#D4ECFD"/>
<path d="M400.589 169.844H381.185V173.633H400.589V169.844Z" fill="#D4ECFD"/>
<path d="M400.589 146.438H381.185V150.227H400.589V146.438Z" fill="#D4ECFD"/>
<path d="M406.07 58.8939H192.075V181.362H406.07V58.8939Z" fill="#686868"/>
<path d="M397.286 67.9711H200.858V192.7H397.286V67.9711Z" fill="white"/>
<path fill-rule="evenodd" clip-rule="evenodd" d="M282.3 199.788C281.443 215.463 279.117 219.435 263.202 228.388H298.521H333.841C317.895 219.435 315.6 215.494 314.743 199.788L298.521 198.505L282.3 199.788Z" fill="#686868"/>
<path fill-rule="evenodd" clip-rule="evenodd" d="M406.07 181.362V189.46C406.07 196.243 400.531 201.774 393.736 201.774H204.409C197.614 201.774 192.075 196.243 192.075 189.46V181.362H406.07Z" fill="#686868"/>
<path fill-rule="evenodd" clip-rule="evenodd" d="M289.952 189.705C291.176 189.705 292.156 190.683 292.156 191.905C292.156 193.128 291.176 194.105 289.952 194.105C288.728 194.105 287.748 193.128 287.748 191.905C287.748 190.683 288.728 189.705 289.952 189.705Z" fill="#E2EEF5"/>
<path fill-rule="evenodd" clip-rule="evenodd" d="M298.062 189.705C299.287 189.705 300.266 190.683 300.266 191.905C300.266 193.128 299.287 194.105 298.062 194.105C296.838 194.105 295.859 193.128 295.859 191.905C295.889 190.683 296.869 189.705 298.062 189.705Z" fill="#F6FBFF"/>
<path fill-rule="evenodd" clip-rule="evenodd" d="M306.204 189.705C307.428 189.705 308.407 190.683 308.407 191.905C308.407 193.128 307.428 194.105 306.204 194.105C304.979 194.105 304 193.128 304 191.905C304 190.683 304.979 189.705 306.204 189.705Z" fill="#F6FBFF"/>
<path d="M263.264 80.6804H206.949V167.551H263.264V80.6804Z" fill="#A4CEE9"/>
<path fill-rule="evenodd" clip-rule="evenodd" d="M213.07 157.316H247.349C248.114 157.316 248.757 157.957 248.757 158.721C248.757 159.485 248.114 160.127 247.349 160.127H213.07C212.305 160.127 211.663 159.485 211.663 158.721C211.663 157.957 212.305 157.316 213.07 157.316Z" fill="#E2EEF5"/>
<path fill-rule="evenodd" clip-rule="evenodd" d="M213.07 133.115H231.954C232.719 133.115 233.362 133.756 233.362 134.52C233.362 135.284 232.719 135.926 231.954 135.926H213.07C212.305 135.926 211.663 135.315 211.663 134.52C211.663 133.726 212.305 133.115 213.07 133.115Z" fill="#E2EEF5"/>
<path fill-rule="evenodd" clip-rule="evenodd" d="M237.861 133.115H256.745C257.51 133.115 258.153 133.756 258.153 134.52C258.153 135.284 257.51 135.926 256.745 135.926H237.861C237.096 135.926 236.453 135.315 236.453 134.52C236.453 133.726 237.096 133.115 237.861 133.115Z" fill="#E2EEF5"/>
<path fill-rule="evenodd" clip-rule="evenodd" d="M213.07 140.816H225.833C226.598 140.816 227.241 141.457 227.241 142.221C227.241 142.985 226.598 143.627 225.833 143.627H213.07C212.305 143.627 211.663 142.985 211.663 142.221C211.663 141.427 212.305 140.816 213.07 140.816Z" fill="#E2EEF5"/>
<path fill-rule="evenodd" clip-rule="evenodd" d="M213.07 149.707H231.954C232.719 149.707 233.362 150.348 233.362 151.112C233.362 151.876 232.719 152.518 231.954 152.518H213.07C212.305 152.518 211.663 151.876 211.663 151.112C211.663 150.348 212.305 149.707 213.07 149.707Z" fill="#E2EEF5"/>
<path fill-rule="evenodd" clip-rule="evenodd" d="M237.861 149.707H256.745C257.51 149.707 258.153 150.348 258.153 151.112C258.153 151.876 257.51 152.518 256.745 152.518H237.861C237.096 152.518 236.453 151.876 236.453 151.112C236.453 150.348 237.096 149.707 237.861 149.707Z" fill="#E2EEF5"/>
<path d="M381.127 73.9892H223.905C223.507 73.9892 223.14 74.142 222.895 74.3864C222.65 74.6308 222.466 74.9975 222.466 75.3642C222.466 75.7614 222.619 76.0975 222.895 76.342C223.14 76.5864 223.507 76.7392 223.905 76.7392H381.157C381.555 76.7392 381.923 76.5864 382.167 76.342C382.412 76.0975 382.596 75.7309 382.596 75.3642C382.596 74.967 382.443 74.6308 382.167 74.3864C381.892 74.142 381.525 73.9892 381.127 73.9892ZM223.905 73.4697H381.157C381.708 73.4697 382.198 73.6836 382.535 74.0197C382.902 74.3558 383.116 74.8447 383.116 75.3642C383.116 75.8836 382.902 76.3725 382.535 76.7086C382.167 77.0448 381.678 77.2587 381.157 77.2587H223.905C223.354 77.2587 222.864 77.0448 222.528 76.7086C222.16 76.3725 221.946 75.8836 221.946 75.3642C221.946 74.8447 222.16 74.3558 222.528 74.0197C222.864 73.6836 223.354 73.4697 223.905 73.4697Z" fill="#E2EEF5"/>
<path d="M217.998 73.3177H214.111V77.4428H217.998V73.3177Z" fill="#E2EEF5"/>
<path d="M211.173 73.3177H207.286V77.4428H211.173V73.3177Z" fill="#E2EEF5"/>
<path d="M315.171 201.775H281.596V206.236H315.171V201.775Z" fill="#454545"/>
<path fill-rule="evenodd" clip-rule="evenodd" d="M257.515 0C250.62 0 245 6.38611 245 13.127C245 19.8679 249.101 24.551 254.629 25.8992H270V13.127C270.03 5.85394 264.441 0 257.515 0Z" fill="#DEECFD"/>
<path fill-rule="evenodd" clip-rule="evenodd" d="M257 0H257.123H257ZM269.791 31.4673H269.76V167.349H391V64.433V31.4673V12.6005C391 5.65322 385.342 0 378.332 0H257.123C264.103 0 269.791 5.65322 269.791 12.6005V31.4673V31.4673Z" fill="#A4CEE9"/>
<path fill-rule="evenodd" clip-rule="evenodd" d="M315.221 38.4631V34.9205L324.152 31.4749L315.221 28.0293V24.5352L328 29.9705V32.9793L315.221 38.4631ZM303.824 40.841L308.462 21.9147H311.126L306.489 40.841H303.824ZM299.779 38.4146L287 32.9308V29.922L299.779 24.4867V28.0293L290.848 31.3779L299.779 34.8719V38.4146Z" fill="#E2EEF5"/>
<path fill-rule="evenodd" clip-rule="evenodd" d="M287.963 53.2734H305.989C306.571 53.2734 307.061 53.7623 307.061 54.3429C307.061 54.9235 306.571 55.4123 305.989 55.4123H287.963C287.381 55.4123 286.891 54.9235 286.891 54.3429C286.891 53.7623 287.381 53.2734 287.963 53.2734Z" fill="#E2EEF5"/>
<path fill-rule="evenodd" clip-rule="evenodd" d="M311.193 53.2734H321.109C321.69 53.2734 322.18 53.7623 322.18 54.3429C322.18 54.9235 321.69 55.4123 321.109 55.4123H311.193C310.611 55.4123 310.121 54.9235 310.121 54.3429C310.121 53.7623 310.611 53.2734 311.193 53.2734Z" fill="#E2EEF5"/>
<path fill-rule="evenodd" clip-rule="evenodd" d="M293.931 60.4243H314.314C314.896 60.4243 315.385 60.9132 315.385 61.4938C315.385 62.0743 314.896 62.5632 314.314 62.5632H293.931C293.349 62.5632 292.86 62.0743 292.86 61.4938C292.86 60.9132 293.319 60.4243 293.931 60.4243Z" fill="#E2EEF5"/>
<path fill-rule="evenodd" clip-rule="evenodd" d="M319.884 60.4243H331.209C331.79 60.4243 332.28 60.9132 332.28 61.4938C332.28 62.0743 331.79 62.5632 331.209 62.5632H319.884C319.303 62.5632 318.813 62.0743 318.813 61.4938C318.813 60.9132 319.272 60.4243 319.884 60.4243Z" fill="#E2EEF5"/>
<path fill-rule="evenodd" clip-rule="evenodd" d="M336.932 60.4243H351.01C351.592 60.4243 352.082 60.9132 352.082 61.4938C352.082 62.0743 351.592 62.5632 351.01 62.5632H336.932C336.35 62.5632 335.861 62.0743 335.861 61.4938C335.861 60.9132 336.35 60.4243 336.932 60.4243Z" fill="#E2EEF5"/>
<path fill-rule="evenodd" clip-rule="evenodd" d="M293.931 67.939H321.048C321.629 67.939 322.119 68.4279 322.119 69.0084C322.119 69.589 321.629 70.0779 321.048 70.0779H293.931C293.349 70.0779 292.86 69.589 292.86 69.0084C292.86 68.3973 293.319 67.939 293.931 67.939Z" fill="#E2EEF5"/>
<path fill-rule="evenodd" clip-rule="evenodd" d="M326.557 67.939H339.533C340.115 67.939 340.605 68.4279 340.605 69.0084C340.605 69.589 340.115 70.0779 339.533 70.0779H326.557C325.975 70.0779 325.485 69.589 325.485 69.0084C325.485 68.3973 325.975 67.939 326.557 67.939Z" fill="#E2EEF5"/>
<path fill-rule="evenodd" clip-rule="evenodd" d="M344.706 67.939H366.038C366.62 67.939 367.109 68.4279 367.109 69.0084C367.109 69.589 366.62 70.0779 366.038 70.0779H344.706C344.124 70.0779 343.635 69.589 343.635 69.0084C343.635 68.3973 344.124 67.939 344.706 67.939Z" fill="#E2EEF5"/>
<path fill-rule="evenodd" clip-rule="evenodd" d="M293.931 75.2742H304.061C304.643 75.2742 305.132 75.7631 305.132 76.3436C305.132 76.9242 304.643 77.4131 304.061 77.4131H293.9C293.319 77.4131 292.829 76.9242 292.829 76.3436C292.859 75.7631 293.319 75.2742 293.931 75.2742Z" fill="#E2EEF5"/>
<path fill-rule="evenodd" clip-rule="evenodd" d="M309.05 75.2742H345.134C345.716 75.2742 346.206 75.7631 346.206 76.3436C346.206 76.9242 345.716 77.4131 345.134 77.4131H309.05C308.469 77.4131 307.979 76.9242 307.979 76.3436C307.979 75.7631 308.469 75.2742 309.05 75.2742Z" fill="#E2EEF5"/>
<path fill-rule="evenodd" clip-rule="evenodd" d="M293.931 82.3607H321.048C321.629 82.3607 322.119 82.8496 322.119 83.4302C322.119 84.0107 321.629 84.4996 321.048 84.4996H293.931C293.349 84.4996 292.86 84.0107 292.86 83.4302C292.86 82.8496 293.319 82.3607 293.931 82.3607Z" fill="#E2EEF5"/>
<path fill-rule="evenodd" clip-rule="evenodd" d="M326.557 82.3607H339.533C340.115 82.3607 340.605 82.8496 340.605 83.4302C340.605 84.0107 340.115 84.4996 339.533 84.4996H326.557C325.975 84.4996 325.485 84.0107 325.485 83.4302C325.485 82.8496 325.975 82.3607 326.557 82.3607Z" fill="#E2EEF5"/>
<path fill-rule="evenodd" clip-rule="evenodd" d="M293.931 89.8477H321.048C321.629 89.8477 322.119 90.3365 322.119 90.9171C322.119 91.4977 321.629 91.9866 321.048 91.9866H293.931C293.349 91.9866 292.86 91.4977 292.86 90.9171C292.86 90.306 293.319 89.8477 293.931 89.8477Z" fill="#E2EEF5"/>
<path fill-rule="evenodd" clip-rule="evenodd" d="M326.557 89.8477H339.533C340.115 89.8477 340.605 90.3365 340.605 90.9171C340.605 91.4977 340.115 91.9866 339.533 91.9866H326.557C325.975 91.9866 325.485 91.4977 325.485 90.9171C325.485 90.306 325.975 89.8477 326.557 89.8477Z" fill="#E2EEF5"/>
<path fill-rule="evenodd" clip-rule="evenodd" d="M287.963 96.9065H309.754C310.335 96.9065 310.825 97.3954 310.825 97.9759C310.825 98.5565 310.335 99.0454 309.754 99.0454H287.963C287.381 99.0454 286.891 98.5565 286.891 97.9759C286.891 97.3648 287.381 96.9065 287.963 96.9065Z" fill="#E2EEF5"/>
<path fill-rule="evenodd" clip-rule="evenodd" d="M315.508 96.9065H327.658C328.24 96.9065 328.73 97.3954 328.73 97.9759C328.73 98.5565 328.24 99.0454 327.658 99.0454H315.508C314.926 99.0454 314.437 98.5565 314.437 97.9759C314.437 97.3648 314.926 96.9065 315.508 96.9065Z" fill="#E2EEF5"/>
<path fill-rule="evenodd" clip-rule="evenodd" d="M293.931 105.646H323.771C324.353 105.646 324.843 106.134 324.843 106.715C324.843 107.296 324.353 107.784 323.771 107.784H293.931C293.349 107.784 292.86 107.296 292.86 106.715C292.86 106.104 293.319 105.646 293.931 105.646Z" fill="#E2EEF5"/>
<path fill-rule="evenodd" clip-rule="evenodd" d="M329.587 105.646H343.971C344.553 105.646 345.042 106.134 345.042 106.715C345.042 107.296 344.553 107.784 343.971 107.784H329.587C329.005 107.784 328.515 107.296 328.515 106.715C328.515 106.104 329.005 105.646 329.587 105.646Z" fill="#E2EEF5"/>
<path fill-rule="evenodd" clip-rule="evenodd" d="M293.931 113.192H321.231C321.813 113.192 322.302 113.681 322.302 114.262C322.302 114.842 321.813 115.331 321.231 115.331H293.931C293.349 115.331 292.86 114.842 292.86 114.262C292.86 113.651 293.319 113.192 293.931 113.192Z" fill="#E2EEF5"/>
<path fill-rule="evenodd" clip-rule="evenodd" d="M326.771 113.192H339.87C340.451 113.192 340.941 113.681 340.941 114.262C340.941 114.842 340.451 115.331 339.87 115.331H326.771C326.189 115.331 325.699 114.842 325.699 114.262C325.699 113.651 326.189 113.192 326.771 113.192Z" fill="#E2EEF5"/>
<path fill-rule="evenodd" clip-rule="evenodd" d="M293.931 120.403H303.296C303.878 120.403 304.367 120.892 304.367 121.473C304.367 122.053 303.878 122.542 303.296 122.542H293.931C293.349 122.542 292.86 122.053 292.86 121.473C292.86 120.892 293.319 120.403 293.931 120.403Z" fill="#E2EEF5"/>
<path fill-rule="evenodd" clip-rule="evenodd" d="M308.346 120.403H345.165C345.746 120.403 346.236 120.892 346.236 121.473C346.236 122.053 345.746 122.542 345.165 122.542H308.346C307.765 122.542 307.275 122.053 307.275 121.473C307.275 120.892 307.765 120.403 308.346 120.403Z" fill="#E2EEF5"/>
<path fill-rule="evenodd" clip-rule="evenodd" d="M293.931 127.798H317.252C317.834 127.798 318.324 128.287 318.324 128.868C318.324 129.448 317.834 129.937 317.252 129.937H293.931C293.349 129.937 292.86 129.448 292.86 128.868C292.86 128.256 293.319 127.798 293.931 127.798Z" fill="#E2EEF5"/>
<path fill-rule="evenodd" clip-rule="evenodd" d="M322.333 127.798H333.351C333.933 127.798 334.422 128.287 334.422 128.868C334.422 129.448 333.933 129.937 333.351 129.937H322.333C321.751 129.937 321.262 129.448 321.262 128.868C321.262 128.256 321.751 127.798 322.333 127.798Z" fill="#E2EEF5"/>
<path fill-rule="evenodd" clip-rule="evenodd" d="M338.829 127.798H366.099C366.681 127.798 367.17 128.287 367.17 128.868C367.17 129.448 366.681 129.937 366.099 129.937H338.829C338.248 129.937 337.758 129.448 337.758 128.868C337.758 128.256 338.248 127.798 338.829 127.798Z" fill="#E2EEF5"/>
<path fill-rule="evenodd" clip-rule="evenodd" d="M293.931 134.765H303.296C303.878 134.765 304.367 135.254 304.367 135.834C304.367 136.415 303.878 136.904 303.296 136.904H293.931C293.349 136.904 292.86 136.415 292.86 135.834C292.86 135.254 293.319 134.765 293.931 134.765Z" fill="#E2EEF5"/>
<path fill-rule="evenodd" clip-rule="evenodd" d="M308.346 134.765H345.165C345.746 134.765 346.236 135.254 346.236 135.834C346.236 136.415 345.746 136.904 345.165 136.904H308.346C307.765 136.904 307.275 136.415 307.275 135.834C307.275 135.254 307.765 134.765 308.346 134.765Z" fill="#E2EEF5"/>
<path fill-rule="evenodd" clip-rule="evenodd" d="M287.963 142.374H309.754C310.335 142.374 310.825 142.863 310.825 143.443C310.825 144.024 310.335 144.513 309.754 144.513H287.963C287.381 144.513 286.891 144.024 286.891 143.443C286.891 142.863 287.381 142.374 287.963 142.374Z" fill="#E2EEF5"/>
<path fill-rule="evenodd" clip-rule="evenodd" d="M315.508 142.374H327.658C328.24 142.374 328.73 142.863 328.73 143.443C328.73 144.024 328.24 144.513 327.658 144.513H315.508C314.926 144.513 314.437 144.024 314.437 143.443C314.437 142.863 314.926 142.374 315.508 142.374Z" fill="#E2EEF5"/>
<path fill-rule="evenodd" clip-rule="evenodd" d="M370.507 50.2645V48.0339L376.046 45.8645L370.507 43.695V41.495L378.433 44.9172V46.8117L370.507 50.2645ZM363.437 51.7617L366.314 39.845H367.966L365.089 51.7617H363.437ZM360.927 50.2645L353 46.8117V44.9172L360.927 41.495V43.7256L355.387 45.8339L360.927 48.0339V50.2645Z" fill="#E2EEF5"/>
<path fill-rule="evenodd" clip-rule="evenodd" d="M75.6868 228.112H468.313C468.698 228.112 469 228.551 469 229.109C469 229.666 468.698 230.105 468.313 230.105H75.6868C75.3022 230.105 75 229.666 75 229.109C75 228.551 75.3022 228.112 75.6868 228.112Z" fill="#454545"/>
<path fill-rule="evenodd" clip-rule="evenodd" d="M217.6 88.4136H251.113C252.919 88.4136 254.357 89.8802 254.357 91.6525V121.139C254.357 122.942 252.888 124.378 251.113 124.378H217.6C215.794 124.378 214.355 122.911 214.355 121.139V91.6525C214.355 89.8802 215.825 88.4136 217.6 88.4136Z" fill="#D8E7FF"/>
<path fill-rule="evenodd" clip-rule="evenodd" d="M254.388 116.951V121.168C254.388 122.97 253.072 124.407 251.419 124.407H247.441L235.81 110.29C235.81 110.29 241.87 103.354 241.87 102.956C241.87 102.681 250.654 112.673 254.388 116.951Z" fill="#125682"/>
<path fill-rule="evenodd" clip-rule="evenodd" d="M247.44 124.407H217.324C215.702 124.407 214.355 122.941 214.355 121.168V112.491L224.761 96.8766L247.44 124.407Z" fill="#1C85C8"/>
<path fill-rule="evenodd" clip-rule="evenodd" d="M243.615 91.2539C246.125 91.2539 248.145 93.2706 248.145 95.7762C248.145 98.2817 246.125 100.298 243.615 100.298C241.105 100.298 239.085 98.2817 239.085 95.7762C239.085 93.2706 241.105 91.2539 243.615 91.2539Z" fill="#E2EEF5"/>
<path fill-rule="evenodd" clip-rule="evenodd" d="M335.004 142.374H356.795C357.376 142.374 357.866 142.863 357.866 143.443C357.866 144.024 357.376 144.513 356.795 144.513H335.004C334.422 144.513 333.932 144.024 333.932 143.443C333.932 142.863 334.422 142.374 335.004 142.374Z" fill="#E2EEF5"/>
<path fill-rule="evenodd" clip-rule="evenodd" d="M293.931 150.135H303.296C303.878 150.135 304.367 150.624 304.367 151.204C304.367 151.785 303.878 152.274 303.296 152.274H293.931C293.349 152.274 292.86 151.785 292.86 151.204C292.86 150.593 293.319 150.135 293.931 150.135Z" fill="#E2EEF5"/>
<path fill-rule="evenodd" clip-rule="evenodd" d="M308.346 150.135H345.165C345.746 150.135 346.236 150.624 346.236 151.204C346.236 151.785 345.746 152.274 345.165 152.274H308.346C307.765 152.274 307.275 151.785 307.275 151.204C307.275 150.593 307.765 150.135 308.346 150.135Z" fill="#E2EEF5"/>
<path fill-rule="evenodd" clip-rule="evenodd" d="M144.932 175.783C153.473 184.431 151.778 213.409 162.628 217.022C162.628 217.022 170.388 218.917 169.857 221.32C169.342 223.723 168.328 224.635 168.328 224.635C168.328 224.635 159.189 225.512 151.529 223.811C147.208 222.863 146.577 216.864 144.949 216.163C140.412 214.233 138.003 194.833 138.003 194.833L144.932 175.783Z" fill="#6AAFF1"/>
<path d="M134.207 171.331H114.323C105.599 171.331 98.2935 177.75 96.8394 186.127C96.6817 186.127 96.0335 191.654 95.981 192.144C94.9999 202.481 94.9299 217.592 97.838 228.471H144.613L144.806 202.813V175.528C141.723 172.905 138.534 171.331 134.207 171.331Z" fill="#408CD5"/>
<path fill-rule="evenodd" clip-rule="evenodd" d="M136.976 153.434C136.884 155.242 137.196 156.863 137.654 158.079C139.101 161.914 135.931 168.518 130.362 168.079L130.38 171.575H130.288C132.743 174.244 129.72 180.561 126.917 180.595C124.499 180.612 120.083 175.815 119.79 171.575V164.397C119.515 164.312 119.497 164.363 118.947 164.059C118.379 163.738 115.576 161.187 115.796 159.988C116.016 158.789 118.617 158.654 118.617 158.654L119.222 158.164C117.665 154.617 116.474 154.549 120.505 152.59C124.535 150.614 132.652 150.766 132.652 150.766L136.847 151.931L136.976 153.434Z" fill="#EACDB0"/>
<path fill-rule="evenodd" clip-rule="evenodd" d="M112.484 183.318C110.626 179.078 106.289 174.166 104.258 178.318C101.866 180.774 101.367 181.109 101.298 184.378C101.126 194.465 104.861 219.887 115.634 222.749C121.416 224.286 131.242 225.593 137.73 225.364C140.346 225.275 143.237 226.318 144.252 225.523C147.815 222.784 143.822 219.675 143.822 219.675C143.822 219.675 121.416 212.838 119.127 212.131C115.358 210.93 113.792 186.286 112.484 183.318Z" fill="#EACDB0"/>
<path fill-rule="evenodd" clip-rule="evenodd" d="M147.729 197.916H187.349C188.877 197.916 190.459 199.16 190.125 200.609L184.204 226.018C183.87 227.466 182.956 228.71 181.428 228.71H141.79C140.261 228.71 138.68 227.466 139.014 226.018L144.935 200.609C145.286 199.16 146.2 197.916 147.729 197.916Z" fill="#454545"/>
<path d="M192.089 196.866H137.877V228.471H192.089V196.866Z" fill="#D9D9D9"/>
<path fill-rule="evenodd" clip-rule="evenodd" d="M165.311 210.509C166.553 210.854 167.174 212.172 166.699 213.459C166.224 214.746 164.818 215.499 163.576 215.154C162.334 214.809 161.713 213.491 162.188 212.204C162.681 210.933 164.069 210.164 165.311 210.509Z" fill="#1C85C8"/>
<path fill-rule="evenodd" clip-rule="evenodd" d="M116.304 224.861H138.772L140.901 228.71H114.817V226.786C114.817 225.714 115.476 224.861 116.304 224.861Z" fill="#454545"/>
<path fill-rule="evenodd" clip-rule="evenodd" d="M121.449 152.945C120.288 155.112 120.805 158.949 121.341 160.085C122.127 161.719 121.556 162.377 120.859 162.146C119.341 161.631 118.876 160.973 117.751 160.423C117.483 160.298 116.93 160.192 116.751 160.405C116.001 161.24 117.662 163.567 118.662 164.206C113.697 164.792 107.177 156.409 111.285 151.24C108.963 135.147 130.647 135.378 138.685 144.49C140.078 146.053 140.275 149.304 139.435 150.565C135.613 156.337 125.878 150.369 122.377 152.075C121.984 152.252 121.681 152.536 121.449 152.945Z" fill="black"/>
<path fill-rule="evenodd" clip-rule="evenodd" d="M114.879 181.535C113.027 177.734 107.874 175.504 104.261 177.481C103.032 178.156 101.491 179.626 100.96 181.417C98.392 190.117 104.316 210.98 106.608 216.2C112.55 211.335 118.309 210.321 119.648 210.034C117.337 202.635 115.998 183.816 114.879 181.535Z" fill="#76B9F9"/>
<path fill-rule="evenodd" clip-rule="evenodd" d="M100.646 180.595C96.6688 189.163 102.924 209.168 105.85 216.2C106.901 215.279 107.97 214.493 109.021 213.794C104.764 204.73 100.926 187.934 100.646 180.595Z" fill="#74B2EC"/>
<path fill-rule="evenodd" clip-rule="evenodd" d="M126.672 189.425C126.287 189.425 125.983 189.809 125.983 190.303C125.983 190.778 126.287 191.18 126.672 191.18C127.056 191.18 127.36 190.796 127.36 190.303C127.36 189.809 127.056 189.425 126.672 189.425ZM126.672 184.361C126.287 184.361 125.983 184.745 125.983 185.239C125.983 185.714 126.287 186.116 126.672 186.116C127.056 186.116 127.36 185.732 127.36 185.239C127.36 184.745 127.056 184.361 126.672 184.361ZM129.25 171.216C130.627 175.659 128.353 178.986 126.223 180.503C122.94 177.779 119.978 175.128 119.978 170.009C119.978 170.009 118.841 169.991 118.104 172.276C116.887 175.988 118.921 184.343 118.921 184.343C118.921 184.343 121.211 180.577 123.1 180.375C125.006 180.174 126.239 180.906 126.239 180.906C128.673 178.639 130.323 181.582 131.956 183.739C132.469 178.236 132.469 174.361 129.234 170.101C129.25 170.357 129.202 171.07 129.25 171.216Z" fill="white"/>
</svg>
