<svg width="489" height="257" viewBox="0 0 489 257" fill="none" xmlns="http://www.w3.org/2000/svg">
<mask id="mask0" mask-type="alpha" maskUnits="userSpaceOnUse" x="0" y="70" width="489" height="187">
<rect y="70" width="489" height="187" fill="#1C85C8"/>
</mask>
<g mask="url(#mask0)">
<circle cx="370.5" cy="538.5" r="463.5" fill="white"/>
</g>
<mask id="mask1" mask-type="alpha" maskUnits="userSpaceOnUse" x="59" y="0" width="370" height="219">
<rect x="59" width="370" height="219" fill="#1C85C8"/>
</mask>
<g mask="url(#mask1)">
</g>
<mask id="mask2" mask-type="alpha" maskUnits="userSpaceOnUse" x="52" y="0" width="377" height="257">
<rect x="52" width="377" height="257" fill="#1C85C8"/>
</mask>
<g mask="url(#mask2)">
<path d="M385.058 208.051H116.061C112.547 208.051 109.719 205.334 109.719 201.957V38.5916C109.719 35.2141 112.547 32.4968 116.061 32.4968H385.058C388.572 32.4968 391.4 35.2141 391.4 38.5916V201.982C391.4 205.334 388.546 208.051 385.058 208.051Z" fill="#686868"/>
<path d="M411.27 213.479C412.969 216.109 412.259 218.714 410.313 220.339C409.139 221.319 407.502 221.938 405.679 221.938H88.8967C86.8888 221.938 85.0045 221.087 84.016 219.643C82.1625 216.96 82.873 214.278 84.85 212.627C86.0239 211.647 87.661 211.028 89.4836 211.028H406.266C408.336 211.003 410.282 211.957 411.27 213.479Z" fill="#454545"/>
<path d="M386.441 46.0154V192.548C386.441 196.716 382.925 200.116 378.615 200.116H123.495C119.16 200.116 115.67 196.716 115.67 192.548V46.0154C115.67 41.8222 119.186 38.4471 123.495 38.4471H378.642C382.951 38.4471 386.441 41.8477 386.441 46.0154Z" fill="#E2EEF5"/>
<path d="M288.333 210.744C288.333 211.615 287.989 212.407 287.408 212.961C286.853 213.542 286.06 213.885 285.188 213.885H216.29C214.546 213.885 213.145 212.486 213.145 210.744H288.333Z" fill="#8B8B8B"/>
<path d="M174.376 167.796H127.44C126.356 167.796 125.484 166.925 125.484 165.842C125.484 164.76 126.356 163.889 127.44 163.889H174.402C175.486 163.889 176.358 164.76 176.358 165.842C176.331 166.925 175.459 167.796 174.376 167.796Z" fill="white"/>
<path d="M290.765 176.111H139.359C138.275 176.111 137.403 175.24 137.403 174.158C137.403 173.076 138.275 172.205 139.359 172.205H290.765C291.848 172.205 292.72 173.076 292.72 174.158C292.72 175.24 291.848 176.111 290.765 176.111Z" fill="white"/>
<path d="M141.446 192.716H127.44C126.356 192.716 125.484 191.845 125.484 190.763C125.484 189.681 126.356 188.81 127.44 188.81H141.446C142.53 188.81 143.402 189.681 143.402 190.763C143.402 191.819 142.53 192.716 141.446 192.716Z" fill="white"/>
<path d="M158.858 7.81353V159.095C158.858 162.847 161.9 165.909 165.681 165.909H420.711C424.492 165.909 427.534 162.847 427.534 159.095V7.81353C427.534 4.04 424.47 1 420.711 1H165.654C161.902 1 158.858 4.05979 158.858 7.81353Z" fill="white" stroke="#A4CEE9" stroke-width="2"/>
<path d="M247.449 62.2186H294.412C295.495 62.2186 296.367 61.3475 296.367 60.2652C296.367 59.1829 295.495 58.3118 294.412 58.3118H247.449C246.366 58.3118 245.493 59.1829 245.493 60.2652C245.493 61.3475 246.366 62.2186 247.449 62.2186Z" fill="#E2EEF5"/>
<path d="M329.508 54.3774H389.368C390.98 54.3774 392.275 53.084 392.275 51.4737C392.275 49.8635 390.98 48.5701 389.368 48.5701H329.508C327.896 48.5701 326.601 49.8635 326.601 51.4737C326.601 53.084 327.896 54.3774 329.508 54.3774Z" fill="#E2EEF5"/>
<path d="M248.401 42.7911H389.368C390.98 42.7911 392.275 41.4977 392.275 39.8874C392.275 38.2772 390.98 36.9838 389.368 36.9838H248.401C246.788 36.9838 245.493 38.2772 245.493 39.8874C245.493 41.4713 246.788 42.7911 248.401 42.7911Z" fill="#E2EEF5"/>
<path d="M247.449 70.6139H294.412C295.495 70.6139 296.367 69.7428 296.367 68.6605C296.367 67.5782 295.495 66.7071 294.412 66.7071H247.449C246.366 66.7071 245.493 67.5782 245.493 68.6605C245.493 69.7428 246.366 70.6139 247.449 70.6139Z" fill="#E2EEF5"/>
<path d="M247.449 79.0091H294.412C295.495 79.0091 296.367 78.138 296.367 77.0557C296.367 75.9735 295.495 75.1024 294.412 75.1024H247.449C246.366 75.1024 245.493 75.9735 245.493 77.0557C245.493 78.138 246.366 79.0091 247.449 79.0091Z" fill="#E2EEF5"/>
<path d="M247.449 87.4025H294.412C295.495 87.4025 296.367 86.5314 296.367 85.4491C296.367 84.3668 295.495 83.4957 294.412 83.4957H247.449C246.366 83.4957 245.493 84.3668 245.493 85.4491C245.493 86.5314 246.366 87.4025 247.449 87.4025Z" fill="#E2EEF5"/>
<path d="M247.449 95.7921H294.412C295.495 95.7921 296.367 94.9209 296.367 93.8386C296.367 92.7564 295.495 91.8853 294.412 91.8853H247.449C246.366 91.8853 245.493 92.7564 245.493 93.8386C245.493 94.9209 246.366 95.7921 247.449 95.7921Z" fill="#E2EEF5"/>
<path d="M247.449 104.191H294.412C295.495 104.191 296.367 103.32 296.367 102.238C296.367 101.155 295.495 100.284 294.412 100.284H247.449C246.366 100.284 245.493 101.155 245.493 102.238C245.493 103.32 246.366 104.191 247.449 104.191Z" fill="#E2EEF5"/>
<path d="M247.449 112.586H294.412C295.495 112.586 296.367 111.715 296.367 110.633C296.367 109.551 295.495 108.68 294.412 108.68H247.449C246.366 108.68 245.493 109.551 245.493 110.633C245.493 111.715 246.366 112.586 247.449 112.586Z" fill="#E2EEF5"/>
<path d="M247.449 121.004H390.319C391.403 121.004 392.275 120.133 392.275 119.051C392.275 117.969 391.403 117.097 390.319 117.097H247.449C246.366 117.097 245.493 117.969 245.493 119.051C245.493 120.107 246.366 121.004 247.449 121.004Z" fill="#E2EEF5"/>
<path d="M247.449 129.401H390.319C391.403 129.401 392.275 128.53 392.275 127.448C392.275 126.366 391.403 125.495 390.319 125.495H247.449C246.366 125.495 245.493 126.366 245.493 127.448C245.493 128.504 246.366 129.401 247.449 129.401Z" fill="#E2EEF5"/>
<path d="M247.449 137.797H390.319C391.403 137.797 392.275 136.926 392.275 135.843C392.275 134.761 391.403 133.89 390.319 133.89H247.449C246.366 133.89 245.493 134.761 245.493 135.843C245.493 136.926 246.366 137.797 247.449 137.797Z" fill="#E2EEF5"/>
<path d="M247.449 146.186H390.319C391.403 146.186 392.275 145.315 392.275 144.233C392.275 143.151 391.403 142.279 390.319 142.279H247.449C246.366 142.279 245.493 143.151 245.493 144.233C245.493 145.315 246.366 146.186 247.449 146.186Z" fill="#E2EEF5"/>
<path d="M194.117 36.9573H235.927V78.7175H194.117V36.9573Z" fill="#A4CEE9"/>
<path d="M194.117 85.4482H235.927V146.188H194.117V85.4482Z" fill="#A4CEE9"/>
<path d="M157.858 7.81353V25.4996H428.534V7.81353C428.534 3.48441 425.019 0 420.711 0H165.654C161.347 0 157.858 3.51081 157.858 7.81353Z" fill="#A4CEE9"/>
<path d="M410.282 12.9678C409.763 10.6635 411.213 8.37575 413.52 7.85805C415.828 7.34036 418.118 8.78873 418.636 11.0931C419.155 13.3974 417.704 15.6852 415.397 16.2029C413.09 16.7206 410.8 15.2722 410.282 12.9678Z" fill="white"/>
<path d="M396.354 13.0311C395.807 10.7334 397.228 8.42763 399.529 7.88112C401.829 7.33461 404.137 8.75428 404.685 11.052C405.232 13.3498 403.81 15.6555 401.51 16.202C399.21 16.7485 396.901 15.3289 396.354 13.0311Z" fill="white"/>
<path d="M104.553 193.8H171.812C174.957 193.8 177.494 191.266 177.494 188.125V61.445C177.494 58.3038 174.957 55.7697 171.812 55.7697H104.553C101.408 55.7697 98.8705 58.3038 98.8705 61.445V188.125C98.8705 191.24 101.408 193.8 104.553 193.8Z" fill="#125682"/>
<path d="M100.8 64.8232V184.719C100.8 187.86 103.337 190.394 106.482 190.394H169.909C173.054 190.394 175.591 187.86 175.591 184.719V64.8232C175.591 61.6819 173.054 59.1478 169.909 59.1478H154.819C154.819 60.7581 153.524 62.0515 151.912 62.0515H124.479C123.686 62.0515 122.946 61.7347 122.418 61.2068C121.889 60.6789 121.572 59.9661 121.572 59.1478H106.482C103.337 59.1478 100.8 61.7083 100.8 64.8232Z" fill="#E2EEF5"/>
<path opacity="0.2" d="M100.8 164.71V184.745C100.8 187.886 103.337 190.421 106.482 190.421H169.909C173.054 190.421 175.591 187.886 175.591 184.745V64.8232C175.591 61.6819 173.054 59.1478 169.909 59.1478H167.002C159.417 65.8263 150.432 78.0482 147.577 99.4034C142.397 138.471 111.45 124.005 100.8 164.71Z" fill="white"/>
<path d="M108.068 86.3108V117.697C108.094 119.149 109.283 120.337 110.737 120.337H165.628C167.108 120.337 168.297 119.149 168.297 117.697V86.2844C168.297 84.8062 167.108 83.6183 165.628 83.6183H110.737C109.257 83.6183 108.068 84.8325 108.068 86.3108Z" fill="white"/>
<path d="M108.808 96.1289C110.05 95.2578 111.688 95.1522 113.01 95.8649L126.964 103.388C128.391 104.154 130.109 103.995 131.351 102.939L142.371 93.7268C143.957 92.4069 146.177 92.1694 148 93.1461L168.297 103.916V105.579L147.313 94.4395C146.018 93.7532 144.433 93.9116 143.323 94.8619L132.302 104.074C130.584 105.5 128.232 105.737 126.25 104.682L112.296 97.1584C111.45 96.7097 110.42 96.7624 109.653 97.3168L108.041 98.4783V96.6569L108.808 96.1289Z" fill="#A4CEE9"/>
<path d="M129.104 98.9576C131.43 98.9576 133.306 97.0834 133.306 94.7604C133.306 92.4375 131.43 90.5633 129.104 90.5633C126.779 90.5633 124.902 92.4375 124.902 94.7604C124.902 97.0834 126.805 98.9576 129.104 98.9576ZM129.104 91.9887C130.637 91.9887 131.879 93.2294 131.879 94.7604C131.879 96.2915 130.637 97.5321 129.104 97.5321C127.571 97.5321 126.329 96.2915 126.329 94.7604C126.329 93.2294 127.598 91.9887 129.104 91.9887Z" fill="#A4CEE9"/>
<path d="M126.303 81.0066H166.341C167.425 81.0066 168.297 80.1355 168.297 79.0532C168.297 77.9709 167.425 77.0998 166.341 77.0998H126.303C125.219 77.0998 124.347 77.9709 124.347 79.0532C124.374 80.1355 125.246 81.0066 126.303 81.0066Z" fill="#A4CEE9"/>
<path d="M109.997 73.2414H166.342C167.425 73.2414 168.298 72.3703 168.298 71.288C168.298 70.2058 167.425 69.3347 166.342 69.3347H109.997C108.914 69.3347 108.042 70.2058 108.042 71.288C108.068 72.3703 108.94 73.2414 109.997 73.2414Z" fill="white"/>
<path d="M109.363 125.56H167.002C167.716 125.56 168.323 124.979 168.323 124.24C168.323 123.528 167.742 122.92 167.002 122.92H109.363C108.649 122.92 108.041 123.501 108.041 124.24C108.068 124.979 108.649 125.56 109.363 125.56Z" fill="white"/>
<path d="M109.363 131.185H167.002C167.716 131.185 168.323 130.604 168.323 129.865C168.323 129.152 167.742 128.545 167.002 128.545H109.363C108.649 128.545 108.041 129.126 108.041 129.865C108.068 130.604 108.649 131.185 109.363 131.185Z" fill="white"/>
<path d="M109.363 136.806H167.002C167.716 136.806 168.323 136.225 168.323 135.486C168.323 134.773 167.742 134.166 167.002 134.166H109.363C108.649 134.166 108.041 134.747 108.041 135.486C108.068 136.225 108.649 136.806 109.363 136.806Z" fill="white"/>
<path d="M109.363 142.432H167.002C167.716 142.432 168.323 141.851 168.323 141.112C168.323 140.399 167.742 139.792 167.002 139.792H109.363C108.649 139.792 108.041 140.373 108.041 141.112C108.068 141.851 108.649 142.432 109.363 142.432Z" fill="white"/>
<path d="M140.31 146.627H168.297V174.582H140.31V146.627Z" fill="#A4CEE9"/>
<path d="M108.041 146.627H136.028V174.582H108.041V146.627Z" fill="#1C85C8"/>
<path d="M156.257 35.1635C156.257 38.0805 155.073 40.7413 153.159 42.6531C151.245 44.5649 148.581 45.7475 145.661 45.7475H132.262C126.402 45.7475 121.666 40.9975 121.666 35.1437C121.666 32.2267 122.85 29.5659 124.764 27.6541C126.678 25.7423 129.342 24.5597 132.262 24.5597H145.661C151.502 24.5597 156.257 29.3097 156.257 35.1635Z" fill="#A4CEE9"/>
<path d="M156.257 35.1641C156.257 38.0811 155.073 40.7419 153.159 42.6538C151.245 44.5656 148.581 45.7482 145.661 45.7482H141.734C147.93 45.7482 141.201 38.1797 136.505 30.7098C133.683 26.216 137.689 24.8954 141.339 24.5604H145.681C151.502 24.5604 156.257 29.3104 156.257 35.1641Z" fill="#A4CEE9"/>
<path d="M135.538 38.8725L128.316 35.7781V34.5561L135.538 31.4617V32.9005L130.23 35.1474L135.538 37.3943V38.8725Z" fill="white"/>
<path d="M141.438 30.0602L137.965 40.2698H136.485L139.958 30.0602H141.438Z" fill="white"/>
<path d="M142.385 31.4617L149.607 34.5561V35.7781L142.385 38.8725V37.4337L147.693 35.1868L142.385 32.9399V31.4617Z" fill="white"/>
<path d="M119.713 103.043C119.713 105.96 118.529 108.621 116.595 110.533C114.681 112.444 112.017 113.627 109.096 113.627H92.2841C86.4235 113.627 81.668 108.877 81.668 103.023C81.668 100.106 82.8519 97.4455 84.7857 95.5337C86.6998 93.6218 89.3637 92.4393 92.2841 92.4393H109.096C114.977 92.459 119.713 97.1893 119.713 103.043Z" fill="#A4CEE9"/>
<path d="M119.713 103.042C119.713 105.959 118.529 108.62 116.595 110.532C114.681 112.444 112.017 113.626 109.096 113.626H102.861C107.932 113.094 101.519 105.801 96.9806 98.6272C94.0602 93.9757 98.4606 92.734 102.19 92.4384C104.104 92.3004 105.821 92.3989 106.334 92.4384C106.433 92.4384 106.492 92.4581 106.492 92.4581L106.512 92.4384H109.077C114.977 92.4581 119.713 97.1884 119.713 103.042Z" fill="#A4CEE9"/>
<path d="M89.6794 98.4857H92.5012C93.0143 98.4857 93.5076 98.5448 93.9812 98.6434C94.435 98.7419 94.8494 98.9193 95.1849 99.1558C95.54 99.3924 95.7966 99.7077 95.9939 100.102C96.1912 100.496 96.2899 100.989 96.2899 101.58C96.2899 102.152 96.1912 102.625 95.9939 103.019C95.7966 103.413 95.5203 103.728 95.1849 103.965C94.8494 104.201 94.4745 104.379 94.0404 104.477C93.6062 104.576 93.1524 104.635 92.6985 104.635H91.6527V108.4H89.6794V98.4857ZM92.5012 103.058C92.7577 103.058 92.9945 103.039 93.2116 102.98C93.4286 102.92 93.6062 102.842 93.7641 102.723C93.922 102.605 94.0404 102.447 94.139 102.25C94.2377 102.053 94.2772 101.817 94.2772 101.541C94.2772 100.969 94.1193 100.575 93.7838 100.358C93.4484 100.141 93.034 100.023 92.5209 100.023H91.6922V103.039H92.5012V103.058Z" fill="white"/>
<path d="M105.624 98.4857V108.4H103.631V104.064H99.7037V108.4H97.7305V98.4857H99.7037V102.506H103.631V98.4857H105.624Z" fill="white"/>
<path d="M107.755 98.4857H110.576C111.089 98.4857 111.583 98.5448 112.056 98.6434C112.51 98.7419 112.925 98.9193 113.26 99.1558C113.615 99.3924 113.872 99.7077 114.069 100.102C114.266 100.496 114.365 100.989 114.365 101.58C114.365 102.152 114.266 102.625 114.069 103.019C113.872 103.413 113.596 103.728 113.26 103.965C112.925 104.201 112.55 104.379 112.116 104.477C111.681 104.576 111.228 104.635 110.774 104.635H109.728V108.4H107.755V98.4857V98.4857ZM110.576 103.058C110.833 103.058 111.07 103.039 111.287 102.98C111.504 102.92 111.681 102.842 111.839 102.723C111.997 102.605 112.116 102.447 112.214 102.25C112.313 102.053 112.352 101.817 112.352 101.541C112.352 100.969 112.194 100.575 111.859 100.358C111.524 100.141 111.109 100.023 110.596 100.023H109.767V103.039H110.576V103.058Z" fill="white"/>
<path d="M118.035 65.2201C118.035 68.1371 116.851 70.7979 114.937 72.7097C113.023 74.6216 110.359 75.8041 107.439 75.8041H76.6162C70.7556 75.8041 66 71.0541 66 65.2201C66 62.2834 67.184 59.6423 69.098 57.7305C71.0121 55.8186 73.676 54.636 76.5964 54.636H107.419C113.279 54.6163 118.035 59.3664 118.035 65.2201Z" fill="#A4CEE9"/>
<path d="M118.035 65.2225C118.035 68.1396 116.851 70.8004 114.937 72.7122C113.023 74.624 110.359 75.8066 107.439 75.8066H95.3227L95.303 75.7869C101.499 75.7869 94.7702 68.2184 90.0738 60.7485C87.2915 56.3335 91.1196 54.9933 94.711 54.6188H107.458C113.279 54.6188 118.035 59.3688 118.035 65.2225Z" fill="#A4CEE9"/>
<path d="M81.7072 59.5427V69.4567H79.7142V65.1205H75.7677V69.4567H73.7944V59.5427H75.7677V63.5635H79.6945V59.5427H81.7072Z" fill="white"/>
<path d="M90.6262 59.5433V61.0806H87.7847V69.4572H85.8115V61.0806H82.97V59.5433H90.6262Z" fill="white"/>
<path d="M103.018 59.5433V69.4572H101.124V61.4354L98.3615 69.4572H96.5658L93.8033 61.4354V69.4572H91.9089V59.5433H94.928L97.4735 66.9935L100.019 59.5433H103.018Z" fill="white"/>
<path d="M111.267 69.4572H105.307V59.5433H107.281V67.8804H111.267V69.4572Z" fill="white"/>
<path d="M109.496 171.173C109.496 174.125 108.298 176.818 106.361 178.752C104.424 180.687 101.729 181.904 98.7733 181.904H81.7605C75.8299 181.904 71.0376 177.097 71.0376 171.173C71.0376 168.222 72.2357 165.529 74.1726 163.594C76.1095 161.64 78.8052 160.443 81.7605 160.443H98.7733C104.704 160.443 109.496 165.25 109.496 171.173Z" fill="#A4CEE9"/>
<path d="M109.496 171.173C109.496 174.125 108.298 176.817 106.361 178.752C104.424 180.687 101.729 181.903 98.7735 181.903H93.6816L93.6616 181.883C99.9316 181.883 93.1225 174.224 88.3701 166.665C85.5546 162.178 89.4284 160.822 93.0825 160.443H98.7735C104.704 160.443 109.496 165.249 109.496 171.173Z" fill="#A4CEE9"/>
<path d="M82.6392 165.865C82.9986 165.865 83.3381 165.885 83.6576 165.945C83.9771 166.004 84.2566 166.064 84.5162 166.124C84.7958 166.204 85.0753 166.284 85.3149 166.363V167.919C84.9355 167.779 84.5362 167.66 84.1169 167.58C83.6975 167.5 83.2982 167.46 82.8988 167.48C82.4994 167.5 82.12 167.56 81.7606 167.68C81.4012 167.799 81.1017 167.999 80.8221 168.278C80.5625 168.557 80.3429 168.916 80.1831 169.375C80.0234 169.834 79.9435 170.372 79.9435 171.03C79.9435 171.689 80.0234 172.247 80.1831 172.706C80.3429 173.165 80.5625 173.524 80.8221 173.803C81.0817 174.082 81.4012 174.281 81.7606 174.421C82.12 174.541 82.4994 174.601 82.8988 174.62C83.2982 174.62 83.6975 174.581 84.1169 174.481C84.5362 174.381 84.9355 174.261 85.3149 174.102V175.678C85.0753 175.777 84.8157 175.877 84.5162 175.957C84.2766 176.037 83.9771 176.096 83.6576 176.156C83.3381 176.216 82.9986 176.236 82.6392 176.236C82.3197 176.236 81.9603 176.196 81.6009 176.136C81.2414 176.076 80.882 175.977 80.5226 175.817C80.1632 175.678 79.8237 175.458 79.5042 175.219C79.1847 174.96 78.9052 174.64 78.6456 174.261C78.406 173.883 78.2063 173.424 78.0465 172.905C77.9068 172.387 77.8269 171.768 77.8269 171.07C77.8269 170.372 77.9068 169.774 78.0465 169.255C78.1863 168.737 78.386 168.278 78.6456 167.899C78.8852 167.52 79.1847 167.201 79.5042 166.942C79.8237 166.682 80.1632 166.483 80.5226 166.323C80.882 166.164 81.2414 166.064 81.6009 166.004C81.9603 165.885 82.2998 165.865 82.6392 165.865Z" fill="white"/>
<path d="M92.6032 168.559C92.2038 168.26 91.7845 168.02 91.3452 167.861C90.9059 167.701 90.5065 167.601 90.1271 167.601C89.7078 167.601 89.3883 167.681 89.1287 167.841C88.8692 168 88.7494 168.26 88.7494 168.619C88.7494 168.818 88.8093 168.978 88.9091 169.097C89.0089 169.237 89.1487 169.357 89.3085 169.456C89.4682 169.556 89.6679 169.656 89.8875 169.736C90.1072 169.815 90.3468 169.895 90.5864 169.975C90.9458 170.095 91.3053 170.214 91.6647 170.354C92.0241 170.493 92.3636 170.693 92.6631 170.912C92.9626 171.152 93.2022 171.451 93.3819 171.79C93.5617 172.149 93.6615 172.588 93.6615 173.126C93.6615 173.645 93.5617 174.103 93.362 174.482C93.1623 174.861 92.9027 175.181 92.5633 175.42C92.2238 175.659 91.8444 175.839 91.4251 175.958C91.0057 176.078 90.5465 176.138 90.0872 176.138C89.4083 176.138 88.7494 176.018 88.1104 175.759C87.4514 175.5 86.8923 175.121 86.4131 174.602L87.1519 172.987C87.5912 173.445 88.0704 173.784 88.6096 174.044C89.1487 174.283 89.6679 174.423 90.1471 174.423C90.5864 174.423 90.9458 174.343 91.2254 174.163C91.5249 173.984 91.6647 173.705 91.6847 173.326C91.6847 173.106 91.6447 172.927 91.5449 172.767C91.4451 172.608 91.3053 172.488 91.1256 172.368C90.9458 172.249 90.7462 172.149 90.5265 172.069C90.2869 171.989 90.0473 171.91 89.8077 171.83C89.4482 171.71 89.0888 171.59 88.7494 171.451C88.3899 171.311 88.0704 171.132 87.7909 170.892C87.5113 170.673 87.2717 170.374 87.112 170.035C86.9323 169.696 86.8524 169.257 86.8524 168.738C86.8524 168.22 86.9522 167.781 87.1319 167.402C87.3316 167.043 87.5712 166.724 87.8907 166.505C88.2102 166.265 88.5696 166.106 88.969 165.986C89.3684 165.866 89.7877 165.826 90.227 165.826C90.7861 165.826 91.3452 165.926 91.8843 166.106C92.4235 166.285 92.9027 166.544 93.342 166.883L92.6032 168.559Z" fill="white"/>
<path d="M101.309 168.559C100.91 168.26 100.491 168.02 100.051 167.861C99.612 167.701 99.2126 167.601 98.8332 167.601C98.4139 167.601 98.0944 167.681 97.8348 167.841C97.5752 168 97.4554 168.26 97.4554 168.619C97.4554 168.818 97.5153 168.978 97.6151 169.097C97.715 169.237 97.8548 169.357 98.0145 169.456C98.1743 169.556 98.3739 169.656 98.5936 169.736C98.8132 169.815 99.0528 169.895 99.2925 169.975C99.6519 170.095 100.011 170.214 100.371 170.354C100.73 170.493 101.07 170.693 101.369 170.912C101.669 171.152 101.908 171.451 102.088 171.79C102.268 172.149 102.368 172.588 102.368 173.126C102.368 173.645 102.268 174.103 102.068 174.482C101.868 174.861 101.609 175.181 101.269 175.42C100.93 175.659 100.55 175.839 100.131 175.958C99.7118 176.078 99.2525 176.138 98.7933 176.138C98.1144 176.138 97.4554 176.018 96.8164 175.759C96.1575 175.5 95.5984 175.121 95.1191 174.602L95.858 172.987C96.2973 173.445 96.7765 173.784 97.3156 174.044C97.8548 174.283 98.3739 174.423 98.8532 174.423C99.2925 174.423 99.6519 174.343 99.9314 174.163C100.231 173.984 100.371 173.705 100.391 173.326C100.391 173.106 100.351 172.927 100.251 172.767C100.151 172.608 100.011 172.488 99.8316 172.368C99.6519 172.249 99.4522 172.149 99.2326 172.069C98.9929 171.989 98.7533 171.91 98.5137 171.83C98.1543 171.71 97.7949 171.59 97.4554 171.451C97.096 171.311 96.7765 171.132 96.4969 170.892C96.2174 170.673 95.9778 170.374 95.818 170.035C95.6383 169.696 95.5584 169.257 95.5584 168.738C95.5584 168.22 95.6583 167.781 95.838 167.402C96.0377 167.043 96.2773 166.724 96.5968 166.505C96.9163 166.265 97.2757 166.106 97.675 165.986C98.0744 165.866 98.4937 165.826 98.933 165.826C99.4921 165.826 100.051 165.926 100.59 166.106C101.13 166.285 101.609 166.544 102.048 166.883L101.309 168.559Z" fill="white"/>
<path d="M266.553 100.458C266.553 100.458 267.161 88.1908 267.427 87.3757C267.692 86.5607 270.236 84.7675 270.388 83.3003C270.54 81.8331 268.49 84.8082 268.262 84.2784C268.034 83.7894 268.869 79.9177 269.097 79.5509C269.287 79.1841 268.831 77.3909 267.73 78.4505C266.629 79.5101 265.111 79.3878 264.731 81.5886C264.389 83.7893 265.414 85.501 265.073 87.498C264.731 89.495 261.883 98.3795 262.567 100.906C263.174 103.433 266.553 100.458 266.553 100.458Z" fill="#F7D277"/>
<path d="M267.376 70.3363L272.423 116.98C272.688 119.145 274.643 120.702 276.837 120.464L358.394 111.648C360.587 111.41 362.173 109.457 361.962 107.292L356.914 60.6486C356.676 58.4576 354.694 56.8738 352.5 57.1114L270.944 65.928C268.75 66.1656 267.138 68.1453 267.376 70.3363Z" fill="#1C85C8"/>
<path d="M270.098 84.8296C271.789 83.325 274.22 82.9026 276.308 83.7474L298.243 92.6696C300.49 93.5935 303.027 93.0391 304.692 91.2969L319.571 75.8282C321.711 73.5845 324.962 72.8981 327.843 74.0596L359.715 86.8094L359.979 89.2908L326.997 76.0922C324.962 75.2739 322.636 75.7754 321.13 77.3592L306.251 92.828C303.952 95.2301 300.463 95.9692 297.371 94.7022L275.436 85.7799C274.115 85.252 272.582 85.516 271.525 86.4663L269.305 88.446L269.014 85.7535L270.098 84.8296Z" fill="#A4CEE9"/>
<path d="M300.728 85.7557C304.163 85.3862 306.674 82.2713 306.304 78.8397C305.934 75.4081 302.816 72.9003 299.38 73.2699C295.944 73.6395 293.434 76.7543 293.804 80.1859C294.174 83.6176 297.266 86.1253 300.728 85.7557ZM299.591 75.3817C301.864 75.1441 303.926 76.7807 304.163 79.0509C304.401 81.321 302.763 83.38 300.49 83.6176C298.217 83.8551 296.156 82.2185 295.918 79.9484C295.68 77.6782 297.319 75.6456 299.591 75.3817Z" fill="#A4CEE9"/>
<path d="M361.01 94.1724L361.803 93.4332C361.063 93.3804 360.217 93.3276 359.794 93.6444C359.187 94.0932 360.455 94.0668 361.01 94.1724Z" fill="#F9D78C"/>
<path d="M267.831 203.583L267.728 206.854L265 208.148L264.625 203.413L267.831 203.583Z" fill="#EACDB0"/>
<path d="M249.242 203.108L247.367 206.004L245.15 204.573L246.548 200.894L249.242 203.108Z" fill="#EACDB0"/>
<path d="M266.501 139.846C266.501 139.846 270.73 160.388 270.559 174.901C270.389 189.413 269.161 203.381 268.513 203.824C267.865 204.267 264.42 204.505 264.25 204.232C264.079 203.96 261.487 173.674 261.487 173.674C261.487 173.674 259.338 185.496 256.166 190.878C252.994 196.295 249.584 203.994 249.584 203.994C249.584 203.994 245.252 202.461 245.559 200.587C245.866 198.748 253.915 175.957 253.745 167.917C253.574 159.877 251.732 148.84 254.359 143.525C257.053 138.211 266.501 139.846 266.501 139.846Z" fill="#454545"/>
<path d="M276.187 96.6096C276.187 96.6096 278.438 86.6279 278.404 85.8785C278.37 85.129 276.562 83.085 276.767 81.8586C276.971 80.6321 278.063 83.5278 278.404 83.1872C278.745 82.8465 278.779 79.542 278.779 79.1673C278.779 78.5541 279.461 77.532 280.28 78.5541C281.098 79.5761 282.292 80.0189 282.087 81.8586C281.883 83.6982 280.621 84.8224 280.45 86.5257C280.28 88.2291 280.723 96.0304 279.598 97.9382C278.404 99.8119 276.187 96.6096 276.187 96.6096Z" fill="#EACDB0"/>
<path d="M267.524 95.5583L262.886 94.9451L259.134 109.56L264.284 111.672C264.284 111.672 267.695 96.8528 267.524 95.5583Z" fill="#125682"/>
<path d="M261.657 103.219L261.453 107.58H257.667V104.616L261.657 103.219Z" fill="#EACDB0"/>
<path d="M253.131 123.831C253.643 110.851 256.542 108.16 256.917 107.615C257.292 107.07 262.442 107.41 262.442 107.41C262.442 107.41 262.545 107.989 263.602 109.727C265.682 109.625 271.105 107.172 272.265 106.525C273.391 105.911 275.573 95.7594 275.573 95.7594L280.314 97.088C280.314 97.088 280.041 99.7112 278.677 104.889C277.279 110.068 274.209 112.588 269.025 115.995C268.65 116.234 268.274 116.472 267.899 116.677C269.912 124.171 267.285 140.183 267.285 140.183C262.033 144.509 253.574 144.407 251.528 143.487C249.447 142.567 252.653 136.81 253.131 123.831Z" fill="#125682"/>
<path d="M272.947 207.498C273.118 207.293 273.118 206.987 272.879 206.851C272.504 206.612 271.856 206.305 270.901 206.305C269.434 206.271 268.172 206.203 266.91 206.885C265.614 207.566 264.455 206.919 264.318 208.281C264.148 209.678 264.182 211.722 268.036 210.223C271.003 209.065 272.401 208.077 272.947 207.498Z" fill="#454545"/>
<path d="M251.016 209.446C251.016 209.446 249.584 209.957 248.867 208.424C248.151 206.891 247.367 204.029 246.002 204.166C244.638 204.268 244.399 204.574 244.229 205.733C244.058 206.891 244.195 210.4 246.412 210.672C248.663 210.945 250.948 210.604 251.323 210.4C251.698 210.195 251.835 209.276 251.016 209.446Z" fill="#454545"/>
<path d="M259.236 97.3312C259.236 97.3312 263.67 100.534 262.749 102.441C261.828 104.349 260.498 105.303 258.997 104.792C257.496 104.281 255.075 98.3873 259.236 97.3312Z" fill="#F9D78C"/>
<path d="M259.441 101.109C259.441 101.109 261.453 95.2832 259.441 94.0227C257.428 92.7963 255.689 93.2392 255.075 95.9305C254.461 98.5877 252.074 103.425 253.711 104.447C255.382 105.503 258.827 106.389 259.884 104.447C259.918 104.481 256.644 101.994 259.441 101.109Z" fill="#454545"/>
</g>
</svg>
