<svg width="380" height="340" viewBox="0 0 380 340" fill="none" xmlns="http://www.w3.org/2000/svg">
<mask id="mask0" mask-type="alpha" maskUnits="userSpaceOnUse" x="0" y="4" width="380" height="337">
<rect y="4" width="380" height="337" fill="#1C85C8"/>
</mask>
<g mask="url(#mask0)">
<ellipse cx="184.028" cy="347.063" rx="242.657" ry="241.748" fill="white"/>
</g>
<mask id="mask1" mask-type="alpha" maskUnits="userSpaceOnUse" x="0" y="4" width="380" height="337">
<rect y="4" width="380" height="337" fill="#C4C4C4"/>
</mask>
<g mask="url(#mask1)">
<path d="M380.365 229.807H314.564V236.322H380.365V229.807Z" fill="#454545"/>
<path d="M152.147 53.3595V43.2712L145.806 42.4114C145.519 40.8352 145.089 39.3162 144.572 37.8546L149.651 33.9568L144.601 25.2156L138.661 27.6517C137.628 26.448 136.509 25.3589 135.333 24.3272L137.772 18.3946L129.02 13.3505L125.118 18.4233C123.655 17.9074 122.134 17.5062 120.556 17.1909L119.695 10.8571H109.595L108.734 17.1909C107.156 17.4775 105.635 17.9074 104.172 18.4233L100.27 13.3505L91.461 18.366L93.8999 24.2985C92.6948 25.3303 91.6045 26.448 90.5715 27.623L84.632 25.187L79.582 33.9282L84.6607 37.8259C84.1442 39.2875 83.7425 40.8065 83.4269 42.3828L77.0857 43.2426V53.3308L83.4269 54.1906C83.7138 55.7669 84.1442 57.2858 84.6607 58.7475L79.582 62.6452L84.632 71.3864L90.5715 68.9503C91.6045 70.154 92.7235 71.2431 93.8999 72.2749L91.461 78.2074L100.212 83.2515L104.115 78.1788C105.578 78.6946 107.099 79.0959 108.677 79.4111L109.538 85.7449H119.638L120.499 79.4111C122.077 79.1245 123.597 78.6946 125.061 78.1788L128.963 83.2515L137.715 78.2074L135.276 72.2749C136.481 71.2431 137.571 70.1254 138.604 68.9503L144.544 71.3864L149.594 62.6452L144.515 58.7475C145.031 57.2858 145.433 55.7669 145.749 54.1906L152.147 53.3595ZM114.616 68.807C103.283 68.807 94.1008 59.6359 94.1008 48.3153C94.1008 36.9948 103.283 27.8237 114.616 27.8237C125.95 27.8237 135.132 36.9948 135.132 48.3153C135.132 59.6073 125.95 68.807 114.616 68.807Z" fill="#E2EEF5"/>
<path d="M180.229 346.341V335.518L173.441 334.596C173.134 332.905 172.673 331.275 172.121 329.707L177.557 325.525L172.151 316.147L165.794 318.761C164.688 317.469 163.491 316.301 162.231 315.194L164.842 308.829L155.475 303.418L151.298 308.86C149.731 308.307 148.104 307.876 146.415 307.538L145.493 300.743H134.683L133.761 307.538C132.072 307.846 130.444 308.307 128.878 308.86L124.701 303.418L115.272 308.799L117.883 315.163C116.593 316.27 115.426 317.469 114.32 318.73L107.963 316.117L102.558 325.495L107.994 329.676C107.441 331.244 107.011 332.874 106.673 334.565L99.8857 335.487V346.311L106.673 347.233C106.98 348.924 107.441 350.554 107.994 352.122L102.558 356.303L107.963 365.681L114.32 363.068C115.426 364.359 116.624 365.528 117.883 366.635L115.272 372.999L124.64 378.411L128.817 372.968C130.383 373.522 132.011 373.952 133.7 374.291L134.621 381.086H145.432L146.353 374.291C148.042 373.983 149.67 373.522 151.236 372.968L155.413 378.411L164.78 372.999L162.17 366.635C163.46 365.528 164.627 364.328 165.732 363.068L172.09 365.681L177.495 356.303L172.059 352.122C172.612 350.554 173.042 348.924 173.38 347.233L180.229 346.341ZM140.057 362.914C127.926 362.914 118.098 353.075 118.098 340.93C118.098 328.785 127.926 318.945 140.057 318.945C152.188 318.945 162.016 328.785 162.016 340.93C162.016 353.044 152.188 362.914 140.057 362.914Z" fill="#E2EEF5"/>
<path d="M80.343 279.82V274.994L77.3162 274.582C77.1792 273.828 76.9738 273.101 76.7272 272.402L79.1514 270.537L76.7409 266.355L73.9059 267.521C73.4128 266.945 72.8787 266.424 72.3172 265.93L73.4813 263.092L69.3041 260.679L67.4414 263.106C66.7429 262.859 66.017 262.667 65.2638 262.516L64.8529 259.486H60.0319L59.621 262.516C58.8677 262.653 58.1419 262.859 57.4434 263.106L55.5807 260.679L51.3761 263.078L52.5402 265.916C51.965 266.41 51.4445 266.945 50.9515 267.507L48.1164 266.342L45.7059 270.524L48.1301 272.388C47.8836 273.088 47.6919 273.814 47.5412 274.569L44.5144 274.98V279.806L47.5412 280.218C47.6782 280.972 47.8836 281.699 48.1301 282.398L45.7059 284.263L48.1164 288.445L50.9515 287.279C51.4445 287.855 51.9787 288.376 52.5402 288.87L51.3761 291.708L55.5533 294.121L57.416 291.694C58.1145 291.941 58.8404 292.133 59.5936 292.284L60.0045 295.314H64.8255L65.2364 292.284C65.9896 292.147 66.7155 291.941 67.414 291.694L69.2767 294.121L73.4539 291.708L72.2898 288.87C72.865 288.376 73.3854 287.841 73.8785 287.279L76.7136 288.445L79.124 284.263L76.6999 282.398C76.9464 281.699 77.1381 280.972 77.2888 280.218L80.343 279.82ZM62.4287 287.211C57.0188 287.211 52.6361 282.823 52.6361 277.407C52.6361 271.991 57.0188 267.603 62.4287 267.603C67.8386 267.603 72.2213 271.991 72.2213 277.407C72.2213 282.809 67.8386 287.211 62.4287 287.211Z" fill="#E2EEF5"/>
<path fill-rule="evenodd" clip-rule="evenodd" d="M314.564 74.8804H380.743C385.353 74.8804 389.136 78.6725 389.136 83.2921V223.464C389.136 228.084 385.353 231.876 380.743 231.876H314.564C309.955 231.876 306.171 228.084 306.171 223.464V83.2576C306.171 78.6381 309.955 74.8804 314.564 74.8804Z" fill="#125682"/>
<path d="M384.114 86.221H312.294V204.605H384.114V86.221Z" fill="#A4CEE9"/>
<path d="M311.297 98.3908V86.2214V85.2562H312.26H384.08H385.043V86.2214V98.3908V99.3561V108.492V111.525V112.491V121.626V124.66V125.625V134.761V137.795V138.76V147.896V150.929V151.895V161.03V164.064V165.029V174.165V177.199V178.164V187.3V190.333V191.299V192.264V204.433V205.399H384.08H312.26H311.297V204.433V192.264V191.299V190.333V179.129V178.164V185.335V165.995V165.029V172.2V152.963V151.998V159.169V139.829V138.829V146V126.66V125.694V132.865V113.525V112.56V119.73V100.39V99.4251V98.3908ZM330.869 104.803H364.715C365.884 104.803 366.916 105.527 367.398 106.527H383.152V87.1867H313.292V106.527H328.22C328.667 105.527 329.699 104.803 330.869 104.803ZM330.869 130.762H364.715C366.022 130.762 367.157 131.624 367.535 132.831H383.152V128.797V121.626V119.661V114.077V108.492H367.57C367.226 109.767 366.091 110.698 364.715 110.698H330.869C329.493 110.698 328.358 109.767 328.014 108.492H313.257V114.077V119.661V121.626V128.797V132.831H328.048C328.426 131.624 329.561 130.762 330.869 130.762ZM330.869 157.514H364.715C365.85 157.514 366.882 158.204 367.363 159.169H383.152V155.204V147.999V146.034V140.484V134.83H367.432C366.985 135.899 365.953 136.692 364.715 136.692H330.869C329.63 136.692 328.564 135.933 328.151 134.83H313.257V140.484V146.034V147.999V155.204V159.169H328.22C328.702 158.169 329.733 157.514 330.869 157.514ZM330.869 183.852H364.715C365.85 183.852 366.848 184.507 367.329 185.473H383.117V182.715V174.303V172.338V167.994V161.134H367.57C367.26 162.444 366.091 163.409 364.715 163.409H330.869C329.493 163.409 328.323 162.444 328.014 161.134H313.257V167.994V172.338V174.303V182.715V185.473H328.254C328.736 184.507 329.733 183.852 330.869 183.852ZM313.257 203.606H383.117V199.4V192.402V190.437V192.816V187.403H367.57C367.295 188.713 366.091 189.713 364.715 189.713H330.869C329.458 189.713 328.289 188.713 328.014 187.403H313.257V192.816V190.437V192.402V199.4V203.606Z" fill="#1C85C8"/>
<path d="M322.957 210.629H313.808V219.799H322.957V210.629Z" fill="#4895D1"/>
<path d="M334.033 213.294H329.424V217.914H334.033V213.294Z" fill="#E2EEF5"/>
<path d="M341.944 213.294H337.335V217.914H341.944V213.294Z" fill="#E2EEF5"/>
<path d="M349.855 213.294H345.246V217.914H349.855V213.294Z" fill="#E2EEF5"/>
<path d="M357.766 213.294H353.157V217.914H357.766V213.294Z" fill="#E2EEF5"/>
<path d="M365.678 213.294H361.068V217.914H365.678V213.294Z" fill="#1C85C8"/>
<path d="M347.998 118.146H326.19V122.42H347.998V118.146Z" fill="#D4ECFD"/>
<path d="M347.998 93.3248H326.19V97.5996H347.998V93.3248Z" fill="#D4ECFD"/>
<path d="M347.998 194.712H326.19V198.987H347.998V194.712Z" fill="#D4ECFD"/>
<path d="M347.998 170.271H326.19V174.545H347.998V170.271Z" fill="#D4ECFD"/>
<path d="M347.998 143.864H326.19V148.138H347.998V143.864Z" fill="#D4ECFD"/>
<path d="M354.158 45.0928H113.656V183.265H354.158V45.0928Z" fill="#686868"/>
<path d="M344.286 55.3341H123.528V196.058H344.286V55.3341Z" fill="white"/>
<path fill-rule="evenodd" clip-rule="evenodd" d="M215.058 204.054C214.095 221.74 211.481 226.221 193.594 236.322H233.288H272.982C255.061 226.221 252.482 221.774 251.519 204.054L233.288 202.606L215.058 204.054Z" fill="#686868"/>
<path fill-rule="evenodd" clip-rule="evenodd" d="M354.158 183.266V192.402C354.158 200.055 347.932 206.295 340.296 206.295H127.518C119.882 206.295 113.656 200.055 113.656 192.402V183.266H354.158Z" fill="#686868"/>
<path fill-rule="evenodd" clip-rule="evenodd" d="M223.657 192.679C225.033 192.679 226.134 193.782 226.134 195.161C226.134 196.54 225.033 197.643 223.657 197.643C222.281 197.643 221.181 196.54 221.181 195.161C221.181 193.782 222.281 192.679 223.657 192.679Z" fill="#E2EEF5"/>
<path fill-rule="evenodd" clip-rule="evenodd" d="M232.772 192.679C234.148 192.679 235.249 193.782 235.249 195.161C235.249 196.54 234.148 197.643 232.772 197.643C231.397 197.643 230.296 196.54 230.296 195.161C230.33 193.782 231.431 192.679 232.772 192.679Z" fill="#F6FBFF"/>
<path fill-rule="evenodd" clip-rule="evenodd" d="M241.922 192.679C243.298 192.679 244.399 193.782 244.399 195.161C244.399 196.54 243.298 197.643 241.922 197.643C240.546 197.643 239.445 196.54 239.445 195.161C239.445 193.782 240.546 192.679 241.922 192.679Z" fill="#F6FBFF"/>
<path d="M193.663 69.6732H130.374V167.683H193.663V69.6732Z" fill="#A4CEE9"/>
<path fill-rule="evenodd" clip-rule="evenodd" d="M137.253 156.136H175.777C176.637 156.136 177.359 156.86 177.359 157.722C177.359 158.583 176.637 159.307 175.777 159.307H137.253C136.393 159.307 135.671 158.583 135.671 157.722C135.671 156.86 136.393 156.136 137.253 156.136Z" fill="#E2EEF5"/>
<path fill-rule="evenodd" clip-rule="evenodd" d="M137.253 128.831H158.476C159.336 128.831 160.058 129.555 160.058 130.417C160.058 131.279 159.336 132.003 158.476 132.003H137.253C136.393 132.003 135.671 131.314 135.671 130.417C135.671 129.521 136.393 128.831 137.253 128.831Z" fill="#E2EEF5"/>
<path fill-rule="evenodd" clip-rule="evenodd" d="M165.114 128.831H186.337C187.197 128.831 187.919 129.555 187.919 130.417C187.919 131.279 187.197 132.003 186.337 132.003H165.114C164.254 132.003 163.532 131.314 163.532 130.417C163.532 129.521 164.254 128.831 165.114 128.831Z" fill="#E2EEF5"/>
<path fill-rule="evenodd" clip-rule="evenodd" d="M137.253 137.52H151.596C152.456 137.52 153.179 138.244 153.179 139.106C153.179 139.968 152.456 140.692 151.596 140.692H137.253C136.393 140.692 135.671 139.968 135.671 139.106C135.671 138.209 136.393 137.52 137.253 137.52Z" fill="#E2EEF5"/>
<path fill-rule="evenodd" clip-rule="evenodd" d="M137.253 147.551H158.476C159.336 147.551 160.058 148.275 160.058 149.137C160.058 149.999 159.336 150.723 158.476 150.723H137.253C136.393 150.723 135.671 149.999 135.671 149.137C135.671 148.275 136.393 147.551 137.253 147.551Z" fill="#E2EEF5"/>
<path fill-rule="evenodd" clip-rule="evenodd" d="M165.114 147.551H186.337C187.197 147.551 187.919 148.275 187.919 149.137C187.919 149.999 187.197 150.723 186.337 150.723H165.114C164.254 150.723 163.532 149.999 163.532 149.137C163.532 148.275 164.254 147.551 165.114 147.551Z" fill="#E2EEF5"/>
<path d="M326.125 62.1238H149.429C148.982 62.1238 148.569 62.2962 148.294 62.5719C148.019 62.8477 147.813 63.2614 147.813 63.6751C147.813 64.1233 147.985 64.5025 148.294 64.7783C148.569 65.0541 148.982 65.2265 149.429 65.2265H326.159C326.607 65.2265 327.019 65.0541 327.295 64.7783C327.57 64.5025 327.776 64.0888 327.776 63.6751C327.776 63.227 327.604 62.8477 327.295 62.5719C326.985 62.2962 326.572 62.1238 326.125 62.1238ZM149.429 61.5377H326.159C326.779 61.5377 327.329 61.779 327.707 62.1583C328.12 62.5375 328.361 63.0891 328.361 63.6751C328.361 64.2612 328.12 64.8128 327.707 65.192C327.295 65.5712 326.744 65.8125 326.159 65.8125H149.429C148.81 65.8125 148.26 65.5712 147.881 65.192C147.469 64.8128 147.228 64.2612 147.228 63.6751C147.228 63.0891 147.469 62.5375 147.881 62.1583C148.26 61.779 148.81 61.5377 149.429 61.5377Z" fill="#E2EEF5"/>
<path d="M142.79 61.3663H138.422V66.0203H142.79V61.3663Z" fill="#E2EEF5"/>
<path d="M135.12 61.3663H130.752V66.0203H135.12V61.3663Z" fill="#E2EEF5"/>
<path d="M252 206.296H214.267V211.329H252V206.296Z" fill="#454545"/>
<path fill-rule="evenodd" clip-rule="evenodd" d="M186.956 5.17358C179.148 5.17358 172.784 11.3789 172.784 17.929C172.784 24.4791 177.428 29.0297 183.688 30.3397H201.093V17.929C201.127 10.8618 194.798 5.17358 186.956 5.17358Z" fill="#DEECFD"/>
<path fill-rule="evenodd" clip-rule="evenodd" d="M186.818 5.17358H186.956H186.818ZM201.127 37.0277H201.093V174.58H336.719V70.3987V37.0277V17.929C336.719 10.8963 330.39 5.17358 322.548 5.17358H186.956C194.764 5.17358 201.127 10.8963 201.127 17.929V37.0277Z" fill="#A4CEE9"/>
<path fill-rule="evenodd" clip-rule="evenodd" d="M234.011 27.511V24.9944L240.236 22.5467L234.011 20.0991V17.6169L242.919 21.478V23.6154L234.011 27.511ZM226.065 29.2002L229.298 15.7553H231.156L227.922 29.2002H226.065ZM223.244 27.4765L214.336 23.5809V21.4435L223.244 17.5824V20.0991L217.019 22.4778L223.244 24.9599V27.4765Z" fill="#E2EEF5"/>
<path fill-rule="evenodd" clip-rule="evenodd" d="M221.421 38.7516H241.681C242.335 38.7516 242.885 39.3032 242.885 39.9582C242.885 40.6132 242.335 41.1648 241.681 41.1648H221.421C220.768 41.1648 220.218 40.6132 220.218 39.9582C220.218 39.3032 220.768 38.7516 221.421 38.7516Z" fill="#E2EEF5"/>
<path fill-rule="evenodd" clip-rule="evenodd" d="M247.529 38.7516H258.673C259.327 38.7516 259.877 39.3032 259.877 39.9582C259.877 40.6132 259.327 41.1648 258.673 41.1648H247.529C246.875 41.1648 246.325 40.6132 246.325 39.9582C246.325 39.3032 246.875 38.7516 247.529 38.7516Z" fill="#E2EEF5"/>
<path fill-rule="evenodd" clip-rule="evenodd" d="M228.129 46.8195H251.037C251.691 46.8195 252.241 47.371 252.241 48.026C252.241 48.6811 251.691 49.2326 251.037 49.2326H228.129C227.475 49.2326 226.925 48.6811 226.925 48.026C226.925 47.371 227.441 46.8195 228.129 46.8195Z" fill="#E2EEF5"/>
<path fill-rule="evenodd" clip-rule="evenodd" d="M257.297 46.8195H270.024C270.678 46.8195 271.228 47.371 271.228 48.026C271.228 48.6811 270.678 49.2326 270.024 49.2326H257.297C256.644 49.2326 256.093 48.6811 256.093 48.026C256.093 47.371 256.609 46.8195 257.297 46.8195Z" fill="#E2EEF5"/>
<path fill-rule="evenodd" clip-rule="evenodd" d="M276.456 46.8195H292.279C292.932 46.8195 293.482 47.371 293.482 48.026C293.482 48.6811 292.932 49.2326 292.279 49.2326H276.456C275.803 49.2326 275.252 48.6811 275.252 48.026C275.252 47.371 275.803 46.8195 276.456 46.8195Z" fill="#E2EEF5"/>
<path fill-rule="evenodd" clip-rule="evenodd" d="M228.129 55.2979H258.604C259.258 55.2979 259.808 55.8494 259.808 56.5044C259.808 57.1594 259.258 57.711 258.604 57.711H228.129C227.475 57.711 226.925 57.1594 226.925 56.5044C226.925 55.815 227.441 55.2979 228.129 55.2979Z" fill="#E2EEF5"/>
<path fill-rule="evenodd" clip-rule="evenodd" d="M264.796 55.2979H279.38C280.033 55.2979 280.584 55.8494 280.584 56.5044C280.584 57.1594 280.033 57.711 279.38 57.711H264.796C264.142 57.711 263.592 57.1594 263.592 56.5044C263.592 55.815 264.142 55.2979 264.796 55.2979Z" fill="#E2EEF5"/>
<path fill-rule="evenodd" clip-rule="evenodd" d="M285.193 55.2979H309.167C309.821 55.2979 310.371 55.8494 310.371 56.5044C310.371 57.1594 309.821 57.711 309.167 57.711H285.193C284.539 57.711 283.989 57.1594 283.989 56.5044C283.989 55.815 284.539 55.2979 285.193 55.2979Z" fill="#E2EEF5"/>
<path fill-rule="evenodd" clip-rule="evenodd" d="M228.129 63.5735H239.514C240.167 63.5735 240.718 64.1251 240.718 64.7801C240.718 65.4351 240.167 65.9867 239.514 65.9867H228.094C227.441 65.9867 226.89 65.4351 226.89 64.7801C226.925 64.1251 227.441 63.5735 228.129 63.5735Z" fill="#E2EEF5"/>
<path fill-rule="evenodd" clip-rule="evenodd" d="M245.121 63.5735H285.675C286.328 63.5735 286.878 64.1251 286.878 64.7801C286.878 65.4351 286.328 65.9867 285.675 65.9867H245.121C244.467 65.9867 243.917 65.4351 243.917 64.7801C243.917 64.1251 244.467 63.5735 245.121 63.5735Z" fill="#E2EEF5"/>
<path fill-rule="evenodd" clip-rule="evenodd" d="M228.129 71.5688H258.604C259.258 71.5688 259.808 72.1204 259.808 72.7754C259.808 73.4304 259.258 73.982 258.604 73.982H228.129C227.475 73.982 226.925 73.4304 226.925 72.7754C226.925 72.1204 227.441 71.5688 228.129 71.5688Z" fill="#E2EEF5"/>
<path fill-rule="evenodd" clip-rule="evenodd" d="M264.796 71.5688H279.38C280.033 71.5688 280.584 72.1204 280.584 72.7754C280.584 73.4304 280.033 73.982 279.38 73.982H264.796C264.142 73.982 263.592 73.4304 263.592 72.7754C263.592 72.1204 264.142 71.5688 264.796 71.5688Z" fill="#E2EEF5"/>
<path fill-rule="evenodd" clip-rule="evenodd" d="M228.129 80.0159H258.604C259.258 80.0159 259.808 80.5675 259.808 81.2225C259.808 81.8775 259.258 82.4291 258.604 82.4291H228.129C227.475 82.4291 226.925 81.8775 226.925 81.2225C226.925 80.533 227.441 80.0159 228.129 80.0159Z" fill="#E2EEF5"/>
<path fill-rule="evenodd" clip-rule="evenodd" d="M264.796 80.0159H279.38C280.033 80.0159 280.584 80.5675 280.584 81.2225C280.584 81.8775 280.033 82.4291 279.38 82.4291H264.796C264.142 82.4291 263.592 81.8775 263.592 81.2225C263.592 80.533 264.142 80.0159 264.796 80.0159Z" fill="#E2EEF5"/>
<path fill-rule="evenodd" clip-rule="evenodd" d="M221.421 87.98H245.912C246.565 87.98 247.116 88.5316 247.116 89.1866C247.116 89.8416 246.565 90.3932 245.912 90.3932H221.421C220.768 90.3932 220.218 89.8416 220.218 89.1866C220.218 88.4971 220.768 87.98 221.421 87.98Z" fill="#E2EEF5"/>
<path fill-rule="evenodd" clip-rule="evenodd" d="M252.379 87.98H266.034C266.688 87.98 267.238 88.5316 267.238 89.1866C267.238 89.8416 266.688 90.3932 266.034 90.3932H252.379C251.725 90.3932 251.175 89.8416 251.175 89.1866C251.175 88.4971 251.725 87.98 252.379 87.98Z" fill="#E2EEF5"/>
<path fill-rule="evenodd" clip-rule="evenodd" d="M228.129 97.8397H261.666C262.319 97.8397 262.87 98.3912 262.87 99.0463C262.87 99.7013 262.319 100.253 261.666 100.253H228.129C227.475 100.253 226.925 99.7013 226.925 99.0463C226.925 98.3568 227.441 97.8397 228.129 97.8397Z" fill="#E2EEF5"/>
<path fill-rule="evenodd" clip-rule="evenodd" d="M268.201 97.8397H284.367C285.021 97.8397 285.571 98.3912 285.571 99.0463C285.571 99.7013 285.021 100.253 284.367 100.253H268.201C267.547 100.253 266.997 99.7013 266.997 99.0463C266.997 98.3568 267.547 97.8397 268.201 97.8397Z" fill="#E2EEF5"/>
<path fill-rule="evenodd" clip-rule="evenodd" d="M228.129 106.354H258.811C259.464 106.354 260.015 106.906 260.015 107.561C260.015 108.216 259.464 108.767 258.811 108.767H228.129C227.475 108.767 226.925 108.216 226.925 107.561C226.925 106.871 227.441 106.354 228.129 106.354Z" fill="#E2EEF5"/>
<path fill-rule="evenodd" clip-rule="evenodd" d="M265.036 106.354H279.758C280.412 106.354 280.962 106.906 280.962 107.561C280.962 108.216 280.412 108.767 279.758 108.767H265.036C264.383 108.767 263.833 108.216 263.833 107.561C263.833 106.871 264.383 106.354 265.036 106.354Z" fill="#E2EEF5"/>
<path fill-rule="evenodd" clip-rule="evenodd" d="M228.129 114.49H238.654C239.308 114.49 239.858 115.041 239.858 115.696C239.858 116.351 239.308 116.903 238.654 116.903H228.129C227.475 116.903 226.925 116.351 226.925 115.696C226.925 115.041 227.441 114.49 228.129 114.49Z" fill="#E2EEF5"/>
<path fill-rule="evenodd" clip-rule="evenodd" d="M244.33 114.49H285.709C286.362 114.49 286.913 115.041 286.913 115.696C286.913 116.351 286.362 116.903 285.709 116.903H244.33C243.676 116.903 243.126 116.351 243.126 115.696C243.126 115.041 243.676 114.49 244.33 114.49Z" fill="#E2EEF5"/>
<path fill-rule="evenodd" clip-rule="evenodd" d="M228.129 122.833H254.339C254.993 122.833 255.543 123.385 255.543 124.04C255.543 124.695 254.993 125.246 254.339 125.246H228.129C227.475 125.246 226.925 124.695 226.925 124.04C226.925 123.35 227.441 122.833 228.129 122.833Z" fill="#E2EEF5"/>
<path fill-rule="evenodd" clip-rule="evenodd" d="M260.049 122.833H272.432C273.085 122.833 273.636 123.385 273.636 124.04C273.636 124.695 273.085 125.246 272.432 125.246H260.049C259.396 125.246 258.845 124.695 258.845 124.04C258.845 123.35 259.396 122.833 260.049 122.833Z" fill="#E2EEF5"/>
<path fill-rule="evenodd" clip-rule="evenodd" d="M278.589 122.833H309.236C309.89 122.833 310.44 123.385 310.44 124.04C310.44 124.695 309.89 125.246 309.236 125.246H278.589C277.935 125.246 277.385 124.695 277.385 124.04C277.385 123.35 277.935 122.833 278.589 122.833Z" fill="#E2EEF5"/>
<path fill-rule="evenodd" clip-rule="evenodd" d="M228.129 130.693H238.654C239.308 130.693 239.858 131.245 239.858 131.9C239.858 132.555 239.308 133.106 238.654 133.106H228.129C227.475 133.106 226.925 132.555 226.925 131.9C226.925 131.245 227.441 130.693 228.129 130.693Z" fill="#E2EEF5"/>
<path fill-rule="evenodd" clip-rule="evenodd" d="M244.33 130.693H285.709C286.362 130.693 286.913 131.245 286.913 131.9C286.913 132.555 286.362 133.106 285.709 133.106H244.33C243.676 133.106 243.126 132.555 243.126 131.9C243.126 131.245 243.676 130.693 244.33 130.693Z" fill="#E2EEF5"/>
<path fill-rule="evenodd" clip-rule="evenodd" d="M221.421 139.278H245.912C246.565 139.278 247.116 139.829 247.116 140.484C247.116 141.139 246.565 141.691 245.912 141.691H221.421C220.768 141.691 220.218 141.139 220.218 140.484C220.218 139.829 220.768 139.278 221.421 139.278Z" fill="#E2EEF5"/>
<path fill-rule="evenodd" clip-rule="evenodd" d="M252.379 139.278H266.034C266.688 139.278 267.238 139.829 267.238 140.484C267.238 141.139 266.688 141.691 266.034 141.691H252.379C251.725 141.691 251.175 141.139 251.175 140.484C251.175 139.829 251.725 139.278 252.379 139.278Z" fill="#E2EEF5"/>
<path fill-rule="evenodd" clip-rule="evenodd" d="M234.011 169.029V166.512L240.236 164.064L234.011 161.617V159.135L242.919 162.996V165.133L234.011 169.029ZM226.065 170.718L229.298 157.273H231.156L227.922 170.718H226.065ZM223.244 169.029L214.336 165.133V162.996L223.244 159.135V161.651L217.019 164.03L223.244 166.512V169.029Z" fill="#E2EEF5"/>
<path fill-rule="evenodd" clip-rule="evenodd" d="M32.793 236.321H524.391C524.872 236.321 525.251 236.7 525.251 237.183C525.251 237.666 524.872 238.045 524.391 238.045H32.793C32.3115 238.045 31.9331 237.666 31.9331 237.183C31.9331 236.7 32.3115 236.321 32.793 236.321Z" fill="#454545"/>
<path fill-rule="evenodd" clip-rule="evenodd" d="M142.343 78.398H180.008C182.037 78.398 183.654 80.0528 183.654 82.0523V115.32C183.654 117.354 182.003 118.974 180.008 118.974H142.343C140.314 118.974 138.697 117.319 138.697 115.32V82.0523C138.697 80.0528 140.348 78.398 142.343 78.398Z" fill="#D8E7FF"/>
<path fill-rule="evenodd" clip-rule="evenodd" d="M183.688 110.595V115.352C183.688 117.386 182.209 119.007 180.352 119.007H175.88L162.809 103.08C162.809 103.08 169.62 95.2539 169.62 94.8057C169.62 94.4954 179.492 105.769 183.688 110.595Z" fill="#125682"/>
<path fill-rule="evenodd" clip-rule="evenodd" d="M175.88 119.007H142.034C140.211 119.007 138.697 117.353 138.697 115.353V105.562L150.392 87.9462L175.88 119.007Z" fill="#1C85C8"/>
<path fill-rule="evenodd" clip-rule="evenodd" d="M171.581 81.6025C174.401 81.6025 176.671 83.8778 176.671 86.7047C176.671 89.5315 174.401 91.8068 171.581 91.8068C168.76 91.8068 166.49 89.5315 166.49 86.7047C166.49 83.8778 168.76 81.6025 171.581 81.6025Z" fill="#E2EEF5"/>
<path fill-rule="evenodd" clip-rule="evenodd" d="M274.289 139.278H298.78C299.433 139.278 299.983 139.829 299.983 140.484C299.983 141.139 299.433 141.691 298.78 141.691H274.289C273.636 141.691 273.085 141.139 273.085 140.484C273.085 139.829 273.636 139.278 274.289 139.278Z" fill="#E2EEF5"/>
<path fill-rule="evenodd" clip-rule="evenodd" d="M228.129 148.034H238.654C239.308 148.034 239.858 148.586 239.858 149.241C239.858 149.896 239.308 150.447 238.654 150.447H228.129C227.475 150.447 226.925 149.896 226.925 149.241C226.925 148.551 227.441 148.034 228.129 148.034Z" fill="#E2EEF5"/>
<path fill-rule="evenodd" clip-rule="evenodd" d="M244.33 148.034H285.709C286.362 148.034 286.913 148.586 286.913 149.241C286.913 149.896 286.362 150.447 285.709 150.447H244.33C243.676 150.447 243.126 149.896 243.126 149.241C243.126 148.551 243.676 148.034 244.33 148.034Z" fill="#E2EEF5"/>
</g>
<path fill-rule="evenodd" clip-rule="evenodd" d="M107.814 176.971C117.413 186.728 115.508 219.422 127.703 223.499C127.703 223.499 136.424 225.636 135.826 228.347C135.247 231.059 134.108 232.088 134.108 232.088C134.108 232.088 123.837 233.077 115.228 231.158C110.373 230.089 109.663 223.321 107.833 222.529C102.735 220.352 100.027 198.464 100.027 198.464L107.814 176.971Z" fill="#6AAFF1"/>
<path d="M95.7611 171.948H73.4143C63.6094 171.948 55.3991 179.19 53.765 188.642C53.5878 188.642 52.8593 194.878 52.8002 195.43C51.6977 207.093 51.6189 224.142 54.8872 236.416H107.456L107.673 207.467V176.684C104.208 173.724 100.624 171.948 95.7611 171.948Z" fill="#408CD5"/>
<path fill-rule="evenodd" clip-rule="evenodd" d="M98.8726 151.757C98.7696 153.796 99.1197 155.625 99.6344 156.998C101.261 161.323 97.6989 168.775 91.4392 168.279L91.4598 172.224H91.3569C94.1161 175.235 90.7186 182.362 87.5681 182.4C84.8501 182.419 79.8877 177.007 79.5583 172.224V164.125C79.2494 164.029 79.2288 164.087 78.6111 163.744C77.9728 163.381 74.8223 160.504 75.0694 159.151C75.3165 157.798 78.2404 157.645 78.2404 157.645L78.9199 157.093C77.1697 153.091 75.8313 153.015 80.3613 150.804C84.8913 148.574 94.0131 148.746 94.0131 148.746L98.7284 150.061L98.8726 151.757Z" fill="#EACDB0"/>
<path fill-rule="evenodd" clip-rule="evenodd" d="M71.3476 185.472C69.2588 180.688 64.3849 175.147 62.1027 179.831C59.4144 182.602 58.8535 182.98 58.7761 186.668C58.5827 198.049 62.7797 226.731 74.8869 229.96C81.3854 231.694 92.429 233.169 99.7204 232.91C102.66 232.81 105.909 233.986 107.051 233.089C111.054 230 106.567 226.492 106.567 226.492C106.567 226.492 81.3854 218.778 78.8131 217.981C74.5775 216.625 72.8175 188.821 71.3476 185.472Z" fill="#EACDB0"/>
<path fill-rule="evenodd" clip-rule="evenodd" d="M110.958 201.943H155.485C157.203 201.943 158.98 203.346 158.605 204.981L151.951 233.648C151.575 235.282 150.549 236.686 148.831 236.686H104.283C102.565 236.686 100.788 235.282 101.163 233.648L107.818 204.981C108.213 203.346 109.24 201.943 110.958 201.943Z" fill="#454545"/>
<path d="M160.813 200.757H99.8857V236.415H160.813V200.757Z" fill="#D9D9D9"/>
<path fill-rule="evenodd" clip-rule="evenodd" d="M130.718 216.15C132.114 216.54 132.812 218.027 132.278 219.479C131.744 220.931 130.164 221.781 128.768 221.391C127.372 221.002 126.674 219.514 127.208 218.063C127.762 216.628 129.322 215.761 130.718 216.15Z" fill="#1C85C8"/>
<path fill-rule="evenodd" clip-rule="evenodd" d="M75.6405 232.343H100.892L103.284 236.686H73.9697V234.514C73.9697 233.305 74.7102 232.343 75.6405 232.343Z" fill="#454545"/>
<path fill-rule="evenodd" clip-rule="evenodd" d="M81.4221 151.205C80.1173 153.649 80.6994 157.978 81.3016 159.261C82.1849 161.104 81.5425 161.846 80.7596 161.585C79.0534 161.004 78.5314 160.263 77.2668 159.641C76.9657 159.501 76.3434 159.381 76.1426 159.621C75.2995 160.563 77.1664 163.188 78.2905 163.91C72.71 164.571 65.383 155.112 70 149.281C67.3904 131.124 91.7601 131.385 100.793 141.665C102.359 143.429 102.58 147.096 101.636 148.519C97.3407 155.032 86.4004 148.299 82.4659 150.223C82.0243 150.423 81.683 150.744 81.4221 151.205Z" fill="black"/>
<path fill-rule="evenodd" clip-rule="evenodd" d="M74.0394 183.461C71.9577 179.172 66.1659 176.657 62.1055 178.887C60.7245 179.649 58.9931 181.307 58.3954 183.327C55.5098 193.143 62.1673 216.682 64.7437 222.571C71.4218 217.082 77.8937 215.939 79.3984 215.615C76.8013 207.266 75.2967 186.034 74.0394 183.461Z" fill="#76B9F9"/>
<path fill-rule="evenodd" clip-rule="evenodd" d="M58.0431 182.4C53.5732 192.067 60.603 214.637 63.8914 222.571C65.0729 221.532 66.2741 220.646 67.4555 219.856C62.6705 209.63 58.3581 190.681 58.0431 182.4Z" fill="#74B2EC"/>
<path fill-rule="evenodd" clip-rule="evenodd" d="M87.2922 192.363C86.8602 192.363 86.5183 192.796 86.5183 193.353C86.5183 193.889 86.8602 194.343 87.2922 194.343C87.7241 194.343 88.0661 193.91 88.0661 193.353C88.0661 192.796 87.7241 192.363 87.2922 192.363ZM87.2922 186.649C86.8602 186.649 86.5183 187.082 86.5183 187.639C86.5183 188.175 86.8602 188.629 87.2922 188.629C87.7241 188.629 88.0661 188.196 88.0661 187.639C88.0661 187.082 87.7241 186.649 87.2922 186.649ZM90.1899 171.819C91.7377 176.831 89.182 180.585 86.7883 182.297C83.0987 179.224 79.7691 176.233 79.7691 170.457C79.7691 170.457 78.4912 170.437 77.6633 173.015C76.2955 177.202 78.5812 186.628 78.5812 186.628C78.5812 186.628 81.1549 182.379 83.2787 182.152C85.4204 181.926 86.8062 182.751 86.8062 182.751C89.5419 180.193 91.3957 183.514 93.2315 185.948C93.8074 179.739 93.8074 175.366 90.1719 170.56C90.1899 170.849 90.1359 171.654 90.1899 171.819Z" fill="white"/>
</svg>
