<svg width="380" height="340" viewBox="0 0 380 340" fill="none" xmlns="http://www.w3.org/2000/svg">
<mask id="mask0" mask-type="alpha" maskUnits="userSpaceOnUse" x="0" y="89" width="380" height="251">
<rect y="89.0286" width="380" height="250.8" fill="#1C85C8"/>
</mask>
<g mask="url(#mask0)">
<circle cx="190.543" cy="352.314" r="242.657" fill="white"/>
</g>
<path d="M125.943 249.39V238.128L118.88 237.168C118.561 235.408 118.081 233.713 117.506 232.081L123.162 227.73L117.538 217.972L110.923 220.691C109.772 219.348 108.526 218.132 107.216 216.98L109.932 210.357L100.185 204.726L95.8391 210.389C94.2093 209.813 92.5156 209.365 90.7579 209.014L89.7992 201.943H78.5503L77.5915 209.014C75.8339 209.333 74.1402 209.813 72.5103 210.389L68.1642 204.726L58.3533 210.325L61.0697 216.948C59.7275 218.1 58.5131 219.348 57.3627 220.659L50.7475 217.94L45.123 227.698L50.7795 232.049C50.2042 233.681 49.7568 235.376 49.4053 237.136L42.3428 238.096V249.358L49.4053 250.318C49.7249 252.077 50.2042 253.773 50.7795 255.405L45.123 259.756L50.7475 269.514L57.3627 266.794C58.5131 268.138 59.7594 269.354 61.0697 270.506L58.3533 277.128L68.1003 282.759L72.4464 277.096C74.0762 277.672 75.77 278.12 77.5276 278.472L78.4863 285.543H89.7353L90.694 278.472C92.4516 278.152 94.1454 277.672 95.7752 277.096L100.121 282.759L109.868 277.128L107.152 270.506C108.494 269.354 109.709 268.106 110.859 266.794L117.474 269.514L123.099 259.756L117.442 255.405C118.017 253.773 118.465 252.077 118.816 250.318L125.943 249.39ZM84.1428 266.634C71.5197 266.634 61.2934 256.396 61.2934 243.759C61.2934 231.121 71.5197 220.883 84.1428 220.883C96.7659 220.883 106.992 231.121 106.992 243.759C106.992 256.364 96.7659 266.634 84.1428 266.634Z" fill="#E2EEF5"/>
<mask id="mask1" mask-type="alpha" maskUnits="userSpaceOnUse" x="31" y="0" width="350" height="237">
<rect x="31.4858" width="348.514" height="236.686" rx="10" fill="#1C85C8"/>
</mask>
<g mask="url(#mask1)">
<path d="M170.059 100.222V218.022C170.059 218.594 170.104 219.165 170.305 219.689C170.328 219.737 170.328 219.801 170.35 219.848C170.979 221.341 172.37 222.627 174.232 223.437C175.578 224.025 177.148 224.374 178.853 224.374H425.547C425.816 224.374 426.063 224.342 426.332 224.326C426.983 224.279 427.678 224.168 428.284 224.009C431.29 223.247 433.489 221.198 433.489 218.816V99.4442C433.489 97.1098 431.403 95.1407 428.531 94.3308C427.634 94.0767 426.579 93.9496 425.547 93.9496H178.876C173.94 93.9496 170.059 96.7287 170.059 100.222Z" fill="#686868"/>
<path d="M179.058 215.175H410.524C412.545 215.175 414.162 213.954 414.162 212.464V101.364C414.162 99.8577 412.523 98.653 410.524 98.653H179.058C177.037 98.653 175.42 99.8745 175.42 101.364V212.464C175.397 213.97 177.037 215.175 179.058 215.175Z" fill="white"/>
<path d="M304.147 232.111C304.147 229.674 301.322 227.69 297.801 227.69H41.9084C38.4098 227.69 35.5616 229.658 35.5616 232.111C35.5616 234.548 38.3874 236.532 41.9084 236.532H297.801C301.322 236.532 304.147 234.548 304.147 232.111Z" fill="#454545"/>
<path d="M427.94 232.111C427.94 229.674 425.094 227.69 421.597 227.69H298.332C294.835 227.69 291.989 229.658 291.989 232.111C291.989 234.548 294.813 236.532 298.332 236.532H421.597C425.094 236.532 427.94 234.548 427.94 232.111Z" fill="#686868"/>
<path d="M370.312 229.725H370.873C371.434 229.725 371.905 230.197 371.905 230.758V236.531H369.303V230.758C369.28 230.197 369.751 229.725 370.312 229.725Z" fill="black"/>
<path d="M365.87 229.725H366.409C366.97 229.725 367.441 230.197 367.441 230.759V236.531H364.838V230.759C364.838 230.197 365.287 229.725 365.87 229.725Z" fill="black"/>
<path d="M361.293 229.725H361.854C362.415 229.725 362.886 230.197 362.886 230.759V236.531H360.284V230.759C360.261 230.197 360.733 229.725 361.293 229.725Z" fill="black"/>
<path d="M356.851 229.725H357.412C357.973 229.725 358.444 230.197 358.444 230.759V236.531H355.842V230.759C355.819 230.197 356.268 229.725 356.851 229.725Z" fill="black"/>
<path d="M352.387 229.725H352.948C353.509 229.725 353.98 230.197 353.98 230.759V236.531H351.377V230.759C351.355 230.197 351.826 229.725 352.387 229.725Z" fill="black"/>
<path d="M347.922 229.725H348.483C349.044 229.725 349.515 230.197 349.515 230.759V236.531H346.913V230.759C346.913 230.197 347.361 229.725 347.922 229.725Z" fill="black"/>
<path d="M343.368 229.725H343.929C344.49 229.725 344.961 230.197 344.961 230.759V236.531H342.359V230.759C342.336 230.197 342.807 229.725 343.368 229.725Z" fill="black"/>
<path d="M338.903 229.725H339.464C340.025 229.725 340.496 230.197 340.496 230.759V236.531H337.894V230.759C337.894 230.197 338.343 229.725 338.903 229.725Z" fill="black"/>
<path d="M152.761 228.24H187.131V229.319C187.131 231.52 185.359 233.294 183.16 233.294H156.732C154.533 233.294 152.761 231.52 152.761 229.319V228.24Z" fill="#686868"/>
<path d="M72.2001 74.9134C59.3082 74.9134 48.8573 64.4625 48.8573 51.5706C48.8573 38.6787 59.3082 28.2277 72.2001 28.2277C85.092 28.2277 95.543 38.6787 95.543 51.5706C95.543 64.4625 85.092 74.9134 72.2001 74.9134Z" fill="#E2EEF5"/>
<path d="M78.59 58.1475L90.4871 52.9046V51.195L78.59 45.2492V48.1176L86.787 51.9168L78.59 55.2791V58.1475Z" fill="white"/>
<path d="M67.5279 43.063L74.0552 60.5773H77.3757L70.8485 43.063H67.5279Z" fill="white"/>
<path d="M66.3704 55.2971L58.1733 51.9348L66.3704 48.1356V45.2672L54.4733 51.2129V52.9226L66.3704 58.1655V55.2971Z" fill="white"/>
<path d="M152.29 189.925C152.29 197.247 158.213 203.176 165.527 203.176H393.241C400.554 203.176 406.477 197.247 406.477 189.925V32.5683C406.477 25.2462 400.554 19.3167 393.241 19.3167H165.527C158.213 19.3167 152.29 25.2462 152.29 32.5683V189.925Z" fill="#A4CEE9"/>
<path d="M158.819 39.4199H399.949C401.834 39.4199 403.359 40.9472 403.359 42.8339V189.791C403.359 195.384 398.827 199.921 393.241 199.921H165.527C159.941 199.921 155.409 195.384 155.409 189.791V42.8339C155.386 40.9472 156.934 39.4199 158.819 39.4199Z" fill="white"/>
<path d="M372.847 35.0609C369.874 35.0609 367.463 32.6476 367.463 29.6705C367.463 26.6934 369.874 24.28 372.847 24.28C375.821 24.28 378.232 26.6934 378.232 29.6705C378.232 32.6476 375.821 35.0609 372.847 35.0609Z" fill="white"/>
<path d="M359.184 35.0609C356.211 35.0609 353.8 32.6476 353.8 29.6705C353.8 26.6934 356.211 24.28 359.184 24.28C362.158 24.28 364.569 26.6934 364.569 29.6705C364.569 32.6476 362.158 35.0609 359.184 35.0609Z" fill="white"/>
<path opacity="0.4" d="M152.29 39.4199V189.926C152.29 197.226 158.213 203.29 165.504 203.29H225.697C225.697 203.29 190.183 157.808 206.829 112.595C223.476 67.3829 171.831 39.5771 171.831 39.5771L152.29 39.4199Z" fill="white"/>
<path d="M168.219 29.8951C168.219 31.4898 169.431 32.6577 171.293 32.6577H342.224C344.086 32.6577 345.455 31.4898 345.455 29.8951V27.2448C345.455 25.6501 344.086 24.3474 342.224 24.3474H171.293C169.431 24.3474 168.219 25.6276 168.219 27.2448V29.8951Z" fill="white"/>
<path d="M311.084 184.492C311.084 186.086 312.385 187.389 313.978 187.389H389.023C390.616 187.389 391.917 186.086 391.917 184.492V52.8521C391.917 51.2574 390.616 49.9547 389.023 49.9547H313.978C312.385 49.9547 311.084 51.2574 311.084 52.8521V184.492Z" fill="#E2EEF5"/>
<path d="M172.795 105.879H298.251C300.158 105.879 301.706 104.329 301.706 102.42V52.9624C301.706 51.0533 300.158 49.5035 298.251 49.5035H172.795C170.889 49.5035 169.34 51.0533 169.34 52.9624V102.42C169.34 104.329 170.889 105.879 172.795 105.879ZM298.251 50.6266C299.53 50.6266 300.585 51.6822 300.585 52.9624V102.42C300.585 103.7 299.53 104.756 298.251 104.756H172.795C171.517 104.756 170.462 103.7 170.462 102.42V52.9624C170.462 51.6822 171.517 50.6266 172.795 50.6266H298.251Z" fill="#A4CEE9"/>
<path d="M172.706 188.084H298.184C300.091 188.084 301.706 186.04 301.706 183.637V119.76C301.706 117.446 300.113 115.56 298.184 115.56H172.728C170.799 115.56 169.363 117.379 169.363 119.76V183.659C169.34 186.085 170.866 188.084 172.706 188.084ZM298.184 116.66C299.508 116.66 300.585 118.053 300.585 119.737V183.637C300.585 185.366 299.44 186.961 298.184 186.961H172.728C171.517 186.961 170.485 185.434 170.485 183.637V119.76C170.485 118.008 171.449 116.683 172.728 116.683H298.184V116.66Z" fill="#A4CEE9"/>
<path d="M355.999 62.5527C355.999 63.541 356.784 64.3271 357.771 64.3271H381.373C382.36 64.3271 383.145 63.541 383.145 62.5527V62.5078C383.145 61.5196 382.36 60.7335 381.373 60.7335H357.771C356.784 60.7335 355.999 61.5196 355.999 62.5078V62.5527Z" fill="white"/>
<path d="M324.814 62.5534C324.814 63.5416 325.599 64.3277 326.587 64.3277H350.188C351.175 64.3277 351.96 63.5416 351.96 62.5534V62.5084C351.96 61.5202 351.175 60.7341 350.188 60.7341H326.587C325.599 60.7341 324.814 61.5202 324.814 62.5084V62.5534Z" fill="white"/>
<path d="M355.999 78.2757C355.999 79.264 356.784 80.0501 357.771 80.0501H381.373C382.36 80.0501 383.145 79.264 383.145 78.2757V78.2308C383.145 77.2425 382.36 76.4564 381.373 76.4564H357.771C356.784 76.4564 355.999 77.2425 355.999 78.2308V78.2757Z" fill="white"/>
<path d="M324.814 78.2762C324.814 79.2644 325.599 80.0506 326.587 80.0506H350.188C351.175 80.0506 351.96 79.2644 351.96 78.2762V78.2313C351.96 77.243 351.175 76.4569 350.188 76.4569H326.587C325.599 76.4569 324.814 77.243 324.814 78.2313V78.2762Z" fill="white"/>
<path d="M340.519 70.6376C340.519 71.6258 341.304 72.4119 342.291 72.4119H365.893C366.88 72.4119 367.665 71.6258 367.665 70.6376V70.5927C367.665 69.6044 366.88 68.8183 365.893 68.8183H342.291C341.304 68.8183 340.519 69.6044 340.519 70.5927V70.6376Z" fill="white"/>
<path d="M369.908 70.6155C369.908 71.6037 370.716 72.4123 371.703 72.4123H381.35C382.337 72.4123 383.145 71.6037 383.145 70.6155C383.145 69.6272 382.337 68.8187 381.35 68.8187H371.703C370.716 68.8187 369.908 69.6272 369.908 70.6155Z" fill="white"/>
<path d="M323.917 70.6151C323.917 71.6034 324.725 72.4119 325.712 72.4119H335.359C336.346 72.4119 337.154 71.6034 337.154 70.6151C337.154 69.6269 336.346 68.8183 335.359 68.8183H325.712C324.725 68.8183 323.917 69.6269 323.917 70.6151Z" fill="white"/>
<path d="M355.999 156.437C355.999 157.425 356.784 158.211 357.771 158.211H381.373C382.36 158.211 383.145 157.425 383.145 156.437V156.392C383.145 155.404 382.36 154.618 381.373 154.618H357.771C356.784 154.618 355.999 155.404 355.999 156.392V156.437Z" fill="white"/>
<path d="M324.814 156.438C324.814 157.426 325.599 158.212 326.587 158.212H350.188C351.175 158.212 351.96 157.426 351.96 156.438V156.393C351.96 155.405 351.175 154.618 350.188 154.618H326.587C325.599 154.618 324.814 155.405 324.814 156.393V156.438Z" fill="white"/>
<path d="M355.999 172.608C355.999 173.597 356.784 174.383 357.771 174.383H381.373C382.36 174.383 383.145 173.597 383.145 172.608V172.563C383.145 171.575 382.36 170.789 381.373 170.789H357.771C356.784 170.789 355.999 171.575 355.999 172.563V172.608Z" fill="white"/>
<path d="M324.814 172.609C324.814 173.597 325.599 174.384 326.587 174.384H350.188C351.175 174.384 351.96 173.597 351.96 172.609V172.564C351.96 171.576 351.175 170.79 350.188 170.79H326.587C325.599 170.79 324.814 171.576 324.814 172.564V172.609Z" fill="white"/>
<path d="M340.519 164.971C340.519 165.959 341.304 166.745 342.291 166.745H365.893C366.88 166.745 367.665 165.959 367.665 164.971V164.926C367.665 163.937 366.88 163.151 365.893 163.151H342.291C341.304 163.151 340.519 163.937 340.519 164.926V164.971Z" fill="white"/>
<path d="M369.908 164.949C369.908 165.937 370.716 166.745 371.703 166.745H381.35C382.337 166.745 383.145 165.937 383.145 164.949C383.145 163.96 382.337 163.152 381.35 163.152H371.703C370.716 163.152 369.908 163.96 369.908 164.949Z" fill="white"/>
<path d="M323.917 164.948C323.917 165.936 324.725 166.745 325.712 166.745H335.359C336.346 166.745 337.154 165.936 337.154 164.948C337.154 163.96 336.346 163.151 335.359 163.151H325.712C324.725 163.151 323.917 163.96 323.917 164.948Z" fill="white"/>
<path d="M237.498 133.753C237.498 135.348 238.799 136.65 240.392 136.65H293.226C294.819 136.65 296.12 135.348 296.12 133.753V124.342C296.12 122.747 294.819 121.445 293.226 121.445H240.392C238.799 121.445 237.498 122.747 237.498 124.342V133.753Z" fill="#E2EEF5"/>
<path d="M237.498 155.27C237.498 156.865 238.799 158.168 240.392 158.168H293.226C294.819 158.168 296.12 156.865 296.12 155.27V145.859C296.12 144.265 294.819 142.962 293.226 142.962H240.392C238.799 142.962 237.498 144.265 237.498 145.859V155.27Z" fill="#E2EEF5"/>
<path d="M237.498 176.766C237.498 178.361 238.799 179.663 240.392 179.663H293.226C294.819 179.663 296.12 178.361 296.12 176.766V167.333C296.12 165.738 294.819 164.435 293.226 164.435H240.392C238.799 164.435 237.498 165.738 237.498 167.333V176.766Z" fill="#E2EEF5"/>
<path d="M174.523 133.753C174.523 135.348 175.824 136.65 177.417 136.65H230.251C231.844 136.65 233.146 135.348 233.146 133.753V124.342C233.146 122.747 231.844 121.445 230.251 121.445H177.417C175.824 121.445 174.523 122.747 174.523 124.342V133.753Z" fill="#E2EEF5"/>
<path d="M174.523 155.27C174.523 156.865 175.824 158.168 177.417 158.168H230.251C231.844 158.168 233.146 156.865 233.146 155.27V145.859C233.146 144.265 231.844 142.962 230.251 142.962H177.417C175.824 142.962 174.523 144.265 174.523 145.859V155.27Z" fill="#E2EEF5"/>
<path d="M174.523 176.766C174.523 178.361 175.824 179.663 177.417 179.663H230.251C231.844 179.663 233.146 178.361 233.146 176.766V167.333C233.146 165.738 231.844 164.435 230.251 164.435H177.417C175.824 164.435 174.523 165.738 174.523 167.333V176.766Z" fill="#E2EEF5"/>
<path d="M318.084 138.469C318.084 140.064 319.385 141.367 320.978 141.367H384.065C385.658 141.367 386.959 140.064 386.959 138.469V93.7285C386.959 92.1338 385.658 90.8311 384.065 90.8311H320.978C319.385 90.8311 318.084 92.1338 318.084 93.7285V138.469Z" fill="#A4CEE9"/>
<path d="M286.361 65.7651C284.031 65.7651 282.143 63.8746 282.143 61.5425C282.143 59.2105 284.031 57.32 286.361 57.32C288.69 57.32 290.579 59.2105 290.579 61.5425C290.579 63.8746 288.69 65.7651 286.361 65.7651Z" fill="#A4CEE9"/>
<path d="M178.987 61.8558C178.987 62.8441 179.795 63.6527 180.782 63.6527H272.092C273.079 63.6527 273.887 62.8441 273.887 61.8558C273.887 60.8676 273.079 60.059 272.092 60.059H180.782C179.795 60.059 178.987 60.8676 178.987 61.8558Z" fill="#A4CEE9"/>
<path d="M283.386 80.705C281.739 79.056 281.739 76.3825 283.386 74.7335C285.033 73.0845 287.704 73.0845 289.351 74.7335C290.998 76.3825 290.998 79.056 289.351 80.705C287.704 82.354 285.033 82.354 283.386 80.705Z" fill="#A4CEE9"/>
<path d="M178.987 78.0265C178.987 79.0147 179.795 79.8233 180.782 79.8233H272.092C273.079 79.8233 273.887 79.0147 273.887 78.0265C273.887 77.0382 273.079 76.2297 272.092 76.2297H180.782C179.795 76.2297 178.987 77.0382 178.987 78.0265Z" fill="#A4CEE9"/>
<path d="M282.249 94.8967C281.714 92.6272 283.118 90.3529 285.385 89.817C287.652 89.2811 289.923 90.6865 290.458 92.9561C290.994 95.2256 289.59 97.4999 287.323 98.0358C285.056 98.5717 282.784 97.1663 282.249 94.8967Z" fill="#A4CEE9"/>
<path d="M178.987 94.1993C178.987 95.1876 179.795 95.9962 180.782 95.9962H272.092C273.079 95.9962 273.887 95.1876 273.887 94.1993C273.887 93.2111 273.079 92.4025 272.092 92.4025H180.782C179.795 92.4025 178.987 93.2111 178.987 94.1993Z" fill="#A4CEE9"/>
<path d="M356.335 126.903L344.49 120.053C343.57 119.514 342.987 118.526 342.987 117.448C342.987 116.369 343.547 115.381 344.49 114.842L356.335 107.992C357.255 107.453 358.534 107.453 359.476 107.992C360.396 108.531 361.114 109.519 361.114 110.597V124.275C361.114 125.354 360.419 126.342 359.476 126.881C358.534 127.442 357.278 127.442 356.335 126.903Z" fill="white"/>
<path d="M122.699 101.408C122.699 105.765 126.759 109.269 131.762 109.269H287.954C292.957 109.269 297.018 105.743 297.018 101.408V7.86109C297.018 3.5038 292.957 0 287.954 0H131.762C126.759 0 122.699 3.52626 122.699 7.86109V101.408Z" fill="#A4CEE9"/>
<path d="M127.186 11.9488H292.553C293.854 11.9488 294.886 12.8697 294.886 13.9927V101.363C294.886 104.687 291.768 107.382 287.954 107.382H131.762C127.926 107.382 124.83 104.687 124.83 101.363V13.9927C124.83 12.8472 125.884 11.9488 127.186 11.9488Z" fill="white"/>
<path d="M150.518 9.29795C148.647 9.29795 147.13 7.77953 147.13 5.90645C147.13 4.03338 148.647 2.51495 150.518 2.51495C152.389 2.51495 153.906 4.03338 153.906 5.90645C153.906 7.77953 152.389 9.29795 150.518 9.29795Z" fill="white"/>
<path d="M141.903 9.29795C140.032 9.29795 138.515 7.77953 138.515 5.90645C138.515 4.03338 140.032 2.51495 141.903 2.51495C143.774 2.51495 145.29 4.03338 145.29 5.90645C145.29 7.77953 143.774 9.29795 141.903 9.29795Z" fill="white"/>
<path d="M133.31 9.29795C131.439 9.29795 129.923 7.77953 129.923 5.90645C129.923 4.03338 131.439 2.51495 133.31 2.51495C135.181 2.51495 136.698 4.03338 136.698 5.90645C136.698 7.77953 135.181 9.29795 133.31 9.29795Z" fill="white"/>
<path d="M203.666 25.986C203.666 26.9068 204.407 27.648 205.326 27.648H283.489C284.409 27.648 285.15 26.9068 285.15 25.986V25.9186C285.15 24.9977 284.409 24.2565 283.489 24.2565H205.326C204.407 24.2565 203.666 24.9977 203.666 25.9186V25.986Z" fill="#E2EEF5"/>
<path d="M180.311 25.941C180.311 26.8844 181.074 27.648 182.016 27.648H197.855C198.797 27.648 199.56 26.8844 199.56 25.941C199.56 24.9977 198.797 24.2341 197.855 24.2341H182.016C181.074 24.2341 180.311 24.9977 180.311 25.941Z" fill="#E2EEF5"/>
<path d="M157.943 25.941C157.943 26.8844 158.706 27.648 159.649 27.648H175.488C176.43 27.648 177.193 26.8844 177.193 25.941C177.193 24.9977 176.43 24.2341 175.488 24.2341H159.649C158.706 24.2341 157.943 24.9977 157.943 25.941Z" fill="#E2EEF5"/>
<path d="M265.923 33.7342C265.923 34.6775 266.685 35.4412 267.628 35.4412H283.467C284.409 35.4412 285.172 34.6775 285.172 33.7342C285.172 32.7909 284.409 32.0272 283.467 32.0272H267.628C266.685 32.0272 265.923 32.7909 265.923 33.7342Z" fill="#E2EEF5"/>
<path d="M242.433 33.7342C242.433 34.6775 243.196 35.4412 244.138 35.4412H259.977C260.919 35.4412 261.682 34.6775 261.682 33.7342C261.682 32.7909 260.919 32.0272 259.977 32.0272H244.138C243.196 32.0272 242.433 32.7909 242.433 33.7342Z" fill="#E2EEF5"/>
<path d="M214.995 42.6521C214.995 43.5954 215.758 44.3591 216.7 44.3591H232.539C233.482 44.3591 234.244 43.5954 234.244 42.6521C234.244 41.7088 233.482 40.9451 232.539 40.9451H216.7C215.736 40.9676 214.995 41.7088 214.995 42.6521Z" fill="#E2EEF5"/>
<path d="M185.83 33.7342C185.83 34.6775 186.593 35.4412 187.535 35.4412H230.7C231.642 35.4412 232.405 34.6775 232.405 33.7342C232.405 32.7909 231.642 32.0272 230.7 32.0272H187.535C186.593 32.0272 185.83 32.7909 185.83 33.7342Z" fill="#E2EEF5"/>
<path d="M238.462 42.6521C238.462 43.5954 239.225 44.3591 240.167 44.3591H283.332C284.274 44.3591 285.037 43.5954 285.037 42.6521C285.037 41.7088 284.274 40.9451 283.332 40.9451H240.167C239.225 40.9676 238.462 41.7088 238.462 42.6521Z" fill="#E2EEF5"/>
<path d="M203.666 76.6796C203.666 77.6004 204.406 78.3416 205.326 78.3416H283.489C284.409 78.3416 285.149 77.6004 285.149 76.6796V76.6122C285.149 75.6913 284.409 74.9501 283.489 74.9501H205.326C204.406 74.9501 203.666 75.6913 203.666 76.6122V76.6796Z" fill="#E2EEF5"/>
<path d="M180.311 76.6572C180.311 77.6005 181.074 78.3642 182.016 78.3642H197.855C198.797 78.3642 199.56 77.6005 199.56 76.6572C199.56 75.7138 198.797 74.9502 197.855 74.9502H182.016C181.074 74.9502 180.311 75.7138 180.311 76.6572Z" fill="#E2EEF5"/>
<path d="M265.923 84.4503C265.923 85.3937 266.685 86.1573 267.628 86.1573H283.467C284.409 86.1573 285.172 85.3937 285.172 84.4503C285.172 83.507 284.409 82.7433 283.467 82.7433H267.628C266.685 82.7433 265.923 83.507 265.923 84.4503Z" fill="#E2EEF5"/>
<path d="M242.433 84.4503C242.433 85.3937 243.196 86.1573 244.138 86.1573H259.977C260.92 86.1573 261.682 85.3937 261.682 84.4503C261.682 83.507 260.92 82.7433 259.977 82.7433H244.138C243.196 82.7433 242.433 83.507 242.433 84.4503Z" fill="#E2EEF5"/>
<path d="M214.995 93.3682C214.995 94.3116 215.758 95.0752 216.7 95.0752H232.539C233.482 95.0752 234.244 94.3116 234.244 93.3682C234.244 92.4249 233.482 91.6613 232.539 91.6613H216.7C215.736 91.6613 214.995 92.4249 214.995 93.3682Z" fill="#E2EEF5"/>
<path d="M189.936 93.3682C189.936 94.3116 190.698 95.0752 191.641 95.0752H207.48C208.422 95.0752 209.185 94.3116 209.185 93.3682C209.185 92.4249 208.422 91.6613 207.48 91.6613H191.641C190.698 91.6613 189.936 92.4249 189.936 93.3682Z" fill="#E2EEF5"/>
<path d="M185.83 84.4503C185.83 85.3937 186.593 86.1573 187.535 86.1573H230.7C231.642 86.1573 232.405 85.3937 232.405 84.4503C232.405 83.507 231.642 82.7433 230.7 82.7433H187.535C186.593 82.7433 185.83 83.507 185.83 84.4503Z" fill="#E2EEF5"/>
<path d="M238.462 93.3682C238.462 94.3116 239.225 95.0752 240.167 95.0752H283.332C284.274 95.0752 285.037 94.3116 285.037 93.3682C285.037 92.4249 284.274 91.6613 283.332 91.6613H240.167C239.225 91.6613 238.462 92.4249 238.462 93.3682Z" fill="#E2EEF5"/>
<path d="M162.565 93.3682C162.565 94.3116 163.328 95.0752 164.27 95.0752H207.435C208.377 95.0752 209.14 94.3116 209.14 93.3682C209.14 92.4249 208.377 91.6613 207.435 91.6613H164.27C163.328 91.6613 162.565 92.4249 162.565 93.3682Z" fill="#E2EEF5"/>
<path d="M203.666 56.7109C203.666 57.6318 204.406 58.3729 205.326 58.3729H283.489C284.409 58.3729 285.149 57.6318 285.149 56.7109V56.6435C285.149 55.7226 284.409 54.9814 283.489 54.9814H205.326C204.406 54.9814 203.666 55.7226 203.666 56.6435V56.7109Z" fill="#E2EEF5"/>
<path d="M265.788 65.4708C265.788 66.4142 266.551 67.1778 267.493 67.1778H283.332C284.274 67.1778 285.037 66.4142 285.037 65.4708C285.037 64.5275 284.274 63.7639 283.332 63.7639H267.471C266.528 63.7639 265.788 64.5275 265.788 65.4708Z" fill="#E2EEF5"/>
<path d="M143.047 65.4708C143.047 66.4142 143.81 67.1778 144.752 67.1778H160.591C161.534 67.1778 162.296 66.4142 162.296 65.4708C162.296 64.5275 161.534 63.7639 160.591 63.7639H144.752C143.81 63.7639 143.047 64.5275 143.047 65.4708Z" fill="#E2EEF5"/>
<path d="M214.412 65.4708C214.412 66.4142 215.175 67.1778 216.117 67.1778H259.282C260.224 67.1778 260.987 66.4142 260.987 65.4708C260.987 64.5275 260.224 63.7639 259.282 63.7639H216.117C215.175 63.7639 214.412 64.5275 214.412 65.4708Z" fill="#E2EEF5"/>
<path d="M165.325 65.4708C165.325 66.4142 166.088 67.1778 167.03 67.1778H210.172C211.114 67.1778 211.877 66.4142 211.877 65.4708C211.877 64.5275 211.114 63.7639 210.172 63.7639H167.007C166.088 63.7639 165.325 64.5275 165.325 65.4708Z" fill="#E2EEF5"/>
<path opacity="0.4" d="M122.699 11.9488V101.408C122.699 105.743 126.759 109.359 131.762 109.359H173.042C173.042 109.359 148.678 82.3168 160.098 55.4543C171.517 28.5694 136.092 12.0386 136.092 12.0386L122.699 11.9488Z" fill="white"/>
<path d="M158.931 171.529L189.757 171.124C190.699 171.102 191.439 170.361 191.462 169.417L191.843 150.259C191.865 149.293 191.103 148.507 190.138 148.485L157.787 148.08C156.777 148.058 155.97 148.911 156.037 149.922L157.204 169.889C157.226 170.832 157.989 171.551 158.931 171.529Z" fill="#686868"/>
<path d="M172.347 162.567C173.805 162.567 177.081 162.567 177.978 162.567C178.875 162.567 178.988 163.488 179.302 164.252C181.119 168.811 183.407 172.809 182.779 174.381C182.487 175.145 181.411 175.482 179.638 175.482C177.866 175.482 171.113 175.37 170.036 175.37C168.959 175.37 168.264 175.437 167.882 175.1C166.963 174.044 168.982 173.797 170.619 173.797C172.257 173.797 174.119 173.752 174.388 173.326C174.658 172.899 170.889 162.567 172.347 162.567Z" fill="#454545"/>
<path d="M183.453 221.278L187.401 226.332L184.507 225.299L181.613 222.581L183.453 221.278Z" fill="#1C85C8"/>
<path d="M186.414 225.972C186.414 225.972 184.888 225.253 184.507 225.298C184.126 225.343 183.385 226.982 183.811 227.791C184.238 228.6 190.878 228.577 191.821 227.724C191.91 227.432 186.414 225.972 186.414 225.972Z" fill="#263238"/>
<path d="M133.243 202.568H135.375V225.41H133.243V202.568Z" fill="#686868"/>
<path d="M148.678 228.331C148.454 227.455 147.983 226.242 146.929 225.321C144.685 223.39 141.634 224.378 137.125 224.445C130.798 224.535 131.359 222.671 126.692 223.053C119.648 223.637 113.254 228.331 113.254 228.331C113.254 228.331 125.705 228.331 148.678 228.331Z" fill="black"/>
<path d="M163.239 222.289L161.982 224.827L160.636 223.928L161.982 221.458L163.239 222.289Z" fill="#1C85C8"/>
<path d="M130.125 145.496C130.125 145.496 114.42 144.081 108.183 158.434C95.9565 186.599 123.596 218.29 154.579 195.897C161.107 191.181 138.336 170.832 138.336 170.832L130.125 145.496Z" fill="#686868"/>
<path d="M132.974 146.732C132.974 146.732 124.09 148.641 119.782 164.026C112.042 191.787 131.964 207.038 156.822 192.304C139.57 186.711 135.128 167.979 135.128 167.979L132.974 146.732Z" fill="#ADA6A6"/>
<path d="M141.028 158.21L145.672 171.214L156.127 173.708L160.389 173.46C161.377 173.393 162.364 173.708 163.171 174.314L164.405 175.235C164.495 175.302 164.518 175.414 164.495 175.504C164.45 175.617 164.36 175.684 164.248 175.684L155.813 175.617L141.701 174.831C141.701 174.831 140.4 171.506 136.205 158.816C139.144 159.063 141.028 158.21 141.028 158.21Z" fill="#EACDB0"/>
<path d="M130.169 143.005C130.169 143.005 137.999 142.084 141.499 158.233C140.175 159.872 136.137 159.782 136.137 159.782L131.269 147.609C131.269 147.609 126.333 143.184 130.169 143.005Z" fill="#1C85C8"/>
<path d="M130.08 142.242C130.08 142.242 137.663 147.542 139.727 159.222C140.535 163.758 144.483 177.347 144.483 177.347L127.365 179.144C127.365 179.144 113.366 152.416 117.516 148.418C121.577 144.51 124.18 143.971 124.18 143.971L130.08 142.242Z" fill="#1C85C8"/>
<path d="M136.003 128.72C136.003 128.72 136.9 136.401 133.782 139.321C132.929 140.107 131.897 140.242 131.897 140.242L132.323 143.184C132.323 143.184 134.656 144.464 133.086 145.924C129.788 149.024 124.92 143.858 124.92 143.858C124.92 143.858 126.625 143.004 127.073 137.771C127.073 137.771 123.708 132.56 123.708 130.674C123.708 128.809 126.58 127.237 130.506 126.945C132.772 126.9 136.003 128.72 136.003 128.72Z" fill="#EACDB0"/>
<path d="M135.038 175.865L148.005 175.079C148.005 175.079 146.053 180.559 153.928 181.412C161.803 182.243 174.03 182.827 175.645 187.252C177.283 191.677 164.315 222.604 164.315 222.604L161.018 221.931C161.018 221.931 167.815 192.53 164.63 190.688C161.444 188.847 140.041 189.61 140.041 189.61L135.038 175.865Z" fill="#26004F"/>
<path d="M139.368 175.079L126.244 176.022C126.939 179.166 126.109 185.747 132.75 191.497C139.413 197.247 156.98 192.328 159.089 194.619C161.197 196.888 181.703 223.615 181.703 223.615L184.844 221.639C184.844 221.639 170.687 194.709 167.95 189.88C165.236 185.051 151.416 183.748 145.134 182.985C140.109 182.378 139.368 175.079 139.368 175.079Z" fill="black"/>
<path d="M162.341 225.007C162.341 225.007 161.04 223.952 160.636 223.907C160.255 223.862 159.155 225.277 159.38 226.175C159.604 227.074 166.065 228.601 167.187 227.995C167.344 227.748 162.341 225.007 162.341 225.007Z" fill="#263238"/>
<path d="M117.359 161.129C117.359 161.129 109.44 170.922 109.305 172.337C113.59 171.798 129.07 173.213 129.07 173.213C129.07 173.213 134.634 172.135 135.24 175.683C132.301 175.751 128.195 175.549 128.195 175.549C127.41 175.594 126.154 175.683 124.606 175.796C124.606 175.796 105.087 178.783 103.472 177.39C101.879 175.998 104.392 171.461 110.27 160.949L117.359 161.129Z" fill="#EACDB0"/>
<path d="M124.763 148.058C124.763 148.058 121.532 146.508 118.01 148.283C114.465 150.057 109.597 161.197 109.597 161.197C109.597 161.197 114.375 162.365 117.09 164.319C121.442 158.457 124.763 148.058 124.763 148.058Z" fill="#1C85C8"/>
<path d="M128.711 122.767C130.731 122.79 131.202 123.756 133.67 124.654C137.439 126.002 139.121 124.542 139.503 125.597C139.906 126.653 138.56 129.326 136.384 130.224C133.939 131.235 132.099 129.191 130.932 130.584C130.147 131.527 130.102 133.077 129.654 133.032C129.497 133.009 129.362 132.852 129.272 132.605C128.958 131.751 128.689 131.392 127.702 132.133C126.737 132.874 127.59 135.255 127.59 135.255C127.59 135.255 127.949 139.096 126.76 138.804C125.122 138.4 121.465 131.931 122.407 128.472C123.282 125.395 124.135 122.745 128.711 122.767Z" fill="black"/>
<path d="M200.57 228.286C201.153 228.151 201.512 227.545 201.355 226.961L189.532 179.48C189.398 178.896 188.792 178.536 188.209 178.694C187.625 178.828 187.266 179.435 187.423 180.019L199.247 227.5C199.381 228.061 199.987 228.421 200.57 228.286Z" fill="#125682"/>
<path d="M190.452 175.347C164.271 175.347 138.067 175.347 111.885 175.347C107.421 175.347 106.703 177.706 107.241 179.21C107.78 180.67 112.379 181.052 115.228 181.232C130.551 182.153 147.018 180.019 157.585 179.48C180.177 178.312 195.904 183.298 198.08 179.862C198.686 178.896 198.798 177.773 197.273 176.762C195.141 175.347 192.561 175.347 190.452 175.347Z" fill="#125682"/>
<path d="M108.273 228.286C107.69 228.151 107.331 227.545 107.488 226.961L119.311 179.48C119.446 178.896 120.051 178.536 120.635 178.694C121.218 178.828 121.577 179.435 121.42 180.019L109.597 227.5C109.462 228.061 108.856 228.421 108.273 228.286Z" fill="#125682"/>
<path d="M99.1641 128.897L103.516 138.443C103.516 138.443 103.875 144.956 101.632 143.092C99.3885 141.228 94.7893 131.974 94.7893 131.974L99.1641 128.897Z" fill="#EACDB0"/>
<path d="M112.849 129.886C112.849 129.886 104.548 149.92 100.802 141.789C100.802 141.789 100.51 139.296 105.154 134.827C109.798 130.357 111.683 126.898 111.683 126.898C111.683 126.898 114.24 126.831 112.849 129.886Z" fill="#EACDB0"/>
<path d="M111.324 127.46C111.324 127.46 111.503 123.933 113.657 123.709C115.811 123.484 116.439 121.575 116.372 122.765C116.327 123.686 115.609 124.315 115.609 124.315C115.609 124.315 117.336 124.315 119.176 123.821C121.016 123.327 122.093 125.214 118.795 126.674C115.497 128.133 114.151 127.752 113.478 128.493C112.782 129.234 111.324 127.46 111.324 127.46Z" fill="#EACDB0"/>
<path d="M87.8793 124.517C83.527 115.151 93.2412 116.095 94.5425 117.869C97.1225 121.373 101.138 129.84 101.138 129.84C101.25 130.11 101.161 130.424 100.892 130.559C100.151 130.941 98.6256 131.772 97.0552 133.075C95.5072 134.355 94.4976 134.534 94.0265 134.534C93.847 134.534 93.69 134.445 93.5778 134.287C92.9945 133.367 88.687 127.639 87.8793 124.517Z" fill="#E2EEF5"/>
<path d="M73.2967 149.426C77.0882 133.929 83.6392 151.74 83.6392 151.74C83.6392 151.74 77.8958 182.712 76.976 188.709C75.8991 195.829 75.428 197.491 72.7358 207.419C71.7935 210.855 69.6173 225.387 69.6173 225.387L67.8674 225.612C68.8994 212.607 64.6817 196.728 70.0436 190.371C71.0981 183.454 69.5276 164.924 73.2967 149.426Z" fill="#125682"/>
<path d="M78.5014 147.987C80.7898 147.897 89.2926 148.077 91.5809 147.987C92.411 151.019 96.1352 176.647 96.4492 182.711C96.8082 189.898 96.696 196.951 96.023 207.192C95.7987 210.764 96.5614 225.43 96.5614 225.43L94.8788 226.014C94.8788 217.569 86.3536 197.827 90.347 190.549C89.9656 183.542 78.8828 154.972 78.5014 147.987Z" fill="#125682"/>
<path d="M94.7896 118.363C90.3474 137.633 92.6807 152.322 92.6807 152.322C92.6807 152.322 91.0205 152.861 84.6041 154.703C78.5467 156.433 73.9924 156.028 71.3675 155.714C70.6721 155.624 73.7456 141.182 73.1848 138.375C72.8034 136.488 70.8964 122.181 72.1752 119.081C73.454 115.982 78.1204 114.926 81.2613 113.646C85.0079 112.119 94.453 115.353 94.7896 118.363Z" fill="#E2EEF5"/>
<path d="M86.4883 110.346L81.8892 108.033C81.8443 108.302 81.777 108.617 81.7097 108.998C81.4181 110.526 80.4534 113.58 79.9598 114.187C79.2643 114.995 84.2448 118.477 86.0172 117.758C87.7895 117.039 86.5556 110.683 86.4883 110.346Z" fill="#EACDB0"/>
<path d="M96.8535 225.657C96.8535 225.657 95.126 224.848 94.6998 224.893C94.2735 224.961 93.4434 226.78 93.9146 227.701C94.3857 228.622 101.901 228.577 102.956 227.633C103.046 227.319 96.8535 225.657 96.8535 225.657Z" fill="#263238"/>
<path d="M69.9091 225.475C69.9091 225.475 68.2714 224.487 67.8451 224.51C67.4188 224.532 66.4093 226.262 66.7907 227.227C67.1721 228.193 74.6429 228.912 75.7871 228.058C75.9217 227.744 69.9091 225.475 69.9091 225.475Z" fill="#263238"/>
<path d="M91.626 100.597C90.2799 98.4408 86.5109 99.9906 83.9533 101.585C82.0239 102.798 80.6554 105.314 81.1714 107.515C81.2611 107.852 81.3733 108.166 81.5303 108.458L84.9404 111.535C85.8378 112.254 87.0717 113.265 87.9691 113.152C89.6966 112.95 91.3792 109.244 91.7831 107.717C92.2093 106.212 92.7477 102.394 91.626 100.597Z" fill="#EACDB0"/>
<path d="M64.2555 123.664C64.6593 125.259 66.9701 127.056 67.3739 128.65C61.1819 131.683 59.4769 132.356 59.4769 132.356C59.4769 132.356 61.2268 138.735 73.4762 146.843C73.88 147.023 74.6204 147.45 74.6204 148.101C74.6204 149.022 74.9569 151.672 75.0467 151.964C75.1813 152.436 74.4409 153.244 74.396 152.279C74.3736 151.493 73.723 156.524 72.5115 156.636C71.3 156.748 70.9186 156.456 71.143 155.176C71.3673 153.896 71.9731 149.359 71.2552 148.977C64.5023 145.383 52.724 134.67 52.3875 131.997C52.051 129.122 56.5155 127.123 64.2555 123.664Z" fill="#EACDB0"/>
<path d="M74.1493 128.651C77.1107 126.45 80.2291 116.118 77.2228 115.804C74.3512 115.489 67.7329 120.274 60.2397 124.024C59.7461 124.271 59.5442 124.855 59.7461 125.35C60.105 126.203 62.8197 131.638 63.2011 132.088C63.4703 132.402 63.8965 132.537 64.3004 132.402C65.6689 131.953 71.7487 130.448 74.1493 128.651Z" fill="#E2EEF5"/>
<path d="M85.95 102.821C85.95 102.821 89.2255 102.978 91.0427 104.438C92.8599 105.898 93.1067 106.976 94.8118 103.832C96.5168 100.665 95.3951 100.283 92.7029 98.9801C90.0107 97.6774 88.5749 96.7565 86.982 95.8132C85.3892 94.8699 82.1585 94.6677 81.6874 96.3298C81.6874 96.3298 78.569 96.6892 78.7933 100.103C79.0177 103.517 80.274 109.851 81.7098 108.997C81.7098 108.997 82.8092 107.223 82.2707 106.19C81.7323 105.157 82.1585 103.652 82.7418 103.921C83.3251 104.191 83.7514 105.494 83.7514 106.392C83.7514 107.29 84.1328 107.74 84.3572 106.886C84.5591 106.033 85.1199 102.349 85.95 102.821Z" fill="#263238"/>
</g>
</svg>
