<svg width="489" height="257" viewBox="0 0 489 257" fill="none" xmlns="http://www.w3.org/2000/svg">
<mask id="mask0" mask-type="alpha" maskUnits="userSpaceOnUse" x="0" y="70" width="489" height="187">
<rect y="70" width="489" height="187" fill="#1C85C8"/>
</mask>
<g mask="url(#mask0)">
<circle cx="370.5" cy="538.5" r="463.5" fill="white"/>
</g>
<mask id="mask1" mask-type="alpha" maskUnits="userSpaceOnUse" x="67" y="9" width="362" height="248">
<rect x="67" y="9" width="362" height="248" fill="#1C85C8"/>
</mask>
<g mask="url(#mask1)">
<path d="M423.809 25.9469C426.841 25.9469 429.295 28.401 429.295 31.4342V172.504C429.295 175.538 426.841 177.992 423.809 177.992H163.324C163.269 177.992 163.242 177.992 163.187 177.992C161.725 177.909 160.595 176.668 160.595 175.207V30.4967C160.595 27.1602 161.808 25.9469 163.324 25.9469H423.809Z" fill="#454545"/>
<path d="M423.809 178.487H163.325C163.269 178.487 163.214 178.487 163.159 178.487C161.45 178.404 160.127 176.97 160.127 175.233V30.4956C160.127 26.1112 162.139 25.4495 163.325 25.4495H423.809C427.117 25.4495 429.791 28.1242 429.791 31.4331V172.503C429.791 175.812 427.117 178.487 423.809 178.487ZM163.325 26.4146C161.478 26.4146 161.092 28.6481 161.092 30.4956V175.233C161.092 176.474 162.029 177.467 163.214 177.522C163.242 177.522 163.297 177.522 163.325 177.522H423.809C426.566 177.522 428.826 175.261 428.826 172.503V31.4331C428.826 28.6757 426.566 26.4146 423.809 26.4146H163.325Z" fill="#454545"/>
<path d="M425.629 31.4333V172.504C425.629 175.537 423.175 177.991 420.143 177.991H159.631C159.575 177.991 159.548 177.991 159.493 177.991C158.032 177.908 156.901 176.667 156.901 175.206V30.4958C156.901 27.1593 158.114 25.946 159.631 25.946H420.115C423.148 25.946 425.629 28.4002 425.629 31.4333Z" fill="#686868"/>
<path d="M420.115 178.486H159.631C159.576 178.486 159.52 178.486 159.493 178.486C157.784 178.403 156.46 176.969 156.46 175.232V30.4947C156.46 26.1104 158.473 25.4486 159.658 25.4486H420.143C423.451 25.4486 426.125 28.1233 426.125 31.4322V172.502C426.097 175.811 423.423 178.486 420.115 178.486ZM159.631 26.4137C157.784 26.4137 157.398 28.6472 157.398 30.4947V175.232C157.398 176.473 158.335 177.466 159.52 177.521C159.548 177.521 159.603 177.521 159.631 177.521H420.115C422.872 177.521 425.133 175.26 425.133 172.502V31.4322C425.133 28.6748 422.872 26.4137 420.115 26.4137H159.631Z" fill="#686868"/>
<path d="M416.642 161.501H168.645C167.57 161.501 166.715 160.618 166.715 159.57V35.2378C166.715 34.1624 167.597 33.3076 168.645 33.3076H416.642C417.717 33.3076 418.571 34.19 418.571 35.2378V159.57C418.571 160.646 417.717 161.501 416.642 161.501Z" fill="white"/>
<path d="M304.387 174.351H278.115C276.103 174.351 274.449 172.724 274.449 170.711C274.449 168.698 276.103 167.071 278.115 167.071H304.387C306.399 167.071 308.053 168.698 308.053 170.711C308.053 172.724 306.399 174.351 304.387 174.351Z" fill="#9B9B9B"/>
<path d="M304.387 174.82H278.115C275.827 174.82 273.98 172.972 273.98 170.711C273.98 168.45 275.827 166.603 278.115 166.603H304.387C306.675 166.603 308.522 168.45 308.522 170.711C308.522 172.972 306.675 174.82 304.387 174.82ZM278.115 167.54C276.351 167.54 274.918 168.946 274.918 170.711C274.918 172.448 276.351 173.882 278.115 173.882H304.387C306.151 173.882 307.585 172.476 307.585 170.711C307.585 168.974 306.151 167.54 304.387 167.54H278.115Z" fill="#686868"/>
<path d="M236.599 75.1368H225.158V78.6664H236.599V75.1368Z" fill="#8EC2E4"/>
<path d="M236.599 81.0651H225.158V84.5946H236.599V81.0651Z" fill="#8EC2E4"/>
<path d="M236.599 86.9662H225.158V90.4957H236.599V86.9662Z" fill="#8EC2E4"/>
<path d="M236.599 92.8929H225.158V96.4225H236.599V92.8929Z" fill="#8EC2E4"/>
<path d="M236.599 98.7941H225.158V102.324H236.599V98.7941Z" fill="#8EC2E4"/>
<path d="M236.599 104.723H225.158V108.252H236.599V104.723Z" fill="#8EC2E4"/>
<path d="M236.599 110.624H225.158V114.154H236.599V110.624Z" fill="#8EC2E4"/>
<path d="M236.599 116.525H225.158V120.055H236.599V116.525Z" fill="#8EC2E4"/>
<path d="M236.599 122.454H225.158V125.983H236.599V122.454Z" fill="#8EC2E4"/>
<path d="M236.599 128.355H225.158V131.884H236.599V128.355Z" fill="#8EC2E4"/>
<path d="M236.599 134.284H225.158V137.813H236.599V134.284Z" fill="#8EC2E4"/>
<path d="M215.425 151.539C213.495 151.539 211.924 149.967 211.952 148.037L212.007 135.27C212.007 133.34 213.578 131.768 215.508 131.795L235.88 131.878C237.81 131.878 239.381 133.45 239.354 135.38L239.298 148.147C239.298 150.077 237.727 151.649 235.797 151.621L215.425 151.539Z" fill="#A4CEE9"/>
<g opacity="0.69">
<g opacity="0.69">
<g opacity="0.69">
<path opacity="0.69" d="M214.57 150.657C212.641 150.657 211.069 149.085 211.097 147.155L211.152 134.388C211.152 132.458 212.723 130.886 214.653 130.913L235.025 130.996C236.955 130.996 238.526 132.568 238.499 134.498L238.444 147.265C238.444 149.195 236.872 150.767 234.943 150.739L214.57 150.657Z" fill="white"/>
</g>
</g>
</g>
<path d="M222.316 139.191C222.454 139.081 222.62 138.97 222.785 138.86C222.95 138.75 223.143 138.667 223.336 138.584C223.529 138.502 223.75 138.446 223.97 138.391C224.191 138.336 224.439 138.336 224.715 138.336C225.101 138.336 225.432 138.391 225.735 138.474C226.038 138.584 226.286 138.722 226.507 138.888C226.727 139.081 226.893 139.274 227.003 139.549C227.113 139.797 227.168 140.101 227.168 140.404C227.168 140.707 227.113 140.956 227.03 141.176C226.948 141.397 226.837 141.59 226.7 141.755C226.562 141.921 226.424 142.059 226.259 142.169C226.093 142.279 225.955 142.389 225.817 142.5C225.68 142.61 225.542 142.693 225.459 142.803C225.349 142.913 225.294 143.024 225.266 143.134L225.101 143.961H223.86L223.722 142.996C223.695 142.803 223.722 142.638 223.777 142.5C223.86 142.362 223.943 142.224 224.053 142.114C224.163 142.003 224.301 141.893 224.467 141.783C224.605 141.673 224.77 141.562 224.88 141.452C225.018 141.342 225.128 141.204 225.211 141.038C225.294 140.9 225.349 140.707 225.349 140.514C225.349 140.266 225.266 140.101 225.128 139.935C224.963 139.797 224.77 139.715 224.494 139.715C224.274 139.715 224.108 139.742 223.97 139.77C223.833 139.825 223.722 139.853 223.612 139.908C223.502 139.963 223.419 140.018 223.336 140.046C223.254 140.101 223.199 140.101 223.116 140.101C222.95 140.101 222.813 140.018 222.73 139.88L222.316 139.191ZM223.447 146.112C223.447 145.974 223.474 145.836 223.529 145.726C223.585 145.616 223.667 145.505 223.75 145.395C223.833 145.312 223.943 145.23 224.081 145.174C224.191 145.119 224.329 145.092 224.494 145.092C224.632 145.092 224.77 145.119 224.908 145.174C225.046 145.23 225.156 145.312 225.239 145.395C225.321 145.478 225.404 145.588 225.459 145.726C225.514 145.836 225.542 145.974 225.542 146.112C225.542 146.25 225.514 146.388 225.459 146.526C225.404 146.663 225.349 146.746 225.239 146.856C225.156 146.939 225.046 147.022 224.908 147.077C224.77 147.132 224.66 147.16 224.494 147.16C224.356 147.16 224.219 147.132 224.081 147.077C223.97 147.022 223.86 146.967 223.75 146.856C223.667 146.774 223.585 146.663 223.529 146.526C223.474 146.388 223.447 146.25 223.447 146.112Z" fill="white"/>
<path d="M215.618 139.219C215.756 139.108 215.921 138.998 216.086 138.888C216.252 138.778 216.445 138.695 216.638 138.612C216.831 138.529 217.051 138.474 217.272 138.419C217.492 138.364 217.74 138.364 218.016 138.364C218.402 138.364 218.733 138.419 219.036 138.502C219.339 138.612 219.587 138.75 219.808 138.915C220.028 139.108 220.194 139.301 220.304 139.577C220.414 139.825 220.47 140.129 220.47 140.432C220.47 140.735 220.414 140.983 220.332 141.204C220.249 141.425 220.139 141.618 220.001 141.783C219.863 141.949 219.725 142.086 219.56 142.197C219.394 142.307 219.257 142.417 219.119 142.528C218.981 142.638 218.843 142.721 218.76 142.831C218.65 142.941 218.595 143.052 218.567 143.162L218.402 143.989H217.161L217.024 143.024C216.996 142.831 217.024 142.665 217.079 142.528C217.161 142.39 217.244 142.252 217.354 142.142C217.465 142.031 217.603 141.921 217.768 141.811C217.906 141.7 218.071 141.59 218.181 141.48C218.319 141.37 218.43 141.232 218.512 141.066C218.595 140.928 218.65 140.735 218.65 140.542C218.65 140.294 218.567 140.129 218.43 139.963C218.264 139.825 218.071 139.743 217.796 139.743C217.575 139.743 217.41 139.77 217.272 139.798C217.134 139.853 217.024 139.88 216.913 139.936C216.803 139.991 216.72 140.046 216.638 140.073C216.555 140.129 216.5 140.129 216.417 140.129C216.252 140.129 216.114 140.046 216.031 139.908L215.618 139.219ZM216.72 146.112C216.72 145.974 216.748 145.837 216.803 145.726C216.858 145.616 216.941 145.506 217.024 145.395C217.106 145.313 217.217 145.23 217.354 145.175C217.465 145.12 217.603 145.092 217.768 145.092C217.906 145.092 218.044 145.12 218.181 145.175C218.319 145.23 218.402 145.313 218.512 145.395C218.595 145.478 218.678 145.588 218.733 145.726C218.788 145.837 218.815 145.974 218.815 146.112C218.815 146.25 218.788 146.388 218.733 146.526C218.678 146.664 218.623 146.747 218.512 146.857C218.43 146.94 218.319 147.022 218.181 147.077C218.044 147.133 217.933 147.16 217.768 147.16C217.63 147.16 217.492 147.133 217.354 147.077C217.244 147.022 217.134 146.967 217.024 146.857C216.941 146.774 216.858 146.664 216.803 146.526C216.748 146.388 216.72 146.278 216.72 146.112Z" fill="white"/>
<path d="M229.043 139.191C229.181 139.081 229.346 138.97 229.512 138.86C229.677 138.75 229.87 138.667 230.063 138.584C230.256 138.502 230.477 138.446 230.697 138.391C230.918 138.336 231.166 138.336 231.442 138.336C231.828 138.336 232.158 138.391 232.462 138.474C232.765 138.584 233.013 138.722 233.233 138.888C233.454 139.081 233.619 139.274 233.73 139.549C233.84 139.797 233.895 140.101 233.895 140.404C233.895 140.707 233.84 140.956 233.757 141.176C233.675 141.397 233.564 141.59 233.426 141.755C233.289 141.921 233.151 142.059 232.985 142.169C232.82 142.279 232.682 142.389 232.544 142.5C232.406 142.61 232.269 142.693 232.186 142.803C232.076 142.913 232.02 143.024 231.993 143.134L231.828 143.961H230.587L230.449 142.996C230.422 142.803 230.449 142.638 230.504 142.5C230.587 142.362 230.67 142.224 230.78 142.114C230.89 142.003 231.028 141.893 231.193 141.783C231.331 141.673 231.497 141.562 231.607 141.452C231.745 141.342 231.855 141.204 231.938 141.038C232.02 140.9 232.076 140.707 232.076 140.514C232.076 140.266 231.993 140.101 231.855 139.935C231.69 139.797 231.497 139.715 231.221 139.715C231 139.715 230.835 139.742 230.697 139.77C230.559 139.825 230.449 139.853 230.339 139.908C230.229 139.963 230.146 140.018 230.063 140.046C229.981 140.101 229.925 140.101 229.843 140.101C229.677 140.101 229.539 140.018 229.457 139.88L229.043 139.191ZM230.146 146.112C230.146 145.974 230.173 145.836 230.229 145.726C230.284 145.616 230.366 145.505 230.449 145.395C230.532 145.312 230.642 145.23 230.78 145.174C230.89 145.119 231.028 145.092 231.193 145.092C231.331 145.092 231.469 145.119 231.607 145.174C231.745 145.23 231.828 145.312 231.938 145.395C232.02 145.478 232.103 145.588 232.158 145.726C232.213 145.836 232.241 145.974 232.241 146.112C232.241 146.25 232.213 146.388 232.158 146.526C232.103 146.663 232.048 146.746 231.938 146.856C231.855 146.939 231.745 147.022 231.607 147.077C231.469 147.132 231.359 147.16 231.193 147.16C231.056 147.16 230.918 147.132 230.78 147.077C230.67 147.022 230.559 146.967 230.449 146.856C230.366 146.774 230.284 146.663 230.229 146.526C230.173 146.388 230.146 146.25 230.146 146.112Z" fill="white"/>
<path d="M413.444 102.299V114.073C413.444 114.294 413.279 114.459 413.058 114.459H397.427C397.207 114.459 397.042 114.294 397.042 114.073V100.92C397.042 100.7 397.207 100.534 397.427 100.534H401.232C401.452 100.534 401.618 100.7 401.618 100.92V101.499C401.618 101.72 401.783 101.885 402.004 101.885H413.058C413.279 101.913 413.444 102.078 413.444 102.299Z" fill="#CAE2FF"/>
<path d="M415.401 104.451L414.602 114.378C414.574 114.681 414.298 114.902 413.995 114.902H397.62C397.262 114.902 396.986 114.626 397.014 114.295L397.813 104.451C397.813 104.23 398.006 104.065 398.227 104.065H414.988C415.236 104.092 415.401 104.258 415.401 104.451Z" fill="#CAE2FF"/>
<path d="M413.444 83.0528V94.8271C413.444 95.0477 413.279 95.2131 413.058 95.2131H397.427C397.207 95.2131 397.042 95.0477 397.042 94.8271V81.6741C397.042 81.4535 397.207 81.2881 397.427 81.2881H401.232C401.452 81.2881 401.618 81.4535 401.618 81.6741V82.2532C401.618 82.4738 401.783 82.6392 402.004 82.6392H413.058C413.279 82.6668 413.444 82.8323 413.444 83.0528Z" fill="#CAE2FF"/>
<path d="M415.401 85.2045L414.602 95.1313C414.574 95.4346 414.298 95.6552 413.995 95.6552H397.62C397.262 95.6552 396.986 95.3794 397.014 95.0485L397.813 85.2045C397.813 84.9839 398.006 84.8185 398.227 84.8185H414.988C415.236 84.8461 415.401 85.0115 415.401 85.2045Z" fill="#CAE2FF"/>
<path d="M412.562 101.306V113.08C412.562 113.301 412.396 113.466 412.176 113.466H396.545C396.325 113.466 396.159 113.301 396.159 113.08V99.9272C396.159 99.7066 396.325 99.5411 396.545 99.5411H400.349C400.57 99.5411 400.735 99.7066 400.735 99.9272V100.506C400.735 100.727 400.901 100.892 401.121 100.892H412.176C412.396 100.892 412.562 101.085 412.562 101.306Z" fill="#CAE2FF"/>
<path d="M412.176 113.852H396.545C396.104 113.852 395.773 113.494 395.773 113.08V99.9271C395.773 99.4859 396.132 99.155 396.545 99.155H400.349C400.79 99.155 401.121 99.5135 401.121 99.9271V100.506C401.121 100.506 401.121 100.534 401.149 100.534H412.203C412.644 100.534 412.975 100.892 412.975 101.306V113.08C412.948 113.494 412.589 113.852 412.176 113.852ZM396.518 99.9271L396.49 113.08C396.49 113.08 396.49 113.108 396.518 113.108H412.148C412.148 113.108 412.176 113.108 412.176 113.08V101.306C412.176 101.306 412.176 101.278 412.148 101.278H401.094C400.653 101.278 400.322 100.92 400.322 100.506V99.9271C400.322 99.9271 400.322 99.8995 400.294 99.8995H396.518V99.9271Z" fill="white"/>
<path d="M414.519 103.458L413.747 113.384C413.719 113.688 413.471 113.908 413.141 113.908H397.179C396.821 113.908 396.545 113.632 396.572 113.302L397.344 103.458C397.344 103.237 397.537 103.072 397.758 103.072H414.105C414.353 103.072 414.519 103.237 414.519 103.458Z" fill="white"/>
<path d="M412.562 82.0589V93.8332C412.562 94.0538 412.396 94.2192 412.176 94.2192H396.545C396.325 94.2192 396.159 94.0538 396.159 93.8332V80.6802C396.159 80.4596 396.325 80.2942 396.545 80.2942H400.349C400.57 80.2942 400.735 80.4596 400.735 80.6802V81.2593C400.735 81.4799 400.901 81.6453 401.121 81.6453H412.176C412.396 81.6453 412.562 81.8383 412.562 82.0589Z" fill="#CAE2FF"/>
<path d="M412.176 94.6046H396.545C396.104 94.6046 395.773 94.2461 395.773 93.8325V80.6796C395.773 80.2384 396.132 79.9075 396.545 79.9075H400.349C400.79 79.9075 401.121 80.2659 401.121 80.6796V81.2586C401.121 81.2586 401.121 81.2862 401.149 81.2862H412.203C412.644 81.2862 412.975 81.6447 412.975 82.0583V93.8325C412.948 94.2461 412.589 94.6046 412.176 94.6046ZM396.518 80.6796L396.49 93.8325C396.49 93.8325 396.49 93.8601 396.518 93.8601H412.148C412.148 93.8601 412.176 93.8601 412.176 93.8325V82.0583C412.176 82.0583 412.176 82.0307 412.148 82.0307H401.094C400.653 82.0307 400.322 81.6722 400.322 81.2586V80.6796C400.322 80.6796 400.322 80.652 400.294 80.652H396.518V80.6796Z" fill="white"/>
<path d="M414.519 84.2106L413.747 94.1374C413.719 94.4407 413.471 94.6613 413.141 94.6613H397.179C396.821 94.6613 396.545 94.3855 396.572 94.0547L397.344 84.2106C397.344 83.99 397.537 83.8246 397.758 83.8246H414.105C414.353 83.8246 414.519 83.99 414.519 84.2106Z" fill="white"/>
<g opacity="0.65">
<g opacity="0.65">
<g opacity="0.65">
<path opacity="0.65" d="M278.308 42.0755L278.253 56.2487C278.253 58.3995 276.489 60.1367 274.339 60.1091L251.706 59.9988C250.879 59.9988 250.107 59.7231 249.473 59.2819C248.48 58.5649 247.846 57.4068 247.846 56.1108L247.902 41.9376C247.902 39.7868 249.666 38.0497 251.816 38.0772L274.449 38.1875C275.772 38.1875 276.958 38.8769 277.647 39.8971C278.06 40.5038 278.308 41.2483 278.308 42.0755Z" fill="#CAE2FF"/>
</g>
</g>
</g>
<g opacity="0.65">
<g opacity="0.65">
<g opacity="0.65">
<path opacity="0.65" d="M277.371 41.1657L277.316 55.3389C277.316 57.4897 275.552 59.2269 273.401 59.1993L250.768 59.089C249.941 59.089 249.169 58.8133 248.535 58.3721C247.543 57.6552 246.909 56.497 246.909 55.201L246.964 41.0278C246.964 38.877 248.728 37.1399 250.879 37.1674L273.512 37.2777C274.835 37.2777 276.02 37.9671 276.709 38.9873C277.123 39.594 277.371 40.3385 277.371 41.1657Z" fill="white"/>
</g>
</g>
</g>
<path d="M267.722 44.639H257.522C256.365 44.639 255.427 45.5766 255.427 46.7347V52.0841C255.427 53.2422 256.365 54.1797 257.522 54.1797H267.722C268.88 54.1797 269.817 53.2422 269.817 52.0841V46.7347C269.817 45.5766 268.88 44.639 267.722 44.639ZM263.201 49.63V50.8433C263.201 51.1466 262.953 51.3947 262.65 51.3947H262.622C262.319 51.3947 262.071 51.1466 262.071 50.8433V49.63C261.713 49.437 261.437 49.0234 261.437 48.5822C261.437 47.9204 261.961 47.3689 262.65 47.3689C263.312 47.3689 263.863 47.8928 263.863 48.5822C263.808 49.0234 263.56 49.4094 263.201 49.63Z" fill="#A4CEE9"/>
<path d="M267.061 45.0808H266.041V43.7296C266.041 42.5439 265.076 41.5788 263.891 41.5788H261.382C260.197 41.5788 259.232 42.5439 259.232 43.7296V45.0808H258.212V43.7296C258.212 41.9925 259.645 40.5586 261.382 40.5586H263.891C265.627 40.5586 267.061 41.9925 267.061 43.7296V45.0808Z" fill="#A4CEE9"/>
<path d="M256.222 68.5805C253.355 68.5805 251.067 66.2367 251.067 63.3689L251.15 44.5081C251.15 41.6404 253.493 39.3517 256.36 39.3517L286.519 39.4896C289.386 39.4896 291.674 41.8334 291.674 44.7011L291.591 63.562C291.591 66.4297 289.248 68.7183 286.381 68.7183L256.222 68.5805Z" fill="#A4CEE9"/>
<g opacity="0.69">
<g opacity="0.69">
<g opacity="0.69">
<path opacity="0.69" d="M254.954 67.2557C252.087 67.2557 249.799 64.9119 249.799 62.0442L249.882 43.1834C249.882 40.3156 252.225 38.027 255.092 38.027L285.251 38.1648C288.118 38.1648 290.406 40.5087 290.406 43.3764L290.323 62.2372C290.323 65.1049 287.98 67.3936 285.113 67.3936L254.954 67.2557Z" fill="white"/>
</g>
</g>
</g>
<path d="M280.95 54.2413L274.086 57.9363V55.8958L279.158 53.3314L274.086 50.7945V48.8092L280.95 52.449V54.2413Z" fill="white"/>
<path d="M268.572 58.8187H266.753L270.723 44.6455H272.542L268.572 58.8187Z" fill="white"/>
<path d="M258.317 52.4763L265.182 48.7814V50.8219L260.109 53.3863L265.182 55.9231V57.9085L258.317 54.2687V52.4763Z" fill="white"/>
<path d="M342.044 91.2689C338.074 91.2413 334.877 88.0151 334.904 84.0444L335.015 57.8488C335.042 53.8781 338.267 50.6795 342.237 50.7071L384.085 50.9001C388.054 50.9277 391.252 54.1539 391.225 58.1246L391.114 84.3202C391.087 88.2909 387.861 91.4895 383.892 91.4619L342.044 91.2689Z" fill="#A4CEE9"/>
<g opacity="0.69">
<g opacity="0.69">
<g opacity="0.69">
<path opacity="0.69" d="M340.28 89.4482C336.31 89.4206 333.113 86.1944 333.14 82.2237L333.25 56.0282C333.278 52.0575 336.503 48.8588 340.473 48.8864L382.32 49.0794C386.29 49.107 389.488 52.3332 389.46 56.3039L389.35 82.4995C389.322 86.4702 386.097 89.6688 382.127 89.6412L340.28 89.4482Z" fill="white"/>
</g>
</g>
</g>
<path d="M351.996 58.9788C353.126 58.9788 354.753 59.1718 354.78 60.4402C354.78 60.8262 354.725 61.4329 354.643 61.9016C354.312 64.0249 353.347 69.2364 352.796 73.4001H351.197C350.728 69.5673 349.763 64.273 349.377 61.9844C349.267 61.5983 349.157 60.8262 349.157 60.4402C349.157 59.2821 350.811 58.9788 351.996 58.9788ZM352.051 81.3691C350.48 81.3691 349.377 80.2386 349.377 78.5841C349.377 76.9572 350.508 75.8267 352.051 75.8267C353.65 75.8267 354.78 76.9572 354.78 78.5841C354.753 80.2661 353.623 81.3691 352.051 81.3691Z" fill="white"/>
<path d="M362.224 58.978C363.354 58.978 364.981 59.171 365.008 60.4395C365.008 60.8255 364.953 61.4321 364.87 61.9009C364.539 64.0241 363.575 69.2357 363.023 73.3994H361.424C360.956 69.5666 359.991 64.2723 359.605 61.9836C359.495 61.5976 359.384 60.8255 359.384 60.4395C359.357 59.2813 361.011 58.978 362.224 58.978ZM362.251 81.3684C360.68 81.3684 359.577 80.2378 359.577 78.5834C359.577 76.9565 360.708 75.8259 362.251 75.8259C363.85 75.8259 364.981 76.9565 364.981 78.5834C364.953 80.2654 363.85 81.3684 362.251 81.3684Z" fill="white"/>
<path d="M372.424 58.978C373.554 58.978 375.18 59.171 375.208 60.4395C375.208 60.8255 375.153 61.4321 375.07 61.9009C374.739 64.0241 373.774 69.2357 373.223 73.3994H371.624C371.156 69.5666 370.191 64.2723 369.805 61.9836C369.694 61.5976 369.584 60.8255 369.584 60.4395C369.584 59.2813 371.238 58.978 372.424 58.978ZM372.451 81.3684C370.88 81.3684 369.777 80.2378 369.777 78.5834C369.777 76.9565 370.907 75.8259 372.451 75.8259C374.05 75.8259 375.18 76.9565 375.18 78.5834C375.18 80.2654 374.05 81.3684 372.451 81.3684Z" fill="white"/>
<path d="M215.9 164.666V151.078H232.538C235.395 151.078 237.698 148.774 237.698 145.917V91.9885H328.759C331.124 91.9885 333.048 93.4482 333.485 95.2906L333.487 95.2963C333.553 95.5639 333.577 95.8115 333.577 96.0967V164.666C333.577 165.201 333.17 165.798 332.273 166.292C331.395 166.774 330.152 167.089 328.759 167.089H220.718C220.103 167.089 219.505 167.015 218.917 166.914C217.974 166.714 217.198 166.371 216.669 165.958C216.139 165.542 215.9 165.094 215.9 164.666Z" fill="white" stroke="#A4CEE9"/>
<path d="M333.59 93.4639V94.1749H214.176V93.4639C214.176 90.8834 216.572 88.8031 219.52 88.8031H328.219C331.142 88.8031 333.537 90.857 333.564 93.4113C333.59 93.4376 333.59 93.4639 333.59 93.4639Z" fill="#8EC2E4"/>
<path d="M322.151 99.6259H240.068V102.996H322.151V99.6259Z" fill="#E2EEF5"/>
<path d="M286.612 105.261H240.068V108.632H286.612V105.261Z" fill="#E2EEF5"/>
<path d="M295.72 110.896H240.068V114.266H295.72V110.896Z" fill="#E2EEF5"/>
<path d="M315.781 116.558H240.068V119.928H315.781V116.558Z" fill="#E2EEF5"/>
<path d="M288.454 122.193H240.068V125.563H288.454V122.193Z" fill="#E2EEF5"/>
<path d="M305.75 127.854H240.068V131.225H305.75V127.854Z" fill="#E2EEF5"/>
<path d="M281.162 133.489H240.068V136.86H281.162V133.489Z" fill="#E2EEF5"/>
<path d="M311.226 139.151H240.068V142.521H311.226V139.151Z" fill="#E2EEF5"/>
<path d="M322.151 144.786H240.068V148.156H322.151V144.786Z" fill="#E2EEF5"/>
<path d="M305.75 150.447H240.068V153.818H305.75V150.447Z" fill="#E2EEF5"/>
<path d="M272.053 156.082H240.068V159.453H272.053V156.082Z" fill="#E2EEF5"/>
</g>
<path fill-rule="evenodd" clip-rule="evenodd" d="M272.558 178.383C271.537 202.744 268.765 208.918 249.799 222.831H291.888H333.977C314.975 208.918 312.24 202.792 311.218 178.383L291.888 176.388L272.558 178.383Z" fill="#686868"/>
<path d="M240.275 5.22658V130.753C240.275 133.404 238.289 135.48 235.896 135.48H136.791C134.397 135.48 132.411 133.404 132.411 130.753V5.22658C132.411 2.57599 134.397 0.5 136.791 0.5H235.896C238.264 0.5 240.275 2.57788 240.275 5.22658Z" fill="white" stroke="#A4CEE9"/>
<path d="M240.775 5.22658V6.02386H131.911V5.22658C131.911 2.33277 134.089 0 136.791 0H235.896C238.57 0 240.775 2.33277 240.775 5.22658Z" fill="#A4CEE9"/>
<path d="M148.838 12.1958H136.929V14.2923H148.838V12.1958Z" fill="#A4CEE9"/>
<path d="M167.694 12.1967H150.768V14.2932H167.694V12.1967Z" fill="#A4CEE9"/>
<path d="M189.913 12.1967H172.987V14.2932H189.913V12.1967Z" fill="#A4CEE9"/>
<path d="M223.766 12.1967H191.402V14.2932H223.766V12.1967Z" fill="#A4CEE9"/>
<path d="M171.361 12.1967H169.403V14.2932H171.361V12.1967Z" fill="#A4CEE9"/>
<path d="M149.94 50.7307H138.031V52.8272H149.94V50.7307Z" fill="#A4CEE9"/>
<path d="M168.797 50.731H151.87V52.8275H168.797V50.731Z" fill="#A4CEE9"/>
<path d="M191.016 50.731H174.09V52.8275H191.016V50.731Z" fill="#A4CEE9"/>
<path d="M224.896 50.731H192.532V52.8275H224.896V50.731Z" fill="#A4CEE9"/>
<path d="M172.463 50.731H170.506V52.8275H172.463V50.731Z" fill="#A4CEE9"/>
<path d="M148.948 30.9165H137.039V33.013H148.948V30.9165Z" fill="#A4CEE9"/>
<path d="M167.832 30.9167H150.906V33.0133H167.832V30.9167Z" fill="#A4CEE9"/>
<path d="M190.051 30.9167H173.125V33.0133H190.051V30.9167Z" fill="#A4CEE9"/>
<path d="M228.673 30.9167H191.54V33.0133H228.673V30.9167Z" fill="#A4CEE9"/>
<path d="M171.498 30.9167H169.541V33.0133H171.498V30.9167Z" fill="#A4CEE9"/>
<path d="M152.422 57.5226H140.512V59.6191H152.422V57.5226Z" fill="#A4CEE9"/>
<path d="M171.305 57.5231H154.379V59.6196H171.305V57.5231Z" fill="#A4CEE9"/>
<path d="M193.525 57.5231H176.598V59.6196H193.525V57.5231Z" fill="#A4CEE9"/>
<path d="M232.147 57.5231H195.013V59.6196H232.147V57.5231Z" fill="#A4CEE9"/>
<path d="M174.972 57.5231H173.014V59.6196H174.972V57.5231Z" fill="#A4CEE9"/>
<path d="M152.477 24.6559H140.568V26.7524H152.477V24.6559Z" fill="#A4CEE9"/>
<path d="M171.36 24.6559H154.434V26.7524H171.36V24.6559Z" fill="#A4CEE9"/>
<path d="M191.871 24.6559H176.846V26.7524H191.871V24.6559Z" fill="#A4CEE9"/>
<path d="M138.886 24.6564H136.929V26.7529H138.886V24.6564Z" fill="#A4CEE9"/>
<path d="M175.055 24.6559H172.904V26.7524H175.055V24.6559Z" fill="#A4CEE9"/>
<path d="M158.955 37.1464H147.046V39.2429H158.955V37.1464Z" fill="#A4CEE9"/>
<path d="M177.811 37.1464H160.885V39.2429H177.811V37.1464Z" fill="#A4CEE9"/>
<path d="M198.321 37.1464H183.297V39.2429H198.321V37.1464Z" fill="#A4CEE9"/>
<path d="M145.337 37.1469H143.379V39.2434H145.337V37.1469Z" fill="#A4CEE9"/>
<path d="M181.505 37.1464H179.355V39.2429H181.505V37.1464Z" fill="#A4CEE9"/>
<path d="M160.582 64.3131H148.672V66.4096H160.582V64.3131Z" fill="#A4CEE9"/>
<path d="M179.437 64.3131H162.511V66.4096H179.437V64.3131Z" fill="#A4CEE9"/>
<path d="M199.947 64.3131H184.923V66.4096H199.947V64.3131Z" fill="#A4CEE9"/>
<path d="M146.963 64.3124H145.006V66.4089H146.963V64.3124Z" fill="#A4CEE9"/>
<path d="M183.131 64.3131H180.981V66.4096H183.131V64.3131Z" fill="#A4CEE9"/>
<path d="M153.221 83.0355H141.312V85.1321H153.221V83.0355Z" fill="#A4CEE9"/>
<path d="M172.105 83.0355H155.178V85.1321H172.105V83.0355Z" fill="#A4CEE9"/>
<path d="M192.587 83.0355H177.563V85.1321H192.587V83.0355Z" fill="#A4CEE9"/>
<path d="M139.603 83.0353H137.645V85.1318H139.603V83.0353Z" fill="#A4CEE9"/>
<path d="M175.771 83.0355H173.621V85.1321H175.771V83.0355Z" fill="#A4CEE9"/>
<path d="M163.972 43.9386H150.161V46.0351H163.972V43.9386Z" fill="#A4CEE9"/>
<path d="M182.856 43.9385H166.123V46.035H182.856V43.9385Z" fill="#A4CEE9"/>
<path d="M210.038 43.9385H195.013V46.035H210.038V43.9385Z" fill="#A4CEE9"/>
<path d="M193.221 43.9385H184.4V46.035H193.221V43.9385Z" fill="#8EC2E4"/>
<path d="M213.924 43.9385H211.774V46.035H213.924V43.9385Z" fill="#8EC2E4"/>
<path d="M151.457 70.5743H137.645V72.6709H151.457V70.5743Z" fill="#A4CEE9"/>
<path d="M170.34 70.5739H153.607V72.6704H170.34V70.5739Z" fill="#A4CEE9"/>
<path d="M197.522 70.5739H182.498V72.6704H197.522V70.5739Z" fill="#A4CEE9"/>
<path d="M224.18 70.5739H203.421V72.6704H224.18V70.5739Z" fill="#A4CEE9"/>
<path d="M180.706 70.5739H171.884V72.6704H180.706V70.5739Z" fill="#8EC2E4"/>
<path d="M201.409 70.5739H199.259V72.6704H201.409V70.5739Z" fill="#8EC2E4"/>
<path d="M160.058 18.3373H148.149V20.4338H160.058V18.3373Z" fill="#8EC2E4"/>
<path d="M178.941 18.3373H162.015V20.4338H178.941V18.3373Z" fill="#A4CEE9"/>
<path d="M201.354 18.3373H184.427V20.4338H201.354V18.3373Z" fill="#A4CEE9"/>
<path d="M211.774 18.3373H203.311V20.4338H211.774V18.3373Z" fill="#A4CEE9"/>
<path d="M146.302 18.3372H143.379V20.4337H146.302V18.3372Z" fill="#A4CEE9"/>
<path d="M182.443 18.3373H180.485V20.4338H182.443V18.3373Z" fill="#A4CEE9"/>
<path d="M215.937 18.3373H213.98V20.4338H215.937V18.3373Z" fill="#8EC2E4"/>
<path d="M160.83 76.8057H148.921V78.9022H160.83V76.8057Z" fill="#8EC2E4"/>
<path d="M179.713 76.8057H162.787V78.9022H179.713V76.8057Z" fill="#A4CEE9"/>
<path d="M202.126 76.8057H185.199V78.9022H202.126V76.8057Z" fill="#A4CEE9"/>
<path d="M212.546 76.8057H204.083V78.9022H212.546V76.8057Z" fill="#A4CEE9"/>
<path d="M147.074 76.8049H144.151V78.9015H147.074V76.8049Z" fill="#A4CEE9"/>
<path d="M183.214 76.8057H181.257V78.9022H183.214V76.8057Z" fill="#A4CEE9"/>
<path d="M216.709 76.8057H214.752V78.9022H216.709V76.8057Z" fill="#8EC2E4"/>
<path d="M207.336 106.54H164.551C163.669 106.54 162.925 105.773 162.925 104.798V96.5302C162.925 95.5852 163.641 94.788 164.551 94.788H207.336C208.218 94.788 208.962 95.5557 208.962 96.5302V104.798C208.935 105.773 208.218 106.54 207.336 106.54ZM164.551 95.851C164.193 95.851 163.889 96.1758 163.889 96.5597V104.828C163.889 105.212 164.193 105.536 164.551 105.536H207.336C207.694 105.536 207.997 105.212 207.997 104.828V96.5597C207.997 96.1758 207.694 95.851 207.336 95.851H164.551Z" fill="#A4CEE9"/>
<path d="M199.286 98.7742H172.325V101.668H199.286V98.7742Z" fill="#8EC2E4"/>
<path d="M198.38 222.446V222.946H198.88H199.152H199.652H199.68V222.446H200.152V156.433C200.152 156.19 200.092 155.944 199.958 155.742C199.822 155.538 199.585 155.354 199.266 155.354H81.8291C81.5107 155.354 81.2737 155.538 81.1373 155.742C81.0031 155.944 80.9431 156.19 80.9431 156.433V222.308V222.808H81.4431H82.2426H82.7426V222.308V157.512H198.38V222.446Z" fill="#454545" stroke="#686868"/>
<path d="M103.47 164.293C101.292 167.988 99.886 171.931 104.462 173.999C109.038 176.067 130.762 176.012 130.762 176.012C130.762 176.012 126.075 181.913 126.571 186.435C127.729 197.052 131.34 211.859 131.34 211.859H138.646C138.646 211.859 138.398 194.129 142.753 170.277C143.911 163.962 121.168 164.211 121.168 164.211L103.47 164.293Z" fill="#333333"/>
<path d="M137.212 217.236C137.212 216.961 137.323 215.582 137.323 215.306C137.405 213.376 137.791 211.859 137.791 211.859H131.699C131.699 211.859 132.085 214.975 131.782 216.382L137.212 217.236Z" fill="#CAE2FF"/>
<path d="M137.736 214.782C137.708 218.973 144.049 219.386 145.124 219.524C146.172 219.662 146.199 220.958 146.116 221.648C146.116 221.675 146.116 221.73 146.116 221.758H130.706C130.679 221.73 130.651 221.675 130.623 221.648C130.293 221.096 130.182 220.103 130.32 219.331C130.431 218.642 131.175 217.153 131.809 215.719L131.836 215.747C132.939 216.408 133.904 217.318 134.759 215.774C135.586 214.368 137.736 214.782 137.736 214.782Z" fill="#333333"/>
<path d="M161.968 217.154C161.968 216.878 162.078 215.5 162.078 215.224C162.161 213.294 161.361 211.777 161.361 211.777L155.186 210.702C155.186 210.702 156.868 214.893 156.537 216.299L161.968 217.154Z" fill="#CAE2FF"/>
<path d="M162.519 214.093C162.492 218.284 168.832 219.332 169.907 219.47C170.955 219.608 170.982 220.904 170.9 221.593C170.9 221.621 170.9 221.676 170.9 221.703H155.489C155.462 221.676 155.434 221.621 155.407 221.593C155.076 221.042 154.966 220.049 155.103 219.277C155.214 218.588 155.958 217.099 156.592 215.665L156.62 215.692C157.722 216.354 159.073 217.54 159.542 215.83C160.121 213.872 162.519 214.093 162.519 214.093Z" fill="#333333"/>
<path d="M163.346 154.203H120.92V155.857H163.346V154.203Z" fill="#4F5157"/>
<path d="M163.346 154.202H128.087L135.475 132.943C135.696 132.336 136.275 131.95 136.964 131.95H168.529C169.742 131.95 170.679 133.163 170.293 134.239L163.346 154.202Z" fill="#4F5157"/>
<path d="M168.17 133.744L161.995 152.797H130.596L136.771 133.744H168.17Z" fill="#F3F8FF"/>
<path d="M164.421 137.08H138.343L138.977 135.15H165.028L164.421 137.08Z" fill="#A4CEE9"/>
<path d="M144.848 142.98H136.44L137.819 138.734H146.199L144.848 142.98Z" fill="#AFD3FF"/>
<path d="M163.539 139.754H147.55L147.881 138.734H163.87L163.539 139.754Z" fill="#AFD3FF"/>
<path d="M153.753 141.024L153.422 142.044H146.806L147.137 141.024H153.753Z" fill="#AFD3FF"/>
<path d="M157.171 144.304H146.062L146.392 143.311H157.502L157.171 144.304Z" fill="#AFD3FF"/>
<path d="M161.334 146.593H145.317L145.648 145.573H161.665L161.334 146.593Z" fill="#AFD3FF"/>
<path d="M157.64 148.883H144.601L144.904 147.863H157.971L157.64 148.883Z" fill="#AFD3FF"/>
<path d="M101.072 117.693C101.072 117.693 103.746 115.018 104.132 112.95C104.517 110.882 101.678 100.487 106.282 100.018C110.886 99.5492 114.58 103.575 114.745 104.32C114.91 105.064 115.379 106.746 115.351 108.263C115.324 109.669 114.001 114.55 113.339 114.743C112.65 114.936 111.547 114.687 111.547 114.687C111.547 114.687 111.354 119.568 111.161 120.037C110.941 120.533 106.861 120.754 101.072 117.693Z" fill="#EACDB0"/>
<path d="M112.898 96.8193C112.898 96.8193 112.622 99.2183 111.272 99.2459C109.893 99.2459 107.302 97.0675 104.049 98.3911C100.796 99.7146 101.513 101.783 101.513 101.783C101.513 101.783 100.217 102.224 99.8587 103.465C99.0041 106.498 104.214 112.537 104.104 112.978C103.994 113.419 106.53 113.722 107.081 111.709C107.743 109.228 107.219 107.739 108.901 108.235C110.031 108.566 109.425 110 109.728 110.027C110.031 110.055 112.209 108.649 111.52 106.25C110.968 104.347 111.878 103.906 113.284 104.127C114.718 104.347 117.254 104.071 117.143 101.617C117.061 99.1631 115.462 99.2183 115.462 99.2183C115.462 99.2183 114.883 96.709 112.898 96.8193Z" fill="#454545"/>
<path d="M111.244 115.266C111.161 115.21 108.983 114.08 108.845 112.481L109.424 112.425C109.535 113.694 111.492 114.742 111.519 114.742L111.244 115.266Z" fill="#A4CEE9"/>
<path d="M100.63 161.59C101.016 161.59 127.426 159.798 149.204 167.133C151.768 167.988 162.602 212.079 162.602 212.079L155.104 212.217C153.725 211.334 144.104 193.301 142.147 187.924C141.347 185.773 142.753 178.107 142.753 178.107C142.753 178.107 114.194 177.832 103.332 177.832C94.4553 177.859 100.63 161.59 100.63 161.59Z" fill="#4F5157"/>
<path d="M100.437 117.804C100.437 117.804 92.36 121.389 93.2421 137.713C93.5729 143.889 100.906 162.447 100.906 162.447L121.637 162.502L122.491 154.285C122.491 154.285 124.393 155.995 126.406 155.939C148.625 155.471 153.532 154.119 153.532 154.119V148.605C153.532 148.605 133.766 143.145 131.754 143.007C129.741 142.897 129.025 127.814 122.822 122.244C117.419 117.363 107.246 118.742 100.437 117.804Z" fill="#125682"/>
<path d="M122.188 154.589C120.176 153.375 113.339 141.215 113.036 140.691L113.394 140.498C113.477 140.636 120.479 153.1 122.409 154.23L122.188 154.589Z" fill="white"/>
<path d="M99.9412 118.189L103.304 114.521L111.85 115.238L113.89 119.374L99.9412 118.189Z" fill="#125682"/>
<path d="M122.767 162.722H100.52C100.382 162.722 100.272 162.64 100.245 162.502L99.7759 160.351C99.7484 160.185 99.8586 160.02 100.052 160.02H122.74C122.905 160.02 123.015 160.13 123.015 160.296V162.447C123.043 162.612 122.905 162.722 122.767 162.722Z" fill="#454545"/>
<path d="M101.705 163.218H101.457C101.264 163.218 101.126 163.08 101.126 162.887V160.185C101.126 159.992 101.264 159.854 101.457 159.854H101.705C101.898 159.854 102.036 159.992 102.036 160.185V162.887C102.064 163.052 101.898 163.218 101.705 163.218Z" fill="#4F5157"/>
<path d="M115.351 163.19H115.103C114.91 163.19 114.772 163.052 114.772 162.859V160.157C114.772 159.964 114.91 159.826 115.103 159.826H115.351C115.544 159.826 115.682 159.964 115.682 160.157V162.859C115.682 163.025 115.517 163.19 115.351 163.19Z" fill="#4F5157"/>
<path d="M153.505 149.045C153.505 149.045 158.577 149.321 160.121 150.424C162.271 151.968 165.386 155.58 165.055 155.58C161.417 155.58 158.908 153.126 158.191 153.126C157.474 153.126 154.938 154.257 153.78 154.201C152.595 154.146 153.505 149.045 153.505 149.045Z" fill="#EACDB0"/>
<path d="M114.331 118.631L100.272 118.383V117.997L113.477 118.19L111.271 115.488L111.575 115.239L114.331 118.631Z" fill="white"/>
<path d="M90.5405 222.945C90.513 222.945 90.4578 222.945 90.4303 222.945C90.127 222.889 89.9065 222.586 89.9892 222.255L99.0865 178.274C98.4248 176.868 95.7784 171.16 93.8211 164.515C92.4703 159.965 91.6984 155.856 91.4778 152.299C91.2022 147.667 91.9189 143.917 93.6005 141.132C95.9162 137.299 99.9686 135.341 105.647 135.341C111.326 135.341 115.627 137.354 118.466 141.352C120.451 144.11 121.664 147.832 122.133 152.382C122.491 155.912 122.381 159.992 121.802 164.46C121.168 169.45 120.01 174.883 119.293 177.612H136.192C136.523 177.612 136.771 177.861 136.771 178.192C136.771 178.302 136.744 178.385 136.716 178.467L145.262 222.283C145.317 222.586 145.124 222.89 144.793 222.972C144.49 223.027 144.187 222.834 144.104 222.503L135.586 178.771H125.799L134.483 222.283C134.538 222.586 134.345 222.89 134.042 222.972C133.739 223.027 133.435 222.834 133.353 222.531L124.614 178.798H112.898L103.938 222.503C103.883 222.807 103.58 223.027 103.249 222.945C102.946 222.889 102.725 222.586 102.808 222.255L111.712 178.743H100.162L91.1195 222.503C91.0643 222.779 90.8162 222.945 90.5405 222.945ZM100.024 177.612H118.08C118.77 175.076 119.983 169.395 120.617 164.294C121.168 159.882 121.278 155.912 120.947 152.465C120.506 148.108 119.349 144.606 117.501 142.014C114.883 138.347 110.885 136.499 105.62 136.499C100.382 136.499 96.6605 138.264 94.5654 141.738C92.9941 144.303 92.36 147.86 92.6081 152.244C92.8011 155.718 93.573 159.744 94.8962 164.211C96.7708 170.498 99.2519 175.958 100.024 177.612Z" fill="#0D3C5A"/>
<path d="M373.178 223.881H67.3986C67.1461 223.881 66.9297 223.659 66.9297 223.356C66.9297 223.074 67.1281 222.831 67.3986 222.831H373.178C373.431 222.831 373.647 223.053 373.647 223.356C373.647 223.659 373.431 223.881 373.178 223.881Z" fill="#686868"/>
<path d="M367.842 133.84V129.921L365.396 129.597C365.278 128.978 365.131 128.418 364.924 127.829L366.869 126.326L364.924 122.937L362.626 123.88C362.243 123.408 361.801 122.996 361.329 122.583L362.272 120.284L358.883 118.34L357.38 120.284C356.82 120.078 356.231 119.931 355.612 119.813L355.288 117.367H351.369L351.045 119.813C350.426 119.931 349.866 120.078 349.276 120.284L347.774 118.34L344.385 120.284L345.328 122.583C344.856 122.966 344.444 123.408 344.031 123.88L341.732 122.937L339.787 126.326L341.732 127.829C341.526 128.388 341.379 128.978 341.261 129.597L338.815 129.921V133.84L341.261 134.164C341.379 134.783 341.526 135.343 341.732 135.932L339.787 137.435L341.732 140.824L344.031 139.881C344.414 140.353 344.856 140.765 345.328 141.178L344.385 143.477L347.774 145.421L349.276 143.477C349.836 143.683 350.426 143.83 351.045 143.948L351.369 146.394H355.288L355.612 143.948C356.231 143.83 356.791 143.683 357.38 143.477L358.883 145.421L362.272 143.477L361.329 141.178C361.801 140.795 362.213 140.353 362.626 139.881L364.924 140.824L366.869 137.435L364.924 135.932C365.131 135.373 365.278 134.783 365.396 134.164L367.842 133.84ZM353.343 139.793C348.952 139.793 345.416 136.257 345.416 131.866C345.416 127.475 348.952 123.939 353.343 123.939C357.734 123.939 361.27 127.475 361.27 131.866C361.27 136.257 357.705 139.793 353.343 139.793Z" fill="#DEECFD"/>
<path d="M311.723 177.356H273.021V186.064H311.723V177.356Z" fill="#454545"/>
</svg>
