<svg width="489" height="257" viewBox="0 0 489 257" fill="none" xmlns="http://www.w3.org/2000/svg">
<mask id="mask0" mask-type="alpha" maskUnits="userSpaceOnUse" x="0" y="70" width="489" height="187">
<rect y="70" width="489" height="187" fill="#1C85C8"/>
</mask>
<g mask="url(#mask0)">
<circle cx="370.5" cy="538.5" r="463.5" fill="white"/>
</g>
<mask id="mask1" mask-type="alpha" maskUnits="userSpaceOnUse" x="59" y="0" width="419" height="219">
<rect x="59" width="419" height="219" fill="#1C85C8"/>
</mask>
<g mask="url(#mask1)">
</g>
<mask id="mask2" mask-type="alpha" maskUnits="userSpaceOnUse" x="30" y="0" width="459" height="257">
<rect x="30" width="459" height="257" fill="#1C85C8"/>
</mask>
<g mask="url(#mask2)">
<path d="M288.755 160H318.904L325 221H284L288.755 160Z" fill="#263238"/>
<path d="M315.645 216.002H328.774C331.101 216.044 333.11 217.345 333.78 219.222C334.784 222.121 332.229 225 328.686 225H276.309C273.031 225 270.529 222.505 271.075 219.755L271.251 218.88C271.674 216.684 313.019 215.959 315.645 216.002Z" fill="#263238"/>
<path d="M273.891 159.803H310.021L315.01 221.391H268.213L273.891 159.803Z" fill="#454545"/>
<path d="M261.889 215.089L323.713 215.944C326.469 215.986 328.848 217.258 329.641 219.094C330.831 221.932 327.804 224.748 323.609 224.748H261.597C257.714 224.748 254.751 222.307 255.398 219.616L255.606 218.761C256.107 216.612 258.779 215.047 261.889 215.089Z" fill="#686868"/>
<path d="M429.182 24.9215V172.967C429.182 173.968 428.577 174.949 427.554 174.949H184.055C182.907 174.949 181.947 173.864 181.947 172.696V21.6042C181.947 20.4567 182.907 19.7265 184.055 19.7265H423.568C426.636 19.7265 428.932 21.8963 429.182 24.9215Z" fill="#686868"/>
<path d="M187.839 161H406.161C406.632 161 407 160.622 407 160.14V26.8601C407 26.3776 406.632 26 406.161 26H187.839C187.368 26 187 26.3776 187 26.8601V160.161C187 160.622 187.368 161 187.839 161Z" fill="white"/>
<path d="M429.412 25.3805V168.961C429.412 169.107 429.412 169.337 429.391 169.483C429.162 172.508 426.636 174.949 423.568 174.949C420.332 174.949 417.515 172.174 417.515 168.94V25.3805C417.515 22.1467 420.353 19.7265 423.568 19.7265C426.636 19.7265 429.162 22.0006 429.391 25.0258C429.412 25.1718 429.412 25.2136 429.412 25.3805Z" fill="#686868"/>
<path d="M378.421 138.084C378.421 142.131 374.643 145.386 369.988 145.386H224.673C220.019 145.386 216.241 142.11 216.241 138.084V51.1884C216.241 47.1409 220.019 43.8862 224.673 43.8862H369.988C374.643 43.8862 378.421 47.1618 378.421 51.1884V138.084V138.084Z" fill="#A4CEE9"/>
<path d="M374.267 54.9856H220.395C219.184 54.9856 218.224 55.841 218.224 56.8842V138.042C218.224 141.13 221.125 143.634 224.673 143.634H369.988C373.557 143.634 376.438 141.13 376.438 138.042V56.8633C376.438 55.8201 375.478 54.9856 374.267 54.9856Z" fill="white"/>
<path d="M352.559 52.5235C354.3 52.5235 355.711 51.113 355.711 49.3731C355.711 47.6332 354.3 46.2228 352.559 46.2228C350.819 46.2228 349.408 47.6332 349.408 49.3731C349.408 51.113 350.819 52.5235 352.559 52.5235Z" fill="white"/>
<path d="M360.554 52.5235C362.294 52.5235 363.705 51.113 363.705 49.3731C363.705 47.6332 362.294 46.2228 360.554 46.2228C358.813 46.2228 357.402 47.6332 357.402 49.3731C357.402 51.113 358.813 52.5235 360.554 52.5235Z" fill="white"/>
<path d="M368.548 52.5235C370.288 52.5235 371.7 51.113 371.7 49.3731C371.7 47.6332 370.288 46.2228 368.548 46.2228C366.807 46.2228 365.396 47.6332 365.396 49.3731C365.396 51.113 366.807 52.5235 368.548 52.5235Z" fill="white"/>
<g opacity="0.8">
<g opacity="0.8">
<path opacity="0.8" d="M303.112 68.0034C303.112 68.8588 302.424 69.5473 301.568 69.5473H228.827C227.971 69.5473 227.282 68.8588 227.282 68.0034V67.9408C227.282 67.0854 227.971 66.3969 228.827 66.3969H301.547C302.403 66.3969 303.092 67.0854 303.092 67.9408V68.0034H303.112Z" fill="#E2EEF5"/>
<path opacity="0.8" d="M324.82 67.9826C324.82 68.8588 324.11 69.5682 323.233 69.5682H308.497C307.621 69.5682 306.911 68.8588 306.911 67.9826C306.911 67.1063 307.621 66.3969 308.497 66.3969H323.233C324.11 66.3969 324.82 67.1063 324.82 67.9826Z" fill="#E2EEF5"/>
<path opacity="0.8" d="M345.651 67.9826C345.651 68.8588 344.941 69.5682 344.064 69.5682H329.328C328.452 69.5682 327.742 68.8588 327.742 67.9826C327.742 67.1063 328.452 66.3969 329.328 66.3969H344.064C344.941 66.3969 345.651 67.1063 345.651 67.9826Z" fill="#E2EEF5"/>
<path opacity="0.8" d="M245.191 75.2228C245.191 76.0991 244.481 76.8084 243.605 76.8084H228.869C227.992 76.8084 227.282 76.0991 227.282 75.2228C227.282 74.3466 227.992 73.6372 228.869 73.6372H243.605C244.481 73.6372 245.191 74.3466 245.191 75.2228Z" fill="#E2EEF5"/>
<path opacity="0.8" d="M267.045 75.2228C267.045 76.0991 266.335 76.8084 265.458 76.8084H250.722C249.846 76.8084 249.136 76.0991 249.136 75.2228C249.136 74.3466 249.846 73.6372 250.722 73.6372H265.458C266.335 73.6372 267.045 74.3466 267.045 75.2228Z" fill="#E2EEF5"/>
<path opacity="0.8" d="M292.572 83.5045C292.572 84.3807 291.862 85.0901 290.985 85.0901H276.249C275.373 85.0901 274.663 84.3807 274.663 83.5045C274.663 82.6282 275.373 81.9189 276.249 81.9189H290.985C291.862 81.9189 292.572 82.6282 292.572 83.5045Z" fill="#E2EEF5"/>
<path opacity="0.8" d="M319.685 75.2228C319.685 76.0991 318.976 76.8084 318.099 76.8084H277.961C277.084 76.8084 276.375 76.0991 276.375 75.2228C276.375 74.3466 277.084 73.6372 277.961 73.6372H318.12C318.976 73.6372 319.685 74.3466 319.685 75.2228Z" fill="#E2EEF5"/>
<path opacity="0.8" d="M270.718 83.5045C270.718 84.3807 270.009 85.0901 269.132 85.0901H228.994C228.117 85.0901 227.408 84.3807 227.408 83.5045C227.408 82.6282 228.117 81.9189 228.994 81.9189H269.153C270.009 81.9189 270.718 82.6282 270.718 83.5045Z" fill="#E2EEF5"/>
</g>
<g opacity="0.8">
<path opacity="0.8" d="M303.112 115.113C303.112 115.968 302.424 116.657 301.568 116.657H228.827C227.971 116.657 227.282 115.968 227.282 115.113V115.05C227.282 114.195 227.971 113.506 228.827 113.506H301.547C302.403 113.506 303.092 114.195 303.092 115.05V115.113H303.112Z" fill="#E2EEF5"/>
<path opacity="0.8" d="M324.82 115.092C324.82 115.968 324.11 116.677 323.233 116.677H308.497C307.621 116.677 306.911 115.968 306.911 115.092C306.911 114.216 307.621 113.506 308.497 113.506H323.233C324.11 113.506 324.82 114.216 324.82 115.092Z" fill="#E2EEF5"/>
<path opacity="0.8" d="M245.191 122.31C245.191 123.187 244.481 123.896 243.605 123.896H228.869C227.992 123.896 227.282 123.187 227.282 122.31C227.282 121.434 227.992 120.725 228.869 120.725H243.605C244.481 120.746 245.191 121.455 245.191 122.31Z" fill="#E2EEF5"/>
<path opacity="0.8" d="M267.045 122.31C267.045 123.187 266.335 123.896 265.458 123.896H250.722C249.846 123.896 249.136 123.187 249.136 122.31C249.136 121.434 249.846 120.725 250.722 120.725H265.458C266.335 120.746 267.045 121.455 267.045 122.31Z" fill="#E2EEF5"/>
<path opacity="0.8" d="M292.572 130.614C292.572 131.49 291.862 132.199 290.985 132.199H276.249C275.373 132.199 274.663 131.49 274.663 130.614C274.663 129.738 275.373 129.028 276.249 129.028H290.985C291.862 129.028 292.572 129.738 292.572 130.614Z" fill="#E2EEF5"/>
<path opacity="0.8" d="M315.865 130.614C315.865 131.49 315.156 132.199 314.279 132.199H299.543C298.666 132.199 297.957 131.49 297.957 130.614C297.957 129.738 298.666 129.028 299.543 129.028H314.279C315.177 129.028 315.865 129.738 315.865 130.614Z" fill="#E2EEF5"/>
<path opacity="0.8" d="M319.685 122.31C319.685 123.187 318.976 123.896 318.099 123.896H277.961C277.084 123.896 276.375 123.187 276.375 122.31C276.375 121.434 277.084 120.725 277.961 120.725H318.12C318.976 120.746 319.685 121.455 319.685 122.31Z" fill="#E2EEF5"/>
<path opacity="0.8" d="M270.718 130.614C270.718 131.49 270.009 132.199 269.132 132.199H228.994C228.117 132.199 227.408 131.49 227.408 130.614C227.408 129.738 228.117 129.028 228.994 129.028H269.153C270.009 129.028 270.718 129.738 270.718 130.614Z" fill="#E2EEF5"/>
<path opacity="0.8" d="M341.351 130.614C341.351 131.49 340.641 132.199 339.765 132.199H299.627C298.75 132.199 298.04 131.49 298.04 130.614C298.04 129.738 298.75 129.028 299.627 129.028H339.785C340.641 129.028 341.351 129.738 341.351 130.614Z" fill="#E2EEF5"/>
</g>
<g opacity="0.8">
<path opacity="0.8" d="M303.112 96.5657C303.112 97.4211 302.424 98.1096 301.568 98.1096H228.827C227.971 98.1096 227.282 97.4211 227.282 96.5657V96.5031C227.282 95.6477 227.971 94.9592 228.827 94.9592H301.547C302.403 94.9592 303.092 95.6477 303.092 96.5031V96.5657H303.112Z" fill="#E2EEF5"/>
<path opacity="0.8" d="M245.316 104.681C245.316 105.558 244.607 106.267 243.73 106.267H228.994C228.117 106.267 227.408 105.558 227.408 104.681C227.408 103.805 228.117 103.096 228.994 103.096H243.73C244.607 103.117 245.316 103.826 245.316 104.681Z" fill="#E2EEF5"/>
<path opacity="0.8" d="M359.489 104.681C359.489 105.558 358.78 106.267 357.903 106.267H343.167C342.29 106.267 341.581 105.558 341.581 104.681C341.581 103.805 342.29 103.096 343.167 103.096H357.903C358.78 103.117 359.489 103.826 359.489 104.681Z" fill="#E2EEF5"/>
<path opacity="0.8" d="M293.093 104.681C293.093 105.558 292.384 106.267 291.507 106.267H251.369C250.493 106.267 249.783 105.558 249.783 104.681C249.783 103.805 250.493 103.096 251.369 103.096H291.528C292.384 103.117 293.093 103.826 293.093 104.681Z" fill="#E2EEF5"/>
<path opacity="0.8" d="M338.784 104.681C338.784 105.558 338.074 106.267 337.197 106.267H297.059C296.183 106.267 295.473 105.558 295.473 104.681C295.473 103.805 296.183 103.096 297.059 103.096H337.218C338.074 103.117 338.784 103.826 338.784 104.681Z" fill="#E2EEF5"/>
</g>
</g>
<path d="M50.2439 230.992L52.4852 231.112C52.784 232.038 53.1127 232.934 53.561 233.83C53.9793 234.666 54.4874 235.443 54.9954 236.19L53.7403 238.042C53.0231 239.117 53.292 240.61 54.3977 241.327L61.2411 245.927C62.317 246.644 63.8112 246.375 64.5284 245.27L65.7835 243.418C67.7558 243.896 69.8178 244.016 71.8798 243.807L72.8958 245.808C73.4935 246.973 74.898 247.451 76.0934 246.853L83.4448 243.149C84.6103 242.552 85.0884 241.148 84.4908 239.953L83.4747 237.952C84.8494 236.458 85.9551 234.786 86.7619 232.964L88.9733 233.083C90.2882 233.143 91.3939 232.157 91.4836 230.843L91.9318 222.628C91.9916 221.314 91.0054 220.209 89.6906 220.119L87.4493 220C87.1504 219.074 86.8217 218.178 86.3735 217.282C85.9551 216.445 85.447 215.668 84.939 214.922L86.1942 213.07C86.9114 211.994 86.6424 210.501 85.5367 209.784L78.6933 205.184C77.6175 204.467 76.1233 204.736 75.4061 205.841L74.151 207.693C72.1786 207.215 70.1166 207.096 68.0546 207.305L67.0386 205.303C66.4409 204.138 65.0364 203.661 63.841 204.258L56.4896 207.962C55.3241 208.559 54.846 209.963 55.4437 211.158L56.4597 213.159C55.0851 214.653 53.9794 216.326 53.1725 218.148L50.9611 218.028C49.6462 217.969 48.5405 218.954 48.4508 220.269L48.0026 228.483C47.9428 229.797 48.929 230.932 50.2439 230.992ZM67.6363 220.926C70.2063 219.641 73.3441 220.657 74.6291 223.226C75.9141 225.795 74.8981 228.931 72.328 230.215C69.758 231.5 66.6202 230.484 65.3352 227.915C64.0502 225.347 65.0662 222.24 67.6363 220.926Z" fill="#E2EEF5"/>
<path d="M57.0573 228.752C56.8183 227.796 56.6987 226.81 56.6688 225.825C56.4895 218.477 62.287 212.353 69.6384 212.174C69.9672 212.174 70.2361 212.443 70.2361 212.741C70.2361 213.07 69.997 213.339 69.6683 213.339C62.9743 213.518 57.6849 219.104 57.8343 225.795C57.924 229.021 59.2687 232.038 61.5997 234.278C63.9605 236.518 67.0385 237.683 70.266 237.624C76.96 237.444 82.2494 231.859 82.1 225.168C82.1 224.839 82.3391 224.57 82.6678 224.57C82.9965 224.57 83.2655 224.809 83.2655 225.138C83.4448 232.486 77.6473 238.609 70.2959 238.789C66.7397 238.878 63.3628 237.594 60.7629 235.144C58.94 233.382 57.655 231.172 57.0573 228.752Z" fill="white"/>
<path d="M62.6157 232.785C62.5559 232.605 62.6157 232.396 62.7651 232.247C63.0042 232.008 63.3628 232.008 63.6019 232.217C65.3949 233.92 67.7557 234.816 70.2361 234.756C72.7165 234.696 75.0175 233.681 76.7209 231.859C80.2472 228.155 80.0978 222.27 76.3922 218.745C72.6866 215.221 66.7994 215.37 63.2731 219.074C63.0341 219.313 62.6755 219.313 62.4364 219.104C62.1973 218.865 62.1973 218.506 62.4065 218.267C66.3811 214.086 73.0153 213.906 77.199 217.879C81.3828 221.852 81.5621 228.483 77.5875 232.665C73.613 236.847 66.9788 237.026 62.795 233.053C62.6755 232.994 62.6456 232.874 62.6157 232.785Z" fill="white"/>
<path d="M138.085 221.444H139.856V202.507H138.085V221.444Z" fill="#454545"/>
<path d="M150.897 223.892C150.702 223.164 150.314 222.146 149.441 221.394C147.573 219.794 145.05 220.618 141.315 220.667C136.075 220.74 136.536 219.188 132.654 219.527C126.808 220.012 121.496 223.892 121.496 223.892C121.52 223.892 131.83 223.892 150.897 223.892Z" fill="#454545"/>
<path d="M184.98 219.356L185.78 221.538L184.47 221.829L183.767 219.598L184.98 219.356Z" fill="#454545"/>
<path d="M135.517 155.248C135.517 155.248 122.49 154.084 117.323 165.965C107.184 189.291 130.108 215.551 155.821 197.002C161.231 193.098 142.334 176.246 142.334 176.246L135.517 155.248Z" fill="#686868"/>
<path d="M137.87 156.265C137.87 156.265 130.496 157.842 126.93 170.596C120.501 193.606 137.045 206.239 157.665 194.019C143.352 189.387 139.665 173.869 139.665 173.869L137.87 156.265Z" fill="#ADA6A6"/>
<path d="M149.854 143.802C151.334 143.002 151.867 143.196 152.668 142.663C154.196 141.668 154.778 139.438 154.705 137.934C154.56 134.588 151.164 131.8 148.01 131.048C144.832 130.296 144.08 132.066 139.593 131.945C135.153 131.824 134.789 129.884 131.175 130.005C127.294 130.151 122.636 132.6 121.181 136.334C119.798 139.874 122.466 141.571 120.962 145.791C119.677 149.379 117.251 149.5 117.008 152.24C116.717 155.465 119.798 158.593 122.418 160.024C127.949 163.006 134.159 159.878 135.76 158.981C137.894 157.769 139.253 156.241 144.299 150.204C145.803 147.973 145.875 147.051 147.355 145.645C148.471 144.554 149.611 143.948 149.854 143.802Z" fill="black"/>
<path d="M155.385 165.261L159.096 175.615L167.441 177.603L167.174 179.106L155.918 178.476C155.918 178.476 154.875 175.809 151.552 165.722C153.881 165.94 155.385 165.261 155.385 165.261Z" fill="#EACDB0"/>
<path d="M146.458 152.799C146.458 152.799 152.959 152.023 155.846 165.431C154.754 166.789 152.037 166.207 152.037 166.207L147.355 156.63C147.355 156.605 143.28 152.944 146.458 152.799Z" fill="#1C85C8"/>
<path d="M146.749 153.015C146.749 153.015 147.525 151.827 150.606 158.01C153.686 164.217 153.565 168.946 150.339 170.982C147.112 173.019 148.519 179.736 148.519 179.736L134.765 181.239C134.765 181.239 131.369 156.313 135.711 154.276C139.956 152.288 141.654 152.821 141.654 152.821L146.749 153.015Z" fill="#1C85C8"/>
<path d="M150.8 141.499C150.8 141.499 151.964 146.324 148.835 149.088C147.889 149.913 146.943 149.525 146.943 149.525L147.112 152.919C147.112 152.919 149.417 155.829 147.622 159.127C145.851 162.424 140.223 152.798 140.223 152.798C140.223 152.798 143.522 151.586 142.94 147.44C142.431 147.294 141.412 146.324 142.164 144.966C142.94 143.608 143.547 144.797 143.547 144.797C143.547 144.797 143.231 141.111 146.506 140.868C149.805 140.675 150.8 141.499 150.8 141.499Z" fill="#EACDB0"/>
<path d="M147.622 180.997L148.52 180.197C148.52 180.197 150.266 183.495 156.792 184.198C163.317 184.901 174.015 185.992 176.392 188.029C178.745 190.042 185.732 219.502 185.732 219.502L183.136 220.521C183.136 220.521 173.748 195.619 171.104 194.091C168.46 192.563 141.921 192.297 141.921 192.297L147.622 180.997Z" fill="#263238"/>
<path d="M154.827 217.247L153.59 219.866L154.851 220.399L156.573 217.999L154.827 217.247Z" fill="#454545"/>
<path d="M148.52 180.197L134.595 180.973C134.595 180.973 131.83 186.962 134.328 193.412C136.827 199.862 161.837 196.734 161.837 196.734L154.536 217.369L156.767 218.751C156.767 218.751 168.921 202.578 171.856 193.194C172.487 186.526 156.913 186.186 151.697 185.556C147.549 185.071 148.52 180.197 148.52 180.197Z" fill="#263238"/>
<path d="M153.396 219.599C153.396 219.599 152.498 220.011 152.401 221.369C152.304 222.727 156.767 224.521 157.714 223.963C159.218 223.115 157.471 223.309 156.015 222.169C155.53 221.781 155.191 220.714 155.045 220.326C154.778 219.72 153.396 219.599 153.396 219.599Z" fill="#EACDB0"/>
<path d="M186.096 221.443C186.096 221.443 184.713 221.613 184.47 221.831C184.228 222.05 184.446 223.504 185.101 223.868C185.756 224.256 190.389 221.274 190.68 220.255C190.608 220.013 186.096 221.443 186.096 221.443Z" fill="#EACDB0"/>
<path d="M137.87 167.808C137.87 167.808 138.452 175.422 138.331 176.513C141.654 176.101 153.711 177.192 153.711 177.192C153.711 177.192 158.029 176.367 158.514 179.107C156.209 179.156 153.031 179.01 153.031 179.01C152.425 179.035 151.455 179.107 150.242 179.204C150.242 179.204 140.005 180.659 136.997 180.805C135.541 180.877 132.873 177.289 133.067 168.39L137.87 167.808Z" fill="#EACDB0"/>
<path d="M137.555 153.696C137.555 153.696 134.595 153.963 132.825 156.727C131.054 159.491 132.291 169.481 132.291 169.481C132.291 169.481 136.196 168.293 138.962 168.535C139.593 162.498 137.555 153.696 137.555 153.696Z" fill="#1C85C8"/>
<path d="M126.275 223.867C125.79 223.746 125.498 223.261 125.62 222.776L135.42 183.447C135.541 182.962 136.027 182.671 136.512 182.792C136.997 182.913 137.288 183.398 137.167 183.883L127.366 223.213C127.245 223.697 126.76 223.988 126.275 223.867Z" fill="#125682"/>
<path d="M134.668 180.027C156.403 180.027 178.139 180.027 199.874 180.027C203.561 180.027 204.192 181.991 203.731 183.228C203.294 184.44 199.462 184.755 197.109 184.901C184.397 185.653 170.716 183.907 161.958 183.446C143.207 182.476 130.156 186.622 128.361 183.761C127.851 182.961 127.754 182.015 129.04 181.191C130.762 180.027 132.921 180.027 134.668 180.027Z" fill="#125682"/>
<path d="M202.858 223.867C203.343 223.746 203.634 223.261 203.513 222.776L193.713 183.447C193.591 182.962 193.106 182.671 192.621 182.792C192.136 182.913 191.845 183.398 191.966 183.883L201.766 223.213C201.888 223.697 202.373 223.988 202.858 223.867Z" fill="#125682"/>
<path d="M152.182 179.981H170.376C170.764 179.981 171.08 179.665 171.08 179.278C171.08 178.89 170.764 178.574 170.376 178.574H152.182C151.794 178.574 151.479 178.89 151.479 179.278C151.479 179.665 151.794 179.981 152.182 179.981Z" fill="#1C85C8"/>
<path d="M161.983 179.98H178.114C180.856 179.98 183.573 177.725 184.131 174.985L185.756 166.935C186.314 164.195 184.519 161.94 181.753 161.94H165.621C162.88 161.94 160.163 164.195 159.605 166.935L157.98 174.985C157.446 177.75 159.242 179.98 161.983 179.98Z" fill="#1C85C8"/>
<path d="M163.026 179.981H179.158C181.899 179.981 184.616 177.726 185.174 174.986L186.799 166.936C187.357 164.196 185.562 161.941 182.796 161.941H166.665C163.924 161.941 161.207 164.196 160.649 166.936L159.023 174.986C158.49 177.75 160.285 179.981 163.026 179.981Z" fill="#A4CEE9"/>
<path d="M321.18 94.1975C321.18 98.245 317.402 101.5 312.747 101.5H167.433C162.778 101.5 159 98.2241 159 94.1975V7.30213C159 3.25467 162.778 0 167.433 0H312.747C317.402 0 321.18 3.27553 321.18 7.30213V94.1975V94.1975Z" fill="#A4CEE9"/>
<path d="M317.005 11.0994H163.154C161.943 11.0994 160.983 11.9548 160.983 12.998V94.1559C160.983 97.2437 163.884 99.7473 167.433 99.7473H312.747C316.316 99.7473 319.197 97.2437 319.197 94.1559V12.998C319.197 11.9339 318.216 11.0994 317.005 11.0994Z" fill="white"/>
<path d="M295.319 8.63725C297.059 8.63725 298.47 7.22679 298.47 5.4869C298.47 3.74701 297.059 2.33655 295.319 2.33655C293.578 2.33655 292.167 3.74701 292.167 5.4869C292.167 7.22679 293.578 8.63725 295.319 8.63725Z" fill="white"/>
<path d="M303.313 8.63725C305.053 8.63725 306.464 7.22679 306.464 5.4869C306.464 3.74701 305.053 2.33655 303.313 2.33655C301.572 2.33655 300.161 3.74701 300.161 5.4869C300.161 7.22679 301.572 8.63725 303.313 8.63725Z" fill="white"/>
<path d="M311.307 8.63725C313.047 8.63725 314.459 7.22679 314.459 5.4869C314.459 3.74701 313.047 2.33655 311.307 2.33655C309.566 2.33655 308.155 3.74701 308.155 5.4869C308.155 7.22679 309.566 8.63725 311.307 8.63725Z" fill="white"/>
<path d="M245.851 71.2265C245.851 72.0819 245.162 72.7704 244.306 72.7704H171.587C170.731 72.7704 170.042 72.0819 170.042 71.2265V71.1639C170.042 70.3085 170.731 69.6201 171.587 69.6201H244.306C245.162 69.6201 245.851 70.3085 245.851 71.1639V71.2265Z" fill="#E2EEF5"/>
<path d="M267.579 71.2057C267.579 72.0819 266.869 72.7913 265.993 72.7913H251.257C250.38 72.7913 249.67 72.0819 249.67 71.2057C249.67 70.3294 250.38 69.6201 251.257 69.6201H265.993C266.869 69.6201 267.579 70.3294 267.579 71.2057Z" fill="#E2EEF5"/>
<path d="M187.929 78.4459C187.929 79.3222 187.22 80.0315 186.343 80.0315H171.607C170.73 80.0315 170.021 79.3222 170.021 78.4459C170.021 77.5697 170.73 76.8603 171.607 76.8603H186.343C187.22 76.8603 187.929 77.5697 187.929 78.4459Z" fill="#E2EEF5"/>
<path d="M209.783 78.4459C209.783 79.3222 209.073 80.0315 208.197 80.0315H193.461C192.584 80.0315 191.874 79.3222 191.874 78.4459C191.874 77.5697 192.584 76.8603 193.461 76.8603H208.197C209.073 76.8603 209.783 77.5697 209.783 78.4459Z" fill="#E2EEF5"/>
<path d="M235.331 86.7276C235.331 87.6038 234.621 88.3132 233.744 88.3132H219.008C218.132 88.3132 217.422 87.6038 217.422 86.7276C217.422 85.8513 218.132 85.142 219.008 85.142H233.744C234.621 85.142 235.331 85.8513 235.331 86.7276Z" fill="#E2EEF5"/>
<path d="M258.624 86.7276C258.624 87.6038 257.915 88.3132 257.038 88.3132H242.302C241.425 88.3132 240.716 87.6038 240.716 86.7276C240.716 85.8513 241.425 85.142 242.302 85.142H257.038C257.915 85.142 258.624 85.8513 258.624 86.7276Z" fill="#E2EEF5"/>
<path d="M262.444 78.4459C262.444 79.3222 261.735 80.0315 260.858 80.0315H220.699C219.823 80.0315 219.113 79.3222 219.113 78.4459C219.113 77.5697 219.823 76.8603 220.699 76.8603H260.858C261.735 76.8603 262.444 77.5697 262.444 78.4459Z" fill="#E2EEF5"/>
<path d="M213.477 86.7276C213.477 87.6038 212.768 88.3132 211.891 88.3132H171.732C170.856 88.3132 170.146 87.6038 170.146 86.7276C170.146 85.8513 170.856 85.142 171.732 85.142H211.891C212.768 85.142 213.477 85.8513 213.477 86.7276Z" fill="#E2EEF5"/>
<path d="M284.089 86.7276C284.089 87.6038 283.379 88.3132 282.503 88.3132H242.365C241.488 88.3132 240.779 87.6038 240.779 86.7276C240.779 85.8513 241.488 85.142 242.365 85.142H282.524C283.379 85.142 284.089 85.8513 284.089 86.7276Z" fill="#E2EEF5"/>
<path d="M245.851 52.6795C245.851 53.5349 245.162 54.2234 244.306 54.2234H171.587C170.731 54.2234 170.042 53.5349 170.042 52.6795V52.6169C170.042 51.7615 170.731 51.073 171.587 51.073H244.306C245.162 51.073 245.851 51.7615 245.851 52.6169V52.6795Z" fill="#E2EEF5"/>
<path d="M188.055 60.8157C188.055 61.6919 187.345 62.4013 186.468 62.4013H171.732C170.856 62.4013 170.146 61.6919 170.146 60.8157C170.146 59.9394 170.856 59.2301 171.732 59.2301H186.468C187.366 59.2301 188.055 59.9394 188.055 60.8157Z" fill="#E2EEF5"/>
<path d="M302.248 60.8157C302.248 61.6919 301.538 62.4013 300.662 62.4013H285.926C285.049 62.4013 284.339 61.6919 284.339 60.8157C284.339 59.9394 285.049 59.2301 285.926 59.2301H300.662C301.538 59.2301 302.248 59.9394 302.248 60.8157Z" fill="#E2EEF5"/>
<path d="M235.852 60.8157C235.852 61.6919 235.143 62.4013 234.266 62.4013H194.128C193.252 62.4013 192.542 61.6919 192.542 60.8157C192.542 59.9394 193.252 59.2301 194.128 59.2301H234.287C235.143 59.2301 235.852 59.9394 235.852 60.8157Z" fill="#E2EEF5"/>
<path d="M281.522 60.8157C281.522 61.6919 280.812 62.4013 279.935 62.4013H239.798C238.921 62.4013 238.211 61.6919 238.211 60.8157C238.211 59.9394 238.921 59.2301 239.798 59.2301H279.956C280.812 59.2301 281.522 59.9394 281.522 60.8157Z" fill="#E2EEF5"/>
<path opacity="0.4" d="M321.18 11.0994V94.1977C321.18 98.2243 317.402 101.583 312.747 101.583H274.342C274.342 101.583 297.009 76.4639 286.385 51.5115C275.74 26.5382 308.698 11.1828 308.698 11.1828L321.18 11.0994Z" fill="white"/>
<path d="M172.692 32.8596C172.692 30.3768 173.924 28.1862 175.823 26.8509L174.32 24.4517C171.628 26.2668 169.854 29.3754 169.854 32.8596C169.854 33.089 169.854 33.3603 169.875 33.5689H172.692C172.692 33.3811 172.692 33.089 172.692 32.8596Z" fill="#686868"/>
<path d="M179.936 22.7199C179.915 22.7199 180.061 22.7199 179.853 22.7199V25.5364C180.061 25.5364 179.915 25.5364 179.936 25.5364C183.965 25.5364 187.242 28.812 187.242 32.8177C187.242 36.8235 183.985 40.1407 179.957 40.1407C176.158 40.1407 173.048 37.1155 172.714 33.5688H169.896C170.251 38.7846 174.635 42.9572 179.978 42.9572C185.551 42.9572 190.059 38.4091 190.059 32.8386C190.059 27.2681 185.509 22.7199 179.936 22.7199Z" fill="#1C85C8"/>
<path d="M179.852 25.5364V22.7199C177.806 22.7199 175.886 23.3667 174.279 24.4516L175.761 26.8508C176.93 26.0372 178.453 25.5573 179.852 25.5364Z" fill="#E2EEF5"/>
<path d="M214.375 32.1294H211.557C211.536 35.8848 208.197 39.2646 204.189 39.2646C204.168 39.2646 204.293 39.1812 204.085 39.1812V41.9977C204.293 41.9977 204.189 42.0812 204.189 42.0812C209.741 42.0812 214.333 37.5539 214.375 32.1294Z" fill="#1C85C8"/>
<path d="M196.821 31.8791C196.821 27.8734 200.307 24.6187 204.064 24.5978V21.7813C198.637 21.8022 193.982 26.3295 193.982 31.8791C193.982 37.4287 198.637 41.9561 204.064 41.9769V39.1604C200.328 39.1395 196.821 35.8849 196.821 31.8791Z" fill="#686868"/>
<path d="M204.231 24.5978C208.259 24.5978 211.536 27.8942 211.536 31.9208C211.536 31.9417 211.557 31.8582 211.557 32.0043H214.375C214.375 31.8374 214.375 31.9208 214.375 31.9208C214.375 26.3504 209.804 21.8022 204.231 21.8022C204.21 21.8022 204.314 21.7813 204.147 21.7813V24.5978C204.314 24.5978 204.21 24.5978 204.231 24.5978Z" fill="#E2EEF5"/>
<path d="M230.426 21.7813C230.405 21.7813 230.593 21.7813 230.384 21.7813V24.5978C230.593 24.5978 230.426 24.5978 230.426 24.5978C234.454 24.5978 237.71 27.8734 237.71 31.8791C237.71 35.9057 234.454 39.1604 230.426 39.1604C228.756 39.1604 227.212 38.5971 226.001 37.6582L224.227 39.8489C225.938 41.1841 228.088 41.9769 230.426 41.9769C235.999 41.9769 240.528 37.4496 240.528 31.8791C240.528 26.3086 235.999 21.7813 230.426 21.7813Z" fill="#1C85C8"/>
<path d="M223.1 31.9208C223.1 27.9151 226.398 24.6187 230.322 24.5978V21.7813C224.832 21.8022 220.282 26.3712 220.282 31.9208C220.282 31.9417 220.324 31.8582 220.324 32.0043H223.142C223.142 31.8582 223.1 31.9417 223.1 31.9208Z" fill="#E2EEF5"/>
<path d="M223.142 32.1294H220.324C220.345 35.2589 221.868 38.1172 224.227 39.9531L226.001 37.8042C224.269 36.469 223.162 34.2157 223.142 32.1294Z" fill="#686868"/>
<path d="M310.326 39.6401C310.326 41.0171 309.199 42.1437 307.821 42.1437H251.257C249.879 42.1437 248.752 41.0171 248.752 39.6401V24.41C248.752 23.033 249.879 21.9064 251.257 21.9064H307.821C309.199 21.9064 310.326 23.033 310.326 24.41V39.6401Z" fill="#E2EEF5"/>
<path d="M287.784 27.5394C287.784 28.1236 287.324 28.5826 286.74 28.5826H253.553C252.968 28.5826 252.509 28.1236 252.509 27.5394C252.509 26.9553 252.968 26.4963 253.553 26.4963H286.74C287.304 26.4963 287.784 26.9553 287.784 27.5394Z" fill="white"/>
<path d="M304.482 27.5394C304.482 28.1236 304.022 28.5826 303.438 28.5826H293.21C292.626 28.5826 292.167 28.1236 292.167 27.5394C292.167 26.9553 292.626 26.4963 293.21 26.4963H303.438C304.002 26.4963 304.482 26.9553 304.482 27.5394Z" fill="#E2EEF5"/>
<path d="M278.579 36.3023C278.579 36.8864 278.12 37.3454 277.556 37.3454H253.24C252.676 37.3454 252.217 36.8864 252.217 36.3023C252.217 35.7181 252.676 35.2591 253.24 35.2591H277.556C278.12 35.2591 278.579 35.7181 278.579 36.3023Z" fill="white"/>
<path d="M306.778 36.3023C306.778 36.8864 306.318 37.3454 305.755 37.3454H281.438C280.875 37.3454 280.416 36.8864 280.416 36.3023C280.416 35.7181 280.875 35.2591 281.438 35.2591H305.755C306.318 35.2591 306.778 35.7181 306.778 36.3023Z" fill="white"/>
<path d="M264.824 31.7123C264.824 32.2965 264.365 32.7555 263.78 32.7555H253.553C252.968 32.7555 252.509 32.2965 252.509 31.7123C252.509 31.1282 252.968 30.6692 253.553 30.6692H263.78C264.344 30.6692 264.824 31.1282 264.824 31.7123Z" fill="#E2EEF5"/>
<path d="M278.391 31.7123C278.391 32.2965 277.932 32.7555 277.347 32.7555H267.12C266.535 32.7555 266.076 32.2965 266.076 31.7123C266.076 31.1282 266.535 30.6692 267.12 30.6692H277.347C277.911 30.6692 278.391 31.1282 278.391 31.7123Z" fill="#E2EEF5"/>
<path d="M294.672 31.7123C294.672 32.2965 294.212 32.7555 293.628 32.7555H281.104C280.52 32.7555 280.061 32.2965 280.061 31.7123C280.061 31.1282 280.52 30.6692 281.104 30.6692H293.628C294.192 30.6692 294.672 31.1282 294.672 31.7123Z" fill="white"/>
<path d="M136.284 69.5777C136.263 69.5777 136.263 69.5777 136.242 69.5777C134.051 63.4021 128.144 59 121.214 59C115.912 59 111.216 61.587 108.315 65.5511C108.231 65.5511 108.127 65.5511 108.023 65.5511C101.385 65.5511 96 70.9338 96 77.5683C96 83.3057 100.008 88.0834 105.393 89.2934C106.081 89.4603 106.791 89.5438 107.522 89.5646C107.689 89.5646 107.856 89.6064 108.043 89.6064C108.21 89.6064 108.377 89.6064 108.565 89.6064H114.931H127.538H135.219C135.386 89.6064 135.553 89.6064 135.741 89.6064C135.908 89.6064 136.075 89.5855 136.263 89.5855C138.622 89.4603 140.792 88.5215 142.441 87.0193C144.487 85.1834 145.76 82.5337 145.76 79.5712C145.76 74.2093 141.586 69.828 136.284 69.5777Z" fill="#E2EEF5"/>
<path d="M116.643 80.2807L108.377 76.6296V75.4404L116.643 71.3095V73.3124L110.945 75.9412L116.643 78.2778V80.2807V80.2807Z" fill="white"/>
<path d="M124.324 69.807L119.795 81.9702H117.499L122.028 69.807H124.324Z" fill="white"/>
<path d="M125.138 78.2778L130.836 75.9412L125.138 73.3124V71.3095L133.403 75.4404V76.6296L125.138 80.2807V78.2778Z" fill="white"/>
<path d="M453.457 225H99.5427C99.2505 225 99 224.77 99 224.457C99 224.165 99.2296 223.915 99.5427 223.915H453.457C453.75 223.915 454 224.144 454 224.457C454 224.77 453.75 225 453.457 225Z" fill="#686868"/>
</g>
</svg>
