<svg width="380" height="340" viewBox="0 0 380 340" fill="none" xmlns="http://www.w3.org/2000/svg">
<mask id="mask0" mask-type="alpha" maskUnits="userSpaceOnUse" x="0" y="0" width="380" height="340">
<rect width="380" height="339.829" fill="#1C85C8"/>
</mask>
<g mask="url(#mask0)">
<ellipse cx="184.028" cy="387.933" rx="242.657" ry="270.785" fill="white"/>
<path d="M131.109 310.701C128.863 306.209 128.863 303.963 126.617 299.47L129.986 291.608C124.37 285.992 124.37 285.992 119.878 281.5L112.016 284.869C107.523 282.623 105.277 282.623 100.784 280.376L97.4147 272.514H82.8137L79.4443 280.376C74.9517 282.623 72.7054 282.623 68.2128 284.869L60.3506 281.5C54.7349 287.115 54.7349 287.115 50.2423 291.608L53.6117 299.47C51.3654 303.963 51.3654 306.209 49.1191 310.701L41.2571 314.071V328.672L49.1191 332.041C51.3654 336.534 51.3654 338.78 53.6117 343.273L50.2423 351.135C55.858 356.751 55.858 356.751 60.3506 361.243L68.2128 357.874C72.7054 360.12 74.9517 360.12 79.4443 362.366L82.8137 370.229H97.4147L100.784 362.366C105.277 360.12 107.523 360.12 112.016 357.874L119.878 361.243C125.494 355.628 125.494 355.628 129.986 351.135L126.617 342.15C128.863 337.657 128.863 335.411 131.109 330.918L138.971 327.549V312.948L131.109 310.701ZM90.6758 341.027C79.4443 341.027 70.459 332.041 70.459 320.81C70.459 309.578 79.4443 300.593 90.6758 300.593C101.907 300.593 110.893 309.578 110.893 320.81C110.893 332.041 101.907 341.027 90.6758 341.027Z" fill="#E2EEF5"/>
</g>
<mask id="mask1" mask-type="alpha" maskUnits="userSpaceOnUse" x="0" y="0" width="380" height="340">
<rect width="380" height="339.829" fill="#1C85C8"/>
</mask>
<g mask="url(#mask1)">
<path d="M436.288 19.0163C439.69 19.0163 442.443 21.7701 442.443 25.1736V183.47C442.443 186.874 439.69 189.628 436.288 189.628H143.995C143.933 189.628 143.902 189.628 143.84 189.628C142.2 189.535 140.932 188.142 140.932 186.502V24.1216C140.932 20.3777 142.293 19.0163 143.995 19.0163H436.288Z" fill="#454545"/>
<path d="M436.287 190.183H143.995C143.933 190.183 143.871 190.183 143.809 190.183C141.891 190.09 140.406 188.481 140.406 186.532V24.1204C140.406 19.2007 142.664 18.4581 143.995 18.4581H436.287C440 18.4581 443 21.4594 443 25.1724V183.469C443 187.182 440 190.183 436.287 190.183ZM143.995 19.541C141.922 19.541 141.489 22.0473 141.489 24.1204V186.532C141.489 187.925 142.541 189.038 143.871 189.1C143.902 189.1 143.964 189.1 143.995 189.1H436.287C439.381 189.1 441.917 186.563 441.917 183.469V25.1724C441.917 22.0782 439.381 19.541 436.287 19.541H143.995Z" fill="#454545"/>
<path d="M438.329 25.1727V183.469C438.329 186.873 435.576 189.627 432.174 189.627H139.85C139.788 189.627 139.757 189.627 139.695 189.627C138.055 189.534 136.787 188.141 136.787 186.502V24.1207C136.787 20.3768 138.148 19.0154 139.85 19.0154H432.143C435.545 19.0154 438.329 21.7692 438.329 25.1727Z" fill="#686868"/>
<path d="M432.143 190.182H139.85C139.788 190.182 139.726 190.182 139.695 190.182C137.777 190.089 136.292 188.481 136.292 186.531V24.1194C136.292 19.1997 138.55 18.4572 139.881 18.4572H432.174C435.886 18.4572 438.886 21.4585 438.886 25.1715V183.468C438.855 187.181 435.855 190.182 432.143 190.182ZM139.85 19.5401C137.777 19.5401 137.344 22.0464 137.344 24.1194V186.531C137.344 187.924 138.396 189.037 139.726 189.099C139.757 189.099 139.819 189.099 139.85 189.099H432.143C435.236 189.099 437.773 186.562 437.773 183.468V25.1715C437.773 22.0773 435.236 19.5401 432.143 19.5401H139.85Z" fill="#686868"/>
<path d="M428.245 171.123H149.965C148.759 171.123 147.8 170.133 147.8 168.957V29.4418C147.8 28.2351 148.789 27.2759 149.965 27.2759H428.245C429.451 27.2759 430.41 28.266 430.41 29.4418V168.957C430.41 170.164 429.451 171.123 428.245 171.123Z" fill="white"/>
<path d="M302.283 185.542H272.803C270.544 185.542 268.688 183.716 268.688 181.458C268.688 179.199 270.544 177.373 272.803 177.373H302.283C304.541 177.373 306.397 179.199 306.397 181.458C306.397 183.716 304.541 185.542 302.283 185.542Z" fill="#9B9B9B"/>
<path d="M302.283 186.068H272.803C270.235 186.068 268.163 183.995 268.163 181.458C268.163 178.921 270.235 176.848 272.803 176.848H302.283C304.85 176.848 306.923 178.921 306.923 181.458C306.923 183.995 304.85 186.068 302.283 186.068ZM272.803 177.9C270.823 177.9 269.214 179.478 269.214 181.458C269.214 183.407 270.823 185.016 272.803 185.016H302.283C304.262 185.016 305.871 183.438 305.871 181.458C305.871 179.509 304.262 177.9 302.283 177.9H272.803Z" fill="#686868"/>
<path d="M226.216 74.213H213.379V78.1735H226.216V74.213Z" fill="#8EC2E4"/>
<path d="M226.216 80.8651H213.379V84.8256H226.216V80.8651Z" fill="#8EC2E4"/>
<path d="M226.216 87.4868H213.379V91.4473H226.216V87.4868Z" fill="#8EC2E4"/>
<path d="M226.216 94.1373H213.379V98.0978H226.216V94.1373Z" fill="#8EC2E4"/>
<path d="M226.216 100.759H213.379V104.72H226.216V100.759Z" fill="#8EC2E4"/>
<path d="M226.216 107.412H213.379V111.372H226.216V107.412Z" fill="#8EC2E4"/>
<path d="M226.216 114.034H213.379V117.994H226.216V114.034Z" fill="#8EC2E4"/>
<path d="M226.216 120.655H213.379V124.616H226.216V120.655Z" fill="#8EC2E4"/>
<path d="M226.216 127.308H213.379V131.269H226.216V127.308Z" fill="#8EC2E4"/>
<path d="M226.216 133.93H213.379V137.89H226.216V133.93Z" fill="#8EC2E4"/>
<path d="M226.216 140.582H213.379V144.543H226.216V140.582Z" fill="#8EC2E4"/>
<path d="M202.457 159.944C200.292 159.944 198.529 158.181 198.559 156.015L198.621 141.689C198.621 139.523 200.385 137.759 202.55 137.79L225.41 137.883C227.575 137.883 229.339 139.647 229.308 141.813L229.246 156.138C229.246 158.304 227.483 160.068 225.317 160.037L202.457 159.944Z" fill="#A4CEE9"/>
<g opacity="0.69">
<g opacity="0.69">
<g opacity="0.69">
<path opacity="0.69" d="M201.498 158.955C199.333 158.955 197.57 157.191 197.6 155.025L197.662 140.699C197.662 138.533 199.426 136.77 201.591 136.801L224.451 136.893C226.616 136.893 228.38 138.657 228.349 140.823L228.287 155.149C228.287 157.315 226.524 159.078 224.358 159.048L201.498 158.955Z" fill="white"/>
</g>
</g>
</g>
<path d="M210.19 146.089C210.345 145.965 210.53 145.841 210.716 145.718C210.902 145.594 211.118 145.501 211.335 145.408C211.551 145.315 211.799 145.253 212.046 145.192C212.294 145.13 212.572 145.13 212.881 145.13C213.315 145.13 213.686 145.192 214.026 145.284C214.366 145.408 214.645 145.563 214.892 145.748C215.14 145.965 215.325 146.182 215.449 146.491C215.573 146.77 215.635 147.11 215.635 147.45C215.635 147.791 215.573 148.069 215.48 148.317C215.387 148.564 215.263 148.781 215.109 148.966C214.954 149.152 214.799 149.307 214.614 149.43C214.428 149.554 214.273 149.678 214.119 149.802C213.964 149.926 213.809 150.018 213.717 150.142C213.593 150.266 213.531 150.39 213.5 150.513L213.315 151.442H211.922L211.768 150.359C211.737 150.142 211.768 149.956 211.83 149.802C211.922 149.647 212.015 149.492 212.139 149.369C212.263 149.245 212.417 149.121 212.603 148.997C212.758 148.874 212.943 148.75 213.067 148.626C213.222 148.502 213.345 148.348 213.438 148.162C213.531 148.007 213.593 147.791 213.593 147.574C213.593 147.296 213.5 147.11 213.345 146.924C213.16 146.77 212.943 146.677 212.634 146.677C212.386 146.677 212.201 146.708 212.046 146.739C211.892 146.8 211.768 146.831 211.644 146.893C211.52 146.955 211.428 147.017 211.335 147.048C211.242 147.11 211.18 147.11 211.087 147.11C210.902 147.11 210.747 147.017 210.654 146.862L210.19 146.089ZM211.458 153.855C211.458 153.7 211.489 153.546 211.551 153.422C211.613 153.298 211.706 153.174 211.799 153.051C211.892 152.958 212.015 152.865 212.17 152.803C212.294 152.741 212.448 152.71 212.634 152.71C212.789 152.71 212.943 152.741 213.098 152.803C213.253 152.865 213.376 152.958 213.469 153.051C213.562 153.143 213.655 153.267 213.717 153.422C213.779 153.546 213.809 153.7 213.809 153.855C213.809 154.01 213.779 154.165 213.717 154.319C213.655 154.474 213.593 154.567 213.469 154.691C213.376 154.783 213.253 154.876 213.098 154.938C212.943 155 212.82 155.031 212.634 155.031C212.479 155.031 212.325 155 212.17 154.938C212.046 154.876 211.922 154.814 211.799 154.691C211.706 154.598 211.613 154.474 211.551 154.319C211.489 154.165 211.458 154.01 211.458 153.855Z" fill="white"/>
<path d="M202.673 146.12C202.828 145.996 203.014 145.872 203.199 145.749C203.385 145.625 203.601 145.532 203.818 145.439C204.034 145.346 204.282 145.285 204.529 145.223C204.777 145.161 205.055 145.161 205.365 145.161C205.798 145.161 206.169 145.223 206.509 145.315C206.849 145.439 207.128 145.594 207.375 145.78C207.623 145.996 207.808 146.213 207.932 146.522C208.056 146.801 208.118 147.141 208.118 147.481C208.118 147.822 208.056 148.1 207.963 148.348C207.87 148.595 207.746 148.812 207.592 148.998C207.437 149.183 207.282 149.338 207.097 149.462C206.911 149.585 206.757 149.709 206.602 149.833C206.447 149.957 206.293 150.05 206.2 150.173C206.076 150.297 206.014 150.421 205.983 150.545L205.798 151.473H204.406L204.251 150.39C204.22 150.173 204.251 149.988 204.313 149.833C204.406 149.678 204.498 149.524 204.622 149.4C204.746 149.276 204.901 149.152 205.086 149.028C205.241 148.905 205.426 148.781 205.55 148.657C205.705 148.533 205.829 148.379 205.921 148.193C206.014 148.038 206.076 147.822 206.076 147.605C206.076 147.327 205.983 147.141 205.829 146.955C205.643 146.801 205.426 146.708 205.117 146.708C204.87 146.708 204.684 146.739 204.529 146.77C204.375 146.832 204.251 146.863 204.127 146.924C204.003 146.986 203.911 147.048 203.818 147.079C203.725 147.141 203.663 147.141 203.57 147.141C203.385 147.141 203.23 147.048 203.137 146.893L202.673 146.12ZM203.911 153.855C203.911 153.701 203.942 153.546 204.003 153.422C204.065 153.298 204.158 153.175 204.251 153.051C204.344 152.958 204.467 152.865 204.622 152.803C204.746 152.741 204.901 152.711 205.086 152.711C205.241 152.711 205.396 152.741 205.55 152.803C205.705 152.865 205.798 152.958 205.921 153.051C206.014 153.144 206.107 153.267 206.169 153.422C206.231 153.546 206.262 153.701 206.262 153.855C206.262 154.01 206.231 154.165 206.169 154.319C206.107 154.474 206.045 154.567 205.921 154.691C205.829 154.784 205.705 154.876 205.55 154.938C205.396 155 205.272 155.031 205.086 155.031C204.931 155.031 204.777 155 204.622 154.938C204.498 154.876 204.375 154.815 204.251 154.691C204.158 154.598 204.065 154.474 204.003 154.319C203.942 154.165 203.911 154.041 203.911 153.855Z" fill="white"/>
<path d="M217.738 146.089C217.893 145.965 218.079 145.841 218.264 145.718C218.45 145.594 218.666 145.501 218.883 145.408C219.099 145.315 219.347 145.253 219.594 145.192C219.842 145.13 220.12 145.13 220.43 145.13C220.863 145.13 221.234 145.192 221.574 145.284C221.914 145.408 222.193 145.563 222.44 145.748C222.688 145.965 222.873 146.182 222.997 146.491C223.121 146.77 223.183 147.11 223.183 147.45C223.183 147.791 223.121 148.069 223.028 148.317C222.935 148.564 222.811 148.781 222.657 148.966C222.502 149.152 222.347 149.307 222.162 149.43C221.976 149.554 221.822 149.678 221.667 149.802C221.512 149.926 221.358 150.018 221.265 150.142C221.141 150.266 221.079 150.39 221.048 150.513L220.863 151.442H219.471L219.316 150.359C219.285 150.142 219.316 149.956 219.378 149.802C219.471 149.647 219.563 149.492 219.687 149.369C219.811 149.245 219.966 149.121 220.151 148.997C220.306 148.874 220.491 148.75 220.615 148.626C220.77 148.502 220.894 148.348 220.986 148.162C221.079 148.007 221.141 147.791 221.141 147.574C221.141 147.296 221.048 147.11 220.894 146.924C220.708 146.77 220.491 146.677 220.182 146.677C219.935 146.677 219.749 146.708 219.594 146.739C219.44 146.8 219.316 146.831 219.192 146.893C219.068 146.955 218.976 147.017 218.883 147.048C218.79 147.11 218.728 147.11 218.635 147.11C218.45 147.11 218.295 147.017 218.202 146.862L217.738 146.089ZM218.976 153.855C218.976 153.7 219.007 153.546 219.068 153.422C219.13 153.298 219.223 153.174 219.316 153.051C219.409 152.958 219.532 152.865 219.687 152.803C219.811 152.741 219.966 152.71 220.151 152.71C220.306 152.71 220.46 152.741 220.615 152.803C220.77 152.865 220.863 152.958 220.986 153.051C221.079 153.143 221.172 153.267 221.234 153.422C221.296 153.546 221.327 153.7 221.327 153.855C221.327 154.01 221.296 154.165 221.234 154.319C221.172 154.474 221.11 154.567 220.986 154.691C220.894 154.783 220.77 154.876 220.615 154.938C220.46 155 220.337 155.031 220.151 155.031C219.996 155.031 219.842 155 219.687 154.938C219.563 154.876 219.44 154.814 219.316 154.691C219.223 154.598 219.13 154.474 219.068 154.319C219.007 154.165 218.976 154.01 218.976 153.855Z" fill="white"/>
<g opacity="0.65">
<g opacity="0.65">
<g opacity="0.65">
<path opacity="0.65" d="M273.019 37.1145L272.958 53.0184C272.958 55.4319 270.978 57.3812 268.565 57.3502L243.168 57.2265C242.24 57.2265 241.374 56.917 240.663 56.422C239.549 55.6175 238.838 54.318 238.838 52.8637L238.9 36.9598C238.9 34.5464 240.879 32.597 243.292 32.628L268.689 32.7518C270.174 32.7518 271.504 33.5253 272.277 34.6701C272.741 35.3508 273.019 36.1863 273.019 37.1145Z" fill="#CAE2FF"/>
</g>
</g>
</g>
<g opacity="0.65">
<g opacity="0.65">
<g opacity="0.65">
<path opacity="0.65" d="M271.967 36.0936L271.906 51.9975C271.906 54.4109 269.926 56.3602 267.513 56.3293L242.116 56.2055C241.188 56.2055 240.322 55.8961 239.611 55.401C238.497 54.5966 237.786 53.297 237.786 51.8428L237.847 35.9389C237.847 33.5254 239.827 31.5761 242.24 31.6071L267.637 31.7308C269.122 31.7308 270.452 32.5044 271.225 33.6492C271.689 34.3299 271.967 35.1653 271.967 36.0936Z" fill="white"/>
</g>
</g>
</g>
<path d="M261.141 39.991H249.695C248.396 39.991 247.344 41.043 247.344 42.3425V48.3452C247.344 49.6447 248.396 50.6967 249.695 50.6967H261.141C262.44 50.6967 263.492 49.6447 263.492 48.3452V42.3425C263.492 41.043 262.44 39.991 261.141 39.991ZM256.068 45.5914V46.9528C256.068 47.2932 255.789 47.5716 255.449 47.5716H255.418C255.078 47.5716 254.799 47.2932 254.799 46.9528V45.5914C254.397 45.3748 254.088 44.9107 254.088 44.4156C254.088 43.673 254.676 43.0542 255.449 43.0542C256.191 43.0542 256.81 43.6421 256.81 44.4156C256.748 44.9107 256.47 45.3438 256.068 45.5914Z" fill="#A4CEE9"/>
<path d="M260.398 40.4866H259.254V38.9705C259.254 37.64 258.171 36.5571 256.841 36.5571H254.026C252.696 36.5571 251.613 37.64 251.613 38.9705V40.4866H250.469V38.9705C250.469 37.0212 252.077 35.4122 254.026 35.4122H256.841C258.79 35.4122 260.398 37.0212 260.398 38.9705V40.4866Z" fill="#A4CEE9"/>
<path d="M248.236 66.856C245.019 66.856 242.451 64.2259 242.451 61.008L242.544 39.844C242.544 36.6261 245.174 34.058 248.391 34.058L282.232 34.2127C285.449 34.2127 288.017 36.8427 288.017 40.0606L287.924 61.2246C287.924 64.4425 285.295 67.0107 282.078 67.0107L248.236 66.856Z" fill="#A4CEE9"/>
<g opacity="0.69">
<g opacity="0.69">
<g opacity="0.69">
<path opacity="0.69" d="M246.813 65.3695C243.596 65.3695 241.029 62.7395 241.029 59.5216L241.121 38.3576C241.121 35.1397 243.751 32.5715 246.968 32.5715L280.809 32.7262C284.026 32.7262 286.594 35.3563 286.594 38.5742L286.501 59.7381C286.501 62.9561 283.872 65.5242 280.655 65.5242L246.813 65.3695Z" fill="white"/>
</g>
</g>
</g>
<path d="M275.984 50.7659L268.281 54.912V52.6224L273.973 49.7448L268.281 46.8982V44.6704L275.984 48.7547V50.7659Z" fill="white"/>
<path d="M262.095 55.9023H260.053L264.507 39.9984H266.549L262.095 55.9023Z" fill="white"/>
<path d="M250.587 48.7854L258.29 44.6393V46.9289L252.598 49.8065L258.29 52.6531V54.8809L250.587 50.7966V48.7854Z" fill="white"/>
<path d="M344.538 92.3149C340.084 92.284 336.495 88.6638 336.526 84.2082L336.65 54.8138C336.681 50.3583 340.3 46.7691 344.755 46.8L391.712 47.0166C396.167 47.0475 399.755 50.6677 399.724 55.1233L399.6 84.5176C399.569 88.9732 395.95 92.5624 391.496 92.5315L344.538 92.3149Z" fill="#A4CEE9"/>
<g opacity="0.69">
<g opacity="0.69">
<g opacity="0.69">
<path opacity="0.69" d="M342.558 90.2719C338.104 90.241 334.516 86.6208 334.547 82.1653L334.67 52.7709C334.701 48.3153 338.32 44.7261 342.775 44.757L389.732 44.9736C394.187 45.0046 397.775 48.6247 397.744 53.0803L397.62 82.4747C397.59 86.9303 393.97 90.5195 389.516 90.4885L342.558 90.2719Z" fill="white"/>
</g>
</g>
</g>
<path d="M355.705 56.0817C356.974 56.0817 358.799 56.2983 358.83 57.7216C358.83 58.1547 358.768 58.8355 358.675 59.3615C358.304 61.744 357.221 67.5919 356.603 72.2641H354.808C354.282 67.9632 353.2 62.0224 352.767 59.4543C352.643 59.0211 352.519 58.1547 352.519 57.7216C352.519 56.422 354.375 56.0817 355.705 56.0817ZM355.767 81.2062C354.004 81.2062 352.767 79.9375 352.767 78.0811C352.767 76.2555 354.035 74.9869 355.767 74.9869C357.561 74.9869 358.83 76.2555 358.83 78.0811C358.799 79.9685 357.531 81.2062 355.767 81.2062Z" fill="white"/>
<path d="M367.182 56.0809C368.45 56.0809 370.275 56.2975 370.306 57.7208C370.306 58.154 370.244 58.8347 370.152 59.3607C369.78 61.7432 368.698 67.5911 368.079 72.2633H366.285C365.759 67.9624 364.676 62.0216 364.243 59.4535C364.119 59.0203 363.996 58.154 363.996 57.7208C363.965 56.4212 365.821 56.0809 367.182 56.0809ZM367.213 81.2054C365.45 81.2054 364.212 79.9368 364.212 78.0803C364.212 76.2547 365.481 74.9861 367.213 74.9861C369.007 74.9861 370.275 76.2547 370.275 78.0803C370.244 79.9677 369.007 81.2054 367.213 81.2054Z" fill="white"/>
<path d="M378.627 56.0809C379.896 56.0809 381.721 56.2975 381.752 57.7208C381.752 58.154 381.69 58.8347 381.597 59.3607C381.226 61.7432 380.143 67.5911 379.524 72.2633H377.73C377.204 67.9624 376.122 62.0216 375.689 59.4535C375.565 59.0203 375.441 58.154 375.441 57.7208C375.441 56.4212 377.297 56.0809 378.627 56.0809ZM378.658 81.2054C376.895 81.2054 375.658 79.9368 375.658 78.0803C375.658 76.2547 376.926 74.9861 378.658 74.9861C380.452 74.9861 381.721 76.2547 381.721 78.0803C381.721 79.9677 380.452 81.2054 378.658 81.2054Z" fill="white"/>
<path d="M202.929 174.675V159.367H221.66C224.832 159.367 227.389 156.808 227.389 153.637V93.0614H329.631C332.307 93.0614 334.495 94.714 334.993 96.8136L334.995 96.8193C335.071 97.1255 335.098 97.4085 335.098 97.7323V174.675C335.098 175.308 334.618 175.995 333.603 176.552C332.607 177.1 331.202 177.455 329.631 177.455H208.397C207.701 177.455 207.025 177.371 206.364 177.257C205.298 177.031 204.418 176.644 203.816 176.172C203.212 175.699 202.929 175.18 202.929 174.675Z" fill="white" stroke="#A4CEE9"/>
<path d="M335.051 94.7781V95.5758H201.056V94.7781C201.056 91.8824 203.744 89.5481 207.053 89.5481H329.025C332.304 89.5481 334.992 91.8528 335.022 94.719C335.051 94.7485 335.051 94.7781 335.051 94.7781Z" fill="#8EC2E4"/>
<path d="M322.216 101.692H230.109V105.475H322.216V101.692Z" fill="#E2EEF5"/>
<path d="M282.336 108.016H230.109V111.798H282.336V108.016Z" fill="#E2EEF5"/>
<path d="M292.557 114.339H230.109V118.121H292.557V114.339Z" fill="#E2EEF5"/>
<path d="M315.067 120.692H230.109V124.474H315.067V120.692Z" fill="#E2EEF5"/>
<path d="M284.404 127.015H230.109V130.797H284.404V127.015Z" fill="#E2EEF5"/>
<path d="M303.812 133.368H230.109V137.15H303.812V133.368Z" fill="#E2EEF5"/>
<path d="M276.222 139.691H230.109V143.473H276.222V139.691Z" fill="#E2EEF5"/>
<path d="M309.957 146.044H230.109V149.826H309.957V146.044Z" fill="#E2EEF5"/>
<path d="M322.216 152.367H230.109V156.149H322.216V152.367Z" fill="#E2EEF5"/>
<path d="M303.812 158.719H230.109V162.502H303.812V158.719Z" fill="#E2EEF5"/>
<path d="M266.001 165.043H230.109V168.825H266.001V165.043Z" fill="#E2EEF5"/>
</g>
<path fill-rule="evenodd" clip-rule="evenodd" d="M266.566 190.067C265.42 217.403 262.31 224.33 241.029 239.943H288.257H335.486C314.163 224.33 311.094 217.456 309.948 190.067L288.257 187.829L266.566 190.067Z" fill="#686868"/>
<path d="M230.403 5.47664V137.009C230.403 139.765 228.183 141.985 225.427 141.985H114.221C111.465 141.985 109.245 139.765 109.245 137.009V5.47664C109.245 2.7204 111.465 0.5 114.221 0.5H225.427C228.154 0.5 230.403 2.72224 230.403 5.47664Z" fill="white" stroke="#A4CEE9"/>
<path d="M230.903 5.47664V6.31206H108.745V5.47664C108.745 2.44438 111.189 0 114.221 0H225.427C228.428 0 230.903 2.44438 230.903 5.47664Z" fill="#A4CEE9"/>
<path d="M127.739 12.7793H114.375V14.9761H127.739V12.7793Z" fill="#A4CEE9"/>
<path d="M148.897 12.7802H129.904V14.9771H148.897V12.7802Z" fill="#A4CEE9"/>
<path d="M173.83 12.7802H154.837V14.9771H173.83V12.7802Z" fill="#A4CEE9"/>
<path d="M211.817 12.7802H175.5V14.9771H211.817V12.7802Z" fill="#A4CEE9"/>
<path d="M153.012 12.7802H150.815V14.9771H153.012V12.7802Z" fill="#A4CEE9"/>
<path d="M128.976 53.1578H115.613V55.3546H128.976V53.1578Z" fill="#A4CEE9"/>
<path d="M150.135 53.158H131.141V55.3548H150.135V53.158Z" fill="#A4CEE9"/>
<path d="M175.067 53.158H156.074V55.3548H175.067V53.158Z" fill="#A4CEE9"/>
<path d="M213.085 53.158H176.769V55.3548H213.085V53.158Z" fill="#A4CEE9"/>
<path d="M154.249 53.158H152.052V55.3548H154.249V53.158Z" fill="#A4CEE9"/>
<path d="M127.862 32.3956H114.499V34.5925H127.862V32.3956Z" fill="#A4CEE9"/>
<path d="M149.052 32.3958H130.059V34.5927H149.052V32.3958Z" fill="#A4CEE9"/>
<path d="M173.985 32.3958H154.991V34.5927H173.985V32.3958Z" fill="#A4CEE9"/>
<path d="M217.323 32.3958H175.655V34.5927H217.323V32.3958Z" fill="#A4CEE9"/>
<path d="M153.166 32.3958H150.97V34.5927H153.166V32.3958Z" fill="#A4CEE9"/>
<path d="M131.76 60.2747H118.397V62.4715H131.76V60.2747Z" fill="#A4CEE9"/>
<path d="M152.95 60.2751H133.956V62.472H152.95V60.2751Z" fill="#A4CEE9"/>
<path d="M177.883 60.2751H158.889V62.472H177.883V60.2751Z" fill="#A4CEE9"/>
<path d="M221.221 60.2751H179.553V62.472H221.221V60.2751Z" fill="#A4CEE9"/>
<path d="M157.064 60.2751H154.867V62.472H157.064V60.2751Z" fill="#A4CEE9"/>
<path d="M131.822 25.8356H118.459V28.0325H131.822V25.8356Z" fill="#A4CEE9"/>
<path d="M153.011 25.8356H134.018V28.0325H153.011V25.8356Z" fill="#A4CEE9"/>
<path d="M176.026 25.8356H159.167V28.0325H176.026V25.8356Z" fill="#A4CEE9"/>
<path d="M116.572 25.8361H114.375V28.0329H116.572V25.8361Z" fill="#A4CEE9"/>
<path d="M157.157 25.8356H154.744V28.0325H157.157V25.8356Z" fill="#A4CEE9"/>
<path d="M139.091 38.9236H125.728V41.1204H139.091V38.9236Z" fill="#A4CEE9"/>
<path d="M160.25 38.9236H141.257V41.1204H160.25V38.9236Z" fill="#A4CEE9"/>
<path d="M183.265 38.9236H166.406V41.1204H183.265V38.9236Z" fill="#A4CEE9"/>
<path d="M123.81 38.9241H121.614V41.1209H123.81V38.9241Z" fill="#A4CEE9"/>
<path d="M164.395 38.9236H161.982V41.1204H164.395V38.9236Z" fill="#A4CEE9"/>
<path d="M140.916 67.3901H127.553V69.5869H140.916V67.3901Z" fill="#A4CEE9"/>
<path d="M162.075 67.3901H143.082V69.5869H162.075V67.3901Z" fill="#A4CEE9"/>
<path d="M185.089 67.3901H168.23V69.5869H185.089V67.3901Z" fill="#A4CEE9"/>
<path d="M125.635 67.3893H123.439V69.5861H125.635V67.3893Z" fill="#A4CEE9"/>
<path d="M166.22 67.3901H163.807V69.5869H166.22V67.3901Z" fill="#A4CEE9"/>
<path d="M132.657 87.0081H119.294V89.205H132.657V87.0081Z" fill="#A4CEE9"/>
<path d="M153.847 87.0081H134.853V89.205H153.847V87.0081Z" fill="#A4CEE9"/>
<path d="M176.831 87.0081H159.972V89.205H176.831V87.0081Z" fill="#A4CEE9"/>
<path d="M117.376 87.0079H115.179V89.2047H117.376V87.0079Z" fill="#A4CEE9"/>
<path d="M157.961 87.0081H155.548V89.205H157.961V87.0081Z" fill="#A4CEE9"/>
<path d="M144.721 46.0409H129.223V48.2377H144.721V46.0409Z" fill="#A4CEE9"/>
<path d="M165.911 46.0407H147.134V48.2376H165.911V46.0407Z" fill="#A4CEE9"/>
<path d="M196.412 46.0407H179.553V48.2376H196.412V46.0407Z" fill="#A4CEE9"/>
<path d="M177.542 46.0407H167.643V48.2376H177.542V46.0407Z" fill="#8EC2E4"/>
<path d="M200.773 46.0407H198.36V48.2376H200.773V46.0407Z" fill="#8EC2E4"/>
<path d="M130.677 73.951H115.179V76.1478H130.677V73.951Z" fill="#A4CEE9"/>
<path d="M151.867 73.9505H133.09V76.1473H151.867V73.9505Z" fill="#A4CEE9"/>
<path d="M182.367 73.9505H165.509V76.1473H182.367V73.9505Z" fill="#A4CEE9"/>
<path d="M212.281 73.9505H188.988V76.1473H212.281V73.9505Z" fill="#A4CEE9"/>
<path d="M163.498 73.9505H153.599V76.1473H163.498V73.9505Z" fill="#8EC2E4"/>
<path d="M186.729 73.9505H184.316V76.1473H186.729V73.9505Z" fill="#8EC2E4"/>
<path d="M140.329 19.2147H126.965V21.4116H140.329V19.2147Z" fill="#8EC2E4"/>
<path d="M161.518 19.2147H142.525V21.4116H161.518V19.2147Z" fill="#A4CEE9"/>
<path d="M186.668 19.2147H167.674V21.4116H186.668V19.2147Z" fill="#A4CEE9"/>
<path d="M198.36 19.2147H188.864V21.4116H198.36V19.2147Z" fill="#A4CEE9"/>
<path d="M124.893 19.2144H121.614V21.4113H124.893V19.2144Z" fill="#A4CEE9"/>
<path d="M165.447 19.2147H163.251V21.4116H165.447V19.2147Z" fill="#A4CEE9"/>
<path d="M203.032 19.2147H200.835V21.4116H203.032V19.2147Z" fill="#8EC2E4"/>
<path d="M141.195 80.4803H127.832V82.6771H141.195V80.4803Z" fill="#8EC2E4"/>
<path d="M162.384 80.4803H143.391V82.6771H162.384V80.4803Z" fill="#A4CEE9"/>
<path d="M187.534 80.4803H168.541V82.6771H187.534V80.4803Z" fill="#A4CEE9"/>
<path d="M199.227 80.4803H189.73V82.6771H199.227V80.4803Z" fill="#A4CEE9"/>
<path d="M125.759 80.4794H122.48V82.6763H125.759V80.4794Z" fill="#A4CEE9"/>
<path d="M166.313 80.4803H164.117V82.6771H166.313V80.4803Z" fill="#A4CEE9"/>
<path d="M203.898 80.4803H201.701V82.6771H203.898V80.4803Z" fill="#8EC2E4"/>
<path d="M193.38 111.638H145.371C144.381 111.638 143.546 110.833 143.546 109.812V101.149C143.546 100.158 144.35 99.3231 145.371 99.3231H193.38C194.37 99.3231 195.205 100.128 195.205 101.149V109.812C195.174 110.833 194.37 111.638 193.38 111.638ZM145.371 100.437C144.969 100.437 144.628 100.777 144.628 101.18V109.843C144.628 110.245 144.969 110.586 145.371 110.586H193.38C193.782 110.586 194.122 110.245 194.122 109.843V101.18C194.122 100.777 193.782 100.437 193.38 100.437H145.371Z" fill="#A4CEE9"/>
<path d="M184.347 103.5H154.094V106.532H184.347V103.5Z" fill="#8EC2E4"/>
<path d="M183.392 239.511V240.011H183.892H184.258H184.758H184.789V239.511H185.258V165.437C185.258 165.173 185.193 164.909 185.05 164.695C184.906 164.478 184.657 164.287 184.325 164.287H52.5473C52.2155 164.287 51.9667 164.478 51.8219 164.695C51.6793 164.909 51.6143 165.173 51.6143 165.437V239.356V239.856H52.1143H53.0113H53.5113V239.356V166.586H183.392V239.511Z" fill="#454545" stroke="#686868"/>
<path d="M76.8306 174.257C74.3868 178.403 72.8092 182.827 77.9442 185.148C83.0792 187.469 107.455 187.407 107.455 187.407C107.455 187.407 102.196 194.028 102.753 199.103C104.052 211.015 108.105 227.631 108.105 227.631H116.302C116.302 227.631 116.024 207.735 120.911 180.971C122.21 173.885 96.6901 174.164 96.6901 174.164L76.8306 174.257Z" fill="#333333"/>
<path d="M114.694 233.665C114.694 233.355 114.817 231.808 114.817 231.499C114.91 229.333 115.343 227.631 115.343 227.631H108.507C108.507 227.631 108.94 231.127 108.6 232.705L114.694 233.665Z" fill="#CAE2FF"/>
<path d="M115.281 230.91C115.25 235.613 122.365 236.077 123.571 236.232C124.747 236.387 124.778 237.841 124.685 238.614C124.685 238.645 124.685 238.707 124.685 238.738H107.393C107.362 238.707 107.331 238.645 107.3 238.614C106.929 237.996 106.805 236.882 106.96 236.015C107.084 235.242 107.919 233.571 108.63 231.962L108.661 231.993C109.899 232.736 110.981 233.757 111.94 232.024C112.868 230.446 115.281 230.91 115.281 230.91Z" fill="#333333"/>
<path d="M142.472 233.572C142.472 233.263 142.596 231.716 142.596 231.406C142.689 229.24 141.791 227.539 141.791 227.539L134.862 226.332C134.862 226.332 136.749 231.035 136.378 232.613L142.472 233.572Z" fill="#CAE2FF"/>
<path d="M143.091 230.137C143.06 234.84 150.174 236.016 151.381 236.171C152.556 236.326 152.587 237.78 152.495 238.553C152.495 238.584 152.495 238.646 152.495 238.677H135.203C135.172 238.646 135.141 238.584 135.11 238.553C134.739 237.935 134.615 236.821 134.769 235.954C134.893 235.181 135.728 233.51 136.44 231.901L136.471 231.932C137.708 232.675 139.224 234.005 139.75 232.087C140.399 229.89 143.091 230.137 143.091 230.137Z" fill="#333333"/>
<path d="M144.019 162.934H96.4116V164.79H144.019V162.934Z" fill="#4F5157"/>
<path d="M144.019 162.933H104.454L112.745 139.078C112.992 138.397 113.642 137.964 114.415 137.964H149.834C151.195 137.964 152.247 139.325 151.814 140.532L144.019 162.933Z" fill="#4F5157"/>
<path d="M149.432 139.976L142.503 161.357H107.269L114.198 139.976H149.432Z" fill="#F3F8FF"/>
<path d="M145.225 143.721H115.962L116.673 141.555H145.906L145.225 143.721Z" fill="#A4CEE9"/>
<path d="M123.262 150.341H113.827L115.374 145.576H124.778L123.262 150.341Z" fill="#AFD3FF"/>
<path d="M144.235 146.721H126.294L126.665 145.576H144.606L144.235 146.721Z" fill="#AFD3FF"/>
<path d="M133.254 148.145L132.883 149.29H125.458L125.83 148.145H133.254Z" fill="#AFD3FF"/>
<path d="M137.09 151.826H124.623L124.994 150.712H137.461L137.09 151.826Z" fill="#AFD3FF"/>
<path d="M141.761 154.395H123.788L124.159 153.25H142.132L141.761 154.395Z" fill="#AFD3FF"/>
<path d="M137.616 156.964H122.984L123.324 155.819H137.987L137.616 156.964Z" fill="#AFD3FF"/>
<path d="M74.1394 121.966C74.1394 121.966 77.14 118.965 77.5731 116.644C78.0061 114.323 74.8199 102.658 79.9859 102.132C85.1518 101.606 89.2969 106.124 89.4825 106.959C89.6681 107.795 90.194 109.682 90.1631 111.384C90.1322 112.962 88.6473 118.439 87.9049 118.655C87.1316 118.872 85.8942 118.593 85.8942 118.593C85.8942 118.593 85.6777 124.07 85.4612 124.596C85.2137 125.153 80.6355 125.4 74.1394 121.966Z" fill="#EACDB0"/>
<path d="M87.4101 98.5431C87.4101 98.5431 87.1008 101.235 85.585 101.266C84.0383 101.266 81.1306 98.8216 77.4804 100.307C73.8302 101.792 74.6345 104.113 74.6345 104.113C74.6345 104.113 73.1806 104.608 72.7784 106C71.8195 109.404 77.666 116.18 77.5422 116.675C77.4185 117.17 80.2644 117.51 80.8831 115.252C81.6255 112.467 81.0378 110.796 82.9247 111.353C84.193 111.724 83.5125 113.333 83.8527 113.364C84.193 113.395 86.6368 111.817 85.8634 109.125C85.2447 106.99 86.2656 106.495 87.8432 106.743C89.4517 106.99 92.2976 106.681 92.1739 103.927C92.0811 101.173 90.2869 101.235 90.2869 101.235C90.2869 101.235 89.6373 98.4194 87.4101 98.5431Z" fill="#454545"/>
<path d="M85.554 119.242C85.4612 119.18 83.0175 117.911 82.8628 116.117L83.5124 116.055C83.6361 117.478 85.8324 118.654 85.8634 118.654L85.554 119.242Z" fill="#A4CEE9"/>
<path d="M73.6444 171.224C74.0775 171.224 103.712 169.212 128.15 177.443C131.027 178.402 143.183 227.877 143.183 227.877L134.77 228.032C133.223 227.042 122.427 206.806 120.231 200.773C119.334 198.359 120.911 189.758 120.911 189.758C120.911 189.758 88.8638 189.448 76.6759 189.448C66.7153 189.479 73.6444 171.224 73.6444 171.224Z" fill="#4F5157"/>
<path d="M73.4278 122.09C73.4278 122.09 64.3642 126.113 65.3541 144.43C65.7253 151.361 73.9537 172.185 73.9537 172.185L97.2159 172.247L98.1748 163.026C98.1748 163.026 100.309 164.944 102.567 164.882C127.5 164.356 133.006 162.84 133.006 162.84V156.652C133.006 156.652 110.827 150.526 108.569 150.371C106.31 150.247 105.506 133.322 98.546 127.072C92.483 121.595 81.0685 123.142 73.4278 122.09Z" fill="#125682"/>
<path d="M97.8347 163.367C95.5765 162.005 87.905 148.36 87.5647 147.772L87.9668 147.556C88.0596 147.71 95.9168 161.696 98.0822 162.965L97.8347 163.367Z" fill="white"/>
<path d="M72.8711 122.522L76.645 118.406L86.2345 119.211L88.5236 123.852L72.8711 122.522Z" fill="#125682"/>
<path d="M98.4844 172.494H73.5208C73.3662 172.494 73.2424 172.401 73.2115 172.246L72.6856 169.833C72.6547 169.647 72.7784 169.461 72.9949 169.461H98.4534C98.639 169.461 98.7628 169.585 98.7628 169.771V172.184C98.7937 172.37 98.639 172.494 98.4844 172.494Z" fill="#454545"/>
<path d="M74.8508 173.05H74.5724C74.3558 173.05 74.2012 172.895 74.2012 172.678V169.646C74.2012 169.429 74.3558 169.275 74.5724 169.275H74.8508C75.0673 169.275 75.222 169.429 75.222 169.646V172.678C75.2529 172.864 75.0673 173.05 74.8508 173.05Z" fill="#4F5157"/>
<path d="M90.163 173.019H89.8846C89.6681 173.019 89.5134 172.864 89.5134 172.647V169.615C89.5134 169.398 89.6681 169.244 89.8846 169.244H90.163C90.3796 169.244 90.5342 169.398 90.5342 169.615V172.647C90.5342 172.833 90.3486 173.019 90.163 173.019Z" fill="#4F5157"/>
<path d="M132.975 157.146C132.975 157.146 138.667 157.456 140.399 158.693C142.812 160.426 146.308 164.479 145.937 164.479C141.853 164.479 139.038 161.726 138.234 161.726C137.43 161.726 134.584 162.994 133.285 162.932C131.955 162.87 132.975 157.146 132.975 157.146Z" fill="#EACDB0"/>
<path d="M89.0184 123.018L73.2422 122.74V122.307L88.0594 122.523L85.5847 119.491L85.925 119.213L89.0184 123.018Z" fill="white"/>
<path d="M62.3227 240.07C62.2917 240.07 62.2299 240.07 62.1989 240.07C61.8587 240.008 61.6112 239.668 61.704 239.296L71.9121 189.945C71.1697 188.367 68.2001 181.962 66.0038 174.505C64.488 169.4 63.6219 164.789 63.3744 160.798C63.0651 155.6 63.8693 151.392 65.7563 148.267C68.3547 143.966 72.902 141.769 79.2744 141.769C85.6467 141.769 90.4724 144.028 93.6585 148.514C95.8858 151.608 97.2469 155.785 97.7727 160.891C98.1749 164.851 98.0511 169.43 97.4015 174.443C96.69 180.043 95.3908 186.139 94.5866 189.202H113.549C113.92 189.202 114.199 189.481 114.199 189.852C114.199 189.976 114.168 190.068 114.137 190.161L123.726 239.327C123.788 239.668 123.571 240.008 123.2 240.101C122.86 240.163 122.52 239.946 122.427 239.575L112.868 190.502H101.887L111.631 239.327C111.693 239.668 111.476 240.008 111.136 240.101C110.796 240.163 110.456 239.946 110.363 239.606L100.557 190.533H87.4099L77.3565 239.575C77.2946 239.915 76.9543 240.163 76.5831 240.07C76.2428 240.008 75.9954 239.668 76.0882 239.296L86.0798 190.471H73.1185L62.9723 239.575C62.9104 239.884 62.632 240.07 62.3227 240.07ZM72.9639 189.202H93.2255C93.9988 186.355 95.3599 179.982 96.0714 174.257C96.6901 169.307 96.8138 164.851 96.4426 160.983C95.9476 156.095 94.6484 152.165 92.5759 149.257C89.6372 145.141 85.1518 143.068 79.2434 143.068C73.366 143.068 69.19 145.049 66.839 148.947C65.0758 151.825 64.3643 155.816 64.6427 160.736C64.8592 164.635 65.7254 169.152 67.2102 174.165C69.3137 181.219 72.0977 187.346 72.9639 189.202Z" fill="#0D3C5A"/>
<path d="M379.474 241.121H36.3547C36.0714 241.121 35.8286 240.872 35.8286 240.532C35.8286 240.215 36.0512 239.943 36.3547 239.943H379.474C379.757 239.943 380 240.192 380 240.532C380 240.872 379.757 241.121 379.474 241.121Z" fill="#686868"/>
<path d="M373.486 140.085V135.687L370.741 135.323C370.609 134.629 370.444 134 370.212 133.339L372.395 131.652L370.212 127.85L367.633 128.908C367.203 128.379 366.707 127.916 366.178 127.453L367.236 124.874L363.433 122.691L361.747 124.874C361.119 124.642 360.457 124.477 359.763 124.345L359.399 121.6H355.001L354.637 124.345C353.943 124.477 353.315 124.642 352.653 124.874L350.967 122.691L347.164 124.874L348.222 127.453C347.693 127.883 347.23 128.379 346.767 128.908L344.188 127.85L342.006 131.652L344.188 133.339C343.957 133.967 343.791 134.629 343.659 135.323L340.914 135.687V140.085L343.659 140.448C343.791 141.143 343.957 141.771 344.188 142.432L342.006 144.119L344.188 147.922L346.767 146.863C347.197 147.393 347.693 147.856 348.222 148.318L347.164 150.898L350.967 153.08L352.653 150.898C353.282 151.129 353.943 151.295 354.637 151.427L355.001 154.171H359.399L359.763 151.427C360.457 151.295 361.085 151.129 361.747 150.898L363.433 153.08L367.236 150.898L366.178 148.318C366.707 147.889 367.17 147.393 367.633 146.863L370.212 147.922L372.395 144.119L370.212 142.432C370.444 141.804 370.609 141.143 370.741 140.448L373.486 140.085ZM357.217 146.764C352.29 146.764 348.321 142.796 348.321 137.869C348.321 132.942 352.29 128.974 357.217 128.974C362.144 128.974 366.112 132.942 366.112 137.869C366.112 142.796 362.111 146.764 357.217 146.764Z" fill="#DEECFD"/>
<path d="M310.514 188.914H267.086V198.686H310.514V188.914Z" fill="#454545"/>
</svg>
