<svg width="380" height="340" viewBox="0 0 380 340" fill="none" xmlns="http://www.w3.org/2000/svg">
<mask id="mask0" mask-type="alpha" maskUnits="userSpaceOnUse" x="0" y="0" width="380" height="340">
<rect width="380" height="339.829" fill="#1C85C8"/>
</mask>
<g mask="url(#mask0)">
<ellipse cx="184.028" cy="347.204" rx="242.657" ry="246.473" fill="white"/>
</g>
<mask id="mask1" mask-type="alpha" maskUnits="userSpaceOnUse" x="31" y="0" width="349" height="334">
<rect x="31.4856" width="348.514" height="333.314" fill="#1C85C8"/>
</mask>
<g mask="url(#mask1)">
<path d="M388.507 215.058H93.4319C89.5764 215.058 86.4746 212.078 86.4746 208.373V29.1695C86.4746 25.4646 89.5764 22.4839 93.4319 22.4839H388.507C392.362 22.4839 395.464 25.4646 395.464 29.1695V208.4C395.464 212.078 392.333 215.058 388.507 215.058Z" fill="#686868"/>
<path d="M417.261 221.012C419.125 223.897 418.345 226.755 416.21 228.537C414.923 229.612 413.127 230.291 411.128 230.291H63.6336C61.4311 230.291 59.3641 229.358 58.2798 227.773C56.2466 224.831 57.026 221.889 59.1947 220.078C60.4823 219.003 62.2782 218.324 64.2775 218.324H411.772C414.042 218.296 416.177 219.342 417.261 221.012Z" fill="#454545"/>
<path d="M390.024 37.3131V198.052C390.024 202.623 386.167 206.354 381.44 206.354H101.587C96.8305 206.354 93.0024 202.623 93.0024 198.052V37.3131C93.0024 32.7133 96.8595 29.0111 101.587 29.0111H381.469C386.196 29.0111 390.024 32.7414 390.024 37.3131Z" fill="#E2EEF5"/>
<path d="M282.405 218.012C282.405 218.967 282.028 219.836 281.39 220.444C280.781 221.081 279.912 221.457 278.955 221.457H203.378C201.464 221.457 199.928 219.923 199.928 218.012H282.405Z" fill="#8B8B8B"/>
<path d="M112.88 292.109V281.916L106.473 281.048C106.183 279.455 105.748 277.92 105.227 276.444L110.358 272.506L105.256 263.674L99.2546 266.135C98.2109 264.919 97.0803 263.819 95.8917 262.776L98.3559 256.782L89.5139 251.686L85.5712 256.811C84.0927 256.29 82.5563 255.885 80.9618 255.566L80.0921 249.167H69.8876L69.0179 255.566C67.4234 255.856 65.8869 256.29 64.4084 256.811L60.4658 251.686L51.5658 256.753L54.03 262.747C52.8124 263.79 51.7108 264.919 50.6671 266.106L44.6662 263.645L39.5639 272.477L44.6951 276.415C44.1733 277.891 43.7675 279.426 43.4486 281.019L37.0417 281.887V292.08L43.4486 292.949C43.7385 294.541 44.1733 296.076 44.6951 297.553L39.5639 301.491L44.6662 310.322L50.6671 307.861C51.7108 309.077 52.8414 310.178 54.03 311.22L51.5658 317.214L60.4078 322.31L64.3505 317.185C65.8289 317.706 67.3654 318.112 68.9599 318.43L69.8296 324.83H80.0341L80.9038 318.43C82.4983 318.141 84.0348 317.706 85.5133 317.185L89.4559 322.31L98.2979 317.214L95.8338 311.22C97.0513 310.178 98.153 309.048 99.1966 307.861L105.198 310.322L110.3 301.491L105.169 297.553C105.69 296.076 106.096 294.541 106.415 292.949L112.88 292.109ZM74.9609 307.716C63.5097 307.716 54.2329 298.45 54.2329 287.013C54.2329 275.575 63.5097 266.309 74.9609 266.309C86.412 266.309 95.6888 275.575 95.6888 287.013C95.6888 298.421 86.412 307.716 74.9609 307.716Z" fill="#E2EEF5"/>
<path d="M157.399 170.9H105.913C104.724 170.9 103.768 169.944 103.768 168.757C103.768 167.57 104.724 166.614 105.913 166.614H157.428C158.617 166.614 159.574 167.57 159.574 168.757C159.545 169.944 158.588 170.9 157.399 170.9Z" fill="white"/>
<path d="M285.072 180.022H118.988C117.799 180.022 116.842 179.066 116.842 177.879C116.842 176.692 117.799 175.736 118.988 175.736H285.072C286.261 175.736 287.217 176.692 287.217 177.879C287.217 179.066 286.261 180.022 285.072 180.022Z" fill="white"/>
<path d="M121.278 198.236H105.913C104.724 198.236 103.768 197.281 103.768 196.094C103.768 194.906 104.724 193.951 105.913 193.951H121.278C122.466 193.951 123.423 194.906 123.423 196.094C123.423 197.252 122.466 198.236 121.278 198.236Z" fill="white"/>
<path d="M140.281 8.57104V174.519C140.281 178.688 143.661 182.09 147.862 182.09H427.617C431.818 182.09 435.198 178.688 435.198 174.519V8.57104C435.198 4.37781 431.793 1 427.617 1H147.833C143.663 1 140.281 4.40016 140.281 8.57104Z" fill="white" stroke="#A4CEE9" stroke-width="2"/>
<path d="M237.557 68.2505H289.073C290.262 68.2505 291.218 67.295 291.218 66.1078C291.218 64.9206 290.262 63.965 289.073 63.965H237.557C236.369 63.965 235.412 64.9206 235.412 66.1078C235.412 67.295 236.369 68.2505 237.557 68.2505Z" fill="#E2EEF5"/>
<path d="M327.572 59.6492H393.235C395.003 59.6492 396.424 58.2304 396.424 56.4641C396.424 54.6977 395.003 53.2789 393.235 53.2789H327.572C325.804 53.2789 324.383 54.6977 324.383 56.4641C324.383 58.2304 325.804 59.6492 327.572 59.6492Z" fill="#E2EEF5"/>
<path d="M238.601 46.9393H393.235C395.003 46.9393 396.424 45.5205 396.424 43.7541C396.424 41.9878 395.003 40.569 393.235 40.569H238.601C236.833 40.569 235.412 41.9878 235.412 43.7541C235.412 45.4915 236.833 46.9393 238.601 46.9393Z" fill="#E2EEF5"/>
<path d="M237.557 77.4598H289.073C290.262 77.4598 291.218 76.5042 291.218 75.317C291.218 74.1298 290.262 73.1743 289.073 73.1743H237.557C236.369 73.1743 235.412 74.1298 235.412 75.317C235.412 76.5042 236.369 77.4598 237.557 77.4598Z" fill="#E2EEF5"/>
<path d="M237.557 86.6689H289.073C290.262 86.6689 291.218 85.7134 291.218 84.5262C291.218 83.339 290.262 82.3834 289.073 82.3834H237.557C236.369 82.3834 235.412 83.339 235.412 84.5262C235.412 85.7134 236.369 86.6689 237.557 86.6689Z" fill="#E2EEF5"/>
<path d="M237.557 95.876H289.073C290.262 95.876 291.218 94.9204 291.218 93.7332C291.218 92.546 290.262 91.5905 289.073 91.5905H237.557C236.369 91.5905 235.412 92.546 235.412 93.7332C235.412 94.9204 236.369 95.876 237.557 95.876Z" fill="#E2EEF5"/>
<path d="M237.557 105.079H289.073C290.262 105.079 291.218 104.123 291.218 102.936C291.218 101.749 290.262 100.793 289.073 100.793H237.557C236.369 100.793 235.412 101.749 235.412 102.936C235.412 104.123 236.369 105.079 237.557 105.079Z" fill="#E2EEF5"/>
<path d="M237.557 114.292H289.073C290.262 114.292 291.218 113.337 291.218 112.149C291.218 110.962 290.262 110.007 289.073 110.007H237.557C236.369 110.007 235.412 110.962 235.412 112.149C235.412 113.337 236.369 114.292 237.557 114.292Z" fill="#E2EEF5"/>
<path d="M237.557 123.501H289.073C290.262 123.501 291.218 122.546 291.218 121.359C291.218 120.171 290.262 119.216 289.073 119.216H237.557C236.369 119.216 235.412 120.171 235.412 121.359C235.412 122.546 236.369 123.501 237.557 123.501Z" fill="#E2EEF5"/>
<path d="M237.558 132.735H394.278C395.467 132.735 396.424 131.78 396.424 130.593C396.424 129.405 395.467 128.45 394.278 128.45H237.558C236.369 128.45 235.412 129.405 235.412 130.593C235.412 131.751 236.369 132.735 237.558 132.735Z" fill="#E2EEF5"/>
<path d="M237.558 141.947H394.278C395.467 141.947 396.424 140.991 396.424 139.804C396.424 138.617 395.467 137.661 394.278 137.661H237.558C236.369 137.661 235.412 138.617 235.412 139.804C235.412 140.962 236.369 141.947 237.558 141.947Z" fill="#E2EEF5"/>
<path d="M237.558 151.156H394.278C395.467 151.156 396.424 150.2 396.424 149.013C396.424 147.826 395.467 146.87 394.278 146.87H237.558C236.369 146.87 235.412 147.826 235.412 149.013C235.412 150.2 236.369 151.156 237.558 151.156Z" fill="#E2EEF5"/>
<path d="M237.558 160.359H394.278C395.467 160.359 396.424 159.403 396.424 158.216C396.424 157.029 395.467 156.073 394.278 156.073H237.558C236.369 156.073 235.412 157.029 235.412 158.216C235.412 159.403 236.369 160.359 237.558 160.359Z" fill="#E2EEF5"/>
<path d="M179.055 40.5402H224.918V86.349H179.055V40.5402Z" fill="#A4CEE9"/>
<path d="M179.055 93.7322H224.918V160.361H179.055V93.7322Z" fill="#A4CEE9"/>
<path d="M139.281 8.57104V27.9717H436.198V8.57104C436.198 3.82222 432.342 0 427.617 0H147.833C143.107 0 139.281 3.85118 139.281 8.57104Z" fill="#A4CEE9"/>
<path d="M80.8072 199.425H154.587C158.037 199.425 160.82 196.646 160.82 193.2V54.2387C160.82 50.7929 158.037 48.0131 154.587 48.0131H80.8072C77.3574 48.0131 74.5743 50.7929 74.5743 54.2387V193.2C74.5743 196.617 77.3574 199.425 80.8072 199.425Z" fill="#125682"/>
<path d="M76.6908 57.9443V189.464C76.6908 192.909 79.4738 195.689 82.9236 195.689H152.5C155.95 195.689 158.733 192.909 158.733 189.464V57.9443C158.733 54.4986 155.95 51.7188 152.5 51.7188H135.947C135.947 53.4851 134.526 54.9039 132.758 54.9039H102.666C101.796 54.9039 100.985 54.5565 100.405 53.9773C99.8249 53.3982 99.477 52.6164 99.477 51.7188H82.9236C79.4738 51.7188 76.6908 54.5275 76.6908 57.9443Z" fill="#E2EEF5"/>
<path opacity="0.2" d="M76.6908 167.515V189.493C76.6908 192.938 79.4738 195.718 82.9236 195.718H152.5C155.95 195.718 158.733 192.938 158.733 189.493V57.9443C158.733 54.4985 155.95 51.7188 152.5 51.7188H149.311C140.991 59.0447 131.134 72.4514 128.003 95.877C122.321 138.732 88.3738 122.864 76.6908 167.515Z" fill="white"/>
<path d="M84.6634 81.5151V115.944C84.6924 117.537 85.9969 118.84 87.5914 118.84H147.804C149.427 118.84 150.732 117.537 150.732 115.944V81.4861C150.732 79.8646 149.427 78.5615 147.804 78.5615H87.5914C85.9679 78.5615 84.6634 79.8935 84.6634 81.5151Z" fill="white"/>
<path d="M85.4751 92.285C86.8376 91.3295 88.635 91.2137 90.0845 91.9955L105.391 100.248C106.957 101.088 108.841 100.914 110.204 99.7557L122.293 89.65C124.032 88.2022 126.467 87.9416 128.467 89.013L150.732 100.827V102.651L127.714 90.4318C126.293 89.679 124.554 89.8527 123.336 90.8951L111.247 101.001C109.363 102.564 106.783 102.825 104.609 101.667L89.3018 93.4143C88.3741 92.9221 87.2435 92.98 86.4028 93.5881L84.6344 94.8622V92.8642L85.4751 92.285Z" fill="#A4CEE9"/>
<path d="M107.739 95.3879C110.291 95.3879 112.349 93.332 112.349 90.7839C112.349 88.2357 110.291 86.1798 107.739 86.1798C105.188 86.1798 103.13 88.2357 103.13 90.7839C103.13 93.332 105.217 95.3879 107.739 95.3879ZM107.739 87.7434C109.421 87.7434 110.783 89.1044 110.783 90.7839C110.783 92.4633 109.421 93.8243 107.739 93.8243C106.058 93.8243 104.695 92.4633 104.695 90.7839C104.695 89.1044 106.087 87.7434 107.739 87.7434Z" fill="#A4CEE9"/>
<path d="M104.667 75.6966H148.587C149.775 75.6966 150.732 74.7411 150.732 73.5538C150.732 72.3666 149.775 71.4111 148.587 71.4111H104.667C103.478 71.4111 102.521 72.3666 102.521 73.5538C102.55 74.7411 103.507 75.6966 104.667 75.6966Z" fill="#A4CEE9"/>
<path d="M86.7803 67.1787H148.587C149.776 67.1787 150.733 66.2232 150.733 65.036C150.733 63.8487 149.776 62.8932 148.587 62.8932H86.7803C85.5917 62.8932 84.635 63.8487 84.635 65.036C84.664 66.2232 85.6207 67.1787 86.7803 67.1787Z" fill="white"/>
<path d="M86.0837 124.57H149.311C150.094 124.57 150.761 123.933 150.761 123.122C150.761 122.34 150.123 121.674 149.311 121.674H86.0837C85.3009 121.674 84.6342 122.311 84.6342 123.122C84.6632 123.933 85.3009 124.57 86.0837 124.57Z" fill="white"/>
<path d="M86.0837 130.74H149.311C150.094 130.74 150.761 130.102 150.761 129.292C150.761 128.51 150.123 127.844 149.311 127.844H86.0837C85.3009 127.844 84.6342 128.481 84.6342 129.292C84.6632 130.102 85.3009 130.74 86.0837 130.74Z" fill="white"/>
<path d="M86.0837 136.905H149.311C150.094 136.905 150.761 136.268 150.761 135.457C150.761 134.676 150.123 134.01 149.311 134.01H86.0837C85.3009 134.01 84.6342 134.647 84.6342 135.457C84.6632 136.268 85.3009 136.905 86.0837 136.905Z" fill="white"/>
<path d="M86.0837 143.077H149.311C150.094 143.077 150.761 142.44 150.761 141.629C150.761 140.848 150.123 140.182 149.311 140.182H86.0837C85.3009 140.182 84.6342 140.819 84.6342 141.629C84.6632 142.44 85.3009 143.077 86.0837 143.077Z" fill="white"/>
<path d="M120.031 147.679H150.732V178.344H120.031V147.679Z" fill="#A4CEE9"/>
<path d="M84.6342 147.679H115.335V178.344H84.6342V147.679Z" fill="#1C85C8"/>
<path d="M137.525 25.4091C137.525 28.6089 136.226 31.5277 134.126 33.6249C132.027 35.7221 129.104 37.0193 125.901 37.0193H111.203C104.775 37.0193 99.5796 31.8088 99.5796 25.3875C99.5796 22.1877 100.878 19.2689 102.978 17.1718C105.078 15.0746 108 13.7773 111.203 13.7773H125.901C132.308 13.7773 137.525 18.9879 137.525 25.4091Z" fill="#A4CEE9"/>
<path d="M137.525 25.4099C137.525 28.6097 136.226 31.5284 134.126 33.6256C132.027 35.7228 129.105 37.02 125.901 37.02H121.594C128.39 37.02 121.009 28.7178 115.857 20.5236C112.762 15.5942 117.156 14.1456 121.161 13.7781H125.923C132.308 13.7781 137.525 18.9886 137.525 25.4099Z" fill="#A4CEE9"/>
<path d="M114.797 29.4777L106.874 26.0833V24.7429L114.797 21.3484V22.9267L108.974 25.3915L114.797 27.8562V29.4777Z" fill="white"/>
<path d="M121.269 19.8112L117.459 31.0105H115.836L119.645 19.8112H121.269Z" fill="white"/>
<path d="M122.307 21.3484L130.23 24.7429V26.0833L122.307 29.4777V27.8994L128.13 25.4347L122.307 22.97V21.3484Z" fill="white"/>
<path d="M97.437 99.8686C97.437 103.068 96.1383 105.987 94.017 108.084C91.9174 110.182 88.9952 111.479 85.7916 111.479H67.3495C60.9207 111.479 55.7041 106.268 55.7041 99.847C55.7041 96.6472 57.0028 93.7285 59.1241 91.6313C61.2238 89.5341 64.1459 88.2369 67.3495 88.2369H85.7916C92.2421 88.2585 97.437 93.4474 97.437 99.8686Z" fill="#A4CEE9"/>
<path d="M97.4371 99.8685C97.4371 103.068 96.1384 105.987 94.0171 108.084C91.9175 110.181 88.9953 111.479 85.7917 111.479H78.9517C84.5146 110.895 77.4798 102.895 72.5013 95.0255C69.2977 89.9231 74.1247 88.561 78.2157 88.2367C80.3154 88.0853 82.1985 88.1935 82.7613 88.2367C82.8696 88.2367 82.9345 88.2583 82.9345 88.2583L82.9561 88.2367H85.7701C92.2422 88.2583 97.4371 93.4472 97.4371 99.8685Z" fill="#A4CEE9"/>
<path d="M64.4924 94.8704H67.5878C68.1506 94.8704 68.6917 94.9352 69.2112 95.0433C69.709 95.1514 70.1636 95.346 70.5316 95.6055C70.9212 95.8649 71.2026 96.2108 71.4191 96.6432C71.6355 97.0756 71.7437 97.6162 71.7437 98.2648C71.7437 98.8918 71.6355 99.4106 71.4191 99.8431C71.2026 100.275 70.8996 100.621 70.5316 100.881C70.1636 101.14 69.7523 101.335 69.2761 101.443C68.7999 101.551 68.3021 101.616 67.8042 101.616H66.657V105.745H64.4924V94.8704ZM67.5878 99.8863C67.8692 99.8863 68.1289 99.8647 68.367 99.7998C68.6051 99.7349 68.7999 99.6485 68.9731 99.5187C69.1463 99.389 69.2761 99.2161 69.3844 98.9999C69.4926 98.7836 69.5359 98.5242 69.5359 98.2215C69.5359 97.5945 69.3627 97.1621 68.9947 96.9243C68.6268 96.6865 68.1722 96.5567 67.6094 96.5567H66.7003V99.8647H67.5878V99.8863Z" fill="white"/>
<path d="M81.9823 94.8704V105.745H79.796V100.989H75.4885V105.745H73.324V94.8704H75.4885V99.2809H79.796V94.8704H81.9823Z" fill="white"/>
<path d="M84.3198 94.8704H87.4152C87.9779 94.8704 88.5191 94.9352 89.0386 95.0433C89.5364 95.1514 89.991 95.346 90.359 95.6055C90.7486 95.8649 91.03 96.2108 91.2465 96.6432C91.4629 97.0756 91.5711 97.6162 91.5711 98.2648C91.5711 98.8918 91.4629 99.4106 91.2465 99.8431C91.03 100.275 90.727 100.621 90.359 100.881C89.991 101.14 89.5797 101.335 89.1035 101.443C88.6273 101.551 88.1295 101.616 87.6316 101.616H86.4844V105.745H84.3198V94.8704ZM87.4152 99.8863C87.6966 99.8863 87.9563 99.8647 88.1944 99.7998C88.4325 99.7349 88.6273 99.6485 88.8005 99.5187C88.9737 99.389 89.1035 99.2161 89.2118 98.9999C89.32 98.7836 89.3633 98.5242 89.3633 98.2215C89.3633 97.5945 89.1901 97.1621 88.8221 96.9243C88.4542 96.6865 87.9996 96.5567 87.4368 96.5567H86.5277V99.8647H87.4152V99.8863Z" fill="white"/>
<path d="M95.5969 58.3795C95.5969 61.5793 94.2981 64.4981 92.1985 66.5953C90.0989 68.6924 87.1767 69.9897 83.9731 69.9897H50.1625C43.7337 69.9897 38.5171 64.7791 38.5171 58.3795C38.5171 55.1581 39.8158 52.2609 41.9155 50.1638C44.0151 48.0666 46.9373 46.7694 50.1408 46.7694H83.9515C90.3802 46.7477 95.5969 51.9583 95.5969 58.3795Z" fill="#A4CEE9"/>
<path d="M95.597 58.3824C95.597 61.5822 94.2982 64.501 92.1986 66.5981C90.099 68.6953 87.1768 69.9925 83.9732 69.9925H70.6828L70.6611 69.9709C77.4579 69.9709 70.0767 61.6687 64.925 53.4746C61.8729 48.6316 66.0722 47.1614 70.0117 46.7506H83.9949C90.3804 46.7506 95.597 51.9611 95.597 58.3824Z" fill="#A4CEE9"/>
<path d="M55.7473 52.1519V63.027H53.5611V58.2705H49.232V63.027H47.0674V52.1519H49.232V56.5625H53.5395V52.1519H55.7473Z" fill="white"/>
<path d="M65.5309 52.1525V53.8389H62.4139V63.0276H60.2493V53.8389H57.1323V52.1525H65.5309Z" fill="white"/>
<path d="M79.1245 52.1525V63.0276H77.0465V54.2281L74.0161 63.0276H72.0464L69.016 54.2281V63.0276H66.938V52.1525H70.2498L73.0421 60.325L75.8344 52.1525H79.1245Z" fill="white"/>
<path d="M88.1723 63.0276H81.6353V52.1525H83.7998V61.298H88.1723V63.0276Z" fill="white"/>
<path d="M86.2303 174.605C86.2303 177.843 84.916 180.796 82.7913 182.919C80.6667 185.041 77.7096 186.375 74.4678 186.375H55.8056C49.3002 186.375 44.0432 181.103 44.0432 174.605C44.0432 171.367 45.3574 168.413 47.4821 166.291C49.6068 164.147 52.5639 162.834 55.8056 162.834H74.4678C80.9733 162.834 86.2303 168.107 86.2303 174.605Z" fill="#A4CEE9"/>
<path d="M86.2302 174.604C86.2302 177.842 84.916 180.796 82.7913 182.918C80.6666 185.04 77.7096 186.375 74.4678 186.375H68.8823L68.8604 186.353C75.7382 186.353 68.269 177.952 63.0558 169.66C59.9674 164.737 64.2168 163.25 68.2252 162.834H74.4678C80.9733 162.834 86.2302 168.107 86.2302 174.604Z" fill="#A4CEE9"/>
<path d="M56.7696 168.781C57.1638 168.781 57.5362 168.803 57.8867 168.869C58.2371 168.934 58.5438 169 58.8285 169.066C59.1352 169.153 59.4419 169.241 59.7047 169.328V171.035C59.2885 170.882 58.8505 170.75 58.3905 170.663C57.9305 170.575 57.4924 170.532 57.0543 170.553C56.6162 170.575 56.2001 170.641 55.8058 170.772C55.4115 170.903 55.083 171.122 54.7763 171.429C54.4916 171.735 54.2506 172.129 54.0754 172.632C53.9002 173.135 53.8125 173.726 53.8125 174.448C53.8125 175.17 53.9002 175.782 54.0754 176.286C54.2506 176.789 54.4916 177.183 54.7763 177.489C55.0611 177.795 55.4115 178.014 55.8058 178.167C56.2001 178.298 56.6162 178.364 57.0543 178.386C57.4924 178.386 57.9305 178.342 58.3905 178.233C58.8505 178.123 59.2885 177.992 59.7047 177.817V179.545C59.4419 179.655 59.1571 179.764 58.8285 179.852C58.5657 179.939 58.2371 180.005 57.8867 180.07C57.5362 180.136 57.1638 180.158 56.7696 180.158C56.4191 180.158 56.0248 180.114 55.6306 180.049C55.2363 179.983 54.842 179.874 54.4478 179.699C54.0535 179.545 53.6811 179.305 53.3307 179.042C52.9802 178.758 52.6735 178.408 52.3888 177.992C52.1259 177.576 51.9069 177.073 51.7317 176.504C51.5783 175.935 51.4907 175.257 51.4907 174.491C51.4907 173.726 51.5783 173.069 51.7317 172.501C51.885 171.932 52.104 171.429 52.3888 171.013C52.6516 170.597 52.9802 170.247 53.3307 169.963C53.6811 169.678 54.0535 169.459 54.4478 169.284C54.842 169.109 55.2363 169 55.6306 168.934C56.0248 168.803 56.3972 168.781 56.7696 168.781Z" fill="white"/>
<path d="M67.6997 171.737C67.2616 171.409 66.8016 171.146 66.3197 170.971C65.8378 170.796 65.3997 170.687 64.9836 170.687C64.5236 170.687 64.1731 170.774 63.8884 170.949C63.6036 171.124 63.4722 171.409 63.4722 171.803C63.4722 172.021 63.5379 172.196 63.6474 172.328C63.7569 172.481 63.9103 172.612 64.0855 172.721C64.2607 172.831 64.4798 172.94 64.7207 173.028C64.9617 173.115 65.2245 173.203 65.4873 173.29C65.8816 173.422 66.2759 173.553 66.6702 173.706C67.0644 173.859 67.4368 174.078 67.7654 174.319C68.0939 174.581 68.3568 174.909 68.5539 175.281C68.751 175.675 68.8606 176.156 68.8606 176.747C68.8606 177.316 68.751 177.819 68.532 178.235C68.313 178.651 68.0282 179.001 67.6558 179.263C67.2835 179.526 66.8673 179.723 66.4073 179.854C65.9473 179.985 65.4435 180.051 64.9397 180.051C64.195 180.051 63.4722 179.919 62.7713 179.635C62.0484 179.351 61.4351 178.935 60.9094 178.366L61.7199 176.594C62.2018 177.097 62.7275 177.469 63.3189 177.754C63.9103 178.016 64.4798 178.169 65.0055 178.169C65.4874 178.169 65.8816 178.082 66.1883 177.885C66.5168 177.688 66.6702 177.382 66.6921 176.966C66.6921 176.725 66.6483 176.528 66.5387 176.353C66.4292 176.178 66.2759 176.047 66.0788 175.916C65.8816 175.784 65.6626 175.675 65.4216 175.588C65.1588 175.5 64.8959 175.413 64.6331 175.325C64.2388 175.194 63.8446 175.062 63.4722 174.909C63.0779 174.756 62.7274 174.559 62.4208 174.297C62.1141 174.056 61.8513 173.728 61.6761 173.356C61.4789 172.984 61.3913 172.503 61.3913 171.934C61.3913 171.365 61.5008 170.884 61.698 170.468C61.917 170.074 62.1798 169.724 62.5303 169.483C62.8808 169.221 63.2751 169.046 63.7131 168.915C64.1512 168.783 64.6112 168.74 65.0931 168.74C65.7064 168.74 66.3197 168.849 66.9111 169.046C67.5025 169.243 68.0282 169.527 68.5101 169.899L67.6997 171.737Z" fill="white"/>
<path d="M77.2497 171.737C76.8116 171.409 76.3516 171.146 75.8697 170.971C75.3879 170.796 74.9498 170.687 74.5336 170.687C74.0736 170.687 73.7232 170.774 73.4384 170.949C73.1537 171.124 73.0222 171.409 73.0222 171.803C73.0222 172.021 73.0879 172.196 73.1975 172.328C73.307 172.481 73.4603 172.612 73.6355 172.721C73.8108 172.831 74.0298 172.94 74.2708 173.028C74.5117 173.115 74.7745 173.203 75.0374 173.29C75.4317 173.422 75.8259 173.553 76.2202 173.706C76.6145 173.859 76.9868 174.078 77.3154 174.319C77.644 174.581 77.9068 174.909 78.1039 175.281C78.3011 175.675 78.4106 176.156 78.4106 176.747C78.4106 177.316 78.3011 177.819 78.082 178.235C77.863 178.651 77.5782 179.001 77.2059 179.263C76.8335 179.526 76.4173 179.723 75.9574 179.854C75.4974 179.985 74.9936 180.051 74.4898 180.051C73.7451 180.051 73.0222 179.919 72.3213 179.635C71.5985 179.351 70.9852 178.935 70.4595 178.366L71.2699 176.594C71.7518 177.097 72.2775 177.469 72.8689 177.754C73.4603 178.016 74.0298 178.169 74.5555 178.169C75.0374 178.169 75.4317 178.082 75.7383 177.885C76.0669 177.688 76.2202 177.382 76.2421 176.966C76.2421 176.725 76.1983 176.528 76.0888 176.353C75.9793 176.178 75.8259 176.047 75.6288 175.916C75.4317 175.784 75.2126 175.675 74.9717 175.588C74.7088 175.5 74.446 175.413 74.1831 175.325C73.7889 175.194 73.3946 175.062 73.0222 174.909C72.628 174.756 72.2775 174.559 71.9708 174.297C71.6642 174.056 71.4013 173.728 71.2261 173.356C71.029 172.984 70.9414 172.503 70.9414 171.934C70.9414 171.365 71.0509 170.884 71.248 170.468C71.4671 170.074 71.7299 169.724 72.0804 169.483C72.4308 169.221 72.8251 169.046 73.2632 168.915C73.7012 168.783 74.1612 168.74 74.6431 168.74C75.2564 168.74 75.8697 168.849 76.4611 169.046C77.0526 169.243 77.5782 169.527 78.0601 169.899L77.2497 171.737Z" fill="white"/>
<path d="M258.514 97.0338C258.514 97.0338 259.18 83.5774 259.472 82.6833C259.763 81.7892 262.554 79.8222 262.72 78.2128C262.887 76.6033 260.638 79.8669 260.388 79.2857C260.138 78.7492 261.054 74.5022 261.304 74.0998C261.512 73.6975 261.013 71.7304 259.805 72.8928C258.597 74.0551 256.931 73.921 256.515 76.3351C256.14 78.7492 257.264 80.6268 256.89 82.8174C256.515 85.008 253.391 94.7538 254.141 97.5256C254.807 100.297 258.514 97.0338 258.514 97.0338Z" fill="#F7D277"/>
<path d="M259.416 63.9919L264.953 115.158C265.243 117.532 267.388 119.24 269.794 118.98L359.258 109.308C361.664 109.048 363.404 106.905 363.172 104.531L357.635 53.365C357.374 50.9616 355.199 49.2243 352.793 49.4849L263.33 59.1562C260.923 59.4168 259.155 61.5886 259.416 63.9919Z" fill="#1C85C8"/>
<path d="M262.402 79.8903C264.257 78.2398 266.924 77.7765 269.214 78.7031L293.276 88.4903C295.74 89.5038 298.523 88.8957 300.35 86.9846L316.671 70.0162C319.019 67.5549 322.585 66.802 325.745 68.0761L360.707 82.062L360.997 84.7839L324.817 70.3058C322.585 69.4081 320.034 69.9583 318.382 71.6957L302.06 88.664C299.538 91.2991 295.711 92.1098 292.319 90.7199L268.258 80.9327C266.808 80.3536 265.127 80.6431 263.967 81.6856L261.532 83.8573L261.213 80.9038L262.402 79.8903Z" fill="#A4CEE9"/>
<path d="M296.001 80.9062C299.77 80.5008 302.524 77.084 302.118 73.3197C301.712 69.5554 298.292 66.8045 294.523 67.2099C290.754 67.6153 288 71.0322 288.406 74.7965C288.812 78.5608 292.204 81.3116 296.001 80.9062ZM294.755 69.5264C297.248 69.2658 299.509 71.0611 299.77 73.5513C300.031 76.0416 298.234 78.3002 295.74 78.5608C293.247 78.8214 290.986 77.0261 290.725 74.5359C290.464 72.0456 292.262 69.816 294.755 69.5264Z" fill="#A4CEE9"/>
<path d="M362.128 90.1388L362.998 89.328C362.186 89.2701 361.258 89.2122 360.795 89.5597C360.128 90.0519 361.519 90.023 362.128 90.1388Z" fill="#F9D78C"/>
<path d="M259.915 210.157L259.803 213.744L256.81 215.164L256.398 209.97L259.915 210.157Z" fill="#EACDB0"/>
<path d="M239.525 209.636L237.467 212.812L235.035 211.243L236.569 207.207L239.525 209.636Z" fill="#EACDB0"/>
<path d="M258.456 140.24C258.456 140.24 263.095 162.774 262.908 178.694C262.721 194.613 261.374 209.935 260.663 210.421C259.953 210.906 256.174 211.168 255.987 210.869C255.8 210.57 252.956 177.348 252.956 177.348C252.956 177.348 250.599 190.316 247.12 196.22C243.64 202.162 239.899 210.607 239.899 210.607C239.899 210.607 235.147 208.926 235.484 206.87C235.821 204.853 244.65 179.852 244.463 171.033C244.276 162.214 242.256 150.106 245.137 144.276C248.093 138.447 258.456 140.24 258.456 140.24Z" fill="#454545"/>
<path d="M269.081 92.8123C269.081 92.8123 271.551 81.863 271.513 81.0409C271.476 80.2187 269.493 77.9766 269.717 76.6312C269.942 75.2859 271.139 78.4624 271.513 78.0887C271.887 77.715 271.925 74.0901 271.925 73.679C271.925 73.0064 272.673 71.8853 273.571 73.0064C274.469 74.1275 275.778 74.6133 275.554 76.6312C275.329 78.6492 273.945 79.8824 273.758 81.7509C273.571 83.6194 274.057 92.177 272.823 94.2697C271.513 96.3251 269.081 92.8123 269.081 92.8123Z" fill="#EACDB0"/>
<path d="M259.579 91.6591L254.49 90.9865L250.375 107.018L256.024 109.335C256.024 109.335 259.766 93.0792 259.579 91.6591Z" fill="#125682"/>
<path d="M253.143 100.063L252.919 104.846H248.766V101.595L253.143 100.063Z" fill="#EACDB0"/>
<path d="M243.79 122.672C244.351 108.434 247.531 105.482 247.943 104.884C248.355 104.286 254.004 104.66 254.004 104.66C254.004 104.66 254.116 105.295 255.276 107.201C257.558 107.089 263.507 104.399 264.779 103.689C266.014 103.016 268.408 91.8797 268.408 91.8797L273.609 93.3371C273.609 93.3371 273.309 96.2146 271.813 101.895C270.279 107.575 266.912 110.34 261.225 114.077C260.813 114.339 260.402 114.6 259.99 114.825C262.198 123.046 259.317 140.61 259.317 140.61C253.555 145.356 244.276 145.244 242.032 144.235C239.749 143.226 243.266 136.91 243.79 122.672Z" fill="#125682"/>
<path d="M265.528 214.451C265.715 214.227 265.715 213.89 265.453 213.741C265.041 213.479 264.33 213.143 263.283 213.143C261.674 213.106 260.29 213.031 258.905 213.778C257.484 214.526 256.212 213.816 256.062 215.31C255.875 216.843 255.912 219.085 260.14 217.44C263.395 216.17 264.929 215.086 265.528 214.451Z" fill="#454545"/>
<path d="M241.47 216.588C241.47 216.588 239.899 217.149 239.113 215.467C238.328 213.785 237.467 210.646 235.971 210.796C234.474 210.908 234.212 211.244 234.025 212.515C233.838 213.785 233.988 217.634 236.42 217.933C238.889 218.232 241.396 217.859 241.807 217.634C242.219 217.41 242.368 216.401 241.47 216.588Z" fill="#454545"/>
<path d="M250.487 93.6039C250.487 93.6039 255.351 97.1167 254.34 99.2094C253.33 101.302 251.871 102.349 250.225 101.788C248.579 101.227 245.922 94.7624 250.487 93.6039Z" fill="#F9D78C"/>
<path d="M250.711 97.7476C250.711 97.7476 252.919 91.3574 250.711 89.9747C248.504 88.6294 246.596 89.1152 245.922 92.0674C245.249 94.9822 242.63 100.289 244.426 101.41C246.259 102.568 250.038 103.54 251.198 101.41C251.235 101.447 247.643 98.7192 250.711 97.7476Z" fill="#454545"/>
</g>
</svg>
