<svg width="380" height="340" viewBox="0 0 380 340" fill="none" xmlns="http://www.w3.org/2000/svg">
<mask id="mask0" mask-type="alpha" maskUnits="userSpaceOnUse" x="0" y="0" width="380" height="340">
<rect width="380" height="339.829" fill="#1C85C8"/>
</mask>
<g mask="url(#mask0)">
<circle cx="189.457" cy="352.314" r="242.657" fill="white"/>
<path d="M119.428 326.769V314.922L111.999 313.912C111.663 312.061 111.159 310.277 110.553 308.561L116.504 303.984L110.587 293.719L103.628 296.58C102.418 295.166 101.107 293.887 99.7287 292.675L102.586 285.709L92.3329 279.785L87.7609 285.742C86.0465 285.137 84.2648 284.665 82.4158 284.295L81.4073 276.857H69.574L68.5655 284.295C66.7165 284.632 64.9348 285.137 63.2203 285.742L58.6484 279.785L48.3279 285.675L51.1853 292.642C49.7734 293.853 48.496 295.166 47.2857 296.546L40.3269 293.685L34.4103 303.95L40.3606 308.527C39.7554 310.244 39.2848 312.028 38.915 313.879L31.4856 314.888V326.735L38.915 327.745C39.2512 329.596 39.7554 331.38 40.3606 333.096L34.4103 337.673L40.3269 347.938L47.2857 345.078C48.496 346.491 49.807 347.77 51.1853 348.982L48.3279 355.949L58.5811 361.872L63.1531 355.915C64.8676 356.521 66.6493 356.992 68.4982 357.362L69.5068 364.8H81.34L82.3486 357.362C84.1975 357.026 85.9792 356.521 87.6937 355.915L92.2657 361.872L102.519 355.949L99.6615 348.982C101.073 347.77 102.351 346.458 103.561 345.078L110.52 347.938L116.437 337.673L110.486 333.096C111.091 331.38 111.562 329.596 111.932 327.745L119.428 326.769ZM75.457 344.909C62.1782 344.909 51.4207 334.14 51.4207 320.845C51.4207 307.551 62.1782 296.781 75.457 296.781C88.7359 296.781 99.4934 307.551 99.4934 320.845C99.4934 334.106 88.7359 344.909 75.457 344.909Z" fill="#E2EEF5"/>
</g>
<mask id="mask1" mask-type="alpha" maskUnits="userSpaceOnUse" x="0" y="0" width="380" height="291">
<rect width="380" height="290.971" rx="10" fill="#1C85C8"/>
</mask>
<g mask="url(#mask1)">
<path d="M251.619 168.286H284.353L290.971 234.514H246.457L251.619 168.286Z" fill="#263238"/>
<path d="M280.814 229.088H295.069C297.595 229.134 299.776 230.546 300.503 232.583C301.594 235.732 298.82 238.857 294.974 238.857H238.107C234.548 238.857 231.831 236.149 232.424 233.162L232.616 232.213C233.075 229.828 277.963 229.041 280.814 229.088Z" fill="#263238"/>
<path d="M235.481 168.072H274.709L280.125 234.939H229.317L235.481 168.072Z" fill="#454545"/>
<path d="M222.451 228.096L289.574 229.025C292.566 229.07 295.149 230.452 296.01 232.445C297.302 235.526 294.016 238.584 289.461 238.584H222.134C217.918 238.584 214.701 235.934 215.403 233.012L215.63 232.083C216.174 229.75 219.074 228.051 222.451 228.096Z" fill="#686868"/>
<path d="M404.084 21.6291V182.364C404.084 183.451 403.427 184.516 402.316 184.516H137.946C136.699 184.516 135.657 183.338 135.657 182.07V18.0275C135.657 16.7816 136.699 15.9888 137.946 15.9888H397.988C401.319 15.9888 403.812 18.3446 404.084 21.6291Z" fill="#686868"/>
<path d="M142.053 169.371H379.089C379.6 169.371 380 168.961 380 168.438V23.7339C380 23.21 379.6 22.8 379.089 22.8H142.053C141.543 22.8 141.143 23.21 141.143 23.7339V168.46C141.143 168.961 141.543 169.371 142.053 169.371Z" fill="white"/>
<path d="M348.971 144.491C348.971 148.885 344.869 152.419 339.816 152.419H182.045C176.992 152.419 172.89 148.863 172.89 144.491V50.1474C172.89 45.753 176.992 42.2194 182.045 42.2194H339.816C344.869 42.2194 348.971 45.7756 348.971 50.1474V144.491Z" fill="#A4CEE9"/>
<path d="M344.461 54.2701H177.4C176.085 54.2701 175.043 55.1988 175.043 56.3314V144.446C175.043 147.798 178.193 150.516 182.045 150.516H339.816C343.691 150.516 346.818 147.798 346.818 144.446V56.3087C346.818 55.1761 345.776 54.2701 344.461 54.2701Z" fill="white"/>
<path d="M320.893 51.5969C322.783 51.5969 324.315 50.0656 324.315 48.1765C324.315 46.2875 322.783 44.7562 320.893 44.7562C319.003 44.7562 317.471 46.2875 317.471 48.1765C317.471 50.0656 319.003 51.5969 320.893 51.5969Z" fill="white"/>
<path d="M329.573 51.5969C331.462 51.5969 332.994 50.0656 332.994 48.1765C332.994 46.2875 331.462 44.7562 329.573 44.7562C327.683 44.7562 326.151 46.2875 326.151 48.1765C326.151 50.0656 327.683 51.5969 329.573 51.5969Z" fill="white"/>
<path d="M338.252 51.5969C340.142 51.5969 341.674 50.0656 341.674 48.1765C341.674 46.2875 340.142 44.7562 338.252 44.7562C336.362 44.7562 334.83 46.2875 334.83 48.1765C334.83 50.0656 336.362 51.5969 338.252 51.5969Z" fill="white"/>
<g opacity="0.8">
<g opacity="0.8">
<path opacity="0.8" d="M267.208 68.4037C267.208 69.3324 266.46 70.0799 265.531 70.0799H186.555C185.626 70.0799 184.878 69.3324 184.878 68.4037V68.3358C184.878 67.407 185.626 66.6595 186.555 66.6595H265.508C266.437 66.6595 267.185 67.407 267.185 68.3358V68.4037H267.208Z" fill="#E2EEF5"/>
<path opacity="0.8" d="M290.776 68.3811C290.776 69.3324 290.005 70.1026 289.053 70.1026H273.054C272.103 70.1026 271.332 69.3324 271.332 68.3811C271.332 67.4297 272.103 66.6595 273.054 66.6595H289.053C290.005 66.6595 290.776 67.4297 290.776 68.3811Z" fill="#E2EEF5"/>
<path opacity="0.8" d="M313.392 68.3811C313.392 69.3324 312.622 70.1026 311.67 70.1026H295.671C294.719 70.1026 293.948 69.3324 293.948 68.3811C293.948 67.4297 294.719 66.6595 295.671 66.6595H311.67C312.622 66.6595 313.392 67.4297 313.392 68.3811Z" fill="#E2EEF5"/>
<path opacity="0.8" d="M204.322 76.2419C204.322 77.1933 203.551 77.9634 202.6 77.9634H186.6C185.649 77.9634 184.878 77.1933 184.878 76.2419C184.878 75.2905 185.649 74.5204 186.6 74.5204H202.6C203.551 74.5204 204.322 75.2905 204.322 76.2419Z" fill="#E2EEF5"/>
<path opacity="0.8" d="M228.048 76.2419C228.048 77.1933 227.278 77.9634 226.326 77.9634H210.327C209.375 77.9634 208.605 77.1933 208.605 76.2419C208.605 75.2905 209.375 74.5204 210.327 74.5204H226.326C227.278 74.5204 228.048 75.2905 228.048 76.2419Z" fill="#E2EEF5"/>
<path opacity="0.8" d="M255.763 85.2335C255.763 86.1848 254.993 86.955 254.041 86.955H238.042C237.09 86.955 236.32 86.1848 236.32 85.2335C236.32 84.2821 237.09 83.512 238.042 83.512H254.041C254.993 83.512 255.763 84.2821 255.763 85.2335Z" fill="#E2EEF5"/>
<path opacity="0.8" d="M285.201 76.2419C285.201 77.1933 284.431 77.9634 283.479 77.9634H239.901C238.949 77.9634 238.178 77.1933 238.178 76.2419C238.178 75.2905 238.949 74.5204 239.901 74.5204H283.501C284.431 74.5204 285.201 75.2905 285.201 76.2419Z" fill="#E2EEF5"/>
<path opacity="0.8" d="M232.037 85.2335C232.037 86.1848 231.267 86.955 230.315 86.955H186.736C185.785 86.955 185.014 86.1848 185.014 85.2335C185.014 84.2821 185.785 83.512 186.736 83.512H230.337C231.267 83.512 232.037 84.2821 232.037 85.2335Z" fill="#E2EEF5"/>
</g>
<g opacity="0.8">
<path opacity="0.8" d="M267.208 119.551C267.208 120.48 266.46 121.227 265.531 121.227H186.555C185.626 121.227 184.878 120.48 184.878 119.551V119.483C184.878 118.554 185.626 117.807 186.555 117.807H265.508C266.437 117.807 267.185 118.554 267.185 119.483V119.551H267.208Z" fill="#E2EEF5"/>
<path opacity="0.8" d="M290.776 119.528C290.776 120.48 290.005 121.25 289.053 121.25H273.054C272.103 121.25 271.332 120.48 271.332 119.528C271.332 118.577 272.103 117.807 273.054 117.807H289.053C290.005 117.807 290.776 118.577 290.776 119.528Z" fill="#E2EEF5"/>
<path opacity="0.8" d="M204.322 127.365C204.322 128.317 203.551 129.087 202.6 129.087H186.6C185.649 129.087 184.878 128.317 184.878 127.365C184.878 126.414 185.649 125.644 186.6 125.644H202.6C203.551 125.667 204.322 126.437 204.322 127.365Z" fill="#E2EEF5"/>
<path opacity="0.8" d="M228.048 127.365C228.048 128.317 227.278 129.087 226.326 129.087H210.327C209.375 129.087 208.605 128.317 208.605 127.365C208.605 126.414 209.375 125.644 210.327 125.644H226.326C227.278 125.667 228.048 126.437 228.048 127.365Z" fill="#E2EEF5"/>
<path opacity="0.8" d="M255.763 136.381C255.763 137.332 254.993 138.102 254.041 138.102H238.042C237.09 138.102 236.32 137.332 236.32 136.381C236.32 135.429 237.09 134.659 238.042 134.659H254.041C254.993 134.659 255.763 135.429 255.763 136.381Z" fill="#E2EEF5"/>
<path opacity="0.8" d="M281.054 136.381C281.054 137.332 280.284 138.102 279.332 138.102H263.333C262.381 138.102 261.61 137.332 261.61 136.381C261.61 135.429 262.381 134.659 263.333 134.659H279.332C280.306 134.659 281.054 135.429 281.054 136.381Z" fill="#E2EEF5"/>
<path opacity="0.8" d="M285.201 127.365C285.201 128.317 284.431 129.087 283.479 129.087H239.901C238.949 129.087 238.178 128.317 238.178 127.365C238.178 126.414 238.949 125.644 239.901 125.644H283.501C284.431 125.667 285.201 126.437 285.201 127.365Z" fill="#E2EEF5"/>
<path opacity="0.8" d="M232.037 136.381C232.037 137.332 231.267 138.102 230.315 138.102H186.736C185.785 138.102 185.014 137.332 185.014 136.381C185.014 135.429 185.785 134.659 186.736 134.659H230.337C231.267 134.659 232.037 135.429 232.037 136.381Z" fill="#E2EEF5"/>
<path opacity="0.8" d="M308.724 136.381C308.724 137.332 307.953 138.102 307.002 138.102H263.423C262.471 138.102 261.701 137.332 261.701 136.381C261.701 135.429 262.471 134.659 263.423 134.659H307.024C307.953 134.659 308.724 135.429 308.724 136.381Z" fill="#E2EEF5"/>
</g>
<g opacity="0.8">
<path opacity="0.8" d="M267.208 99.4142C267.208 100.343 266.46 101.09 265.531 101.09H186.555C185.626 101.09 184.878 100.343 184.878 99.4142V99.3463C184.878 98.4175 185.626 97.67 186.555 97.67H265.508C266.437 97.67 267.185 98.4175 267.185 99.3463V99.4142H267.208Z" fill="#E2EEF5"/>
<path opacity="0.8" d="M204.458 108.226C204.458 109.177 203.687 109.947 202.736 109.947H186.736C185.785 109.947 185.014 109.177 185.014 108.226C185.014 107.274 185.785 106.504 186.736 106.504H202.736C203.687 106.527 204.458 107.297 204.458 108.226Z" fill="#E2EEF5"/>
<path opacity="0.8" d="M328.417 108.226C328.417 109.177 327.646 109.947 326.695 109.947H310.695C309.744 109.947 308.973 109.177 308.973 108.226C308.973 107.274 309.744 106.504 310.695 106.504H326.695C327.646 106.527 328.417 107.297 328.417 108.226Z" fill="#E2EEF5"/>
<path opacity="0.8" d="M256.33 108.226C256.33 109.177 255.559 109.947 254.608 109.947H211.029C210.078 109.947 209.307 109.177 209.307 108.226C209.307 107.274 210.078 106.504 211.029 106.504H254.63C255.559 106.527 256.33 107.297 256.33 108.226Z" fill="#E2EEF5"/>
<path opacity="0.8" d="M305.936 108.226C305.936 109.177 305.166 109.947 304.214 109.947H260.636C259.684 109.947 258.914 109.177 258.914 108.226C258.914 107.274 259.684 106.504 260.636 106.504H304.237C305.166 106.527 305.936 107.297 305.936 108.226Z" fill="#E2EEF5"/>
</g>
</g>
<path d="M142.844 274.526L144.544 274.616C144.771 275.319 145.02 275.998 145.36 276.678C145.677 277.312 146.062 277.901 146.448 278.467L145.496 279.872C144.952 280.687 145.156 281.82 145.994 282.363L151.184 285.852C152 286.395 153.133 286.191 153.677 285.353L154.628 283.949C156.124 284.311 157.688 284.402 159.251 284.243L160.022 285.761C160.475 286.644 161.54 287.007 162.447 286.554L168.021 283.745C168.905 283.292 169.268 282.227 168.815 281.321L168.044 279.804C169.087 278.671 169.925 277.403 170.537 276.021L172.214 276.111C173.211 276.157 174.049 275.409 174.117 274.413L174.457 268.183C174.503 267.187 173.755 266.349 172.758 266.281L171.058 266.19C170.831 265.488 170.582 264.808 170.242 264.129C169.925 263.495 169.54 262.906 169.155 262.339L170.106 260.935C170.65 260.119 170.446 258.987 169.608 258.443L164.418 254.955C163.602 254.411 162.469 254.615 161.925 255.453L160.974 256.858C159.478 256.495 157.914 256.405 156.351 256.563L155.58 255.046C155.127 254.162 154.062 253.8 153.155 254.253L147.581 257.062C146.697 257.515 146.334 258.579 146.788 259.485L147.558 261.003C146.516 262.135 145.677 263.404 145.065 264.786L143.388 264.695C142.391 264.65 141.553 265.397 141.485 266.394L141.145 272.623C141.099 273.62 141.847 274.481 142.844 274.526ZM156.033 266.892C157.982 265.918 160.362 266.688 161.336 268.636C162.311 270.584 161.54 272.963 159.591 273.937C157.642 274.911 155.263 274.141 154.289 272.193C153.314 270.245 154.085 267.889 156.033 266.892Z" fill="#E2EEF5"/>
<path d="M148.011 272.827C147.83 272.102 147.739 271.355 147.717 270.607C147.581 265.035 151.977 260.392 157.552 260.256C157.801 260.256 158.005 260.459 158.005 260.686C158.005 260.935 157.824 261.139 157.574 261.139C152.498 261.275 148.487 265.511 148.601 270.585C148.668 273.031 149.688 275.319 151.456 277.018C153.246 278.717 155.58 279.6 158.028 279.555C163.104 279.419 167.115 275.183 167.002 270.109C167.002 269.86 167.183 269.656 167.432 269.656C167.682 269.656 167.886 269.837 167.886 270.086C168.021 275.659 163.625 280.302 158.05 280.438C155.354 280.506 152.793 279.532 150.821 277.675C149.439 276.338 148.465 274.662 148.011 272.827Z" fill="white"/>
<path d="M152.226 275.885C152.181 275.749 152.226 275.591 152.34 275.477C152.521 275.296 152.793 275.296 152.974 275.455C154.334 276.746 156.124 277.425 158.005 277.38C159.886 277.335 161.631 276.565 162.923 275.183C165.597 272.374 165.483 267.912 162.673 265.239C159.863 262.566 155.399 262.679 152.725 265.488C152.544 265.669 152.272 265.669 152.09 265.511C151.909 265.329 151.909 265.058 152.068 264.876C155.082 261.705 160.113 261.569 163.285 264.582C166.458 267.595 166.594 272.623 163.58 275.795C160.566 278.966 155.535 279.102 152.362 276.089C152.272 276.044 152.249 275.953 152.226 275.885Z" fill="white"/>
<path d="M88.0349 234.997H89.9575V214.436H88.0349V234.997Z" fill="#454545"/>
<path d="M101.945 237.654C101.734 236.864 101.313 235.758 100.364 234.942C98.3364 233.205 95.5974 234.1 91.5414 234.153C85.8525 234.232 86.3529 232.547 82.1389 232.915C75.7916 233.442 70.0237 237.654 70.0237 237.654C70.05 237.654 81.2434 237.654 101.945 237.654Z" fill="#454545"/>
<path d="M138.949 232.729L139.818 235.099L138.396 235.415L137.632 232.993L138.949 232.729Z" fill="#454545"/>
<path d="M85.2472 163.126C85.2472 163.126 71.104 161.863 65.4941 174.762C54.4851 200.088 79.374 228.598 107.292 208.459C113.165 204.221 92.648 185.924 92.648 185.924L85.2472 163.126Z" fill="#686868"/>
<path d="M87.8019 164.231C87.8019 164.231 79.7953 165.942 75.9237 179.789C68.9443 204.773 86.9064 218.488 109.293 205.22C93.7542 200.192 89.7509 183.343 89.7509 183.343L87.8019 164.231Z" fill="#ADA6A6"/>
<path d="M100.813 150.7C102.419 149.831 102.999 150.041 103.868 149.462C105.527 148.383 106.159 145.961 106.08 144.329C105.922 140.696 102.235 137.668 98.8109 136.852C95.3607 136.036 94.5443 137.958 89.6718 137.826C84.8521 137.695 84.457 135.589 80.5327 135.72C76.3188 135.878 71.262 138.537 69.6817 142.591C68.1805 146.435 71.0776 148.278 69.4447 152.858C68.0488 156.754 65.415 156.886 65.1517 159.861C64.8356 163.362 68.1805 166.758 71.0249 168.311C77.0299 171.549 83.7723 168.153 85.5105 167.179C87.8282 165.863 89.3031 164.205 94.7813 157.649C96.4142 155.228 96.4932 154.227 98.0998 152.7C99.3114 151.516 100.549 150.857 100.813 150.7Z" fill="black"/>
<path d="M106.818 173.998L110.847 185.239L119.907 187.398L119.618 189.03L107.397 188.345C107.397 188.345 106.264 185.449 102.656 174.498C105.185 174.735 106.818 173.998 106.818 173.998Z" fill="#EACDB0"/>
<path d="M97.1256 160.467C97.1256 160.467 104.184 159.625 107.318 174.183C106.133 175.657 103.183 175.025 103.183 175.025L98.1001 164.626C98.1001 164.6 93.6754 160.625 97.1256 160.467Z" fill="#1C85C8"/>
<path d="M97.4412 160.702C97.4412 160.702 98.284 159.412 101.629 166.125C104.974 172.865 104.842 177.998 101.339 180.21C97.8362 182.421 99.3638 189.713 99.3638 189.713L84.4305 191.345C84.4305 191.345 80.7432 164.282 85.4576 162.071C90.0667 159.912 91.9103 160.492 91.9103 160.492L97.4412 160.702Z" fill="#1C85C8"/>
<path d="M101.84 148.199C101.84 148.199 103.104 153.438 99.7062 156.439C98.6791 157.334 97.6519 156.913 97.6519 156.913L97.8363 160.598C97.8363 160.598 100.338 163.757 98.3894 167.338C96.4667 170.918 90.3564 160.467 90.3564 160.467C90.3564 160.467 93.9383 159.15 93.3062 154.649C92.7532 154.491 91.647 153.438 92.4634 151.963C93.3062 150.489 93.9647 151.779 93.9647 151.779C93.9647 151.779 93.6223 147.778 97.1778 147.514C100.76 147.304 101.84 148.199 101.84 148.199Z" fill="#EACDB0"/>
<path d="M98.3897 191.083L99.3642 190.214C99.3642 190.214 101.261 193.795 108.345 194.558C115.43 195.322 127.045 196.506 129.626 198.718C132.181 200.903 139.766 232.888 139.766 232.888L136.948 233.994C136.948 233.994 126.755 206.958 123.884 205.299C121.014 203.64 92.2004 203.351 92.2004 203.351L98.3897 191.083Z" fill="#263238"/>
<path d="M106.212 230.44L104.869 233.283L106.238 233.862L108.108 231.256L106.212 230.44Z" fill="#454545"/>
<path d="M99.3641 190.214L84.2464 191.057C84.2464 191.057 81.2439 197.559 83.9567 204.562C86.6694 211.565 113.823 208.169 113.823 208.169L105.896 230.572L108.319 232.072C108.319 232.072 121.514 214.513 124.701 204.325C125.385 197.085 108.477 196.717 102.814 196.032C98.3106 195.506 99.3641 190.214 99.3641 190.214Z" fill="#263238"/>
<path d="M104.658 232.993C104.658 232.993 103.683 233.441 103.578 234.915C103.473 236.389 108.319 238.337 109.346 237.732C110.979 236.81 109.083 237.021 107.502 235.784C106.976 235.362 106.607 234.204 106.449 233.783C106.159 233.125 104.658 232.993 104.658 232.993Z" fill="#EACDB0"/>
<path d="M140.161 234.996C140.161 234.996 138.66 235.18 138.396 235.417C138.133 235.654 138.37 237.233 139.081 237.628C139.792 238.05 144.823 234.812 145.139 233.706C145.06 233.443 140.161 234.996 140.161 234.996Z" fill="#EACDB0"/>
<path d="M87.8016 176.763C87.8016 176.763 88.4337 185.029 88.302 186.214C91.9103 185.766 105 186.951 105 186.951C105 186.951 109.688 186.056 110.215 189.031C107.713 189.083 104.263 188.925 104.263 188.925C103.604 188.952 102.551 189.031 101.234 189.136C101.234 189.136 90.1193 190.716 86.8535 190.874C85.2732 190.953 82.3761 187.056 82.5868 177.395L87.8016 176.763Z" fill="#EACDB0"/>
<path d="M87.4596 161.441C87.4596 161.441 84.2465 161.731 82.3238 164.732C80.4012 167.733 81.7444 178.579 81.7444 178.579C81.7444 178.579 85.9847 177.289 88.9872 177.553C89.672 170.997 87.4596 161.441 87.4596 161.441Z" fill="#1C85C8"/>
<path d="M75.2126 237.627C74.6859 237.496 74.3698 236.969 74.5015 236.443L85.1419 193.742C85.2736 193.216 85.8003 192.9 86.3271 193.031C86.8538 193.163 87.1699 193.69 87.0382 194.216L76.3978 236.916C76.2661 237.443 75.7394 237.759 75.2126 237.627Z" fill="#125682"/>
<path d="M84.3252 190.029C107.924 190.029 131.522 190.029 155.12 190.029C159.124 190.029 159.808 192.162 159.308 193.504C158.834 194.821 154.673 195.163 152.118 195.321C138.317 196.137 123.463 194.242 113.955 193.741C93.5959 192.688 79.4264 197.19 77.4774 194.084C76.9243 193.215 76.819 192.188 78.2149 191.293C80.0848 190.029 82.4289 190.029 84.3252 190.029Z" fill="#125682"/>
<path d="M158.36 237.627C158.887 237.496 159.203 236.969 159.071 236.443L148.431 193.742C148.299 193.216 147.772 192.9 147.246 193.031C146.719 193.163 146.403 193.69 146.534 194.216L157.175 236.916C157.307 237.443 157.833 237.759 158.36 237.627Z" fill="#125682"/>
<path d="M103.341 189.979H123.094C123.515 189.979 123.858 189.637 123.858 189.216C123.858 188.794 123.515 188.452 123.094 188.452H103.341C102.92 188.452 102.577 188.794 102.577 189.216C102.577 189.637 102.92 189.979 103.341 189.979Z" fill="#1C85C8"/>
<path d="M113.981 189.979H131.496C134.472 189.979 137.422 187.53 138.027 184.556L139.792 175.815C140.398 172.841 138.449 170.392 135.446 170.392H117.932C114.956 170.392 112.006 172.841 111.4 175.815L109.636 184.556C109.056 187.557 111.005 189.979 113.981 189.979Z" fill="#1C85C8"/>
<path d="M115.114 189.98H132.628C135.604 189.98 138.554 187.531 139.16 184.557L140.925 175.816C141.53 172.842 139.581 170.393 136.579 170.393H119.065C116.088 170.393 113.139 172.842 112.533 175.816L110.768 184.557C110.189 187.558 112.138 189.98 115.114 189.98Z" fill="#A4CEE9"/>
<path d="M285.541 104.443C285.541 108.837 281.439 112.371 276.386 112.371H118.616C113.562 112.371 109.46 108.815 109.46 104.443V10.0995C109.46 5.70508 113.562 2.17145 118.616 2.17145H276.386C281.439 2.17145 285.541 5.72774 285.541 10.0995V104.443Z" fill="#A4CEE9"/>
<path d="M281.009 14.2222H113.97C112.656 14.2222 111.613 15.1509 111.613 16.2835V104.398C111.613 107.75 114.763 110.468 118.616 110.468H276.386C280.261 110.468 283.388 107.75 283.388 104.398V16.2835C283.388 15.1282 282.323 14.2222 281.009 14.2222Z" fill="white"/>
<path d="M257.463 11.549C259.353 11.549 260.885 10.0177 260.885 8.12863C260.885 6.23961 259.353 4.70825 257.463 4.70825C255.574 4.70825 254.042 6.23961 254.042 8.12863C254.042 10.0177 255.574 11.549 257.463 11.549Z" fill="white"/>
<path d="M266.143 11.549C268.033 11.549 269.565 10.0177 269.565 8.12863C269.565 6.23961 268.033 4.70825 266.143 4.70825C264.253 4.70825 262.721 6.23961 262.721 8.12863C262.721 10.0177 264.253 11.549 266.143 11.549Z" fill="white"/>
<path d="M274.822 11.549C276.712 11.549 278.244 10.0177 278.244 8.12863C278.244 6.23961 276.712 4.70825 274.822 4.70825C272.932 4.70825 271.4 6.23961 271.4 8.12863C271.4 10.0177 272.932 11.549 274.822 11.549Z" fill="white"/>
<path d="M203.756 79.503C203.756 80.4317 203.008 81.1792 202.079 81.1792H123.126C122.197 81.1792 121.449 80.4317 121.449 79.503V79.4351C121.449 78.5064 122.197 77.7589 123.126 77.7589H202.079C203.008 77.7589 203.756 78.5064 203.756 79.4351V79.503Z" fill="#E2EEF5"/>
<path d="M227.346 79.4804C227.346 80.4317 226.576 81.2019 225.624 81.2019H209.625C208.673 81.2019 207.903 80.4317 207.903 79.4804C207.903 78.529 208.673 77.7589 209.625 77.7589H225.624C226.576 77.7589 227.346 78.529 227.346 79.4804Z" fill="#E2EEF5"/>
<path d="M140.869 87.3412C140.869 88.2926 140.099 89.0627 139.147 89.0627H123.148C122.196 89.0627 121.426 88.2926 121.426 87.3412C121.426 86.3898 122.196 85.6197 123.148 85.6197H139.147C140.099 85.6197 140.869 86.3898 140.869 87.3412Z" fill="#E2EEF5"/>
<path d="M164.596 87.3412C164.596 88.2926 163.826 89.0627 162.874 89.0627H146.875C145.923 89.0627 145.153 88.2926 145.153 87.3412C145.153 86.3898 145.923 85.6197 146.875 85.6197H162.874C163.826 85.6197 164.596 86.3898 164.596 87.3412Z" fill="#E2EEF5"/>
<path d="M192.334 96.3327C192.334 97.2841 191.563 98.0542 190.612 98.0542H174.612C173.661 98.0542 172.89 97.2841 172.89 96.3327C172.89 95.3814 173.661 94.6112 174.612 94.6112H190.612C191.563 94.6112 192.334 95.3814 192.334 96.3327Z" fill="#E2EEF5"/>
<path d="M217.624 96.3327C217.624 97.2841 216.854 98.0542 215.902 98.0542H199.903C198.951 98.0542 198.18 97.2841 198.18 96.3327C198.18 95.3814 198.951 94.6112 199.903 94.6112H215.902C216.854 94.6112 217.624 95.3814 217.624 96.3327Z" fill="#E2EEF5"/>
<path d="M221.772 87.3412C221.772 88.2926 221.001 89.0627 220.049 89.0627H176.448C175.497 89.0627 174.726 88.2926 174.726 87.3412C174.726 86.3898 175.497 85.6197 176.448 85.6197H220.049C221.001 85.6197 221.772 86.3898 221.772 87.3412Z" fill="#E2EEF5"/>
<path d="M168.607 96.3327C168.607 97.2841 167.837 98.0542 166.885 98.0542H123.284C122.332 98.0542 121.562 97.2841 121.562 96.3327C121.562 95.3814 122.332 94.6112 123.284 94.6112H166.885C167.837 94.6112 168.607 95.3814 168.607 96.3327Z" fill="#E2EEF5"/>
<path d="M245.271 96.3327C245.271 97.2841 244.501 98.0542 243.549 98.0542H199.971C199.019 98.0542 198.249 97.2841 198.249 96.3327C198.249 95.3814 199.019 94.6112 199.971 94.6112H243.572C244.501 94.6112 245.271 95.3814 245.271 96.3327Z" fill="#E2EEF5"/>
<path d="M203.756 59.3663C203.756 60.295 203.008 61.0425 202.079 61.0425H123.126C122.197 61.0425 121.449 60.295 121.449 59.3663V59.2983C121.449 58.3696 122.197 57.6221 123.126 57.6221H202.079C203.008 57.6221 203.756 58.3696 203.756 59.2983V59.3663Z" fill="#E2EEF5"/>
<path d="M141.005 68.1999C141.005 69.1512 140.235 69.9214 139.283 69.9214H123.284C122.332 69.9214 121.562 69.1512 121.562 68.1999C121.562 67.2485 122.332 66.4783 123.284 66.4783H139.283C140.258 66.4783 141.005 67.2485 141.005 68.1999Z" fill="#E2EEF5"/>
<path d="M264.987 68.1999C264.987 69.1512 264.216 69.9214 263.265 69.9214H247.266C246.314 69.9214 245.543 69.1512 245.543 68.1999C245.543 67.2485 246.314 66.4783 247.266 66.4783H263.265C264.216 66.4783 264.987 67.2485 264.987 68.1999Z" fill="#E2EEF5"/>
<path d="M192.9 68.1999C192.9 69.1512 192.13 69.9214 191.178 69.9214H147.6C146.648 69.9214 145.877 69.1512 145.877 68.1999C145.877 67.2485 146.648 66.4783 147.6 66.4783H191.201C192.13 66.4783 192.9 67.2485 192.9 68.1999Z" fill="#E2EEF5"/>
<path d="M242.484 68.1999C242.484 69.1512 241.714 69.9214 240.762 69.9214H197.183C196.232 69.9214 195.461 69.1512 195.461 68.1999C195.461 67.2485 196.232 66.4783 197.183 66.4783H240.784C241.714 66.4783 242.484 67.2485 242.484 68.1999Z" fill="#E2EEF5"/>
<path opacity="0.4" d="M285.541 14.2222V104.443C285.541 108.815 281.439 112.462 276.386 112.462H234.688C234.688 112.462 259.299 85.1894 247.764 58.0982C236.207 30.9843 271.989 14.3128 271.989 14.3128L285.541 14.2222Z" fill="white"/>
<path d="M124.327 37.8475C124.327 35.152 125.664 32.7736 127.726 31.3239L126.094 28.7189C123.171 30.6896 121.245 34.0647 121.245 37.8475C121.245 38.0967 121.245 38.3911 121.267 38.6177H124.327C124.327 38.4138 124.327 38.0967 124.327 37.8475Z" fill="#686868"/>
<path d="M132.191 26.8387C132.169 26.8387 132.327 26.8387 132.101 26.8387V29.8967C132.327 29.8967 132.169 29.8967 132.191 29.8967C136.565 29.8967 140.123 33.453 140.123 37.8021C140.123 42.1512 136.588 45.7528 132.214 45.7528C128.09 45.7528 124.713 42.4683 124.35 38.6175H121.291C121.676 44.2804 126.435 48.8107 132.237 48.8107C138.287 48.8107 143.182 43.8727 143.182 37.8247C143.182 31.7768 138.242 26.8387 132.191 26.8387Z" fill="#1C85C8"/>
<path d="M132.099 29.8967V26.8387C129.879 26.8387 127.794 27.5409 126.049 28.7188L127.658 31.3237C128.927 30.4403 130.581 29.9194 132.099 29.8967Z" fill="#E2EEF5"/>
<path d="M169.582 37.0547H166.523C166.5 41.132 162.874 44.8016 158.523 44.8016C158.5 44.8016 158.636 44.711 158.41 44.711V47.7689C158.636 47.7689 158.523 47.8595 158.523 47.8595C164.551 47.8595 169.537 42.9441 169.582 37.0547Z" fill="#1C85C8"/>
<path d="M150.523 36.783C150.523 32.4339 154.308 28.9003 158.387 28.8777V25.8197C152.495 25.8424 147.441 30.7577 147.441 36.783C147.441 42.8083 152.495 47.7237 158.387 47.7464V44.6884C154.331 44.6658 150.523 41.1321 150.523 36.783Z" fill="#686868"/>
<path d="M158.568 28.8777C162.942 28.8777 166.5 32.4566 166.5 36.8283C166.5 36.851 166.522 36.7604 166.522 36.9189H169.582C169.582 36.7377 169.582 36.8283 169.582 36.8283C169.582 30.7804 164.619 25.8424 158.568 25.8424C158.546 25.8424 158.659 25.8197 158.478 25.8197V28.8777C158.659 28.8777 158.546 28.8777 158.568 28.8777Z" fill="#E2EEF5"/>
<path d="M187.009 25.8197C186.986 25.8197 187.19 25.8197 186.963 25.8197V28.8777C187.19 28.8777 187.009 28.8777 187.009 28.8777C191.382 28.8777 194.917 32.4339 194.917 36.783C194.917 41.1548 191.382 44.6884 187.009 44.6884C185.196 44.6884 183.519 44.0768 182.204 43.0575L180.278 45.4359C182.136 46.8856 184.47 47.7464 187.009 47.7464C193.059 47.7464 197.977 42.831 197.977 36.783C197.977 30.7351 193.059 25.8197 187.009 25.8197Z" fill="#1C85C8"/>
<path d="M179.054 36.8283C179.054 32.4792 182.635 28.9003 186.895 28.8777V25.8197C180.935 25.8424 175.995 30.803 175.995 36.8283C175.995 36.851 176.04 36.7604 176.04 36.9189H179.1C179.1 36.7604 179.054 36.851 179.054 36.8283Z" fill="#E2EEF5"/>
<path d="M179.1 37.0547H176.041C176.063 40.4525 177.717 43.5557 180.278 45.5491L182.204 43.216C180.324 41.7663 179.122 39.3199 179.1 37.0547Z" fill="#686868"/>
<path d="M273.757 45.2093C273.757 46.7043 272.533 47.9275 271.038 47.9275H209.625C208.129 47.9275 206.906 46.7043 206.906 45.2093V28.6737C206.906 27.1787 208.129 25.9555 209.625 25.9555H271.038C272.533 25.9555 273.757 27.1787 273.757 28.6737V45.2093Z" fill="#E2EEF5"/>
<path d="M249.283 32.0714C249.283 32.7057 248.784 33.204 248.15 33.204H212.118C211.483 33.204 210.985 32.7057 210.985 32.0714C210.985 31.4372 211.483 30.9388 212.118 30.9388H248.15C248.761 30.9388 249.283 31.4372 249.283 32.0714Z" fill="white"/>
<path d="M267.412 32.0714C267.412 32.7057 266.913 33.204 266.279 33.204H255.175C254.54 33.204 254.042 32.7057 254.042 32.0714C254.042 31.4372 254.54 30.9388 255.175 30.9388H266.279C266.891 30.9388 267.412 31.4372 267.412 32.0714Z" fill="#E2EEF5"/>
<path d="M239.289 41.5853C239.289 42.2196 238.79 42.7179 238.178 42.7179H211.778C211.166 42.7179 210.667 42.2196 210.667 41.5853C210.667 40.9511 211.166 40.4528 211.778 40.4528H238.178C238.79 40.4528 239.289 40.9511 239.289 41.5853Z" fill="white"/>
<path d="M269.905 41.5853C269.905 42.2196 269.406 42.7179 268.794 42.7179H242.393C241.782 42.7179 241.283 42.2196 241.283 41.5853C241.283 40.9511 241.782 40.4528 242.393 40.4528H268.794C269.406 40.4528 269.905 40.9511 269.905 41.5853Z" fill="white"/>
<path d="M224.355 36.602C224.355 37.2362 223.856 37.7346 223.222 37.7346H212.118C211.483 37.7346 210.985 37.2362 210.985 36.602C210.985 35.9678 211.483 35.4694 212.118 35.4694H223.222C223.834 35.4694 224.355 35.9678 224.355 36.602Z" fill="#E2EEF5"/>
<path d="M239.085 36.602C239.085 37.2362 238.586 37.7346 237.952 37.7346H226.848C226.213 37.7346 225.715 37.2362 225.715 36.602C225.715 35.9678 226.213 35.4694 226.848 35.4694H237.952C238.564 35.4694 239.085 35.9678 239.085 36.602Z" fill="#E2EEF5"/>
<path d="M256.761 36.602C256.761 37.2362 256.263 37.7346 255.628 37.7346H242.031C241.397 37.7346 240.898 37.2362 240.898 36.602C240.898 35.9678 241.397 35.4694 242.031 35.4694H255.628C256.24 35.4694 256.761 35.9678 256.761 36.602Z" fill="white"/>
<path d="M86.0797 70.1129C86.057 70.1129 86.057 70.1129 86.0344 70.1129C83.6549 63.408 77.2417 58.6285 69.718 58.6285C63.962 58.6285 58.8631 61.4373 55.7131 65.7411C55.6225 65.7411 55.5092 65.7411 55.3959 65.7411C48.1895 65.7411 42.3428 71.5852 42.3428 78.7884C42.3428 85.0176 46.6938 90.2048 52.5405 91.5186C53.2883 91.6998 54.0588 91.7904 54.852 91.813C55.0333 91.813 55.2146 91.8583 55.4185 91.8583C55.5998 91.8583 55.7811 91.8583 55.9851 91.8583H62.8969H76.5845H84.9239C85.1052 91.8583 85.2865 91.8583 85.4905 91.8583C85.6718 91.8583 85.8531 91.8357 86.057 91.8357C88.6178 91.6998 90.9746 90.6804 92.7649 89.0495C94.9857 87.0562 96.368 84.1794 96.368 80.9629C96.368 75.1415 91.8357 70.3847 86.0797 70.1129Z" fill="#E2EEF5"/>
<path d="M64.7552 81.7333L55.7812 77.7693V76.4782L64.7552 71.9932V74.1677L58.5686 77.0218L64.7552 79.5588V81.7333Z" fill="white"/>
<path d="M73.0947 70.3619L68.1771 83.5677H65.6843L70.6019 70.3619H73.0947Z" fill="white"/>
<path d="M73.9783 79.5588L80.1649 77.0218L73.9783 74.1677V71.9932L82.9523 76.4782V77.7693L73.9783 81.7333V79.5588Z" fill="white"/>
<path d="M430.439 238.857H46.1893C45.872 238.857 45.6001 238.608 45.6001 238.268C45.6001 237.951 45.8494 237.679 46.1893 237.679H430.439C430.757 237.679 431.029 237.928 431.029 238.268C431.029 238.608 430.757 238.857 430.439 238.857Z" fill="#686868"/>
</g>
</svg>
