<svg width="489" height="257" viewBox="0 0 489 257" fill="none" xmlns="http://www.w3.org/2000/svg">
<path d="M158 223.701V213.328L151.495 212.444C151.201 210.824 150.759 209.262 150.229 207.759L155.439 203.751L150.259 194.763L144.166 197.268C143.106 196.031 141.958 194.911 140.752 193.85L143.253 187.75L134.276 182.564L130.273 187.78C128.772 187.249 127.212 186.837 125.593 186.512L124.71 180H114.349L113.466 186.512C111.847 186.807 110.287 187.249 108.786 187.78L104.783 182.564L95.7466 187.721L98.2485 193.821C97.0122 194.881 95.8937 196.031 94.8341 197.239L88.7412 194.734L83.5608 203.722L88.7706 207.729C88.2408 209.232 87.8287 210.794 87.505 212.415L81 213.299V223.672L87.505 224.556C87.7993 226.176 88.2408 227.738 88.7706 229.241L83.5608 233.249L88.7412 242.237L94.8341 239.732C95.8937 240.969 97.0417 242.089 98.2485 243.15L95.7466 249.25L104.724 254.436L108.727 249.22C110.228 249.751 111.788 250.163 113.407 250.488L114.29 257H124.651L125.534 250.488C127.153 250.193 128.713 249.751 130.214 249.22L134.217 254.436L143.195 249.25L140.693 243.15C141.929 242.089 143.047 240.94 144.107 239.732L150.2 242.237L155.38 233.249L150.17 229.241C150.7 227.738 151.112 226.176 151.436 224.556L158 223.701ZM119.5 239.584C107.873 239.584 98.4545 230.155 98.4545 218.515C98.4545 206.875 107.873 197.445 119.5 197.445C131.127 197.445 140.545 206.875 140.545 218.515C140.545 230.125 131.127 239.584 119.5 239.584Z" fill="#E2EEF5"/>
<mask id="mask0" mask-type="alpha" maskUnits="userSpaceOnUse" x="0" y="70" width="489" height="187">
<rect y="70" width="489" height="187" fill="#1C85C8"/>
</mask>
<g mask="url(#mask0)">
<circle cx="370.5" cy="538.5" r="463.5" fill="white"/>
</g>
<mask id="mask1" mask-type="alpha" maskUnits="userSpaceOnUse" x="59" y="0" width="419" height="219">
<rect x="59" width="419" height="219" fill="#1C85C8"/>
</mask>
<g mask="url(#mask1)">
</g>
<path d="M186.633 54.7269V199.836C186.633 200.54 186.674 201.244 186.86 201.89C186.881 201.948 186.881 202.027 186.902 202.085C187.48 203.924 188.761 205.509 190.476 206.506C191.716 207.23 193.163 207.66 194.733 207.66H421.951C422.199 207.66 422.426 207.621 422.674 207.602C423.274 207.543 423.914 207.406 424.472 207.21C427.241 206.271 429.266 203.748 429.266 200.814V53.7684C429.266 50.8928 427.344 48.4671 424.699 47.4695C423.873 47.1565 422.902 47 421.951 47H194.754C190.208 47 186.633 50.4233 186.633 54.7269Z" fill="#686868"/>
<path d="M194.922 196.329H408.114C409.976 196.329 411.465 194.824 411.465 192.99V56.1328C411.465 54.2778 409.955 52.7938 408.114 52.7938H194.922C193.06 52.7938 191.571 54.2984 191.571 56.1328V192.99C191.55 194.845 193.06 196.329 194.922 196.329Z" fill="white"/>
<path d="M423.5 217C426.532 217 429 214.402 429 211.165V53.8354C429 50.6187 426.551 48 423.5 48C420.468 48 418 50.5981 418 53.8354V211.185C418 214.381 420.468 217 423.5 217Z" fill="#454545"/>
<path d="M310.136 214.786C310.136 212.542 307.533 210.714 304.29 210.714H68.5998C65.3774 210.714 62.754 212.527 62.754 214.786C62.754 217.031 65.3567 218.859 68.5998 218.859H304.29C307.533 218.859 310.136 217.031 310.136 214.786Z" fill="#454545"/>
<path d="M424.155 214.786C424.155 212.542 421.534 210.714 418.313 210.714H304.779C301.559 210.714 298.937 212.527 298.937 214.786C298.937 217.031 301.538 218.859 304.779 218.859H418.313C421.534 218.859 424.155 217.031 424.155 214.786Z" fill="#686868"/>
<path d="M401.639 218.999H413.066C413.768 218.999 414.347 218.42 414.347 217.716V216.103C414.347 215.4 413.768 214.82 413.066 214.82H401.618C400.916 214.82 400.337 215.4 400.337 216.103V217.716C400.358 218.441 400.936 218.999 401.639 218.999Z" fill="#26004F"/>
<path d="M381.285 214.927H392.733C393.435 214.927 394.014 214.348 394.014 213.644V212.031C394.014 211.327 393.435 210.748 392.733 210.748H381.285C380.583 210.748 380.004 211.327 380.004 212.031V213.644C380.004 214.368 380.583 214.927 381.285 214.927Z" fill="black"/>
<path d="M371.077 212.589H371.594C372.11 212.589 372.544 213.023 372.544 213.54V218.857H370.147V213.54C370.127 213.023 370.56 212.589 371.077 212.589Z" fill="black"/>
<path d="M366.986 212.589H367.482C367.998 212.589 368.432 213.024 368.432 213.541V218.857H366.035V213.541C366.035 213.024 366.448 212.589 366.986 212.589Z" fill="black"/>
<path d="M362.77 212.589H363.287C363.803 212.589 364.237 213.024 364.237 213.541V218.857H361.84V213.541C361.82 213.024 362.254 212.589 362.77 212.589Z" fill="black"/>
<path d="M358.679 212.589H359.195C359.712 212.589 360.146 213.024 360.146 213.541V218.857H357.749V213.541C357.728 213.024 358.142 212.589 358.679 212.589Z" fill="black"/>
<path d="M354.567 212.589H355.083C355.6 212.589 356.034 213.024 356.034 213.541V218.857H353.637V213.541C353.616 213.024 354.05 212.589 354.567 212.589Z" fill="black"/>
<path d="M350.455 212.589H350.971C351.488 212.589 351.922 213.024 351.922 213.541V218.857H349.525V213.541C349.525 213.024 349.938 212.589 350.455 212.589Z" fill="black"/>
<path d="M346.26 212.589H346.777C347.293 212.589 347.727 213.024 347.727 213.541V218.857H345.33V213.541C345.31 213.024 345.744 212.589 346.26 212.589Z" fill="black"/>
<path d="M342.148 212.589H342.664C343.181 212.589 343.615 213.024 343.615 213.541V218.857H341.218V213.541C341.218 213.024 341.631 212.589 342.148 212.589Z" fill="black"/>
<path d="M170.701 211.221H202.358V212.214C202.358 214.242 200.725 215.876 198.7 215.876H174.359C172.334 215.876 170.701 214.242 170.701 212.214V211.221Z" fill="#686868"/>
<path d="M96.5 69.9992C84.6259 69.9992 75 60.3733 75 48.4992C75 36.6251 84.6259 26.9992 96.5 26.9992C108.374 26.9992 118 36.6251 118 48.4992C118 60.3733 108.374 69.9992 96.5 69.9992Z" fill="#E2EEF5"/>
<path d="M102.385 54.5569L113.343 49.7279V48.1533L102.385 42.6769V45.3188L109.935 48.8181L102.385 51.915V54.5569Z" fill="white"/>
<path d="M92.1967 40.6633L98.2087 56.7949H101.267L95.2551 40.6633H92.1967Z" fill="white"/>
<path d="M91.1306 51.9315L83.5807 48.8346L91.1306 45.3354V42.6934L80.1728 48.1698V49.7445L91.1306 54.5734V51.9315Z" fill="white"/>
<path d="M170.267 175.931C170.267 182.675 175.722 188.136 182.459 188.136H392.195C398.932 188.136 404.387 182.675 404.387 175.931V30.9971C404.387 24.2531 398.932 18.7917 392.195 18.7917H182.459C175.722 18.7917 170.267 24.2531 170.267 30.9971V175.931Z" fill="#A4CEE9"/>
<path d="M176.281 37.3078H398.374C400.11 37.3078 401.515 38.7145 401.515 40.4523V175.808C401.515 180.959 397.341 185.138 392.196 185.138H182.459C177.314 185.138 173.14 180.959 173.14 175.808V40.4523C173.119 38.7145 174.545 37.3078 176.281 37.3078Z" fill="white"/>
<path d="M386.017 33.2934C383.278 33.2934 381.058 31.0705 381.058 28.3285C381.058 25.5864 383.278 23.3636 386.017 23.3636C388.756 23.3636 390.976 25.5864 390.976 28.3285C390.976 31.0705 388.756 33.2934 386.017 33.2934Z" fill="white"/>
<path d="M373.412 33.293C370.673 33.293 368.453 31.0701 368.453 28.3281C368.453 25.5861 370.673 23.3632 373.412 23.3632C376.151 23.3632 378.371 25.5861 378.371 28.3281C378.371 31.0701 376.151 33.293 373.412 33.293Z" fill="white"/>
<path d="M360.828 33.293C358.089 33.293 355.869 31.0701 355.869 28.3281C355.869 25.5861 358.089 23.3632 360.828 23.3632C363.567 23.3632 365.787 25.5861 365.787 28.3281C365.787 31.0701 363.567 33.293 360.828 33.293Z" fill="white"/>
<path opacity="0.4" d="M170.267 37.3078V175.932C170.267 182.655 175.723 188.241 182.438 188.241H237.879C237.879 188.241 205.168 146.349 220.501 104.706C235.833 63.0632 188.265 37.4526 188.265 37.4526L170.267 37.3078Z" fill="white"/>
<path d="M184.939 28.5349C184.939 30.0037 186.054 31.0794 187.77 31.0794H345.206C346.921 31.0794 348.182 30.0037 348.182 28.5349V26.0938C348.182 24.6251 346.921 23.4252 345.206 23.4252H187.77C186.054 23.4252 184.939 24.6044 184.939 26.0938V28.5349Z" fill="white"/>
<path d="M316.525 170.927C316.525 172.395 317.723 173.595 319.19 173.595H388.31C389.778 173.595 390.976 172.395 390.976 170.927V49.6796C390.976 48.2108 389.778 47.0109 388.31 47.0109H319.19C317.723 47.0109 316.525 48.2108 316.525 49.6796V170.927Z" fill="#E2EEF5"/>
<path d="M189.154 98.5199H304.705C306.462 98.5199 307.887 97.0925 307.887 95.3341V49.7812C307.887 48.0228 306.462 46.5954 304.705 46.5954H189.154C187.397 46.5954 185.972 48.0228 185.972 49.7812V95.3341C185.972 97.0925 187.397 98.5199 189.154 98.5199ZM304.705 47.6297C305.883 47.6297 306.854 48.602 306.854 49.7812V95.3341C306.854 96.5133 305.883 97.4856 304.705 97.4856H189.154C187.976 97.4856 187.005 96.5133 187.005 95.3341V49.7812C187.005 48.602 187.976 47.6297 189.154 47.6297H304.705Z" fill="#A4CEE9"/>
<path d="M189.071 174.235H304.643C306.4 174.235 307.887 172.353 307.887 170.139V111.305C307.887 109.174 306.42 107.437 304.643 107.437H189.092C187.315 107.437 185.992 109.112 185.992 111.305V170.16C185.972 172.394 187.377 174.235 189.071 174.235ZM304.643 108.45C305.862 108.45 306.854 109.733 306.854 111.284V170.139C306.854 171.732 305.8 173.201 304.643 173.201H189.092C187.976 173.201 187.025 171.794 187.025 170.139V111.305C187.025 109.692 187.914 108.471 189.092 108.471H304.643V108.45Z" fill="#A4CEE9"/>
<path d="M357.894 58.6144C357.894 59.5246 358.617 60.2487 359.526 60.2487H381.264C382.173 60.2487 382.897 59.5246 382.897 58.6144V58.573C382.897 57.6628 382.173 56.9387 381.264 56.9387H359.526C358.617 56.9387 357.894 57.6628 357.894 58.573V58.6144Z" fill="white"/>
<path d="M329.171 58.6149C329.171 59.5252 329.894 60.2492 330.803 60.2492H352.542C353.451 60.2492 354.174 59.5252 354.174 58.6149V58.5736C354.174 57.6633 353.451 56.9393 352.542 56.9393H330.803C329.894 56.9393 329.171 57.6633 329.171 58.5736V58.6149Z" fill="white"/>
<path d="M357.894 73.0961C357.894 74.0063 358.617 74.7303 359.526 74.7303H381.264C382.173 74.7303 382.897 74.0063 382.897 73.0961V73.0547C382.897 72.1444 382.173 71.4204 381.264 71.4204H359.526C358.617 71.4204 357.894 72.1444 357.894 73.0547V73.0961Z" fill="white"/>
<path d="M329.171 73.0965C329.171 74.0067 329.894 74.7308 330.803 74.7308H352.542C353.451 74.7308 354.174 74.0067 354.174 73.0965V73.0551C354.174 72.1449 353.451 71.4208 352.542 71.4208H330.803C329.894 71.4208 329.171 72.1449 329.171 73.0551V73.0965Z" fill="white"/>
<path d="M343.636 66.0609C343.636 66.9712 344.359 67.6952 345.268 67.6952H367.006C367.916 67.6952 368.639 66.9712 368.639 66.0609V66.0196C368.639 65.1093 367.916 64.3853 367.006 64.3853H345.268C344.359 64.3853 343.636 65.1093 343.636 66.0196V66.0609Z" fill="white"/>
<path d="M370.705 66.0406C370.705 66.9508 371.449 67.6956 372.358 67.6956H381.244C382.153 67.6956 382.897 66.9508 382.897 66.0406C382.897 65.1304 382.153 64.3856 381.244 64.3856H372.358C371.449 64.3856 370.705 65.1304 370.705 66.0406Z" fill="white"/>
<path d="M328.345 66.0402C328.345 66.9505 329.088 67.6952 329.998 67.6952H338.883C339.792 67.6952 340.536 66.9505 340.536 66.0402C340.536 65.13 339.792 64.3853 338.883 64.3853H329.998C329.088 64.3853 328.345 65.13 328.345 66.0402Z" fill="white"/>
<path d="M357.894 145.087C357.894 145.997 358.617 146.721 359.526 146.721H381.264C382.173 146.721 382.897 145.997 382.897 145.087V145.045C382.897 144.135 382.173 143.411 381.264 143.411H359.526C358.617 143.411 357.894 144.135 357.894 145.045V145.087Z" fill="white"/>
<path d="M329.171 145.087C329.171 145.998 329.894 146.722 330.803 146.722H352.542C353.451 146.722 354.174 145.998 354.174 145.087V145.046C354.174 144.136 353.451 143.412 352.542 143.412H330.803C329.894 143.412 329.171 144.136 329.171 145.046V145.087Z" fill="white"/>
<path d="M357.894 159.981C357.894 160.892 358.617 161.616 359.526 161.616H381.264C382.173 161.616 382.897 160.892 382.897 159.981V159.94C382.897 159.03 382.173 158.306 381.264 158.306H359.526C358.617 158.306 357.894 159.03 357.894 159.94V159.981Z" fill="white"/>
<path d="M329.171 159.982C329.171 160.892 329.894 161.616 330.803 161.616H352.542C353.451 161.616 354.174 160.892 354.174 159.982V159.941C354.174 159.031 353.451 158.307 352.542 158.307H330.803C329.894 158.307 329.171 159.031 329.171 159.941V159.982Z" fill="white"/>
<path d="M343.636 152.947C343.636 153.857 344.359 154.581 345.268 154.581H367.006C367.916 154.581 368.639 153.857 368.639 152.947V152.905C368.639 151.995 367.916 151.271 367.006 151.271H345.268C344.359 151.271 343.636 151.995 343.636 152.905V152.947Z" fill="white"/>
<path d="M370.705 152.926C370.705 153.837 371.449 154.581 372.358 154.581H381.244C382.153 154.581 382.897 153.837 382.897 152.926C382.897 152.016 382.153 151.271 381.244 151.271H372.358C371.449 151.271 370.705 152.016 370.705 152.926Z" fill="white"/>
<path d="M328.345 152.926C328.345 153.836 329.088 154.581 329.998 154.581H338.883C339.792 154.581 340.536 153.836 340.536 152.926C340.536 152.016 339.792 151.271 338.883 151.271H329.998C329.088 151.271 328.345 152.016 328.345 152.926Z" fill="white"/>
<path d="M248.748 124.193C248.748 125.662 249.946 126.862 251.413 126.862H300.077C301.544 126.862 302.742 125.662 302.742 124.193V115.526C302.742 114.057 301.544 112.857 300.077 112.857H251.413C249.946 112.857 248.748 114.057 248.748 115.526V124.193Z" fill="#E2EEF5"/>
<path d="M248.748 144.012C248.748 145.481 249.946 146.681 251.413 146.681H300.077C301.544 146.681 302.742 145.481 302.742 144.012V135.344C302.742 133.875 301.544 132.675 300.077 132.675H251.413C249.946 132.675 248.748 133.875 248.748 135.344V144.012Z" fill="#E2EEF5"/>
<path d="M248.748 163.811C248.748 165.28 249.946 166.479 251.413 166.479H300.077C301.544 166.479 302.742 165.28 302.742 163.811V155.122C302.742 153.653 301.544 152.454 300.077 152.454H251.413C249.946 152.454 248.748 153.653 248.748 155.122V163.811Z" fill="#E2EEF5"/>
<path d="M190.745 124.193C190.745 125.662 191.943 126.862 193.411 126.862H242.074C243.541 126.862 244.739 125.662 244.739 124.193V115.526C244.739 114.057 243.541 112.857 242.074 112.857H193.411C191.943 112.857 190.745 114.057 190.745 115.526V124.193V124.193Z" fill="#E2EEF5"/>
<path d="M190.745 144.012C190.745 145.481 191.943 146.681 193.411 146.681H242.074C243.541 146.681 244.739 145.481 244.739 144.012V135.344C244.739 133.875 243.541 132.675 242.074 132.675H193.411C191.943 132.675 190.745 133.875 190.745 135.344V144.012V144.012Z" fill="#E2EEF5"/>
<path d="M190.745 163.811C190.745 165.28 191.943 166.479 193.411 166.479H242.074C243.541 166.479 244.739 165.28 244.739 163.811V155.122C244.739 153.653 243.541 152.454 242.074 152.454H193.411C191.943 152.454 190.745 153.653 190.745 155.122V163.811V163.811Z" fill="#E2EEF5"/>
<path d="M322.972 128.537C322.972 130.006 324.171 131.206 325.638 131.206H383.744C385.211 131.206 386.41 130.006 386.41 128.537V87.3288C386.41 85.8601 385.211 84.6602 383.744 84.6602H325.638C324.171 84.6602 322.972 85.8601 322.972 87.3288V128.537Z" fill="#A4CEE9"/>
<path d="M293.753 61.5731C291.608 61.5731 289.869 59.8318 289.869 57.6839C289.869 55.536 291.608 53.7947 293.753 53.7947C295.899 53.7947 297.638 55.536 297.638 57.6839C297.638 59.8318 295.899 61.5731 293.753 61.5731Z" fill="#A4CEE9"/>
<path d="M194.857 57.9725C194.857 58.8827 195.601 59.6274 196.51 59.6274H280.611C281.52 59.6274 282.264 58.8827 282.264 57.9725C282.264 57.0622 281.52 56.3175 280.611 56.3175H196.51C195.601 56.3175 194.857 57.0622 194.857 57.9725Z" fill="#A4CEE9"/>
<path d="M291.013 75.3335C289.496 73.8147 289.496 71.3522 291.013 69.8334C292.53 68.3146 294.99 68.3146 296.507 69.8334C298.024 71.3522 298.024 73.8147 296.507 75.3335C294.99 76.8523 292.53 76.8523 291.013 75.3335Z" fill="#A4CEE9"/>
<path d="M194.857 72.8665C194.857 73.7767 195.601 74.5215 196.51 74.5215H280.611C281.521 74.5215 282.264 73.7767 282.264 72.8665C282.264 71.9563 281.521 71.2115 280.611 71.2115H196.51C195.601 71.2115 194.857 71.9563 194.857 72.8665Z" fill="#A4CEE9"/>
<path d="M289.966 88.4048C289.473 86.3145 290.766 84.2198 292.854 83.7262C294.942 83.2326 297.035 84.527 297.528 86.6174C298.021 88.7078 296.728 90.8025 294.64 91.2961C292.552 91.7897 290.459 90.4952 289.966 88.4048Z" fill="#A4CEE9"/>
<path d="M194.857 87.7625C194.857 88.6727 195.601 89.4174 196.51 89.4174H280.611C281.521 89.4174 282.264 88.6727 282.264 87.7625C282.264 86.8522 281.521 86.1075 280.611 86.1075H196.51C195.601 86.1075 194.857 86.8522 194.857 87.7625Z" fill="#A4CEE9"/>
<path d="M358.204 117.885L347.293 111.575C346.446 111.079 345.909 110.168 345.909 109.175C345.909 108.182 346.425 107.272 347.293 106.776L358.204 100.466C359.051 99.9696 360.229 99.9696 361.097 100.466C361.944 100.963 362.605 101.873 362.605 102.866V115.464C362.605 116.457 361.964 117.367 361.097 117.864C360.229 118.381 359.071 118.381 358.204 117.885Z" fill="white"/>
<path d="M143.012 94.4021C143.012 98.4154 146.752 101.643 151.36 101.643H295.221C299.829 101.643 303.569 98.3947 303.569 94.4021V8.24048C303.569 4.22718 299.829 1 295.221 1H151.36C146.752 1 143.012 4.24787 143.012 8.24048V94.4021V94.4021Z" fill="#A4CEE9"/>
<path d="M147.145 12.0055H299.457C300.655 12.0055 301.606 12.8536 301.606 13.888V94.3607C301.606 97.4224 298.733 99.9048 295.221 99.9048H151.36C147.826 99.9048 144.975 97.4224 144.975 94.3607V13.888C144.975 12.833 145.946 12.0055 147.145 12.0055Z" fill="white"/>
<path d="M168.635 9.56392C166.912 9.56392 165.515 8.16537 165.515 6.44017C165.515 4.71497 166.912 3.31642 168.635 3.31642C170.358 3.31642 171.755 4.71497 171.755 6.44017C171.755 8.16537 170.358 9.56392 168.635 9.56392Z" fill="white"/>
<path d="M160.7 9.56394C158.977 9.56394 157.58 8.16538 157.58 6.44019C157.58 4.71499 158.977 3.31644 160.7 3.31644C162.423 3.31644 163.82 4.71499 163.82 6.44019C163.82 8.16538 162.423 9.56394 160.7 9.56394Z" fill="white"/>
<path d="M152.786 9.56394C151.063 9.56394 149.666 8.16538 149.666 6.44019C149.666 4.71499 151.063 3.31644 152.786 3.31644C154.509 3.31644 155.906 4.71499 155.906 6.44019C155.906 8.16538 154.509 9.56394 152.786 9.56394Z" fill="white"/>
<path d="M217.587 24.9345C217.587 25.7826 218.269 26.4653 219.116 26.4653H291.109C291.956 26.4653 292.638 25.7826 292.638 24.9345V24.8724C292.638 24.0242 291.956 23.3416 291.109 23.3416H219.116C218.269 23.3416 217.587 24.0242 217.587 24.8724V24.9345Z" fill="#E2EEF5"/>
<path d="M196.076 24.8931C196.076 25.7619 196.779 26.4653 197.646 26.4653H212.235C213.103 26.4653 213.805 25.7619 213.805 24.8931C213.805 24.0242 213.103 23.3208 212.235 23.3208H197.646C196.779 23.3208 196.076 24.0242 196.076 24.8931Z" fill="#E2EEF5"/>
<path d="M175.474 24.8931C175.474 25.7619 176.177 26.4653 177.045 26.4653H191.633C192.501 26.4653 193.204 25.7619 193.204 24.8931C193.204 24.0242 192.501 23.3208 191.633 23.3208H177.045C176.177 23.3208 175.474 24.0242 175.474 24.8931Z" fill="#E2EEF5"/>
<path d="M274.929 32.071C274.929 32.9398 275.631 33.6432 276.499 33.6432H291.088C291.956 33.6432 292.658 32.9398 292.658 32.071C292.658 31.2021 291.956 30.4988 291.088 30.4988H276.499C275.631 30.4988 274.929 31.2021 274.929 32.071Z" fill="#E2EEF5"/>
<path d="M253.294 32.071C253.294 32.9398 253.996 33.6432 254.864 33.6432H269.453C270.321 33.6432 271.023 32.9398 271.023 32.071C271.023 31.2021 270.321 30.4988 269.453 30.4988H254.864C253.996 30.4988 253.294 31.2021 253.294 32.071Z" fill="#E2EEF5"/>
<path d="M228.022 40.2848C228.022 41.1537 228.725 41.857 229.593 41.857H244.181C245.049 41.857 245.751 41.1537 245.751 40.2848C245.751 39.416 245.049 38.7126 244.181 38.7126H229.593C228.704 38.7333 228.022 39.416 228.022 40.2848Z" fill="#E2EEF5"/>
<path d="M201.159 32.071C201.159 32.9398 201.862 33.6432 202.73 33.6432H242.487C243.355 33.6432 244.057 32.9398 244.057 32.071C244.057 31.2021 243.355 30.4988 242.487 30.4988H202.73C201.862 30.4988 201.159 31.2021 201.159 32.071Z" fill="#E2EEF5"/>
<path d="M249.636 40.2848C249.636 41.1537 250.339 41.857 251.207 41.857H290.964C291.832 41.857 292.534 41.1537 292.534 40.2848C292.534 39.416 291.832 38.7126 290.964 38.7126H251.207C250.339 38.7333 249.636 39.416 249.636 40.2848Z" fill="#E2EEF5"/>
<path d="M217.587 71.6259C217.587 72.4741 218.269 73.1567 219.116 73.1567H291.108C291.956 73.1567 292.637 72.4741 292.637 71.6259V71.5638C292.637 70.7157 291.956 70.033 291.108 70.033H219.116C218.269 70.033 217.587 70.7157 217.587 71.5638V71.6259Z" fill="#E2EEF5"/>
<path d="M196.076 71.6053C196.076 72.4742 196.779 73.1775 197.647 73.1775H212.235C213.103 73.1775 213.806 72.4742 213.806 71.6053C213.806 70.7364 213.103 70.0331 212.235 70.0331H197.647C196.779 70.0331 196.076 70.7364 196.076 71.6053Z" fill="#E2EEF5"/>
<path d="M274.929 78.7832C274.929 79.6521 275.631 80.3554 276.499 80.3554H291.088C291.956 80.3554 292.658 79.6521 292.658 78.7832C292.658 77.9143 291.956 77.211 291.088 77.211H276.499C275.631 77.211 274.929 77.9143 274.929 78.7832Z" fill="#E2EEF5"/>
<path d="M253.294 78.7832C253.294 79.6521 253.997 80.3554 254.864 80.3554H269.453C270.321 80.3554 271.023 79.6521 271.023 78.7832C271.023 77.9143 270.321 77.211 269.453 77.211H254.864C253.997 77.211 253.294 77.9143 253.294 78.7832Z" fill="#E2EEF5"/>
<path d="M228.022 86.9971C228.022 87.8659 228.725 88.5693 229.593 88.5693H244.181C245.049 88.5693 245.751 87.8659 245.751 86.9971C245.751 86.1282 245.049 85.4248 244.181 85.4248H229.593C228.704 85.4248 228.022 86.1282 228.022 86.9971Z" fill="#E2EEF5"/>
<path d="M204.941 86.9971C204.941 87.8659 205.643 88.5693 206.511 88.5693H221.1C221.968 88.5693 222.67 87.8659 222.67 86.9971C222.67 86.1282 221.968 85.4248 221.1 85.4248H206.511C205.643 85.4248 204.941 86.1282 204.941 86.9971Z" fill="#E2EEF5"/>
<path d="M201.159 78.7832C201.159 79.6521 201.862 80.3554 202.73 80.3554H242.487C243.355 80.3554 244.057 79.6521 244.057 78.7832C244.057 77.9143 243.355 77.211 242.487 77.211H202.73C201.862 77.211 201.159 77.9143 201.159 78.7832Z" fill="#E2EEF5"/>
<path d="M249.636 86.9971C249.636 87.8659 250.339 88.5693 251.207 88.5693H290.964C291.832 88.5693 292.534 87.8659 292.534 86.9971C292.534 86.1282 291.832 85.4248 290.964 85.4248H251.207C250.339 85.4248 249.636 86.1282 249.636 86.9971Z" fill="#E2EEF5"/>
<path d="M179.731 86.9971C179.731 87.8659 180.434 88.5693 181.302 88.5693H221.059C221.927 88.5693 222.629 87.8659 222.629 86.9971C222.629 86.1282 221.927 85.4248 221.059 85.4248H181.302C180.434 85.4248 179.731 86.1282 179.731 86.9971Z" fill="#E2EEF5"/>
<path d="M217.587 53.2337C217.587 54.0819 218.269 54.7646 219.116 54.7646H291.109C291.956 54.7646 292.638 54.0819 292.638 53.2337V53.1717C292.638 52.3235 291.956 51.6408 291.109 51.6408H219.116C218.269 51.6408 217.587 52.3235 217.587 53.1717V53.2337Z" fill="#E2EEF5"/>
<path d="M274.805 61.3021C274.805 62.171 275.507 62.8743 276.375 62.8743H290.964C291.832 62.8743 292.534 62.171 292.534 61.3021C292.534 60.4332 291.832 59.7299 290.964 59.7299H276.355C275.487 59.7299 274.805 60.4332 274.805 61.3021Z" fill="#E2EEF5"/>
<path d="M161.754 61.3021C161.754 62.171 162.456 62.8743 163.324 62.8743H177.913C178.781 62.8743 179.483 62.171 179.483 61.3021C179.483 60.4332 178.781 59.7299 177.913 59.7299H163.324C162.456 59.7299 161.754 60.4332 161.754 61.3021Z" fill="#E2EEF5"/>
<path d="M227.485 61.3021C227.485 62.171 228.188 62.8743 229.055 62.8743H268.812C269.68 62.8743 270.383 62.171 270.383 61.3021C270.383 60.4332 269.68 59.7299 268.812 59.7299H229.055C228.188 59.7299 227.485 60.4332 227.485 61.3021Z" fill="#E2EEF5"/>
<path d="M182.273 61.3021C182.273 62.171 182.976 62.8743 183.843 62.8743H223.58C224.448 62.8743 225.15 62.171 225.15 61.3021C225.15 60.4332 224.448 59.7299 223.58 59.7299H183.823C182.976 59.7299 182.273 60.4332 182.273 61.3021Z" fill="#E2EEF5"/>
<path opacity="0.4" d="M143.012 12.0055V94.4021C143.012 98.3947 146.752 101.725 151.36 101.725H189.381C189.381 101.725 166.941 76.8181 177.458 52.0763C187.976 27.3139 155.348 12.0882 155.348 12.0882L143.012 12.0055Z" fill="white"/>
<path d="M176.384 158.987L204.776 158.615C205.644 158.594 206.326 157.911 206.346 157.042L206.698 139.396C206.718 138.507 206.016 137.783 205.127 137.762L175.33 137.39C174.4 137.369 173.656 138.155 173.718 139.086L174.793 157.477C174.813 158.346 175.516 159.008 176.384 158.987Z" fill="#686868"/>
<path d="M188.741 150.733C190.084 150.733 193.101 150.733 193.927 150.733C194.754 150.733 194.857 151.581 195.146 152.285C196.82 156.484 198.928 160.166 198.349 161.614C198.081 162.318 197.089 162.628 195.456 162.628C193.824 162.628 187.604 162.525 186.612 162.525C185.62 162.525 184.98 162.587 184.629 162.276C183.781 161.304 185.641 161.077 187.15 161.077C188.658 161.077 190.373 161.035 190.621 160.642C190.869 160.249 187.398 150.733 188.741 150.733Z" fill="#454545"/>
<path d="M198.97 204.809L202.606 209.464L199.941 208.512L197.275 206.009L198.97 204.809Z" fill="#1C85C8"/>
<path d="M201.697 209.132C201.697 209.132 200.292 208.47 199.941 208.511C199.589 208.553 198.907 210.063 199.3 210.808C199.693 211.552 205.809 211.532 206.677 210.746C206.76 210.477 201.697 209.132 201.697 209.132Z" fill="#263238"/>
<path d="M152.724 187.576H154.687V208.615H152.724V187.576Z" fill="#686868"/>
<path d="M166.941 211.305C166.734 210.498 166.3 209.381 165.329 208.533C163.263 206.754 160.452 207.664 156.299 207.726C150.472 207.809 150.988 206.092 146.69 206.443C140.202 206.981 134.313 211.305 134.313 211.305C134.313 211.305 145.781 211.305 166.941 211.305Z" fill="black"/>
<path d="M180.351 205.74L179.194 208.077L177.954 207.25L179.194 204.974L180.351 205.74Z" fill="#1C85C8"/>
<path d="M149.852 135.01C149.852 135.01 135.387 133.707 129.643 146.926C118.381 172.867 143.839 202.057 172.375 181.432C178.388 177.087 157.415 158.345 157.415 158.345L149.852 135.01Z" fill="#686868"/>
<path d="M152.476 136.148C152.476 136.148 144.293 137.906 140.326 152.077C133.197 177.646 151.546 191.692 174.442 178.122C158.551 172.971 154.46 155.718 154.46 155.718L152.476 136.148Z" fill="#ADA6A6"/>
<path d="M159.894 146.72L164.172 158.698L173.801 160.994L177.727 160.766C178.636 160.704 179.546 160.994 180.289 161.552L181.426 162.4C181.509 162.463 181.529 162.566 181.509 162.649C181.467 162.752 181.385 162.814 181.281 162.814L173.512 162.752L160.514 162.028C160.514 162.028 159.316 158.966 155.452 147.278C158.159 147.506 159.894 146.72 159.894 146.72Z" fill="#EACDB0"/>
<path d="M149.893 132.715C149.893 132.715 157.105 131.867 160.328 146.741C159.109 148.251 155.389 148.168 155.389 148.168L150.905 136.956C150.905 136.956 146.359 132.88 149.893 132.715Z" fill="#1C85C8"/>
<path d="M149.811 132.012C149.811 132.012 156.795 136.894 158.696 147.651C159.44 151.83 163.077 164.346 163.077 164.346L147.31 166.001C147.31 166.001 134.416 141.383 138.239 137.701C141.979 134.101 144.376 133.605 144.376 133.605L149.811 132.012Z" fill="#1C85C8"/>
<path d="M155.265 119.558C155.265 119.558 156.092 126.633 153.22 129.322C152.435 130.046 151.484 130.17 151.484 130.17L151.877 132.88C151.877 132.88 154.026 134.059 152.579 135.404C149.542 138.259 145.058 133.501 145.058 133.501C145.058 133.501 146.628 132.715 147.041 127.894C147.041 127.894 143.942 123.095 143.942 121.357C143.942 119.64 146.587 118.192 150.203 117.923C152.29 117.882 155.265 119.558 155.265 119.558Z" fill="#EACDB0"/>
<path d="M154.377 162.981L166.321 162.257C166.321 162.257 164.523 167.304 171.776 168.09C179.029 168.856 190.291 169.394 191.778 173.469C193.287 177.544 181.343 206.03 181.343 206.03L178.306 205.41C178.306 205.41 184.567 178.33 181.633 176.634C178.698 174.938 158.985 175.641 158.985 175.641L154.377 162.981Z" fill="#26004F"/>
<path d="M158.365 162.257L146.277 163.125C146.918 166.022 146.153 172.083 152.27 177.379C158.407 182.675 174.586 178.144 176.529 180.254C178.471 182.344 197.358 206.961 197.358 206.961L200.251 205.141C200.251 205.141 187.212 180.337 184.691 175.889C182.191 171.442 169.462 170.242 163.676 169.538C159.047 168.98 158.365 162.257 158.365 162.257Z" fill="black"/>
<path d="M179.525 208.244C179.525 208.244 178.326 207.271 177.954 207.23C177.603 207.189 176.591 208.492 176.797 209.319C177.004 210.147 182.955 211.554 183.988 210.995C184.133 210.767 179.525 208.244 179.525 208.244Z" fill="#263238"/>
<path d="M138.094 149.408C138.094 149.408 130.8 158.428 130.676 159.731C134.623 159.235 148.88 160.538 148.88 160.538C148.88 160.538 154.005 159.545 154.563 162.814C151.856 162.876 148.075 162.69 148.075 162.69C147.351 162.731 146.194 162.814 144.768 162.917C144.768 162.917 126.791 165.668 125.303 164.386C123.836 163.103 126.15 158.924 131.564 149.243L138.094 149.408Z" fill="#EACDB0"/>
<path d="M144.913 137.369C144.913 137.369 141.938 135.942 138.693 137.576C135.428 139.21 130.944 149.471 130.944 149.471C130.944 149.471 135.346 150.547 137.846 152.347C141.855 146.947 144.913 137.369 144.913 137.369Z" fill="#1C85C8"/>
<path d="M148.55 114.075C150.41 114.096 150.844 114.985 153.117 115.813C156.588 117.054 158.138 115.71 158.489 116.682C158.861 117.654 157.621 120.116 155.617 120.943C153.365 121.874 151.67 119.992 150.596 121.274C149.872 122.143 149.831 123.571 149.418 123.529C149.273 123.509 149.149 123.364 149.067 123.136C148.777 122.35 148.529 122.019 147.62 122.702C146.732 123.384 147.517 125.577 147.517 125.577C147.517 125.577 147.847 129.115 146.752 128.846C145.244 128.473 141.876 122.516 142.743 119.33C143.549 116.496 144.335 114.055 148.55 114.075Z" fill="black"/>
<path d="M214.736 211.263C215.273 211.139 215.604 210.581 215.459 210.043L204.569 166.31C204.445 165.772 203.887 165.441 203.35 165.586C202.813 165.71 202.482 166.269 202.627 166.807L213.517 210.539C213.64 211.056 214.198 211.387 214.736 211.263Z" fill="#125682"/>
<path d="M205.417 162.504C181.302 162.504 157.167 162.504 133.052 162.504C128.94 162.504 128.279 164.676 128.775 166.062C129.271 167.407 133.507 167.759 136.131 167.924C150.245 168.772 165.412 166.807 175.144 166.31C195.953 165.235 210.438 169.827 212.442 166.662C213 165.773 213.103 164.738 211.698 163.807C209.735 162.504 207.359 162.504 205.417 162.504Z" fill="#125682"/>
<path d="M129.725 211.263C129.188 211.139 128.857 210.581 129.002 210.043L139.892 166.31C140.016 165.772 140.574 165.441 141.111 165.586C141.648 165.71 141.979 166.269 141.834 166.807L130.944 210.539C130.82 211.056 130.263 211.387 129.725 211.263Z" fill="#125682"/>
<path d="M121.335 119.721L125.344 128.513C125.344 128.513 125.675 134.512 123.608 132.795C121.542 131.078 117.306 122.555 117.306 122.555L121.335 119.721Z" fill="#EACDB0"/>
<path d="M133.94 120.631C133.94 120.631 126.295 139.084 122.844 131.596C122.844 131.596 122.575 129.299 126.853 125.183C131.13 121.066 132.866 117.88 132.866 117.88C132.866 117.88 135.221 117.818 133.94 120.631Z" fill="#EACDB0"/>
<path d="M132.535 118.397C132.535 118.397 132.7 115.149 134.684 114.942C136.668 114.735 137.246 112.977 137.184 114.073C137.143 114.922 136.482 115.501 136.482 115.501C136.482 115.501 138.073 115.501 139.767 115.046C141.462 114.591 142.454 116.328 139.416 117.673C136.379 119.018 135.139 118.666 134.519 119.349C133.878 120.031 132.535 118.397 132.535 118.397Z" fill="#EACDB0"/>
<path d="M110.942 115.687C106.933 107.06 115.88 107.929 117.079 109.563C119.455 112.791 123.154 120.59 123.154 120.59C123.257 120.838 123.174 121.128 122.926 121.252C122.245 121.603 120.839 122.369 119.393 123.569C117.967 124.748 117.037 124.913 116.603 124.913C116.438 124.913 116.293 124.83 116.19 124.686C115.653 123.838 111.685 118.562 110.942 115.687Z" fill="#E2EEF5"/>
<path d="M97.5102 138.63C101.002 124.355 107.036 140.76 107.036 140.76C107.036 140.76 101.746 169.288 100.899 174.811C99.9072 181.369 99.4732 182.9 96.9936 192.044C96.1257 195.209 94.1213 208.593 94.1213 208.593L92.5096 208.8C93.4601 196.822 89.5753 182.197 94.5139 176.342C95.4851 169.971 94.0387 152.904 97.5102 138.63Z" fill="#125682"/>
<path d="M102.304 137.304C104.412 137.221 112.243 137.387 114.351 137.304C115.116 140.097 118.546 163.701 118.835 169.286C119.166 175.906 119.062 182.402 118.442 191.835C118.236 195.124 118.938 208.633 118.938 208.633L117.388 209.171C117.388 201.393 109.536 183.209 113.214 176.506C112.863 170.052 102.655 143.738 102.304 137.304Z" fill="#125682"/>
<path d="M117.306 110.018C113.215 127.768 115.364 141.297 115.364 141.297C115.364 141.297 113.835 141.793 107.925 143.49C102.346 145.083 98.1509 144.71 95.7332 144.421C95.0927 144.338 97.9236 131.036 97.407 128.45C97.0557 126.713 95.2993 113.535 96.4771 110.68C97.655 107.825 101.953 106.853 104.846 105.674C108.297 104.267 116.996 107.246 117.306 110.018Z" fill="#E2EEF5"/>
<path d="M109.66 102.635L105.424 100.504C105.383 100.752 105.321 101.042 105.259 101.393C104.99 102.8 104.102 105.613 103.647 106.172C103.007 106.917 107.594 110.123 109.226 109.461C110.859 108.799 109.722 102.945 109.66 102.635Z" fill="#EACDB0"/>
<path d="M119.207 208.842C119.207 208.842 117.616 208.097 117.223 208.138C116.831 208.2 116.066 209.876 116.5 210.724C116.934 211.572 123.857 211.531 124.828 210.662C124.91 210.373 119.207 208.842 119.207 208.842Z" fill="#263238"/>
<path d="M94.39 208.675C94.39 208.675 92.8815 207.764 92.4889 207.785C92.0963 207.806 91.1664 209.399 91.5177 210.288C91.869 211.178 98.75 211.84 99.8039 211.054C99.9278 210.764 94.39 208.675 94.39 208.675Z" fill="#263238"/>
<path d="M114.392 93.6551C113.152 91.6691 109.681 93.0965 107.325 94.5653C105.548 95.6824 104.288 97.9994 104.763 100.027C104.846 100.337 104.949 100.627 105.094 100.896L108.235 103.73C109.061 104.392 110.198 105.323 111.024 105.219C112.615 105.033 114.165 101.62 114.537 100.213C114.93 98.8269 115.425 95.3101 114.392 93.6551Z" fill="#EACDB0"/>
<path d="M89.1827 114.901C89.5546 116.37 91.683 118.025 92.0549 119.494C86.3518 122.287 84.7813 122.907 84.7813 122.907C84.7813 122.907 86.3931 128.782 97.6755 136.25C98.0474 136.416 98.7293 136.809 98.7293 137.409C98.7293 138.257 99.0393 140.698 99.1219 140.967C99.2459 141.401 98.564 142.146 98.5227 141.257C98.502 140.533 97.9028 145.167 96.7869 145.27C95.6711 145.373 95.3198 145.104 95.5264 143.925C95.7331 142.746 96.291 138.567 95.6298 138.216C89.41 134.906 78.5616 125.038 78.2516 122.576C77.9417 119.928 82.0537 118.087 89.1827 114.901Z" fill="#EACDB0"/>
<path d="M98.2954 119.494C101.023 117.467 103.895 107.951 101.126 107.661C98.4814 107.372 92.3856 111.778 85.4839 115.233C85.0293 115.46 84.8433 115.998 85.0293 116.453C85.3599 117.24 87.8602 122.246 88.2115 122.66C88.4595 122.949 88.8521 123.073 89.224 122.949C90.4845 122.535 96.0844 121.149 98.2954 119.494Z" fill="#E2EEF5"/>
<path d="M109.165 95.7033C109.165 95.7033 112.181 95.8481 113.855 97.1928C115.529 98.5374 115.756 99.5304 117.327 96.6342C118.897 93.7173 117.864 93.3657 115.384 92.1658C112.905 90.966 111.582 90.1178 110.115 89.2489C108.648 88.3801 105.672 88.1939 105.238 89.7247C105.238 89.7247 102.366 90.0557 102.573 93.2002C102.779 96.3446 103.937 102.178 105.259 101.392C105.259 101.392 106.272 99.758 105.776 98.8064C105.28 97.8548 105.672 96.4687 106.21 96.717C106.747 96.9652 107.139 98.1651 107.139 98.9925C107.139 99.82 107.491 100.234 107.697 99.4477C107.883 98.6616 108.4 95.2689 109.165 95.7033Z" fill="#263238"/>
</svg>
